<?xml version="1.0" encoding="UTF-8"?>
<svg version="1.1" xmlns="http://www.w3.org/2000/svg" width="594" height="86">
<path d="M0 0 C196.02 0 392.04 0 594 0 C594 28.38 594 56.76 594 86 C397.98 86 201.96 86 0 86 C0 57.62 0 29.24 0 0 Z " fill="#333333" transform="translate(0,0)"/>
<path d="M0 0 C17.49 0 34.98 0 53 0 C53 16.17 53 32.34 53 49 C35.51 49 18.02 49 0 49 C0 46.03 0 43.06 0 40 C-0.66 40 -1.32 40 -2 40 C-2.33 38.68 -2.66 37.36 -3 36 C-2.01 36 -1.02 36 0 36 C0 24.12 0 12.24 0 0 Z " fill="#343432" transform="translate(344,37)"/>
<path d="M0 0 C17.16 0 34.32 0 52 0 C52 15.84 52 31.68 52 48 C34.84 48 17.68 48 0 48 C0 32.16 0 16.32 0 0 Z " fill="#323232" transform="translate(487,38)"/>
<path d="M0 0 C13.53 0 27.06 0 41 0 C41 12.21 41 24.42 41 37 C27.47 37 13.94 37 0 37 C0 24.79 0 12.58 0 0 Z " fill="#463D32" transform="translate(266,0)"/>
<path d="M0 0 C17.49 0 34.98 0 53 0 C53 16.17 53 32.34 53 49 C35.51 49 18.02 49 0 49 C0 46.03 0 43.06 0 40 C-0.66 40 -1.32 40 -2 40 C-2.33 38.68 -2.66 37.36 -3 36 C-2.01 36 -1.02 36 0 36 C0 24.12 0 12.24 0 0 Z M7 7 C7 19.87 7 32.74 7 46 C19.87 46 32.74 46 46 46 C46 33.13 46 20.26 46 7 C33.13 7 20.26 7 7 7 Z " fill="#E82E24" transform="translate(344,37)"/>
<path d="M0 0 C1.15757812 -0.00257812 2.31515625 -0.00515625 3.5078125 -0.0078125 C4.72210938 -0.00007813 5.93640625 0.00765625 7.1875 0.015625 C8.40179688 0.00789063 9.61609375 0.00015625 10.8671875 -0.0078125 C12.60355469 -0.00394531 12.60355469 -0.00394531 14.375 0 C15.44105469 0.00225586 16.50710938 0.00451172 17.60546875 0.00683594 C20.1875 0.265625 20.1875 0.265625 22.1875 2.265625 C22.5222168 5.04711914 22.5222168 5.04711914 22.63671875 8.55078125 C22.67990234 9.80310547 22.72308594 11.05542969 22.76757812 12.34570312 C22.82075195 14.31700195 22.82075195 14.31700195 22.875 16.328125 C22.92205078 17.64619141 22.96910156 18.96425781 23.01757812 20.32226562 C23.24321563 27.50197707 23.24321563 27.50197707 23.1875 30.265625 C22.1875 31.265625 22.1875 31.265625 19.9375 31.3984375 C19.03 31.39585938 18.1225 31.39328125 17.1875 31.390625 C15.82625 31.39449219 15.82625 31.39449219 14.4375 31.3984375 C12.1875 31.265625 12.1875 31.265625 11.1875 30.265625 C8.37119776 30.05418208 5.57032201 29.88934343 2.75 29.765625 C-5.54369964 29.40002518 -5.54369964 29.40002518 -7.8125 28.265625 C-7.87033842 23.97401453 -7.9060412 19.68250355 -7.9375 15.390625 C-7.95425781 14.16730469 -7.97101563 12.94398437 -7.98828125 11.68359375 C-7.99472656 10.51699219 -8.00117188 9.35039063 -8.0078125 8.1484375 C-8.01828613 7.06965332 -8.02875977 5.99086914 -8.03955078 4.87939453 C-7.58208294 -0.38689654 -4.49973974 0.00952182 0 0 Z " fill="#B0C3D7" transform="translate(269.8125,47.734375)"/>
<path d="M0 0 C3.22886009 -0.11667875 6.45717445 -0.18740546 9.6875 -0.25 C11.05551758 -0.30027344 11.05551758 -0.30027344 12.45117188 -0.3515625 C16.70275392 -0.41340369 19.30399497 -0.39050664 23.0703125 1.72265625 C25.1474832 4.17405406 25.74554501 5.54182036 26.1875 8.6875 C26.49869796 11.00919273 26.49869796 11.00919273 27 13 C27.66 13.33 28.32 13.66 29 14 C29.02685938 16.14576637 29.04633088 18.29162645 29.0625 20.4375 C29.07410156 21.63246094 29.08570313 22.82742187 29.09765625 24.05859375 C29 27 29 27 28 28 C25.81360547 28.07258946 23.62499611 28.08373783 21.4375 28.0625 C19.64119141 28.04896484 19.64119141 28.04896484 17.80859375 28.03515625 C16.88175781 28.02355469 15.95492187 28.01195313 15 28 C14.67 26.68 14.34 25.36 14 24 C12.02 24 10.04 24 8 24 C8 24.99 8 25.98 8 27 C5.69 27 3.38 27 1 27 C-0.0394775 23.8815675 -0.11494838 21.72524414 -0.09765625 18.45703125 C-0.09443359 17.38388672 -0.09121094 16.31074219 -0.08789062 15.20507812 C-0.07951172 14.08552734 -0.07113281 12.96597656 -0.0625 11.8125 C-0.05798828 10.68134766 -0.05347656 9.55019531 -0.04882812 8.38476562 C-0.03703498 5.58979073 -0.0205765 2.7949218 0 0 Z " fill="#FBFCFC" transform="translate(138,4)"/>
<path d="M0 0 C0.98484375 -0.00128906 1.9696875 -0.00257812 2.984375 -0.00390625 C4.02078125 -0.00003906 5.0571875 0.00382813 6.125 0.0078125 C7.67960937 0.00201172 7.67960937 0.00201172 9.265625 -0.00390625 C10.25046875 -0.00261719 11.2353125 -0.00132813 12.25 0 C13.16007812 0.00112793 14.07015625 0.00225586 15.0078125 0.00341797 C17.125 0.1328125 17.125 0.1328125 18.125 1.1328125 C18.21248207 3.05948757 18.23197334 4.98933111 18.22265625 6.91796875 C18.21943359 8.08779297 18.21621094 9.25761719 18.21289062 10.46289062 C18.20451172 11.69458984 18.19613281 12.92628906 18.1875 14.1953125 C18.18298828 15.43087891 18.17847656 16.66644531 18.17382812 17.93945312 C18.16199608 21.00395367 18.14551173 24.06835971 18.125 27.1328125 C14.31251574 27.16168486 10.5000593 27.17956742 6.6875 27.1953125 C5.59888672 27.20369141 4.51027344 27.21207031 3.38867188 27.22070312 C2.35419922 27.22392578 1.31972656 27.22714844 0.25390625 27.23046875 C-0.70443115 27.23570557 -1.66276855 27.24094238 -2.65014648 27.24633789 C-4.875 27.1328125 -4.875 27.1328125 -5.875 26.1328125 C-5.97459621 24.29122227 -6.00580411 22.44584283 -6.0078125 20.6015625 C-6.00910156 19.48136719 -6.01039062 18.36117188 -6.01171875 17.20703125 C-6.00785156 16.02753906 -6.00398438 14.84804688 -6 13.6328125 C-6.00386719 12.45332031 -6.00773437 11.27382812 -6.01171875 10.05859375 C-6.01042969 8.93839844 -6.00914063 7.81820313 -6.0078125 6.6640625 C-6.00668457 5.62830078 -6.00555664 4.59253906 -6.00439453 3.52539062 C-5.7727001 -0.75877063 -3.79639115 0.00470516 0 0 Z " fill="#7391B1" transform="translate(102.875,1.8671875)"/>
<path d="M0 0 C2.78776198 1.37064964 3.87615146 2.55757418 6 5 C6.875 8.3125 6.875 8.3125 7 11 C7.99 10.67 8.98 10.34 10 10 C10.79070037 16.63623525 11.4593254 23.31276263 11 30 C10 31 10 31 7.85546875 31.1328125 C6.97503906 31.13023438 6.09460938 31.12765625 5.1875 31.125 C4.31480469 31.12757812 3.44210938 31.13015625 2.54296875 31.1328125 C0 31 0 31 -4 30 C-4 26.04 -4 22.08 -4 18 C-3.34 17.67 -2.68 17.34 -2 17 C-2.309375 16.13375 -2.309375 16.13375 -2.625 15.25 C-3.08661261 12.48032433 -2.42944945 11.35438733 -1 9 C-0.01 9.33 0.98 9.66 2 10 C2.33 8.02 2.66 6.04 3 4 C0.69 4 -1.62 4 -4 4 C-3.67 5.65 -3.34 7.3 -3 9 C-3.66 9 -4.32 9 -5 9 C-5 11.64 -5 14.28 -5 17 C-5.66 17 -6.32 17 -7 17 C-6.34 17.33 -5.68 17.66 -5 18 C-5 21.96 -5 25.92 -5 30 C-7.2084386 28.79539713 -9.41392408 27.58477012 -11.59765625 26.3359375 C-14.15352504 24.87296086 -14.15352504 24.87296086 -17.5625 23.375 C-20 21 -20 21 -20.36328125 18.3046875 C-20.37400287 15.50991951 -20.25899682 12.78181767 -20 10 C-18.68 10.33 -17.36 10.66 -16 11 C-15.95875 10.113125 -15.9175 9.22625 -15.875 8.3125 C-14.94395325 4.78782303 -13.81568553 3.09911333 -10.875 0.921875 C-7.27452758 -0.84835727 -3.87259364 -0.85750288 0 0 Z " fill="#6889AC" transform="translate(72,48)"/>
<path d="M0 0 C1.07636719 0.00322266 2.15273437 0.00644531 3.26171875 0.00976562 C4.38964844 0.01814453 5.51757812 0.02652344 6.6796875 0.03515625 C7.81535156 0.03966797 8.95101562 0.04417969 10.12109375 0.04882812 C12.93234388 0.0606401 15.7434898 0.07711118 18.5546875 0.09765625 C19.99676691 2.98181508 19.64863637 5.51487153 19.6171875 8.72265625 C19.60816406 9.91117188 19.59914062 11.0996875 19.58984375 12.32421875 C19.57824219 13.23945312 19.56664062 14.1546875 19.5546875 15.09765625 C16.2546875 15.09765625 12.9546875 15.09765625 9.5546875 15.09765625 C9.5546875 19.38765625 9.5546875 23.67765625 9.5546875 28.09765625 C3.6146875 28.09765625 -2.3253125 28.09765625 -8.4453125 28.09765625 C-8.65739225 9.01047877 -8.65739225 9.01047877 -7.4453125 1.09765625 C-4.83580014 -0.20709993 -2.91829965 -0.01535947 0 0 Z " fill="#3F5874" transform="translate(228.4453125,49.90234375)"/>
<path d="M0 0 C7.59 0 15.18 0 23 0 C23 2.64 23 5.28 23 8 C24.65 8.66 26.3 9.32 28 10 C27.45276317 13.37462715 26.9451 15.08235 25 18 C24.731875 18.99 24.46375 19.98 24.1875 21 C22.75132823 24.62822342 21.52053114 25.45440096 18 27 C17.01 27 16.02 27 15 27 C15 26.34 15 25.68 15 25 C13.87851562 25.01740234 13.87851562 25.01740234 12.734375 25.03515625 C11.74953125 25.04417969 10.7646875 25.05320312 9.75 25.0625 C8.28820312 25.07990234 8.28820312 25.07990234 6.796875 25.09765625 C4 25 4 25 0 24 C0 16.08 0 8.16 0 0 Z " fill="#515152" transform="translate(399,50)"/>
<path d="M0 0 C3.3 0 6.6 0 10 0 C10 0.99 10 1.98 10 3 C15.28 3 20.56 3 26 3 C26 3.99 26 4.98 26 6 C27.32 6 28.64 6 30 6 C29.71301899 7.68830317 29.42014974 9.37560572 29.125 11.0625 C28.96257812 12.00222656 28.80015625 12.94195312 28.6328125 13.91015625 C27.93541094 17.31537003 26.95490194 20.65784319 26 24 C17.42 24 8.84 24 0 24 C0 16.08 0 8.16 0 0 Z " fill="#E4C448" transform="translate(52,4)"/>
<path d="M0 0 C8.91 0 17.82 0 27 0 C27 3.63 27 7.26 27 11 C26.34 11 25.68 11 25 11 C25 12.65 25 14.3 25 16 C25.66 16 26.32 16 27 16 C27 19.63 27 23.26 27 27 C23.04 27 19.08 27 15 27 C15.33 26.34 15.66 25.68 16 25 C14.88625 24.9071875 14.88625 24.9071875 13.75 24.8125 C10.16872239 23.75439525 9.15142129 21.96747764 7 19 C6.34 18.67 5.68 18.34 5 18 C5 17.01 5 16.02 5 15 C4.34 15 3.68 15 3 15 C2.67 13.68 2.34 12.36 2 11 C1.01 11.495 1.01 11.495 0 12 C0 8.04 0 4.08 0 0 Z " fill="#52667B" transform="translate(443,0)"/>
<path d="M0 0 C17.16 0 34.32 0 52 0 C52 15.84 52 31.68 52 48 C34.84 48 17.68 48 0 48 C0 32.16 0 16.32 0 0 Z M3 3 C3 17.19 3 31.38 3 46 C18.18 46 33.36 46 49 46 C49 31.81 49 17.62 49 3 C33.82 3 18.64 3 3 3 Z " fill="#ED1C24" transform="translate(487,38)"/>
<path d="M0 0 C3.01333109 1.62256289 5.26132782 3.10074691 7.4375 5.75 C8.33375314 9.33501256 8.16003788 12.53361463 7 16 C4.52263888 18.90032522 2.73600596 20.69402492 -1.10546875 21.37109375 C-3.25 21.4375 -3.25 21.4375 -7 21 C-7.66 20.34 -8.32 19.68 -9 19 C-11.54190002 18.7499227 -11.54190002 18.7499227 -14 19 C-14.33 19.33 -14.66 19.66 -15 20 C-16.65 20 -18.3 20 -20 20 C-20 14.06 -20 8.12 -20 2 C-15.84960938 2.09765625 -15.84960938 2.09765625 -11.69921875 2.1953125 C-7.08577868 1.86148905 -5.01983792 -0.59056917 0 0 Z " fill="#E7E4C5" transform="translate(503,1)"/>
<path d="M0 0 C3.98577441 -0.31426298 5.38908866 0.16183766 8.53125 2.71484375 C10.8590429 6.0560975 11.26229348 9.14028207 11.01171875 13.15625 C10.19201195 16.77495563 8.53895756 18.22954286 5.53125 20.27734375 C1.47218257 21.4370773 -0.53210225 21.69584593 -4.40625 19.96484375 C-5.086875 19.40796875 -5.7675 18.85109375 -6.46875 18.27734375 C-6.46875 17.61734375 -6.46875 16.95734375 -6.46875 16.27734375 C-7.025625 16.77234375 -7.5825 17.26734375 -8.15625 17.77734375 C-10.46875 19.27734375 -10.46875 19.27734375 -15.46875 19.27734375 C-15.46875 13.33734375 -15.46875 7.39734375 -15.46875 1.27734375 C-12.27205492 1.01095249 -9.07479919 0.74951027 -5.875 0.5234375 C-3.91402059 0.38176124 -1.95380016 0.21949337 0 0 Z " fill="#5C5C5C" transform="translate(582.46875,1.72265625)"/>
<path d="M0 0 C3.96 0 7.92 0 12 0 C12 1.98 12 3.96 12 6 C13.98 6 15.96 6 18 6 C18 12.6 18 19.2 18 26 C12.06 26 6.12 26 0 26 C0 17.42 0 8.84 0 0 Z " fill="#FDFDFD" transform="translate(16,3)"/>
<path d="M0 0 C7.59 0 15.18 0 23 0 C23 3.63 23 7.26 23 11 C24.32 11.33 25.64 11.66 27 12 C27.02688151 13.64574566 27.04634123 15.29161413 27.0625 16.9375 C27.07410156 17.85402344 27.08570313 18.77054688 27.09765625 19.71484375 C27 22 27 22 26 23 C24.33570949 23.09823937 22.66718069 23.12973631 21 23.125 C19.63875 23.12886719 19.63875 23.12886719 18.25 23.1328125 C16 23 16 23 15 22 C14.92820036 20.48071962 14.91607993 18.95832518 14.9375 17.4375 C14.94652344 16.61121094 14.95554688 15.78492187 14.96484375 14.93359375 C14.97644531 14.29550781 14.98804688 13.65742187 15 13 C14.00097656 13.01160156 13.00195312 13.02320312 11.97265625 13.03515625 C10.68230469 13.04417969 9.39195312 13.05320312 8.0625 13.0625 C6.77472656 13.07410156 5.48695313 13.08570312 4.16015625 13.09765625 C1 13 1 13 0 12 C-0.14355117 7.99779347 -0.04216403 4.00558317 0 0 Z " fill="#6D94C1" transform="translate(182,56)"/>
<path d="M0 0 C6.6 0 13.2 0 20 0 C20 2.31 20 4.62 20 7 C21.98 7 23.96 7 26 7 C26 10.96 26 14.92 26 19 C22.05872277 15.99218316 19.46742035 13.90863311 18.25 8.9375 C17.26420529 5.6906965 17.26420529 5.6906965 13.875 4.625 C12.92625 4.41875 11.9775 4.2125 11 4 C11.495 4.598125 11.99 5.19625 12.5 5.8125 C14 8 14 8 14 11 C11.61435923 10.42415568 9.33317216 9.77772405 7 9 C9.63253657 13.4850623 11.20714972 15.20268114 16 17 C20 21.32432432 20 21.32432432 20 24 C13.4 24 6.8 24 0 24 C0 16.08 0 8.16 0 0 Z " fill="#FAFBFC" transform="translate(180,4)"/>
<path d="M0 0 C3.01333109 1.62256289 5.26132782 3.10074691 7.4375 5.75 C8.31596051 9.26384204 7.93032428 12.51686588 7 16 C5.5 17.8125 5.5 17.8125 4 19 C3.67 19.99 3.34 20.98 3 22 C2.24976563 21.89558594 1.49953125 21.79117187 0.7265625 21.68359375 C-4.32460882 21.28280812 -7.69747264 21.13669698 -12.0234375 24.00390625 C-14.47336699 26.24675001 -16.78291654 28.52785384 -19 31 C-20.32 29.68 -21.64 28.36 -23 27 C-17.08315098 21.11816193 -17.08315098 21.11816193 -12.5625 20.625 C-11.716875 20.74875 -10.87125 20.8725 -10 21 C-11.08784968 17.75016865 -11.08784968 17.75016865 -13 15 C-13.69087003 8.20644468 -13.69087003 8.20644468 -11.953125 5.171875 C-8.19494715 0.61784772 -5.84754465 -0.56226391 0 0 Z " fill="#BCBCBC" transform="translate(545,1)"/>
<path d="M0 0 C15.51 0 31.02 0 47 0 C47 14.19 47 28.38 47 43 C46.01 43 45.02 43 44 43 C44 29.8 44 16.6 44 3 C30.47 3 16.94 3 3 3 C3 16.2 3 29.4 3 43 C2.01 43 1.02 43 0 43 C0 28.81 0 14.62 0 0 Z " fill="#323232" transform="translate(347,40)"/>
<path d="M0 0 C1.15757812 -0.00257812 2.31515625 -0.00515625 3.5078125 -0.0078125 C4.72210938 -0.00007813 5.93640625 0.00765625 7.1875 0.015625 C8.40179688 0.00789063 9.61609375 0.00015625 10.8671875 -0.0078125 C12.60355469 -0.00394531 12.60355469 -0.00394531 14.375 0 C15.44105469 0.00225586 16.50710938 0.00451172 17.60546875 0.00683594 C20.1875 0.265625 20.1875 0.265625 22.1875 2.265625 C22.33267744 5.1749808 22.37380796 7.985571 22.3125 10.890625 C22.30347656 11.69242188 22.29445313 12.49421875 22.28515625 13.3203125 C22.26156223 15.30221023 22.22569065 17.28395481 22.1875 19.265625 C21.8575 19.265625 21.5275 19.265625 21.1875 19.265625 C21.13851563 18.35039063 21.08953125 17.43515625 21.0390625 16.4921875 C20.96429688 15.30367187 20.88953125 14.11515625 20.8125 12.890625 C20.74289062 11.70726562 20.67328125 10.52390625 20.6015625 9.3046875 C20.48532654 6.16000181 20.48532654 6.16000181 18.1875 4.265625 C15.58649424 4.43902538 14.27047547 5.2033934 12.1875 6.765625 C7.92115818 12.09855227 5.85360779 17.42083477 6.1875 24.265625 C5.5275 24.925625 4.8675 25.585625 4.1875 26.265625 C2.8675 26.265625 1.5475 26.265625 0.1875 26.265625 C-0.8125 21.265625 -0.8125 21.265625 -1.25 18.921875 C-1.82431148 16.20984858 -2.56241248 13.60286692 -3.375 10.953125 C-3.77912109 9.62861328 -3.77912109 9.62861328 -4.19140625 8.27734375 C-4.39636719 7.61347656 -4.60132813 6.94960938 -4.8125 6.265625 C-5.4725 6.265625 -6.1325 6.265625 -6.8125 6.265625 C-6.8125 13.525625 -6.8125 20.785625 -6.8125 28.265625 C-7.1425 28.265625 -7.4725 28.265625 -7.8125 28.265625 C-7.87033842 23.97401453 -7.9060412 19.68250355 -7.9375 15.390625 C-7.95425781 14.16730469 -7.97101563 12.94398437 -7.98828125 11.68359375 C-7.99472656 10.51699219 -8.00117188 9.35039063 -8.0078125 8.1484375 C-8.01828613 7.06965332 -8.02875977 5.99086914 -8.03955078 4.87939453 C-7.58208294 -0.38689654 -4.49973974 0.00952182 0 0 Z " fill="#4A627C" transform="translate(269.8125,47.734375)"/>
<path d="M0 0 C0.66 0 1.32 0 2 0 C2 3.63 2 7.26 2 11 C2.66 11 3.32 11 4 11 C4 8.03 4 5.06 4 2 C4.66 2 5.32 2 6 2 C6 4.64 6 7.28 6 10 C6.66 10 7.32 10 8 10 C8 8.35 8 6.7 8 5 C10.97 5.495 10.97 5.495 14 6 C14.05454409 8.35448675 14.0939279 10.70767875 14.125 13.0625 C14.14820313 14.37347656 14.17140625 15.68445313 14.1953125 17.03515625 C13.99417522 21.11824299 13.27165462 24.14999053 12 28 C8.37 28 4.74 28 1 28 C-0.34070318 25.39939496 -1.67273354 22.79495084 -3 20.1875 C-3.3815625 19.44951172 -3.763125 18.71152344 -4.15625 17.95117188 C-4.5171875 17.23896484 -4.878125 16.52675781 -5.25 15.79296875 C-5.58515625 15.1383667 -5.9203125 14.48376465 -6.265625 13.80932617 C-7 12 -7 12 -7 9 C-5.0625 9.375 -5.0625 9.375 -3 10 C-2.67 10.66 -2.34 11.32 -2 12 C-1.93941406 11.21753906 -1.87882812 10.43507813 -1.81640625 9.62890625 C-1.73261719 8.61699219 -1.64882813 7.60507813 -1.5625 6.5625 C-1.48128906 5.55316406 -1.40007812 4.54382813 -1.31640625 3.50390625 C-1 1 -1 1 0 0 Z " fill="#F6F6F6" transform="translate(283,1)"/>
<path d="M0 0 C5.73937532 0.71742191 10.52878691 1.53449649 16 3 C15.03644647 12.41002278 15.03644647 12.41002278 14 17 C15.32 17.66 16.64 18.32 18 19 C18 22.3 18 25.6 18 29 C17.67 27.68 17.34 26.36 17 25 C15.68 25 14.36 25 13 25 C13 25.99 13 26.98 13 28 C12.34 28 11.68 28 11 28 C11 27.01 11 26.02 11 25 C9.35 25 7.7 25 6 25 C6 23.02 6 21.04 6 19 C3.03 18.01 0.06 17.02 -3 16 C-2.01 10.72 -1.02 5.44 0 0 Z " fill="#6C95C2" transform="translate(23,49)"/>
<path d="M0 0 C0.9075 0.185625 1.815 0.37125 2.75 0.5625 C5.83291129 1.20642402 5.83291129 1.20642402 8.0625 0.375 C10 0 10 0 12.75 1.25 C13.86375 2.11625 13.86375 2.11625 15 3 C15 3.99 15 4.98 15 6 C13.91332031 6.02126953 13.91332031 6.02126953 12.8046875 6.04296875 C8.54138721 7.49771606 7.28198888 10.52003107 5.125 14.3125 C4.70992188 14.98990234 4.29484375 15.66730469 3.8671875 16.36523438 C1.5002668 20.03973026 1.5002668 20.03973026 1.39404297 24.22729492 C1.59400879 24.8122876 1.79397461 25.39728027 2 26 C-1.625 29 -1.625 29 -5 29 C-5 27.35 -5 25.7 -5 24 C-5.61875 24.495 -6.2375 24.99 -6.875 25.5 C-9 27 -9 27 -11 27 C-12.69400829 16.27128086 -5.67978582 8.51967873 0 0 Z " fill="#BB6337" transform="translate(327,48)"/>
<path d="M0 0 C2.31 0.66 4.62 1.32 7 2 C7.95024979 5.69541586 7.95024979 8.30458414 7 12 C7.66 12 8.32 12 9 12 C9 11.01 9 10.02 9 9 C11.88437779 10.29299694 13.87219421 11.65941363 16 14 C14.71480435 16.86697492 13.42870746 18.97607712 11 21 C10.34 21 9.68 21 9 21 C9 20.01 9 19.02 9 18 C8.34 18 7.68 18 7 18 C7 18.66 7 19.32 7 20 C2.38 20 -2.24 20 -7 20 C-7 19.34 -7 18.68 -7 18 C-5.68 18 -4.36 18 -3 18 C-3 16.02 -3 14.04 -3 12 C-4.32 12 -5.64 12 -7 12 C-7.33 11.01 -7.66 10.02 -8 9 C-9.32 9.99 -10.64 10.98 -12 12 C-12 8.7 -12 5.4 -12 2 C-11.21753906 1.93941406 -10.43507813 1.87882813 -9.62890625 1.81640625 C-8.61699219 1.73261719 -7.60507812 1.64882813 -6.5625 1.5625 C-5.55316406 1.48128906 -4.54382813 1.40007813 -3.50390625 1.31640625 C-1.06359221 1.26788532 -1.06359221 1.26788532 0 0 Z " fill="#465E74" transform="translate(327,1)"/>
<path d="M0 0 C3.0625 1.9375 3.0625 1.9375 5 5 C5.69022545 8.15450142 5.73034598 10.85038296 5 14 C2.10799895 17.65305395 -0.11040837 19.74232841 -4.75 20.375 C-8.25406902 19.97068434 -10.2017089 19.03458907 -12.79296875 16.62109375 C-15.01359596 13.63869798 -15.44888471 10.64807888 -15 7 C-11.31496208 0.01113498 -7.5633454 -1.10842131 0 0 Z " fill="#BBBBBB" transform="translate(420,3)"/>
<path d="M0 0 C3.0625 1.9375 3.0625 1.9375 5 5 C5.69022545 8.15450142 5.73034598 10.85038296 5 14 C2.10799895 17.65305395 -0.11040837 19.74232841 -4.75 20.375 C-8.25406902 19.97068434 -10.2017089 19.03458907 -12.79296875 16.62109375 C-15.01359596 13.63869798 -15.44888471 10.64807888 -15 7 C-11.31496208 0.01113498 -7.5633454 -1.10842131 0 0 Z " fill="#BCBCBC" transform="translate(378,3)"/>
<path d="M0 0 C5.7853125 -0.1546875 5.7853125 -0.1546875 11.6875 -0.3125 C13.4986731 -0.38078003 13.4986731 -0.38078003 15.34643555 -0.45043945 C20.06031211 -0.51162787 23.12058895 -0.5214865 27.234375 1.91796875 C29.70355576 6.22810951 29.69942591 9.74007579 29.5625 14.625 C29.57345703 15.48351563 29.58441406 16.34203125 29.59570312 17.2265625 C29.52260398 23.46435599 29.52260398 23.46435599 26.96484375 26.0859375 C26.31644531 26.38757813 25.66804688 26.68921875 25 27 C24.34 26.67 23.68 26.34 23 26 C21.2595583 25.91550372 19.51590278 25.89276976 17.7734375 25.90234375 C16.3800415 25.90609009 16.3800415 25.90609009 14.95849609 25.90991211 C13.77594238 25.91901611 12.59338867 25.92812012 11.375 25.9375 C7.62125 25.958125 3.8675 25.97875 0 26 C0 17.42 0 8.84 0 0 Z M2 1 C2 8.92 2 16.84 2 25 C8.6 25 15.2 25 22 25 C20.25699147 20.19194916 20.25699147 20.19194916 17 17 C15.7625 16.566875 15.7625 16.566875 14.5 16.125 C11.33577731 14.70109979 10.52320149 13.04640297 9 10 C9.8971875 10.495 9.8971875 10.495 10.8125 11 C13.05386471 12.20787988 13.05386471 12.20787988 16 12 C15.38722388 9.03824877 14.74627478 7.61941217 13 5 C15.75 5.4375 15.75 5.4375 19 7 C20.23009357 9.2055362 21.08840135 11.44286811 21.98828125 13.80078125 C23.35359582 16.76862721 25.2817516 18.2633413 28 20 C28 16.04 28 12.08 28 8 C26.02 8 24.04 8 22 8 C22 5.69 22 3.38 22 1 C15.4 1 8.8 1 2 1 Z " fill="#909190" transform="translate(178,3)"/>
<path d="M0 0 C4.62 0 9.24 0 14 0 C14 2.64 14 5.28 14 8 C12.02 8 10.04 8 8 8 C8 14.27 8 20.54 8 27 C5.69 27 3.38 27 1 27 C-0.0394775 23.8815675 -0.11494838 21.72524414 -0.09765625 18.45703125 C-0.09443359 17.38388672 -0.09121094 16.31074219 -0.08789062 15.20507812 C-0.07951172 14.08552734 -0.07113281 12.96597656 -0.0625 11.8125 C-0.05798828 10.68134766 -0.05347656 9.55019531 -0.04882812 8.38476562 C-0.03703511 5.58982124 -0.01909957 2.79490401 0 0 Z " fill="#D5B73C" transform="translate(138,4)"/>
<path d="M0 0 C2.97 0 5.94 0 9 0 C10.44207941 2.88415883 10.09394887 5.41721528 10.0625 8.625 C10.05347656 9.81351563 10.04445312 11.00203125 10.03515625 12.2265625 C10.02355469 13.14179687 10.01195312 14.05703125 10 15 C6.7 15 3.4 15 0 15 C0 19.29 0 23.58 0 28 C-5.94 28 -11.88 28 -18 28 C-18.125 15.25 -18.125 15.25 -17 13 C-16.34 13 -15.68 13 -15 13 C-15 13.66 -15 14.32 -15 15 C-11.37 15 -7.74 15 -4 15 C-4 15.33 -4 15.66 -4 16 C-8.29 16 -12.58 16 -17 16 C-16.67 19.3 -16.34 22.6 -16 26 C-14.02 26 -12.04 26 -10 26 C-10 24.68 -10 23.36 -10 22 C-9.34 22 -8.68 22 -8 22 C-8 23.32 -8 24.64 -8 26 C-6.02 26 -4.04 26 -2 26 C-2.09539062 25.22914062 -2.19078125 24.45828125 -2.2890625 23.6640625 C-2.39992187 22.66117188 -2.51078125 21.65828125 -2.625 20.625 C-2.74101562 19.62726563 -2.85703125 18.62953125 -2.9765625 17.6015625 C-2.98429688 16.74304688 -2.99203125 15.88453125 -3 15 C-2.34 14.34 -1.68 13.68 -1 13 C-0.53513282 9.87803664 -0.53513282 9.87803664 -0.375 6.375 C-0.30023438 5.18648437 -0.22546875 3.99796875 -0.1484375 2.7734375 C-0.09945312 1.85820313 -0.05046875 0.94296875 0 0 Z " fill="#304761" transform="translate(238,50)"/>
<path d="M0 0 C2.64 0 5.28 0 8 0 C7.7834375 0.87011719 7.7834375 0.87011719 7.5625 1.7578125 C6.49110572 6.26659675 5.76054064 10.33054247 6 15 C10.455 15.99 10.455 15.99 15 17 C15 18.32 15 19.64 15 21 C13.42032193 21.67528223 11.83608097 22.33989694 10.25 23 C8.92742188 23.556875 8.92742188 23.556875 7.578125 24.125 C5 25 5 25 1 25 C-0.0063655 22.56495491 -1.00526413 20.12729136 -2 17.6875 C-2.42925781 16.65206055 -2.42925781 16.65206055 -2.8671875 15.59570312 C-4.08910744 12.58454326 -5 10.28113016 -5 7 C-3.35 6.67 -1.7 6.34 0 6 C0 4.02 0 2.04 0 0 Z " fill="#986924" transform="translate(14,51)"/>
<path d="M0 0 C0.79070037 6.63623525 1.4593254 13.31276263 1 20 C0 21 0 21 -2.14453125 21.1328125 C-3.02496094 21.13023438 -3.90539062 21.12765625 -4.8125 21.125 C-5.68519531 21.12757812 -6.55789062 21.13015625 -7.45703125 21.1328125 C-9.78654215 21.01114834 -11.76938015 20.65514709 -14 20 C-14.82702187 15.7588622 -15.1272081 12.20141199 -14 8 C-10.77691545 5.09394016 -4.61101154 0 0 0 Z " fill="#CEB232" transform="translate(82,58)"/>
<path d="M0 0 C2.92879371 0.62759865 5.36095629 1.58622659 8 3 C7.31238981 6.65564909 5.74550455 9.51867272 3.9375 12.75 C3.38964844 13.73484375 2.84179688 14.7196875 2.27734375 15.734375 C1.85582031 16.48203125 1.43429687 17.2296875 1 18 C0.34 18 -0.32 18 -1 18 C-1.20625 18.70125 -1.4125 19.4025 -1.625 20.125 C-3.37300894 23.77992778 -5.73278064 26.58076124 -9 29 C-9.99 29 -10.98 29 -12 29 C-11.75352178 22.65318593 -11.43412914 18.8036399 -7 14 C-4.25204056 9.53250905 -1.75739623 4.95266209 0 0 Z " fill="#ECE496" transform="translate(372,48)"/>
<path d="M0 0 C1.08152344 0.01417969 2.16304687 0.02835938 3.27734375 0.04296875 C4.90349609 0.05263672 4.90349609 0.05263672 6.5625 0.0625 C9.21484375 0.23046875 9.21484375 0.23046875 10.21484375 1.23046875 C10.31377315 3.39527672 10.34455475 5.5634066 10.33984375 7.73046875 C10.34242188 8.91640625 10.345 10.10234375 10.34765625 11.32421875 C10.21484375 14.23046875 10.21484375 14.23046875 9.21484375 15.23046875 C7.05003578 15.32939815 4.8819059 15.36017975 2.71484375 15.35546875 C1.52890625 15.35804687 0.34296875 15.360625 -0.87890625 15.36328125 C-3.78515625 15.23046875 -3.78515625 15.23046875 -4.78515625 14.23046875 C-4.91030553 12.25427428 -4.96088385 10.27308702 -4.97265625 8.29296875 C-4.98683594 7.21144531 -5.00101563 6.12992187 -5.015625 5.015625 C-4.69619975 1.15545201 -3.86017299 0.31942525 0 0 Z " fill="#C6A50E" transform="translate(517.78515625,63.76953125)"/>
<path d="M0 0 C0.9796875 0.01417969 1.959375 0.02835938 2.96875 0.04296875 C3.9484375 0.04941406 4.928125 0.05585938 5.9375 0.0625 C8.46875 0.23046875 8.46875 0.23046875 10.46875 1.23046875 C10.49560938 3.37623512 10.51508088 5.5220952 10.53125 7.66796875 C10.54285156 8.86292969 10.55445313 10.05789062 10.56640625 11.2890625 C10.46875 14.23046875 10.46875 14.23046875 9.46875 15.23046875 C7.30394203 15.32939815 5.13581215 15.36017975 2.96875 15.35546875 C1.7828125 15.35804687 0.596875 15.360625 -0.625 15.36328125 C-3.53125 15.23046875 -3.53125 15.23046875 -4.53125 14.23046875 C-4.65639928 12.25427428 -4.7069776 10.27308702 -4.71875 8.29296875 C-4.73292969 7.21144531 -4.74710938 6.12992188 -4.76171875 5.015625 C-4.45746716 1.33882192 -3.71689831 0.3384213 0 0 Z " fill="#CFB233" transform="translate(156.53125,16.76953125)"/>
<path d="M0 0 C2.64 0 5.28 0 8 0 C7.34 1.65 6.68 3.3 6 5 C7.32 5.99 8.64 6.98 10 8 C11.32 7.34 12.64 6.68 14 6 C14 8.64 14 11.28 14 14 C13.01 14 12.02 14 11 14 C9.66018514 14.3062434 8.32488113 14.63451555 7 15 C7 15.99 7 16.98 7 18 C7 18.33 7 18.66 7 19 C3.09658749 19.30615 0.63278258 19.33014743 -2.875 17.5 C-5.84819293 14.00212596 -5.7731801 11.53639798 -6 7 C-4.35 7 -2.7 7 -1 7 C-0.31292445 4.50935112 0 2.62113708 0 0 Z " fill="#BCBDBD" transform="translate(453,3)"/>
<path d="M0 0 C15 0 15 0 19.41015625 2.75390625 C23.25577807 7.63190977 22.77264062 13.00440614 22.4375 18.9375 C22.40591797 20.00291016 22.37433594 21.06832031 22.34179688 22.16601562 C22.25978935 24.77854121 22.13424722 27.38963741 22 30 C14.74 30 7.48 30 0 30 C0 20.1 0 10.2 0 0 Z M2 2 C2 10.58 2 19.16 2 28 C7.94 28 13.88 28 20 28 C20 21.4 20 14.8 20 8 C18.02 8 16.04 8 14 8 C14 6.02 14 4.04 14 2 C10.04 2 6.08 2 2 2 Z " fill="#787878" transform="translate(14,1)"/>
<path d="M0 0 C5.94 0 11.88 0 18 0 C18 3.63 18 7.26 18 11 C12.06 11 6.12 11 0 11 C0 7.37 0 3.74 0 0 Z " fill="#D5D5D5" transform="translate(100,3)"/>
<path d="M0 0 C1.98 0 3.96 0 6 0 C6.12117188 0.58007812 6.24234375 1.16015625 6.3671875 1.7578125 C7.33735474 6.28028442 8.43397783 10.63750966 10 15 C14.3590077 11.51279384 14.94552183 8.27239085 16 3 C20.62 3 25.24 3 30 3 C30 4.65 30 6.3 30 8 C28.01432292 7.96744792 26.02864583 7.93489583 24.04296875 7.90234375 C21.79694539 7.91736783 21.79694539 7.91736783 19 9 C16.09192918 13.36210623 14.51642265 16.70666782 14 22 C12.02 22 10.04 22 8 22 C7.89042969 21.41992188 7.78085937 20.83984375 7.66796875 20.2421875 C6.6936018 15.4416479 5.63115888 11.20985421 3 7 C2.01 6.67 1.02 6.34 0 6 C0 4.02 0 2.04 0 0 Z " fill="#819581" transform="translate(497,48)"/>
<path d="M0 0 C5.28557366 -0.50338797 7.90950339 0.65323004 12 4 C14.25497853 6.74519126 14 8.29470687 14 11.9375 C13.43999084 15.38123448 12.85809118 16.16613715 10.4375 19 C6.10577042 21.52027903 3.91444203 21.4236588 -1 21 C-1.33 20.34 -1.66 19.68 -2 19 C-0.35 19 1.3 19 3 19 C2.97679687 17.94039062 2.95359375 16.88078125 2.9296875 15.7890625 C2.91093056 14.4010487 2.89273028 13.0130273 2.875 11.625 C2.85824219 10.92632812 2.84148437 10.22765625 2.82421875 9.5078125 C2.80655733 7.67102514 2.89696739 5.83398037 3 4 C3.66 3.34 4.32 2.68 5 2 C3.35 1.67 1.7 1.34 0 1 C0 0.67 0 0.34 0 0 Z " fill="#BBBBBB" transform="translate(497,1)"/>
<path d="M0 0 C1.051875 0.12375 2.10375 0.2475 3.1875 0.375 C3.5175 1.035 3.8475 1.695 4.1875 2.375 C3.5275 2.375 2.8675 2.375 2.1875 2.375 C2.1875 7.985 2.1875 13.595 2.1875 19.375 C-3.8125 19.375 -3.8125 19.375 -6.6875 17.375 C-8.91016847 14.23711511 -9.56391712 12.23808977 -9.29296875 8.37890625 C-8.05576113 3.21884522 -5.40440546 0.53158087 0 0 Z " fill="#E1E1E1" transform="translate(540.8125,1.625)"/>
<path d="M0 0 C2.64 0.99 5.28 1.98 8 3 C8 3.66 8 4.32 8 5 C9.175625 5.4640625 9.175625 5.4640625 10.375 5.9375 C13 7 13 7 15 8 C15 11.96 15 15.92 15 20 C12.7915614 18.79539713 10.58607592 17.58477012 8.40234375 16.3359375 C5.84647496 14.87296086 5.84647496 14.87296086 2.4375 13.375 C0 11 0 11 -0.36328125 8.3046875 C-0.37400287 5.50991951 -0.25899682 2.78181767 0 0 Z " fill="#CBA301" transform="translate(52,58)"/>
<path d="M0 0 C4.29 0 8.58 0 13 0 C13 4.29 13 8.58 13 13 C3.72265625 13.09765625 3.72265625 13.09765625 1 13 C0 12 0 12 -0.09765625 9.27734375 C-0.06510417 6.18489583 -0.03255208 3.09244792 0 0 Z " fill="#527552" transform="translate(221,17)"/>
<path d="M0 0 C3.3 0 6.6 0 10 0 C8.515 1.98 8.515 1.98 7 4 C7.99 4.33 8.98 4.66 10 5 C10 6.32 10 7.64 10 9 C11.98 9 13.96 9 16 9 C16 7.68 16 6.36 16 5 C16.66 5 17.32 5 18 5 C18 9.29 18 13.58 18 18 C13.71 18 9.42 18 5 18 C5 17.34 5 16.68 5 16 C6.32 16 7.64 16 9 16 C9 14.02 9 12.04 9 10 C7.68 10 6.36 10 5 10 C4.67 9.01 4.34 8.02 4 7 C2.68 7.99 1.36 8.98 0 10 C0 6.7 0 3.4 0 0 Z " fill="#F0DB42" transform="translate(315,3)"/>
<path d="M0 0 C6.6 0 13.2 0 20 0 C20 1.98 20 3.96 20 6 C19.67 5.01 19.34 4.02 19 3 C13.39 3 7.78 3 2 3 C2 8.94 2 14.88 2 21 C7.61 21 13.22 21 19 21 C19.33 21.99 19.66 22.98 20 24 C13.4 24 6.8 24 0 24 C0 16.08 0 8.16 0 0 Z " fill="#E0E8F7" transform="translate(180,4)"/>
<path d="M0 0 C0.33 0 0.66 0 1 0 C1.625 3.0625 1.625 3.0625 1 7 C-1.24200713 9.04485722 -3.62103431 10.55188399 -6.1953125 12.15625 C-9.83545382 14.54921198 -12.80492604 17.44126833 -15.89453125 20.49609375 C-18.45385869 22.32418478 -19.92218495 22.30617008 -23 22 C-21.66182195 18.02031425 -19.99662286 15.61251238 -17 12.6875 C-16.29875 11.99011719 -15.5975 11.29273438 -14.875 10.57421875 C-13 9 -13 9 -11 9 C-11 8.34 -11 7.68 -11 7 C-10.37351563 6.66226563 -9.74703125 6.32453125 -9.1015625 5.9765625 C-8.28429687 5.53054687 -7.46703125 5.08453125 -6.625 4.625 C-5.81289062 4.18414062 -5.00078125 3.74328125 -4.1640625 3.2890625 C-1.89185698 2.0556107 -1.89185698 2.0556107 0 0 Z " fill="#82A4C8" transform="translate(163,49)"/>
<path d="M0 0 C1.65 0.33 3.3 0.66 5 1 C5 2.32 5 3.64 5 5 C4.01 5 3.02 5 2 5 C1.773125 5.825 1.54625 6.65 1.3125 7.5 C0.20168472 10.46217407 -0.89362947 12.47770604 -2.625 15.0625 C-4.76827528 18.31779346 -5.11167298 20.09144564 -5 24 C-7.04424538 25.97610386 -8.1176825 27 -11 27 C-12.69400829 16.27128086 -5.67978582 8.51967873 0 0 Z " fill="#AC815A" transform="translate(327,48)"/>
<path d="M0 0 C5.28 0 10.56 0 16 0 C16 2.97 16 5.94 16 9 C10.72 9 5.44 9 0 9 C0 6.03 0 3.06 0 0 Z " fill="#616161" transform="translate(403,51)"/>
<path d="M0 0 C3.63 0 7.26 0 11 0 C12.12860038 5.64300192 11.52433626 6.83858591 9.0625 11.8125 C8.49660156 12.97394531 7.93070312 14.13539062 7.34765625 15.33203125 C6.90292969 16.21246094 6.45820313 17.09289062 6 18 C3.00502811 16.50251406 2.60492085 14.28663353 1.3125 11.25 C0.85488281 10.20328125 0.39726562 9.1565625 -0.07421875 8.078125 C-1 5 -1 5 0 0 Z " fill="#CCD6E1" transform="translate(267,49)"/>
<path d="M0 0 C0.9075 0.00257812 1.815 0.00515625 2.75 0.0078125 C4.11125 0.00394531 4.11125 0.00394531 5.5 0 C7.75 0.1328125 7.75 0.1328125 8.75 1.1328125 C8.84823937 2.79710301 8.87973631 4.46563181 8.875 6.1328125 C8.87757813 7.0403125 8.88015625 7.9478125 8.8828125 8.8828125 C8.75 11.1328125 8.75 11.1328125 7.75 12.1328125 C6.08570949 12.23105187 4.41718069 12.26254881 2.75 12.2578125 C1.38875 12.26167969 1.38875 12.26167969 0 12.265625 C-2.25 12.1328125 -2.25 12.1328125 -3.25 11.1328125 C-3.34823937 9.46852199 -3.37973631 7.79999319 -3.375 6.1328125 C-3.37757813 5.2253125 -3.38015625 4.3178125 -3.3828125 3.3828125 C-3.20347538 0.34463064 -3.03818186 0.17933712 0 0 Z " fill="#C8A91F" transform="translate(284.25,66.8671875)"/>
<path d="M0 0 C0.9075 0.00257812 1.815 0.00515625 2.75 0.0078125 C4.11125 0.00394531 4.11125 0.00394531 5.5 0 C7.75 0.1328125 7.75 0.1328125 8.75 1.1328125 C8.84823937 2.79710301 8.87973631 4.46563181 8.875 6.1328125 C8.87757813 7.0403125 8.88015625 7.9478125 8.8828125 8.8828125 C8.75 11.1328125 8.75 11.1328125 7.75 12.1328125 C6.08570949 12.23105187 4.41718069 12.26254881 2.75 12.2578125 C1.38875 12.26167969 1.38875 12.26167969 0 12.265625 C-2.25 12.1328125 -2.25 12.1328125 -3.25 11.1328125 C-3.34823937 9.46852199 -3.37973631 7.79999319 -3.375 6.1328125 C-3.37757813 5.2253125 -3.38015625 4.3178125 -3.3828125 3.3828125 C-3.20347538 0.34463064 -3.03818186 0.17933712 0 0 Z " fill="#C4A517" transform="translate(242.25,66.8671875)"/>
<path d="M0 0 C0.9075 0.00257812 1.815 0.00515625 2.75 0.0078125 C4.11125 0.00394531 4.11125 0.00394531 5.5 0 C7.75 0.1328125 7.75 0.1328125 8.75 1.1328125 C8.84823937 2.79710301 8.87973631 4.46563181 8.875 6.1328125 C8.87757813 7.0403125 8.88015625 7.9478125 8.8828125 8.8828125 C8.75 11.1328125 8.75 11.1328125 7.75 12.1328125 C6.08570949 12.23105187 4.41718069 12.26254881 2.75 12.2578125 C1.38875 12.26167969 1.38875 12.26167969 0 12.265625 C-2.25 12.1328125 -2.25 12.1328125 -3.25 11.1328125 C-3.34823937 9.46852199 -3.37973631 7.79999319 -3.375 6.1328125 C-3.37757813 5.2253125 -3.38015625 4.3178125 -3.3828125 3.3828125 C-3.20347538 0.34463064 -3.03818186 0.17933712 0 0 Z " fill="#C4A417" transform="translate(158.25,66.8671875)"/>
<path d="M0 0 C0.9075 0.00257812 1.815 0.00515625 2.75 0.0078125 C4.11125 0.00394531 4.11125 0.00394531 5.5 0 C7.75 0.1328125 7.75 0.1328125 8.75 1.1328125 C8.84823937 2.79710301 8.87973631 4.46563181 8.875 6.1328125 C8.87757812 7.0403125 8.88015625 7.9478125 8.8828125 8.8828125 C8.75 11.1328125 8.75 11.1328125 7.75 12.1328125 C6.08570949 12.23105187 4.41718069 12.26254881 2.75 12.2578125 C1.38875 12.26167969 1.38875 12.26167969 0 12.265625 C-2.25 12.1328125 -2.25 12.1328125 -3.25 11.1328125 C-3.34823937 9.46852199 -3.37973631 7.79999319 -3.375 6.1328125 C-3.37757812 5.2253125 -3.38015625 4.3178125 -3.3828125 3.3828125 C-3.20347538 0.34463064 -3.03818186 0.17933712 0 0 Z " fill="#C4A517" transform="translate(116.25,66.8671875)"/>
<path d="M0 0 C0.9075 0.00257812 1.815 0.00515625 2.75 0.0078125 C4.11125 0.00394531 4.11125 0.00394531 5.5 0 C7.75 0.1328125 7.75 0.1328125 8.75 1.1328125 C8.84823937 2.79710301 8.87973631 4.46563181 8.875 6.1328125 C8.87757813 7.0403125 8.88015625 7.9478125 8.8828125 8.8828125 C8.75 11.1328125 8.75 11.1328125 7.75 12.1328125 C6.08570949 12.23105187 4.41718069 12.26254881 2.75 12.2578125 C1.38875 12.26167969 1.38875 12.26167969 0 12.265625 C-2.25 12.1328125 -2.25 12.1328125 -3.25 11.1328125 C-3.34823937 9.46852199 -3.37973631 7.79999319 -3.375 6.1328125 C-3.37757813 5.2253125 -3.38015625 4.3178125 -3.3828125 3.3828125 C-3.20347538 0.34463064 -3.03818186 0.17933712 0 0 Z " fill="#CCAF2F" transform="translate(200.25,66.8671875)"/>
<path d="M0 0 C4.95 0 9.9 0 15 0 C15 3.3 15 6.6 15 10 C13.02 10 11.04 10 9 10 C9 8.68 9 7.36 9 6 C8.34 6 7.68 6 7 6 C7 7.32 7 8.64 7 10 C5.02 10 3.04 10 1 10 C0.67 6.7 0.34 3.4 0 0 Z " fill="#334A64" transform="translate(221,66)"/>
<path d="M0 0 C2.97 0 5.94 0 9 0 C9 3 9 3 8 5 C7.53411718 10.88165736 7.53411718 10.88165736 10 16 C6.19956554 17.73734147 4.40285423 18 0 18 C0 12.06 0 6.12 0 0 Z " fill="#D5C13F" transform="translate(483,3)"/>
<path d="M0 0 C9.9 0 19.8 0 30 0 C30 5.94 30 11.88 30 18 C26.04 18 22.08 18 18 18 C18 17.67 18 17.34 18 17 C21.3 17 24.6 17 28 17 C27.85923685 15.0412957 27.7122324 13.08303907 27.5625 11.125 C27.48128906 10.03445312 27.40007812 8.94390625 27.31640625 7.8203125 C27.16998297 5.05271029 27.16998297 5.05271029 26 3 C24.10466658 2.53476937 24.10466658 2.53476937 21.9375 2.375 C20.638125 2.25125 19.33875 2.1275 18 2 C18 6.29 18 10.58 18 15 C17.67 15 17.34 15 17 15 C16.67 11.04 16.34 7.08 16 3 C11.05 3 6.1 3 1 3 C1 7.62 1 12.24 1 17 C0.67 17 0.34 17 0 17 C0 11.39 0 5.78 0 0 Z " fill="#2A3D53" transform="translate(220,48)"/>
<path d="M0 0 C5.28 0 10.56 0 16 0 C16 0.66 16 1.32 16 2 C14.02 2.66 12.04 3.32 10 4 C10.20625 4.78375 10.4125 5.5675 10.625 6.375 C10.74875 7.24125 10.8725 8.1075 11 9 C10.34 9.66 9.68 10.32 9 11 C6.375 10.625 6.375 10.625 4 10 C4 11.65 4 13.3 4 15 C3.34 13.68 2.68 12.36 2 11 C1.01 11.495 1.01 11.495 0 12 C0 8.04 0 4.08 0 0 Z " fill="#415264" transform="translate(443,0)"/>
<path d="M0 0 C4.95 0 9.9 0 15 0 C15 2.64 15 5.28 15 8 C10.05 8 5.1 8 0 8 C0 5.36 0 2.72 0 0 Z " fill="#E7E7E7" transform="translate(101,20)"/>
<path d="M0 0 C1.32 0.33 2.64 0.66 4 1 C4 2.32 4 3.64 4 5 C5.65 5.33 7.3 5.66 9 6 C8.67 7.32 8.34 8.64 8 10 C6.68 10 5.36 10 4 10 C3.87625 10.804375 3.7525 11.60875 3.625 12.4375 C3.41875 13.283125 3.2125 14.12875 3 15 C2.01 15.495 2.01 15.495 1 16 C0.34 15.67 -0.32 15.34 -1 15 C-1 13.35 -1 11.7 -1 10 C-2.65 9.67 -4.3 9.34 -6 9 C-6 8.01 -6 7.02 -6 6 C-4.35 5.67 -2.7 5.34 -1 5 C-0.67 3.35 -0.34 1.7 0 0 Z " fill="#6D8AA9" transform="translate(372,5)"/>
<path d="M0 0 C0 2.64 0 5.28 0 8 C-0.33 8 -0.66 8 -1 8 C-1.33 6.35 -1.66 4.7 -2 3 C-2.37125 3.433125 -2.7425 3.86625 -3.125 4.3125 C-5.88909034 6.80018131 -9.19674414 9 -13 9 C-13 9.66 -13 10.32 -13 11 C-14.609375 12.515625 -14.609375 12.515625 -16.75 14.25 C-20.284042 17.23889722 -22.6702844 20.02006918 -25 24 C-23.68 24.33 -22.36 24.66 -21 25 C-23.64738916 26.4606285 -24.89448334 27 -28 27 C-27.29700544 19.89768733 -23.54988101 16.20611385 -19 11 C-18.2575 10.0925 -17.515 9.185 -16.75 8.25 C-12.48812902 4.76301466 -5.6753852 0 0 0 Z " fill="#40566E" transform="translate(165,47)"/>
<path d="M0 0 C0.66 0 1.32 0 2 0 C2 0.99 2 1.98 2 3 C-0.5 5.1875 -0.5 5.1875 -3 7 C-1.62845496 9.95409701 -0.01136276 12.44008376 2 15 C0.02 15.99 0.02 15.99 -2 17 C-3.65 15.68 -5.3 14.36 -7 13 C-7.5775 13.66 -8.155 14.32 -8.75 15 C-11 17 -11 17 -15 17 C-14.42012094 13.63670142 -13.42075735 12.3276513 -11 10 C-10.525625 9.13375 -10.05125 8.2675 -9.5625 7.375 C-7.70658215 4.55400487 -7.1404467 4.66615536 -4 4 C-2.64691687 2.68671343 -1.31129922 1.35500919 0 0 Z " fill="#AE770E" transform="translate(566,60)"/>
<path d="M0 0 C5.754375 -0.185625 5.754375 -0.185625 11.625 -0.375 C12.82334473 -0.42962402 14.02168945 -0.48424805 15.25634766 -0.54052734 C24.07934349 -0.6783172 24.07934349 -0.6783172 27.75 2.71875 C29.94574186 5.92087355 30.71758786 7.10653353 30.375 10.875 C30.32085937 11.65617188 30.26671875 12.43734375 30.2109375 13.2421875 C30.14132813 13.82226562 30.07171875 14.40234375 30 15 C29.34 14.67 28.68 14.34 28 14 C27.4375 12.00390625 27.4375 12.00390625 27 9.5625 C26.37748838 5.86159602 26.37748838 5.86159602 24 3 C23.34 4.32 22.68 5.64 22 7 C22 5.02 22 3.04 22 1 C15.4 1 8.8 1 2 1 C2.33 9.25 2.66 17.5 3 26 C2.01 26 1.02 26 0 26 C0 17.42 0 8.84 0 0 Z " fill="#767676" transform="translate(136,3)"/>
<path d="M0 0 C2.92879371 0.62759865 5.36095629 1.58622659 8 3 C8 3.99 8 4.98 8 6 C6.91332031 6.02126953 6.91332031 6.02126953 5.8046875 6.04296875 C1.54138721 7.49771606 0.28198888 10.52003107 -1.875 14.3125 C-2.29007812 14.98990234 -2.70515625 15.66730469 -3.1328125 16.36523438 C-5.4997332 20.03973026 -5.4997332 20.03973026 -5.60595703 24.22729492 C-5.40599121 24.8122876 -5.20602539 25.39728027 -5 26 C-8.625 29 -8.625 29 -12 29 C-11.609375 22.9453125 -11.609375 22.9453125 -11 21 C-10.06414062 20.55914062 -10.06414062 20.55914062 -9.109375 20.109375 C-6.62067514 18.80050322 -5.96189548 17.75292397 -4.640625 15.3046875 C-4.24746094 14.58925781 -3.85429687 13.87382813 -3.44921875 13.13671875 C-3.05347656 12.39035156 -2.65773438 11.64398438 -2.25 10.875 C-1.83878906 10.12089844 -1.42757813 9.36679687 -1.00390625 8.58984375 C0.00735347 6.73194799 1.00501405 4.86666168 2 3 C1.34 3 0.68 3 0 3 C0 2.01 0 1.02 0 0 Z " fill="#E58822" transform="translate(334,48)"/>
<path d="M0 0 C1 3 1 3 -0.36328125 5.91796875 C-1.32814453 7.53638672 -1.32814453 7.53638672 -2.3125 9.1875 C-2.94800781 10.27417969 -3.58351563 11.36085938 -4.23828125 12.48046875 C-5.11033203 13.72763672 -5.11033203 13.72763672 -6 15 C-6.66 15 -7.32 15 -8 15 C-8.20625 15.70125 -8.4125 16.4025 -8.625 17.125 C-10.37300894 20.77992778 -12.73278064 23.58076124 -16 26 C-16.99 26 -17.98 26 -19 26 C-19 24.02 -19 22.04 -19 20 C-18.34 20.66 -17.68 21.32 -17 22 C-13.29123501 17.77811341 -10.39187526 13.54111289 -7.6875 8.625 C-7.32849609 7.98433594 -6.96949219 7.34367187 -6.59960938 6.68359375 C-5.72753286 5.1254837 -4.86295979 3.56317778 -4 2 C-2.68 2 -1.36 2 0 2 C0 1.34 0 0.68 0 0 Z " fill="#A89830" transform="translate(379,51)"/>
<path d="M0 0 C7.11008111 -0.7230591 7.11008111 -0.7230591 11 2.4375 C13.41029158 5.83787769 13.48879156 8.9759153 13.37109375 13.046875 C13 15 13 15 11 17 C10.01 16.67 9.02 16.34 8 16 C8 13.69 8 11.38 8 9 C6.02 9.33 4.04 9.66 2 10 C3.875 4.25 3.875 4.25 5 2 C3.35 1.67 1.7 1.34 0 1 C0 0.67 0 0.34 0 0 Z " fill="#555555" transform="translate(580,2)"/>
<path d="M0 0 C0 2.97 0 5.94 0 9 C-3.3 9.33 -6.6 9.66 -10 10 C-10.103125 11.27875 -10.20625 12.5575 -10.3125 13.875 C-10.48828125 16.0546875 -10.48828125 16.0546875 -11 18 C-11.99 18.66 -12.98 19.32 -14 20 C-14.82702187 15.7588622 -15.1272081 12.20141199 -14 8 C-10.77691545 5.09394016 -4.61101154 0 0 0 Z " fill="#F9F876" transform="translate(82,58)"/>
<path d="M0 0 C3.375 -0.125 3.375 -0.125 7 0 C9 2 9 2 9.1953125 4.1640625 C9.17210937 4.97617187 9.14890625 5.78828125 9.125 6.625 C9.10695312 7.44226563 9.08890625 8.25953125 9.0703125 9.1015625 C9.03550781 10.04128906 9.03550781 10.04128906 9 11 C2.9453125 11.1953125 2.9453125 11.1953125 1 11 C0.34 10.34 -0.32 9.68 -1 9 C-0.9765625 6.8359375 -0.9765625 6.8359375 -0.625 4.375 C-0.51414063 3.55773437 -0.40328125 2.74046875 -0.2890625 1.8984375 C-0.19367188 1.27195312 -0.09828125 0.64546875 0 0 Z " fill="#707070" transform="translate(238,18)"/>
<path d="M0 0 C1.98 0.66 3.96 1.32 6 2 C5.54625 2.86625 5.0925 3.7325 4.625 4.625 C2.91637175 7.88900202 2.91637175 7.88900202 2.1875 11.1875 C1 14 1 14 -2.125 15.875 C-3.548125 16.431875 -3.548125 16.431875 -5 17 C-6.20188103 13.05096233 -6.5256232 11.11432118 -4.73046875 7.30859375 C-3.21899305 4.82014547 -1.66011073 2.39152184 0 0 Z " fill="#4C4744" transform="translate(421,60)"/>
<path d="M0 0 C1.97909398 -0.02686553 3.95828971 -0.04633375 5.9375 -0.0625 C7.03964844 -0.07410156 8.14179687 -0.08570313 9.27734375 -0.09765625 C12 0 12 0 13 1 C13.0989294 3.16480797 13.129711 5.33293785 13.125 7.5 C13.12757813 8.6859375 13.13015625 9.871875 13.1328125 11.09375 C13 14 13 14 12 15 C9.83519203 15.0989294 7.66706215 15.129711 5.5 15.125 C4.3140625 15.12757812 3.128125 15.13015625 1.90625 15.1328125 C-1 15 -1 15 -2 14 C-2.07244053 11.98035801 -2.08377188 9.95832876 -2.0625 7.9375 C-2.05347656 6.83277344 -2.04445313 5.72804688 -2.03515625 4.58984375 C-2.02355469 3.73519531 -2.01195312 2.88054687 -2 2 C-1.67 2 -1.34 2 -1 2 C-1 5.3 -1 8.6 -1 12 C-0.236875 11.67 0.52625 11.34 1.3125 11 C4.92137956 9.6571611 7.38383511 10.00243727 11 11 C11 8.36 11 5.72 11 3 C8.70370006 1.85185003 6.92301914 1.69230191 4.375 1.4375 C3.55773437 1.35371094 2.74046875 1.26992187 1.8984375 1.18359375 C1.27195312 1.12300781 0.64546875 1.06242187 0 1 C0 0.67 0 0.34 0 0 Z " fill="#B4950B" transform="translate(515,64)"/>
<path d="M0 0 C4.29 0 8.58 0 13 0 C12 4 12 4 10 8 C6.7 8 3.4 8 0 8 C0 5.36 0 2.72 0 0 Z " fill="#666666" transform="translate(404,66)"/>
<path d="M0 0 C0.9075 0.00257812 1.815 0.00515625 2.75 0.0078125 C4.11125 0.00394531 4.11125 0.00394531 5.5 0 C7.75 0.1328125 7.75 0.1328125 8.75 1.1328125 C8.82205511 2.81890216 8.83386068 4.50781909 8.8125 6.1953125 C8.80347656 7.11441406 8.79445313 8.03351563 8.78515625 8.98046875 C8.77355469 9.69074219 8.76195312 10.40101562 8.75 11.1328125 C8.42 9.8128125 8.09 8.4928125 7.75 7.1328125 C6.43 7.1328125 5.11 7.1328125 3.75 7.1328125 C3.75 8.1228125 3.75 9.1128125 3.75 10.1328125 C3.09 10.1328125 2.43 10.1328125 1.75 10.1328125 C1.75 9.1428125 1.75 8.1528125 1.75 7.1328125 C0.1 7.1328125 -1.55 7.1328125 -3.25 7.1328125 C-3.29254356 5.13326504 -3.29080783 3.13239614 -3.25 1.1328125 C-2.25 0.1328125 -2.25 0.1328125 0 0 Z " fill="#6D986E" transform="translate(32.25,66.8671875)"/>
<path d="M0 0 C2.64 0 5.28 0 8 0 C8 0.99 8 1.98 8 3 C13.28 3 18.56 3 24 3 C24 3.66 24 4.32 24 5 C17.4 5.33 10.8 5.66 4 6 C3.01 8.97 2.02 11.94 1 15 C0.67 15 0.34 15 0 15 C0 10.05 0 5.1 0 0 Z " fill="#FBD84E" transform="translate(53,5)"/>
<path d="M0 0 C1.32 0.33 2.64 0.66 4 1 C4.02685938 3.14576637 4.04633088 5.29162645 4.0625 7.4375 C4.07410156 8.63246094 4.08570313 9.82742187 4.09765625 11.05859375 C4 14 4 14 3 15 C0.81360547 15.07258946 -1.37500389 15.08373783 -3.5625 15.0625 C-5.35880859 15.04896484 -5.35880859 15.04896484 -7.19140625 15.03515625 C-8.11824219 15.02355469 -9.04507813 15.01195312 -10 15 C-10.33 13.68 -10.66 12.36 -11 11 C-6.90988897 10.27286915 -3.14906902 10 1 10 C0.67 8.68 0.34 7.36 0 6 C0.66 6 1.32 6 2 6 C2 4.68 2 3.36 2 2 C1.34 2 0.68 2 0 2 C0 1.34 0 0.68 0 0 Z " fill="#C5A515" transform="translate(163,17)"/>
<path d="M0 0 C1.97909398 -0.02686553 3.95828971 -0.04633375 5.9375 -0.0625 C7.03964844 -0.07410156 8.14179688 -0.08570313 9.27734375 -0.09765625 C12 0 12 0 13 1 C13.07244053 3.01964199 13.08377188 5.04167124 13.0625 7.0625 C13.05347656 8.16722656 13.04445312 9.27195312 13.03515625 10.41015625 C13.02355469 11.26480469 13.01195312 12.11945312 13 13 C10.95880212 11.38405168 8.95927063 9.7143618 7 8 C7 7.34 7 6.68 7 6 C5.33720673 4.9935725 3.67016516 3.99414593 2 3 C1.34 2.01 0.68 1.02 0 0 Z " fill="#6C8DB1" transform="translate(223,50)"/>
<path d="M0 0 C2.31 0 4.62 0 7 0 C7 2.64 7 5.28 7 8 C5.68 8 4.36 8 3 8 C2.80664062 8.72445312 2.61328125 9.44890625 2.4140625 10.1953125 C1.07139714 15.18045615 -0.28749486 20.12594691 -2 25 C-2.66 25 -3.32 25 -4 25 C-3.79503906 24.27554688 -3.59007812 23.55109375 -3.37890625 22.8046875 C-1.207046 15.01093063 0.1395237 8.09237461 0 0 Z " fill="#575757" transform="translate(545,51)"/>
<path d="M0 0 C2.64 0 5.28 0 8 0 C8 1.65 8 3.3 8 5 C5.69 5 3.38 5 1 5 C1 10.94 1 16.88 1 23 C-0.32 23 -1.64 23 -3 23 C-3 21.02 -3 19.04 -3 17 C-2.01 17 -1.02 17 0 17 C0 16.34 0 15.68 0 15 C-0.99 14.67 -1.98 14.34 -3 14 C-3 12.35 -3 10.7 -3 9 C-2.01 9 -1.02 9 0 9 C0 8.34 0 7.68 0 7 C-0.99 6.67 -1.98 6.34 -3 6 C-2.01 6 -1.02 6 0 6 C0 5.34 0 4.68 0 4 C0.66 4 1.32 4 2 4 C1.34 2.68 0.68 1.36 0 0 Z " fill="#F7DC6D" transform="translate(143,6)"/>
<path d="M0 0 C0.99 0.33 1.98 0.66 3 1 C1.40376856 5.39383706 -0.78024333 9.28995807 -3.125 13.3125 C-3.49753906 13.95767578 -3.87007813 14.60285156 -4.25390625 15.26757812 C-5.16632213 16.84675945 -6.08275509 18.42361864 -7 20 C-8.32 19.34 -9.64 18.68 -11 18 C-9.73252511 15.74804937 -8.46117132 13.49844253 -7.1875 11.25 C-6.83107422 10.61578125 -6.47464844 9.9815625 -6.10742188 9.328125 C-4.24751265 6.05195463 -2.36160916 2.95014899 0 0 Z " fill="#B7542B" transform="translate(338,53)"/>
<path d="M0 0 C2.97 0 5.94 0 9 0 C9 2.97 9 5.94 9 9 C6.03 9 3.06 9 0 9 C0 6.03 0 3.06 0 0 Z " fill="#8AAE8B" transform="translate(223,19)"/>
<path d="M0 0 C0.33 1.32 0.66 2.64 1 4 C2.32 4 3.64 4 5 4 C5 5.98 5 7.96 5 10 C3.68 10 2.36 10 1 10 C0.67 11.32 0.34 12.64 0 14 C-1.98 12.02 -3.96 10.04 -6 8 C-4.55746343 4.63408134 -2.66735273 2.48952921 0 0 Z " fill="#516877" transform="translate(319,9)"/>
<path d="M0 0 C2.31 0 4.62 0 7 0 C6.67 0.70125 6.34 1.4025 6 2.125 C4.51585646 6.39191269 4.57724602 9.73173805 6 14 C5.67 14.66 5.34 15.32 5 16 C3.35 16 1.7 16 0 16 C0 10.72 0 5.44 0 0 Z " fill="#E8E8E6" transform="translate(526,4)"/>
<path d="M0 0 C1.98 0 3.96 0 6 0 C5.67 4.62 5.34 9.24 5 14 C6.32 14.33 7.64 14.66 9 15 C9 15.66 9 16.32 9 17 C6.36 17 3.72 17 1 17 C0.67 11.39 0.34 5.78 0 0 Z " fill="#E5C11E" transform="translate(15,52)"/>
<path d="M0 0 C2.31 0.33 4.62 0.66 7 1 C6.01 1.495 6.01 1.495 5 2 C5 2.66 5 3.32 5 4 C5.99 4 6.98 4 8 4 C6.70700306 6.88437779 5.34058637 8.87219421 3 11 C0.13302508 9.71480435 -1.97607712 8.42870746 -4 6 C-4 5.34 -4 4.68 -4 4 C-3.01 4 -2.02 4 -1 4 C-0.67 2.68 -0.34 1.36 0 0 Z " fill="#455D74" transform="translate(326,20)"/>
<path d="M0 0 C2.31 0 4.62 0 7 0 C6.67257812 0.70511719 6.34515625 1.41023437 6.0078125 2.13671875 C4.91599278 5.23867167 4.79614604 7.54006053 4.875 10.8125 C4.89304687 11.78832031 4.91109375 12.76414062 4.9296875 13.76953125 C4.95289063 14.50558594 4.97609375 15.24164063 5 16 C3.35 16 1.7 16 0 16 C0 10.72 0 5.44 0 0 Z " fill="#676767" transform="translate(568,4)"/>
<path d="M0 0 C2.64 0.33 5.28 0.66 8 1 C7.34 1.66 6.68 2.32 6 3 C5.01 3 4.02 3 3 3 C3.33 4.65 3.66 6.3 4 8 C3.34 8 2.68 8 2 8 C2 10.64 2 13.28 2 16 C1.01 15.67 0.02 15.34 -1 15 C-1.33 13.35 -1.66 11.7 -2 10 C-2.99 9.67 -3.98 9.34 -5 9 C-4.67 8.236875 -4.34 7.47375 -4 6.6875 C-2.82563314 4.00930865 -2.82563314 4.00930865 -3 1 C-2.01 1.66 -1.02 2.32 0 3 C0 2.01 0 1.02 0 0 Z " fill="#A4BDD8" transform="translate(65,49)"/>
<path d="M0 0 C0 1.98 0 3.96 0 6 C-0.99 6.495 -0.99 6.495 -2 7 C-2.66 6.67 -3.32 6.34 -4 6 C-4.66 7.98 -5.32 9.96 -6 12 C-5.34 12.33 -4.68 12.66 -4 13 C-5 14 -5 14 -7.5625 14.0625 C-8.366875 14.041875 -9.17125 14.02125 -10 14 C-10.33 13.34 -10.66 12.68 -11 12 C-10.34 12 -9.68 12 -9 12 C-9.020625 10.700625 -9.04125 9.40125 -9.0625 8.0625 C-9.08399454 6.70834367 -9.07148199 5.35243917 -9 4 C-8.67 3.67 -8.34 3.34 -8 3 C-7.67 2.01 -7.34 1.02 -7 0 C-3.86650268 -1.04449911 -3.01031744 -0.93423645 0 0 Z " fill="#435E7A" transform="translate(75,52)"/>
<path d="M0 0 C0.99 0.66 1.98 1.32 3 2 C5.51584891 2.24150773 5.51584891 2.24150773 8.1875 2.125 C9.53908203 2.09792969 9.53908203 2.09792969 10.91796875 2.0703125 C11.94857422 2.03550781 11.94857422 2.03550781 13 2 C13 2.66 13 3.32 13 4 C12.24976563 3.89558594 11.49953125 3.79117187 10.7265625 3.68359375 C5.67539118 3.28280812 2.30252736 3.13669698 -2.0234375 6.00390625 C-4.47336699 8.24675001 -6.78291654 10.52785384 -9 13 C-10.32 11.68 -11.64 10.36 -13 9 C-7.08315098 3.11816193 -7.08315098 3.11816193 -2.5625 2.625 C-1.2940625 2.810625 -1.2940625 2.810625 0 3 C0 2.01 0 1.02 0 0 Z " fill="#5E5B53" transform="translate(535,19)"/>
<path d="M0 0 C0.99 0.66 1.98 1.32 3 2 C5.51584891 2.24150773 5.51584891 2.24150773 8.1875 2.125 C9.53908203 2.09792969 9.53908203 2.09792969 10.91796875 2.0703125 C11.94857422 2.03550781 11.94857422 2.03550781 13 2 C13 2.66 13 3.32 13 4 C12.24976563 3.89558594 11.49953125 3.79117187 10.7265625 3.68359375 C5.67539118 3.28280812 2.30252736 3.13669698 -2.0234375 6.00390625 C-4.47336699 8.24675001 -6.78291654 10.52785384 -9 13 C-10.32 11.68 -11.64 10.36 -13 9 C-7.08315098 3.11816193 -7.08315098 3.11816193 -2.5625 2.625 C-1.2940625 2.810625 -1.2940625 2.810625 0 3 C0 2.01 0 1.02 0 0 Z " fill="#5E5B53" transform="translate(493,19)"/>
<path d="M0 0 C0.66 0.33 1.32 0.66 2 1 C1.484375 2.11375 0.96875 3.2275 0.4375 4.375 C-0.036875 5.57125 -0.51125 6.7675 -1 8 C-0.67 8.66 -0.34 9.32 0 10 C2.02463255 10.65213292 2.02463255 10.65213292 4 11 C4 12.65 4 14.3 4 16 C6.475 16.99 6.475 16.99 9 18 C9 18.33 9 18.66 9 19 C4.95181889 19.48192632 3.2294197 19.13851755 -0.3125 17 C-3.18700807 14.32268773 -4.0109691 11.88353895 -4.25390625 8.00390625 C-3.81911331 4.57238656 -2.17480638 2.63612894 0 0 Z " fill="#B7B7B7" transform="translate(367,4)"/>
<path d="M0 0 C3.79160297 -0.05786668 7.58309311 -0.09355054 11.375 -0.125 C12.45523437 -0.14175781 13.53546875 -0.15851562 14.6484375 -0.17578125 C15.6796875 -0.18222656 16.7109375 -0.18867187 17.7734375 -0.1953125 C19.20308838 -0.21102295 19.20308838 -0.21102295 20.66162109 -0.22705078 C23 0 23 0 25 2 C25.14517744 4.9093558 25.18630796 7.719946 25.125 10.625 C25.11597656 11.42679688 25.10695313 12.22859375 25.09765625 13.0546875 C25.07406223 15.03658523 25.03819065 17.01832981 25 19 C24.67 19 24.34 19 24 19 C23.95101563 18.08476563 23.90203125 17.16953125 23.8515625 16.2265625 C23.77679688 15.03804687 23.70203125 13.84953125 23.625 12.625 C23.55539062 11.44164062 23.48578125 10.25828125 23.4140625 9.0390625 C23.29782654 5.89437681 23.29782654 5.89437681 21 4 C17.40320934 4.32326553 17.40320934 4.32326553 14 5 C14.66 4.67 15.32 4.34 16 4 C16 3.01 16 2.02 16 1 C15.01 1 14.02 1 13 1 C13 1.99 13 2.98 13 4 C12.34 4 11.68 4 11 4 C11 3.01 11 2.02 11 1 C7.37 1 3.74 1 0 1 C0 0.67 0 0.34 0 0 Z " fill="#465E79" transform="translate(267,48)"/>
<path d="M0 0 C0.99 0 1.98 0 3 0 C3.1875 2.3125 3.1875 2.3125 3 5 C2.00848611 6.0084147 1.00723735 7.00729011 0 8 C-2.85818287 13.01854851 -4.28391252 17.17979332 -4 23 C-4.66 23.66 -5.32 24.32 -6 25 C-7.32 25 -8.64 25 -10 25 C-9.67 23.35 -9.34 21.7 -9 20 C-8.01 20 -7.02 20 -6 20 C-6.19456787 19.42024414 -6.38913574 18.84048828 -6.58959961 18.24316406 C-7.07577446 15.58583238 -6.68229282 14.53691771 -5.56640625 12.109375 C-5.24736328 11.40039062 -4.92832031 10.69140625 -4.59960938 9.9609375 C-4.25736328 9.23132812 -3.91511719 8.50171875 -3.5625 7.75 C-3.22412109 7.00492188 -2.88574219 6.25984375 -2.53710938 5.4921875 C-1.70173696 3.65672135 -0.85222033 1.82770445 0 0 Z " fill="#788A9D" transform="translate(280,49)"/>
<path d="M0 0 C1.08410156 0.00257812 2.16820312 0.00515625 3.28515625 0.0078125 C4.90744141 0.00394531 4.90744141 0.00394531 6.5625 0 C9.34765625 0.1328125 9.34765625 0.1328125 11.34765625 1.1328125 C11.01765625 2.4528125 10.68765625 3.7728125 10.34765625 5.1328125 C6.05765625 5.1328125 1.76765625 5.1328125 -2.65234375 5.1328125 C-2.98234375 3.8128125 -3.31234375 2.4928125 -3.65234375 1.1328125 C-2.65234375 0.1328125 -2.65234375 0.1328125 0 0 Z " fill="#6F8AA7" transform="translate(411.65234375,9.8671875)"/>
<path d="M0 0 C2.5 0.25 2.5 0.25 4.5 2.25 C4.75 4.75 4.75 4.75 4.5 7.25 C2.5 9.25 2.5 9.25 0 9.5 C-2.5 9.25 -2.5 9.25 -4.5 7.25 C-4.75 4.75 -4.75 4.75 -4.5 2.25 C-2.5 0.25 -2.5 0.25 0 0 Z " fill="#CC6734" transform="translate(227.5,3.75)"/>
<path d="M0 0 C7.59 0 15.18 0 23 0 C23 0.66 23 1.32 23 2 C16.07 2 9.14 2 2 2 C2 5.3 2 8.6 2 12 C1.34 12 0.68 12 0 12 C0 8.04 0 4.08 0 0 Z " fill="#8DA9CA" transform="translate(182,56)"/>
<path d="M0 0 C1.32 0 2.64 0 4 0 C4 1.65 4 3.3 4 5 C3.01 5.495 3.01 5.495 2 6 C0.91158184 8.07001545 -0.09794527 10.18194791 -1.0625 12.3125 C-1.58972656 13.46363281 -2.11695312 14.61476563 -2.66015625 15.80078125 C-3.68173474 18.24006051 -4.48444457 20.42222285 -5 23 C-6.32 23 -7.64 23 -9 23 C-9 21.68 -9 20.36 -9 19 C-8.01 19 -7.02 19 -6 19 C-5.80664062 18.39671875 -5.61328125 17.7934375 -5.4140625 17.171875 C-5.15367188 16.37265625 -4.89328125 15.5734375 -4.625 14.75 C-4.36976562 13.96109375 -4.11453125 13.1721875 -3.8515625 12.359375 C-3 10 -3 10 -1.9375 7.90625 C-0.67711045 5.34345791 -0.38351515 2.81244445 0 0 Z " fill="#4D5966" transform="translate(112,48)"/>
<path d="M0 0 C1.9375 0.75 1.9375 0.75 4 2 C4.75 4.125 4.75 4.125 5 6 C4.01 6 3.02 6 2 6 C2.33 7.65 2.66 9.3 3 11 C1.35 11 -0.3 11 -2 11 C-2 9.68 -2 8.36 -2 7 C-3.32 6.67 -4.64 6.34 -6 6 C-4.02 4.02 -2.04 2.04 0 0 Z " fill="#4F6677" transform="translate(327,1)"/>
<path d="M0 0 C0.66 0.66 1.32 1.32 2 2 C1.68940451 6.2743855 -0.16025895 9.2772139 -2.375 12.875 C-4.96005448 17.17457727 -7.19384247 21.32523934 -9 26 C-9.33 26 -9.66 26 -10 26 C-10.49399657 18.7135506 -10.49399657 18.7135506 -8.3125 15.5625 C-7.549375 14.716875 -6.78625 13.87125 -6 13 C-3.41501726 8.83697548 -0.99793255 4.83613465 0 0 Z " fill="#D5C973" transform="translate(371,49)"/>
<path d="M0 0 C0.33 0.66 0.66 1.32 1 2 C1.66 2.33 2.32 2.66 3 3 C1.76555025 5.32208388 0.51391375 7.6315297 -0.75 9.9375 C-1.09804688 10.59685547 -1.44609375 11.25621094 -1.8046875 11.93554688 C-4.51832593 16.83517182 -4.51832593 16.83517182 -7.203125 17.75390625 C-7.79609375 17.83511719 -8.3890625 17.91632813 -9 18 C-9.33 18.99 -9.66 19.98 -10 21 C-9.4462522 15.89545207 -6.97407204 12.03424443 -4.4375 7.6875 C-4.01275391 6.94693359 -3.58800781 6.20636719 -3.15039062 5.44335938 C-2.10648347 3.62531882 -1.05407808 1.81216252 0 0 Z " fill="#9F694F" transform="translate(326,49)"/>
<path d="M0 0 C2.31 0 4.62 0 7 0 C7 3.96 7 7.92 7 12 C4.09197539 9.78071806 2.04687238 8.07030857 0 5 C-0.125 2.3125 -0.125 2.3125 0 0 Z " fill="#EFF3FB" transform="translate(199,11)"/>
<path d="M0 0 C2.97 0 5.94 0 9 0 C6.45335415 4.81033104 4.00972202 8.32442148 0 12 C0 8.04 0 4.08 0 0 Z " fill="#A6C1DE" transform="translate(238,50)"/>
<path d="M0 0 C0.66 0 1.32 0 2 0 C2 0.99 2 1.98 2 3 C3.32 2.67 4.64 2.34 6 2 C6 2.66 6 3.32 6 4 C5.34 4 4.68 4 4 4 C4.66 5.65 5.32 7.3 6 9 C4.68 9 3.36 9 2 9 C1.01 10.485 1.01 10.485 0 12 C-0.33 11.01 -0.66 10.02 -1 9 C-3.01508358 8.26676204 -3.01508358 8.26676204 -5 8 C-4.34 6.68 -3.68 5.36 -3 4 C-3.66 4 -4.32 4 -5 4 C-5 3.34 -5 2.68 -5 2 C-2.525 2.495 -2.525 2.495 0 3 C0 2.01 0 1.02 0 0 Z " fill="#F7F7E9" transform="translate(159,19)"/>
<path d="M0 0 C2.89012206 1.29557196 4.97666882 2.54475787 7 5 C7.34057617 6.90112305 7.34057617 6.90112305 7.29296875 9.01171875 C7.28330078 9.76904297 7.27363281 10.52636719 7.26367188 11.30664062 C7.23853516 12.09232422 7.21339844 12.87800781 7.1875 13.6875 C7.17396484 14.48478516 7.16042969 15.28207031 7.14648438 16.10351562 C7.11117089 18.06929967 7.05736447 20.03473582 7 22 C6.01 21.67 5.02 21.34 4 21 C4.33 20.34 4.66 19.68 5 19 C5.2275015 17.12943209 5.40962811 15.25314042 5.5625 13.375 C5.64628906 12.37210938 5.73007813 11.36921875 5.81640625 10.3359375 C5.87699219 9.56507812 5.93757812 8.79421875 6 8 C4.02 8 2.04 8 0 8 C0 5.36 0 2.72 0 0 Z " fill="#828280" transform="translate(200,3)"/>
<path d="M0 0 C0.33 0 0.66 0 1 0 C1 3.96 1 7.92 1 12 C-1.97 12 -4.94 12 -8 12 C-6.85573734 10.186508 -5.70954608 8.37423275 -4.5625 6.5625 C-3.60537109 5.04849609 -3.60537109 5.04849609 -2.62890625 3.50390625 C-1 1 -1 1 0 0 Z " fill="#6B94C0" transform="translate(247,52)"/>
<path d="M0 0 C0.66 0 1.32 0 2 0 C2 0.99 2 1.98 2 3 C3.32 2.67 4.64 2.34 6 2 C6 2.66 6 3.32 6 4 C5.34 4 4.68 4 4 4 C4.66 5.65 5.32 7.3 6 9 C4.68 9 3.36 9 2 9 C1.01 10.485 1.01 10.485 0 12 C-0.33 11.01 -0.66 10.02 -1 9 C-3.01508358 8.26676204 -3.01508358 8.26676204 -5 8 C-4.67 6.35 -4.34 4.7 -4 3 C-2.68 3 -1.36 3 0 3 C0 2.01 0 1.02 0 0 Z " fill="#F2EFD4" transform="translate(520,66)"/>
<path d="M0 0 C4.62 0 9.24 0 14 0 C14 1.32 14 2.64 14 4 C9.38 4 4.76 4 0 4 C0 2.68 0 1.36 0 0 Z " fill="#939393" transform="translate(102,8)"/>
<path d="M0 0 C0.33 0.66 0.66 1.32 1 2 C-3.75 5 -3.75 5 -6 5 C-6.33 7.64 -6.66 10.28 -7 13 C-7.99 13 -8.98 13 -10 13 C-10.60737527 5.8329718 -10.60737527 5.8329718 -7.8125 2 C-4.80512535 -0.13857753 -3.58848221 -0.51264032 0 0 Z " fill="#F2F4F3" transform="translate(544,2)"/>
<path d="M0 0 C0.969375 0.165 1.93875 0.33 2.9375 0.5 C5.9052331 1.29133785 5.9052331 1.29133785 8 0 C8 2.64 8 5.28 8 8 C5.36 8 2.72 8 0 8 C0.20625 7.401875 0.4125 6.80375 0.625 6.1875 C1.30671915 3.71549154 1.30671915 3.71549154 -1 1 C-0.67 0.67 -0.34 0.34 0 0 Z " fill="#6891BC" transform="translate(461,18)"/>
<path d="M0 0 C0.721875 0.12375 1.44375 0.2475 2.1875 0.375 C2.5175 1.035 2.8475 1.695 3.1875 2.375 C-1.5625 5.375 -1.5625 5.375 -3.8125 5.375 C-4.1425 8.015 -4.4725 10.655 -4.8125 13.375 C-5.8025 13.375 -6.7925 13.375 -7.8125 13.375 C-8.23570237 9.14297628 -8.21611534 6.33024165 -5.625 2.9375 C-2.8125 0.375 -2.8125 0.375 0 0 Z " fill="#F3F4EA" transform="translate(499.8125,1.625)"/>
<path d="M0 0 C2.33294775 -0.04241723 4.66702567 -0.04092937 7 0 C8 1 8 1 8.0625 4.5625 C8.041875 5.696875 8.02125 6.83125 8 8 C7.401875 7.79375 6.80375 7.5875 6.1875 7.375 C3.71549154 6.69328085 3.71549154 6.69328085 1 9 C0.34 8.01 -0.32 7.02 -1 6 C-0.649375 5.38125 -0.29875 4.7625 0.0625 4.125 C0.371875 3.42375 0.68125 2.7225 1 2 C0.67 1.34 0.34 0.68 0 0 Z " fill="#6890BB" transform="translate(461,1)"/>
<path d="M0 0 C2.64 0 5.28 0 8 0 C7.814375 0.5775 7.62875 1.155 7.4375 1.75 C6.95976454 4.20692525 7.24270636 5.64397534 8 8 C5.33333333 8 2.66666667 8 0 8 C0 5.36 0 2.72 0 0 Z " fill="#6891BC" transform="translate(444,1)"/>
<path d="M0 0 C4.29 0 8.58 0 13 0 C13 1.32 13 2.64 13 4 C8.71 4 4.42 4 0 4 C0 2.68 0 1.36 0 0 Z " fill="#595959" transform="translate(404,52)"/>
<path d="M0 0 C-0.97866338 1.14626322 -1.95794587 2.29199788 -2.9375 3.4375 C-3.48277344 4.07558594 -4.02804688 4.71367188 -4.58984375 5.37109375 C-5.36795695 6.26991149 -6.15936528 7.15936528 -7 8 C-8.66617115 8.04063832 -10.33388095 8.042721 -12 8 C-9.49922557 0.88241125 -7.68009555 -0.43472239 0 0 Z " fill="#9FB9D6" transform="translate(152,63)"/>
<path d="M0 0 C1.39448173 2.73343101 2.66338777 5.49374924 3.875 8.3125 C4.23078125 9.09238281 4.5865625 9.87226563 4.953125 10.67578125 C5.60995497 12.13404182 6.23074324 13.60965983 6.796875 15.10546875 C7.66652371 17.31414839 7.66652371 17.31414839 10 20 C13.34643373 20.88147387 16.54965492 21.0460924 20 21 C20 21.33 20 21.66 20 22 C16.04 22 12.08 22 8 22 C6.67997444 19.44113496 5.36886218 16.87832932 4.0625 14.3125 C3.68931641 13.59126953 3.31613281 12.87003906 2.93164062 12.12695312 C-0.63188992 5.09620367 -0.63188992 5.09620367 -1 1 C-0.67 0.67 -0.34 0.34 0 0 Z " fill="#A1A1A1" transform="translate(274,10)"/>
<path d="M0 0 C1.65 0 3.3 0 5 0 C5 0.99 5 1.98 5 3 C5.66 3 6.32 3 7 3 C7 2.01 7 1.02 7 0 C8.32 0 9.64 0 11 0 C11 1.65 11 3.3 11 5 C7.7 5 4.4 5 1 5 C0.67 3.35 0.34 1.7 0 0 Z " fill="#5C895C" transform="translate(29,74)"/>
<path d="M0 0 C0.66 0 1.32 0 2 0 C2.33 0.66 2.66 1.32 3 2 C3.66 2 4.32 2 5 2 C5 3.98 5 5.96 5 8 C4.34 8 3.68 8 3 8 C2.67 8.66 2.34 9.32 2 10 C1.34 10 0.68 10 0 10 C-0.33 9.34 -0.66 8.68 -1 8 C-1.66 8 -2.32 8 -3 8 C-3 6.02 -3 4.04 -3 2 C-2.34 2 -1.68 2 -1 2 C-0.67 1.34 -0.34 0.68 0 0 Z " fill="#F3EBCB" transform="translate(286,68)"/>
<path d="M0 0 C0.66 0 1.32 0 2 0 C2.33 0.66 2.66 1.32 3 2 C3.66 2 4.32 2 5 2 C5 3.98 5 5.96 5 8 C4.34 8 3.68 8 3 8 C2.67 8.66 2.34 9.32 2 10 C1.34 10 0.68 10 0 10 C-0.33 9.34 -0.66 8.68 -1 8 C-1.66 8 -2.32 8 -3 8 C-3 6.02 -3 4.04 -3 2 C-2.34 2 -1.68 2 -1 2 C-0.67 1.34 -0.34 0.68 0 0 Z " fill="#F3EBCB" transform="translate(160,68)"/>
<path d="M0 0 C0.66 0 1.32 0 2 0 C2.33 0.66 2.66 1.32 3 2 C3.66 2 4.32 2 5 2 C5 3.98 5 5.96 5 8 C4.34 8 3.68 8 3 8 C2.67 8.66 2.34 9.32 2 10 C1.34 10 0.68 10 0 10 C-0.33 9.34 -0.66 8.68 -1 8 C-1.66 8 -2.32 8 -3 8 C-3 6.02 -3 4.04 -3 2 C-2.34 2 -1.68 2 -1 2 C-0.67 1.34 -0.34 0.68 0 0 Z " fill="#F3EBCB" transform="translate(76,68)"/>
<path d="M0 0 C0.66 0 1.32 0 2 0 C2.33 0.66 2.66 1.32 3 2 C3.66 2 4.32 2 5 2 C5 3.98 5 5.96 5 8 C4.34 8 3.68 8 3 8 C2.67 8.66 2.34 9.32 2 10 C1.34 10 0.68 10 0 10 C-0.33 9.34 -0.66 8.68 -1 8 C-1.66 8 -2.32 8 -3 8 C-3 6 -3 4 -3 2 C-2.34 2 -1.68 2 -1 2 C-0.67 1.34 -0.34 0.68 0 0 Z " fill="#F4EDD0" transform="translate(244,68)"/>
<path d="M0 0 C0.66 0 1.32 0 2 0 C2.33 0.66 2.66 1.32 3 2 C3.66 2 4.32 2 5 2 C5 3.98 5 5.96 5 8 C4.34 8 3.68 8 3 8 C2.67 8.66 2.34 9.32 2 10 C1.34 10 0.68 10 0 10 C-0.33 9.34 -0.66 8.68 -1 8 C-1.66 8 -2.32 8 -3 8 C-3 6 -3 4 -3 2 C-2.34 2 -1.68 2 -1 2 C-0.67 1.34 -0.34 0.68 0 0 Z " fill="#F4EDD0" transform="translate(202,68)"/>
<path d="M0 0 C0.66 0 1.32 0 2 0 C2.33 0.66 2.66 1.32 3 2 C3.66 2 4.32 2 5 2 C5 3.98 5 5.96 5 8 C4.34 8 3.68 8 3 8 C2.67 8.66 2.34 9.32 2 10 C1.34 10 0.68 10 0 10 C-0.33 9.34 -0.66 8.68 -1 8 C-1.66 8 -2.32 8 -3 8 C-3 6 -3 4 -3 2 C-2.34 2 -1.68 2 -1 2 C-0.67 1.34 -0.34 0.68 0 0 Z " fill="#F4EDD0" transform="translate(118,68)"/>
<path d="M0 0 C0.66 0.33 1.32 0.66 2 1 C1.46949266 5.50931237 -0.1404295 8.48681339 -3 12 C-4.32 12 -5.64 12 -7 12 C-6.42012094 8.63670142 -5.42075735 7.3276513 -3 5 C-1.96642853 3.35394174 -0.95939668 1.69036558 0 0 Z " fill="#CCA81D" transform="translate(558,65)"/>
<path d="M0 0 C0.66 0.33 1.32 0.66 2 1 C2.32899743 4.61897173 2.44576634 6.39503139 0.25 9.375 C-2 11 -2 11 -6 11 C-5.67 8.69 -5.34 6.38 -5 4 C-3.02 4.495 -3.02 4.495 -1 5 C-0.67 3.35 -0.34 1.7 0 0 Z " fill="#9AB0C3" transform="translate(75,53)"/>
<path d="M0 0 C1.093125 0.103125 2.18625 0.20625 3.3125 0.3125 C2.05100149 4.09699552 0.72405305 4.44426857 -2.6875 6.3125 C-3.6775 6.9725 -4.6675 7.6325 -5.6875 8.3125 C-5.3575 9.9625 -5.0275 11.6125 -4.6875 13.3125 C-5.6775 12.9825 -6.6675 12.6525 -7.6875 12.3125 C-6.53468499 0.55378686 -6.53468499 0.55378686 0 0 Z " fill="#E0E2E2" transform="translate(414.6875,2.6875)"/>
<path d="M0 0 C0.99 0.33 1.98 0.66 3 1 C2.34 2.65 1.68 4.3 1 6 C1.495 6.433125 1.99 6.86625 2.5 7.3125 C4 9 4 9 4 12 C1.71844707 11.60662881 0.13299993 11.08713789 -1.8125 9.8125 C-3 8 -3 8 -2.8125 4.9375 C-2 2 -2 2 0 0 Z " fill="#647D97" transform="translate(60,52)"/>
<path d="M0 0 C3 1 3 1 4.6875 4.0625 C5.120625 5.031875 5.55375 6.00125 6 7 C4.68 7.99 3.36 8.98 2 10 C-0.5625 7.75 -0.5625 7.75 -3 5 C-2.9375 2.75 -2.9375 2.75 -2 1 C-1.34 0.67 -0.68 0.34 0 0 Z " fill="#DBC97D" transform="translate(201,20)"/>
<path d="M0 0 C2 1 2 1 3.0625 3.875 C3.371875 4.90625 3.68125 5.9375 4 7 C4.33 7.99 4.66 8.98 5 10 C2.525 11.485 2.525 11.485 0 13 C-0.66 12.34 -1.32 11.68 -2 11 C-3.64991582 10.29289322 -5.31562256 9.62056011 -7 9 C-6.401875 8.87625 -5.80375 8.7525 -5.1875 8.625 C-2.73768652 8.04524015 -2.73768652 8.04524015 0 6 C0.2502157 2.91634129 0.2502157 2.91634129 0 0 Z " fill="#7E7A64" transform="translate(197,10)"/>
<path d="M0 0 C1.4606285 2.64738916 2 3.89448334 2 7 C2.99 6.67 3.98 6.34 5 6 C5 6.99 5 7.98 5 9 C5.66 9 6.32 9 7 9 C7.33 8.01 7.66 7.02 8 6 C9.32 6 10.64 6 12 6 C11.67 7.32 11.34 8.64 11 10 C9.37581255 10.08090971 7.75048255 10.13914995 6.125 10.1875 C4.76761719 10.23970703 4.76761719 10.23970703 3.3828125 10.29296875 C2.20332031 10.14794922 2.20332031 10.14794922 1 10 C-1.56687367 6.1496895 -0.83288724 4.41430237 0 0 Z " fill="#BF9D09" transform="translate(71,69)"/>
<path d="M0 0 C0.33 0 0.66 0 1 0 C1 5.94 1 11.88 1 18 C-0.98 18 -2.96 18 -5 18 C-5.33 17.34 -5.66 16.68 -6 16 C-4.35 16 -2.7 16 -1 16 C-1.01160156 14.92878906 -1.02320313 13.85757812 -1.03515625 12.75390625 C-1.04453299 11.35677257 -1.05363331 9.95963701 -1.0625 8.5625 C-1.07506836 7.50192383 -1.07506836 7.50192383 -1.08789062 6.41992188 C-1.09653588 4.61306441 -1.05220011 2.80612397 -1 1 C-0.67 0.67 -0.34 0.34 0 0 Z " fill="#D3CFBA" transform="translate(501,4)"/>
<path d="M0 0 C1.65 0 3.3 0 5 0 C5 1.65 5 3.3 5 5 C1.04 4.67 -2.92 4.34 -7 4 C-7 3.01 -7 2.02 -7 1 C-4.69 1.33 -2.38 1.66 0 2 C0 1.34 0 0.68 0 0 Z " fill="#969C96" transform="translate(522,51)"/>
<path d="M0 0 C0.99 0 1.98 0 3 0 C2.67 0.99 2.34 1.98 2 3 C1.34 2.67 0.68 2.34 0 2 C0.66 3.32 1.32 4.64 2 6 C1.34 6 0.68 6 0 6 C0 6.66 0 7.32 0 8 C0.99 7.67 1.98 7.34 3 7 C3 7.99 3 8.98 3 10 C3.66 10.33 4.32 10.66 5 11 C3.00045254 11.04254356 0.99958364 11.04080783 -1 11 C-1.33 10.67 -1.66 10.34 -2 10 C-1.9140625 7.96875 -1.9140625 7.96875 -1.625 5.5 C-1.53476563 4.6853125 -1.44453125 3.870625 -1.3515625 3.03125 C-1 1 -1 1 0 0 Z M5 7 C5.66 7.66 6.32 8.32 7 9 C6.01 9.495 6.01 9.495 5 10 C5 9.01 5 8.02 5 7 Z " fill="#CAAC24" transform="translate(241,68)"/>
<path d="M0 0 C0.66 0 1.32 0 2 0 C2 0.99 2 1.98 2 3 C2.99 2.67 3.98 2.34 5 2 C5 2.99 5 3.98 5 5 C5.66 5 6.32 5 7 5 C7.33 4.01 7.66 3.02 8 2 C8.99 2.33 9.98 2.66 11 3 C11.33 2.01 11.66 1.02 12 0 C12.042721 1.66611905 12.04063832 3.33382885 12 5 C11 6 11 6 8.75 6.1328125 C7.8425 6.13023438 6.935 6.12765625 6 6.125 C4.63875 6.12886719 4.63875 6.12886719 3.25 6.1328125 C1 6 1 6 0 5 C-0.04063832 3.33382885 -0.042721 1.66611905 0 0 Z " fill="#C29F08" transform="translate(197,73)"/>
<path d="M0 0 C0.99 0 1.98 0 3 0 C2.67 0.99 2.34 1.98 2 3 C1.34 2.67 0.68 2.34 0 2 C0.66 3.32 1.32 4.64 2 6 C1.34 6 0.68 6 0 6 C0 6.66 0 7.32 0 8 C0.99 7.67 1.98 7.34 3 7 C3 7.99 3 8.98 3 10 C3.66 10.33 4.32 10.66 5 11 C3.00045254 11.04254356 0.99958364 11.04080783 -1 11 C-1.33 10.67 -1.66 10.34 -2 10 C-1.9140625 7.96875 -1.9140625 7.96875 -1.625 5.5 C-1.53476563 4.6853125 -1.44453125 3.870625 -1.3515625 3.03125 C-1 1 -1 1 0 0 Z M5 7 C5.66 7.66 6.32 8.32 7 9 C6.01 9.495 6.01 9.495 5 10 C5 9.01 5 8.02 5 7 Z " fill="#CAAC24" transform="translate(115,68)"/>
<path d="M0 0 C0.66 0 1.32 0 2 0 C2 3.63 2 7.26 2 11 C-1.96 11 -5.92 11 -10 11 C-9.67 10.34 -9.34 9.68 -9 9 C-10.65 8.67 -12.3 8.34 -14 8 C-14 7.67 -14 7.34 -14 7 C-9.545 6.505 -9.545 6.505 -5 6 C-5.33 6.99 -5.66 7.98 -6 9 C-3.69 9.33 -1.38 9.66 1 10 C0.67 6.7 0.34 3.4 0 0 Z " fill="#415A75" transform="translate(468,16)"/>
<path d="M0 0 C-1.78953185 0.83790789 -3.58169695 1.67019396 -5.375 2.5 C-6.87160156 3.19609375 -6.87160156 3.19609375 -8.3984375 3.90625 C-11 5 -11 5 -13 5 C-13.33 3.35 -13.66 1.7 -14 0 C-12.04235617 -0.19456705 -10.08384679 -0.38044247 -8.125 -0.5625 C-6.48917969 -0.71912109 -6.48917969 -0.71912109 -4.8203125 -0.87890625 C-2 -1 -2 -1 0 0 Z " fill="#CA6A32" transform="translate(29,70)"/>
<path d="M0 0 C0 3.63 0 7.26 0 11 C-1.98 9.35 -3.96 7.7 -6 6 C-5.09643253 3.28929759 -3.37844266 0 0 0 Z " fill="#A9C1DC" transform="translate(236,52)"/>
<path d="M0 0 C3.625 -0.1875 3.625 -0.1875 7 0 C7 0.66 7 1.32 7 2 C5.68 2.33 4.36 2.66 3 3 C2.67 4.32 2.34 5.64 2 7 C0.35 7.33 -1.3 7.66 -3 8 C-2.45276317 4.62537285 -1.9451 2.91765 0 0 Z " fill="#DEDFDF" transform="translate(369,3)"/>
<path d="M0 0 C-1.67872725 3.96790076 -4.08277074 6.86931494 -7 10 C-7.99 10 -8.98 10 -10 10 C-9.41978222 6.7451198 -8.47352859 5.06347592 -6.125 2.75 C-5.61195313 2.22921875 -5.09890625 1.7084375 -4.5703125 1.171875 C-3 0 -3 0 0 0 Z " fill="#547598" transform="translate(247,4)"/>
<path d="M0 0 C2.4375 0.8125 2.4375 0.8125 5 2 C5.33 2.99 5.66 3.98 6 5 C2.375 8 2.375 8 -1 8 C-0.67 5.36 -0.34 2.72 0 0 Z " fill="#A4A2A1" transform="translate(323,69)"/>
<path d="M0 0 C1.98 1.65 3.96 3.3 6 5 C4.35830472 7.02054804 2.69088222 9.02043058 1 11 C0.67 11 0.34 11 0 11 C0 7.37 0 3.74 0 0 Z " fill="#7FA2C7" transform="translate(222,52)"/>
<path d="M0 0 C2.475 0.495 2.475 0.495 5 1 C5.33 3.97 5.66 6.94 6 10 C5.34 10 4.68 10 4 10 C3.71125 9.360625 3.4225 8.72125 3.125 8.0625 C2.17176549 5.84793921 2.17176549 5.84793921 0 5 C0 3.35 0 1.7 0 0 Z " fill="#56616D" transform="translate(94,48)"/>
<path d="M0 0 C0.66 0 1.32 0 2 0 C2 4.29 2 8.58 2 13 C-2.29 13 -6.58 13 -11 13 C-11 12.34 -11 11.68 -11 11 C-7.37 11 -3.74 11 0 11 C0 7.37 0 3.74 0 0 Z " fill="#E3C92C" transform="translate(331,8)"/>
<path d="M0 0 C0.33 0 0.66 0 1 0 C1 7.26 1 14.52 1 22 C-0.65 22.33 -2.3 22.66 -4 23 C-2.125 18.25 -2.125 18.25 -1 16 C-0.7677354 13.28737884 -0.58063765 10.59226874 -0.4375 7.875 C-0.39431641 7.12089844 -0.35113281 6.36679688 -0.30664062 5.58984375 C-0.2005168 3.72678112 -0.09974999 1.86341476 0 0 Z " fill="#676458" transform="translate(207,9)"/>
<path d="M0 0 C3.375 -0.125 3.375 -0.125 7 0 C9 2 9 2 9.1953125 4.1640625 C9.17210937 4.97617187 9.14890625 5.78828125 9.125 6.625 C9.10695312 7.44226563 9.08890625 8.25953125 9.0703125 9.1015625 C9.03550781 10.04128906 9.03550781 10.04128906 9 11 C6.69 11 4.38 11 2 11 C5 9 5 9 7 9 C6.67 6.69 6.34 4.38 6 2 C4.02 2 2.04 2 0 2 C0 1.34 0 0.68 0 0 Z " fill="#B2B2B2" transform="translate(238,18)"/>
<path d="M0 0 C2.25 2.6875 2.25 2.6875 2.25 4.6875 C0.6 4.6875 -1.05 4.6875 -2.75 4.6875 C-2.75 3.0375 -2.75 1.3875 -2.75 -0.3125 C-7.04 -0.3125 -11.33 -0.3125 -15.75 -0.3125 C-15.75 -0.6425 -15.75 -0.9725 -15.75 -1.3125 C-3.92770174 -3.24462318 -3.92770174 -3.24462318 0 0 Z " fill="#A4A4A4" transform="translate(31.75,3.3125)"/>
<path d="M0 0 C-0.64066406 0.36351562 -1.28132812 0.72703125 -1.94140625 1.1015625 C-7.47377716 4.3170985 -12.27462786 7.68552979 -17 12 C-14.61956533 6.85695079 -10.75375174 3.06693661 -6 0 C-2.48275862 -1.24137931 -2.48275862 -1.24137931 0 0 Z " fill="#7698BC" transform="translate(160,51)"/>
<path d="M0 0 C0.66 0 1.32 0 2 0 C2 1.32 2 2.64 2 4 C2.99 4 3.98 4 5 4 C5 4.66 5 5.32 5 6 C4.01 6 3.02 6 2 6 C2 6.99 2 7.98 2 9 C1.34 9 0.68 9 0 9 C0 8.01 0 7.02 0 6 C-1.32 6 -2.64 6 -4 6 C-4 5.34 -4 4.68 -4 4 C-2.68 4 -1.36 4 0 4 C0 2.68 0 1.36 0 0 Z " fill="#F8FAF9" transform="translate(34,68)"/>
<path d="M0 0 C0.99 0 1.98 0 3 0 C2.67 0.99 2.34 1.98 2 3 C1.34 2.67 0.68 2.34 0 2 C0.185625 2.61875 0.37125 3.2375 0.5625 3.875 C1 6 1 6 0 8 C0.99 7.67 1.98 7.34 3 7 C3 7.99 3 8.98 3 10 C1.35 10 -0.3 10 -2 10 C-1.85950482 8.52031676 -1.71245174 7.04125484 -1.5625 5.5625 C-1.48128906 4.73878906 -1.40007812 3.91507812 -1.31640625 3.06640625 C-1 1 -1 1 0 0 Z " fill="#CCAE2B" transform="translate(157,68)"/>
<path d="M0 0 C3.16115776 1.36983503 3.9927092 1.9890638 6 5 C2.7 5 -0.6 5 -4 5 C-2.68 3.35 -1.36 1.7 0 0 Z " fill="#A8C2DF" transform="translate(228,59)"/>
<path d="M0 0 C1.67542976 0.28604898 3.34385343 0.61781233 5 1 C4.67 2.65 4.34 4.3 4 6 C2.68 5.67 1.36 5.34 0 5 C-0.5625 3.0625 -0.5625 3.0625 -1 1 C-0.67 0.67 -0.34 0.34 0 0 Z " fill="#8F8F8F" transform="translate(547,52)"/>
<path d="M0 0 C1.37478516 0.01740234 1.37478516 0.01740234 2.77734375 0.03515625 C3.69644531 0.04417969 4.61554688 0.05320312 5.5625 0.0625 C6.27277344 0.07410156 6.98304688 0.08570313 7.71484375 0.09765625 C7.71484375 0.42765625 7.71484375 0.75765625 7.71484375 1.09765625 C5.40484375 1.42765625 3.09484375 1.75765625 0.71484375 2.09765625 C1.04484375 3.08765625 1.37484375 4.07765625 1.71484375 5.09765625 C0.06484375 5.42765625 -1.58515625 5.75765625 -3.28515625 6.09765625 C-3.32787725 4.4315372 -3.32579457 2.7638274 -3.28515625 1.09765625 C-2.28515625 0.09765625 -2.28515625 0.09765625 0 0 Z " fill="#EDCE4F" transform="translate(143.28515625,4.90234375)"/>
<path d="M0 0 C0.66 0.33 1.32 0.66 2 1 C-0.64 4.63 -3.28 8.26 -6 12 C-6.33 10.68 -6.66 9.36 -7 8 C-6.34 8 -5.68 8 -5 8 C-5 7.01 -5 6.02 -5 5 C-4.34 5 -3.68 5 -3 5 C-3 4.01 -3 3.02 -3 2 C-2.01 1.34 -1.02 0.68 0 0 Z " fill="#789CC4" transform="translate(245,50)"/>
<path d="M0 0 C2.475 0.99 2.475 0.99 5 2 C4.67 2.99 4.34 3.98 4 5 C1.4375 6.1875 1.4375 6.1875 -1 7 C-0.67 4.69 -0.34 2.38 0 0 Z " fill="#9A9797" transform="translate(317,68)"/>
<path d="M0 0 C5.875 0.875 5.875 0.875 7 2 C7.04080783 3.99958364 7.04254356 6.00045254 7 8 C6.01 8 5.02 8 4 8 C4 5 4 5 5 4 C4.01 4 3.02 4 2 4 C2 3.01 2 2.02 2 1 C1.34 0.67 0.68 0.34 0 0 Z " fill="#D2B841" transform="translate(520,65)"/>
<path d="M0 0 C2.31 0.33 4.62 0.66 7 1 C5.375 3.0625 5.375 3.0625 3 5 C-0.25 4.75 -0.25 4.75 -3 4 C-2.01 2.68 -1.02 1.36 0 0 Z " fill="#7FA2C7" transform="translate(149,59)"/>
<path d="M0 0 C0.6875 2.0625 0.6875 2.0625 1 4 C-1.31 4 -3.62 4 -6 4 C-6.33 2.68 -6.66 1.36 -7 0 C-3.98968256 -0.93423645 -3.13349732 -1.04449911 0 0 Z " fill="#BC9B08" transform="translate(159,28)"/>
<path d="M0 0 C0.66 0 1.32 0 2 0 C2 1.32 2 2.64 2 4 C2.99 4.33 3.98 4.66 5 5 C4.01 5.99 3.02 6.98 2 8 C-1.875 6.25 -1.875 6.25 -3 4 C-2.01 4 -1.02 4 0 4 C0 2.68 0 1.36 0 0 Z " fill="#6891BC" transform="translate(327,21)"/>
<path d="M0 0 C1.32 0.99 2.64 1.98 4 3 C2.25 6.875 2.25 6.875 0 8 C0 7.01 0 6.02 0 5 C-1.32 5 -2.64 5 -4 5 C-4 4.34 -4 3.68 -4 3 C-2.68 3 -1.36 3 0 3 C0 2.01 0 1.02 0 0 Z " fill="#6891BC" transform="translate(337,12)"/>
<path d="M0 0 C0.33 0.99 0.66 1.98 1 3 C2.32 3 3.64 3 5 3 C5 3.66 5 4.32 5 5 C3.68 5 2.36 5 1 5 C0.67 5.99 0.34 6.98 0 8 C-0.99 7.01 -1.98 6.02 -3 5 C-1.125 1.125 -1.125 1.125 0 0 Z " fill="#6891BC" transform="translate(318,12)"/>
<path d="M0 0 C0.99 0 1.98 0 3 0 C4.05404945 3.98196457 3.84098656 6.98195309 3 11 C2.34 10.67 1.68 10.34 1 10 C1.33 8.35 1.66 6.7 2 5 C1.34 5 0.68 5 0 5 C-0.33 6.32 -0.66 7.64 -1 9 C-1.33 7.35 -1.66 5.7 -2 4 C-1.01 4 -0.02 4 1 4 C0.67 2.68 0.34 1.36 0 0 Z " fill="#64694F" transform="translate(331,3)"/>
<path d="M0 0 C3.875 1.75 3.875 1.75 5 4 C4.01 4 3.02 4 2 4 C2 5.32 2 6.64 2 8 C1.34 8 0.68 8 0 8 C0 6.68 0 5.36 0 4 C-0.99 3.67 -1.98 3.34 -3 3 C-2.01 2.01 -1.02 1.02 0 0 Z " fill="#6891BC" transform="translate(327,3)"/>
<path d="M0 0 C2.64 0.33 5.28 0.66 8 1 C8 1.66 8 2.32 8 3 C5.23749964 4.38125018 3.05268901 4.19079306 0 4 C-0.66 3.34 -1.32 2.68 -2 2 C-1.34 2 -0.68 2 0 2 C0 1.34 0 0.68 0 0 Z " fill="#9AB5D3" transform="translate(152,56)"/>
<path d="M0 0 C2.13586678 3.20380017 2.23132175 4.01939967 2.125 7.6875 C2.10695313 8.49574219 2.08890625 9.30398437 2.0703125 10.13671875 C2.03550781 11.05904297 2.03550781 11.05904297 2 12 C-0.44839588 8.32740617 -2 5.45351799 -2 1 C-1.34 0.67 -0.68 0.34 0 0 Z " fill="#CB6833" transform="translate(13,58)"/>
<path d="M0 0 C-0.59646305 3.34019306 -1.68294159 5.50470633 -4 8 C-4.99 8 -5.98 8 -7 8 C-6.44414399 4.1090079 -4.34122117 0 0 0 Z " fill="#56544E" transform="translate(573,22)"/>
<path d="M0 0 C0 3.63 0 7.26 0 11 C-0.66 11 -1.32 11 -2 11 C-2 8.36 -2 5.72 -2 3 C-2.99 3.33 -3.98 3.66 -5 4 C-5 3.34 -5 2.68 -5 2 C-2 0 -2 0 0 0 Z " fill="#3E3E3E" transform="translate(581,7)"/>
<path d="M0 0 C2.05078125 0.03255208 4.1015625 0.06510417 6.15234375 0.09765625 C5.82234375 1.08765625 5.49234375 2.07765625 5.15234375 3.09765625 C3.17234375 3.42765625 1.19234375 3.75765625 -0.84765625 4.09765625 C-1.50765625 3.10765625 -2.16765625 2.11765625 -2.84765625 1.09765625 C-1.84765625 0.09765625 -1.84765625 0.09765625 0 0 Z " fill="#D8D9DA" transform="translate(454.84765625,2.90234375)"/>
<path d="M0 0 C2.0625 0.4375 2.0625 0.4375 4 1 C3.67 1.99 3.34 2.98 3 4 C2.34 3.67 1.68 3.34 1 3 C1.185625 3.61875 1.37125 4.2375 1.5625 4.875 C2 7 2 7 1 9 C0.34 9 -0.32 9 -1 9 C-1.09765625 2.84765625 -1.09765625 2.84765625 -1 1 C-0.67 0.67 -0.34 0.34 0 0 Z " fill="#CEB235" transform="translate(282,67)"/>
<path d="M0 0 C0 3 0 3 -2.375 5.6875 C-5 8 -5 8 -7 8 C-6.4376049 4.73810844 -5.5859495 3.08865152 -3 1 C-2.01 0.67 -1.02 0.34 0 0 Z " fill="#D2D2D2" transform="translate(559,60)"/>
<path d="M0 0 C2.92879371 0.62759865 5.36095629 1.58622659 8 3 C8 3.99 8 4.98 8 6 C5.07120629 5.37240135 2.63904371 4.41377341 0 3 C0 2.01 0 1.02 0 0 Z " fill="#CEC8C5" transform="translate(334,48)"/>
<path d="M0 0 C-0.54087318 3.78611227 -2.11722332 5.55400767 -5 8 C-5.66 8 -6.32 8 -7 8 C-6.44414399 4.1090079 -4.34122117 0 0 0 Z " fill="#E0C162" transform="translate(447,22)"/>
<path d="M0 0 C-0.54087318 3.78611227 -2.11722332 5.55400767 -5 8 C-5.66 8 -6.32 8 -7 8 C-6.44414399 4.1090079 -4.34122117 0 0 0 Z " fill="#E0C262" transform="translate(405,22)"/>
<path d="M0 0 C-0.54087318 3.78611227 -2.11722332 5.55400767 -5 8 C-5.66 8 -6.32 8 -7 8 C-6.44414399 4.1090079 -4.34122117 0 0 0 Z " fill="#E1C262" transform="translate(363,22)"/>
<path d="M0 0 C0.99 0.33 1.98 0.66 3 1 C1.02 3.31 -0.96 5.62 -3 8 C-3.66 7.67 -4.32 7.34 -5 7 C-3.70700306 4.11562221 -2.34058637 2.12780579 0 0 Z " fill="#E9C862" transform="translate(529,22)"/>
<path d="M0 0 C0.99 0.33 1.98 0.66 3 1 C1.02 3.31 -0.96 5.62 -3 8 C-3.66 7.67 -4.32 7.34 -5 7 C-3.70700306 4.11562221 -2.34058637 2.12780579 0 0 Z " fill="#E9C862" transform="translate(487,22)"/>
<path d="M0 0 C2.64 0 5.28 0 8 0 C8 1.32 8 2.64 8 4 C5.6875 4.25 5.6875 4.25 3 4 C1.1875 2 1.1875 2 0 0 Z " fill="#FEE57F" transform="translate(143,6)"/>
<path d="M0 0 C1.98 0 3.96 0 6 0 C6 1.98 6 3.96 6 6 C5.67 5.01 5.34 4.02 5 3 C3.68 3 2.36 3 1 3 C1 4.65 1 6.3 1 8 C0.67 8 0.34 8 0 8 C0 5.36 0 2.72 0 0 Z " fill="#E0E0DA" transform="translate(152,4)"/>
<path d="M0 0 C0.66 0.66 1.32 1.32 2 2 C2.66 1.34 3.32 0.68 4 0 C4.99 0 5.98 0 7 0 C5.84826645 2.46800047 4.95216435 4.04783565 3 6 C2.01 6 1.02 6 0 6 C0 4.02 0 2.04 0 0 Z " fill="#8C8B88" transform="translate(360,71)"/>
<path d="M0 0 C1.65 0 3.3 0 5 0 C5 1.65 5 3.3 5 5 C3.35 5 1.7 5 0 5 C0 3.35 0 1.7 0 0 Z " fill="#515151" transform="translate(441,71)"/>
<path d="M0 0 C0.33 0.66 0.66 1.32 1 2 C1.66 2.33 2.32 2.66 3 3 C1.02 5.97 1.02 5.97 -1 9 C-2.32 8.34 -3.64 7.68 -5 7 C-4.54625 6.5875 -4.0925 6.175 -3.625 5.75 C-1.94049626 3.93591905 -1.00734029 2.24714373 0 0 Z " fill="#B9A938" transform="translate(369,63)"/>
<path d="M0 0 C1.65 0 3.3 0 5 0 C5 1.65 5 3.3 5 5 C3.35 5 1.7 5 0 5 C0 3.35 0 1.7 0 0 Z " fill="#515151" transform="translate(462,50)"/>
<path d="M0 0 C0.99 0.33 1.98 0.66 3 1 C3 2.65 3 4.3 3 6 C1.68 6 0.36 6 -1 6 C-1.33 4.35 -1.66 2.7 -2 1 C-1.34 0.67 -0.68 0.34 0 0 Z " fill="#B2B2B2" transform="translate(241,20)"/>
<path d="M0 0 C0.66 0 1.32 0 2 0 C2 0.99 2 1.98 2 3 C1.34 3 0.68 3 0 3 C0 2.01 0 1.02 0 0 Z M-5 2 C-2.69 2.66 -0.38 3.32 2 4 C2 4.99 2 5.98 2 7 C0.35 7 -1.3 7 -3 7 C-3 6.01 -3 5.02 -3 4 C-3.66 4 -4.32 4 -5 4 C-5 3.34 -5 2.68 -5 2 Z " fill="#EAE2B1" transform="translate(159,19)"/>
<path d="M0 0 C0.66 0 1.32 0 2 0 C2 3.3 2 6.6 2 10 C1.34 10 0.68 10 0 10 C0 8.02 0 6.04 0 4 C-0.66 4 -1.32 4 -2 4 C-1.34 2.68 -0.68 1.36 0 0 Z " fill="#383838" transform="translate(588,7)"/>
<path d="M0 0 C1.98 0 3.96 0 6 0 C6 1.32 6 2.64 6 4 C4.02 4 2.04 4 0 4 C0 2.68 0 1.36 0 0 Z " fill="#6E97C4" transform="translate(230,72)"/>
<path d="M0 0 C1.98 0 3.96 0 6 0 C6 1.32 6 2.64 6 4 C4.02 4 2.04 4 0 4 C0 2.68 0 1.36 0 0 Z " fill="#6E97C4" transform="translate(222,72)"/>
<path d="M0 0 C0 4.05480631 -1.54870092 5.84832975 -4 9 C-4.99 9 -5.98 9 -7 9 C-5.44499019 5.18315774 -2.96404505 2.80804268 0 0 Z " fill="#EAD53F" transform="translate(559,68)"/>
<path d="M0 0 C1.98 0 3.96 0 6 0 C6 1.32 6 2.64 6 4 C4.02 4 2.04 4 0 4 C0 2.68 0 1.36 0 0 Z " fill="#91B1D4" transform="translate(230,66)"/>
<path d="M0 0 C1.98 0 3.96 0 6 0 C6 1.32 6 2.64 6 4 C4.02 4 2.04 4 0 4 C0 2.68 0 1.36 0 0 Z " fill="#8DAFD2" transform="translate(222,66)"/>
<path d="M0 0 C0.66 0 1.32 0 2 0 C2.56016748 1.40945366 3.09748502 2.8280031 3.625 4.25 C3.92664063 5.03890625 4.22828125 5.8278125 4.5390625 6.640625 C5.09752136 9.49917715 4.53690745 10.58959839 3 13 C1.90154282 8.67940177 0.82187261 4.38332057 0 0 Z " fill="#2C3A49" transform="translate(99,58)"/>
<path d="M0 0 C0.66 0.66 1.32 1.32 2 2 C1.76236269 6.39629018 -0.14143559 8.77258856 -3 12 C-3.33 11.01 -3.66 10.02 -4 9 C-3.04504326 7.30712215 -2.0409066 5.64142963 -1 4 C-0.30420546 1.80869466 -0.30420546 1.80869466 0 0 Z " fill="#DBCB54" transform="translate(371,49)"/>
<path d="M0 0 C1.32 0 2.64 0 4 0 C4 1.98 4 3.96 4 6 C2.68 6 1.36 6 0 6 C0 4.02 0 2.04 0 0 Z " fill="#546A82" transform="translate(103,21)"/>
<path d="M0 0 C2.97 0 5.94 0 9 0 C9 0.66 9 1.32 9 2 C9.66 2 10.32 2 11 2 C10.67 2.99 10.34 3.98 10 5 C9.01 5 8.02 5 7 5 C7 4.01 7 3.02 7 2 C4.69 1.67 2.38 1.34 0 1 C0 0.67 0 0.34 0 0 Z " fill="#CEBA59" transform="translate(154,17)"/>
<path d="M0 0 C0 0.99 0 1.98 0 3 C-5.34883721 8 -5.34883721 8 -8 8 C-6.48291727 4.46014029 -4.24676932 0 0 0 Z " fill="#807F7D" transform="translate(568,60)"/>
<path d="M0 0 C2.3773161 2.3773161 2.67028521 3.70285207 3 7 C2.34 7.66 1.68 8.32 1 9 C-1.625 8.625 -1.625 8.625 -4 8 C-3.34 7.34 -2.68 6.68 -2 6 C-1.34 6.33 -0.68 6.66 0 7 C-0.185625 6.030625 -0.37125 5.06125 -0.5625 4.0625 C-0.706875 3.051875 -0.85125 2.04125 -1 1 C-0.67 0.67 -0.34 0.34 0 0 Z " fill="#526880" transform="translate(451,2)"/>
<path d="M0 0 C1.32 0 2.64 0 4 0 C4 1.65 4 3.3 4 5 C2.68 5 1.36 5 0 5 C-0.5625 3.0625 -0.5625 3.0625 -1 1 C-0.67 0.67 -0.34 0.34 0 0 Z " fill="#727C86" transform="translate(120,48)"/>
<path d="M0 0 C0.33 0.99 0.66 1.98 1 3 C2.98 3 4.96 3 7 3 C7 3.33 7 3.66 7 4 C3.7 4 0.4 4 -3 4 C-3.33 3.01 -3.66 2.02 -4 1 C-2.68 0.67 -1.36 0.34 0 0 Z " fill="#BC9A05" transform="translate(285,75)"/>
<path d="M0 0 C0.33 0.99 0.66 1.98 1 3 C-0.28965176 4.37562854 -1.62689293 5.70766393 -3 7 C-3.66 7 -4.32 7 -5 7 C-4.67 5.35 -4.34 3.7 -4 2 C-2.68 2 -1.36 2 0 2 C0 1.34 0 0.68 0 0 Z " fill="#B0A450" transform="translate(379,51)"/>
<path d="M0 0 C1.32 0 2.64 0 4 0 C4 1.65 4 3.3 4 5 C2.68 5 1.36 5 0 5 C0 3.35 0 1.7 0 0 Z " fill="#525455" transform="translate(405,67)"/>
<path d="M0 0 C0.66 0 1.32 0 2 0 C1.67 1.98 1.34 3.96 1 6 C-0.32 6 -1.64 6 -3 6 C-3 4.68 -3 3.36 -3 2 C-2.01 2 -1.02 2 0 2 C0 1.34 0 0.68 0 0 Z " fill="#747D88" transform="translate(106,65)"/>
<path d="M0 0 C2.31 0.33 4.62 0.66 7 1 C6.67 1.99 6.34 2.98 6 4 C4.35 3.67 2.7 3.34 1 3 C0.67 2.01 0.34 1.02 0 0 Z " fill="#84A5C8" transform="translate(225,51)"/>
<path d="M0 0 C0.99 0 1.98 0 3 0 C3 1.32 3 2.64 3 4 C1.35 4.33 -0.3 4.66 -2 5 C-1.125 1.125 -1.125 1.125 0 0 Z " fill="#677B90" transform="translate(264,48)"/>
<path d="M0 0 C1.68762851 1.6454378 3.3540349 3.31288577 5 5 C5 5.33 5 5.66 5 6 C3.02 6 1.04 6 -1 6 C-0.67 4.02 -0.34 2.04 0 0 Z " fill="#B2B2B3" transform="translate(201,5)"/>
<path d="M0 0 C1.68762851 1.6454378 3.3540349 3.31288577 5 5 C5 5.33 5 5.66 5 6 C3.02 6 1.04 6 -1 6 C-0.67 4.02 -0.34 2.04 0 0 Z " fill="#BABBBC" transform="translate(159,5)"/>
<path d="M0 0 C1.32 0 2.64 0 4 0 C4 0.99 4 1.98 4 3 C3.01 3.33 2.02 3.66 1 4 C1 4.66 1 5.32 1 6 C0.34 6 -0.32 6 -1 6 C-1.042721 4.33388095 -1.04063832 2.66617115 -1 1 C-0.67 0.67 -0.34 0.34 0 0 Z " fill="#D8C25D" transform="translate(516,66)"/>
<path d="M0 0 C1.32 0 2.64 0 4 0 C4 1.65 4 3.3 4 5 C2.68 4.67 1.36 4.34 0 4 C0 2.68 0 1.36 0 0 Z " fill="#9C9E9C" transform="translate(498,49)"/>
<path d="M0 0 C-0.33 1.65 -0.66 3.3 -1 5 C-2.32 4.67 -3.64 4.34 -5 4 C-4.67 3.67 -4.34 3.34 -4 3 C-5.65 2.67 -7.3 2.34 -9 2 C-9 1.67 -9 1.34 -9 1 C-2.25 0 -2.25 0 0 0 Z " fill="#445465" transform="translate(463,22)"/>
<path d="M0 0 C1.32 0 2.64 0 4 0 C4 1.32 4 2.64 4 4 C2.02 4 0.04 4 -2 4 C-1.34 3.67 -0.68 3.34 0 3 C0 2.01 0 1.02 0 0 Z " fill="#679567" transform="translate(36,74)"/>
<path d="M0 0 C0.33 0.99 0.66 1.98 1 3 C2.65 3 4.3 3 6 3 C2.375 6 2.375 6 -1 6 C-0.67 4.02 -0.34 2.04 0 0 Z " fill="#37495C" transform="translate(138,68)"/>
<path d="M0 0 C2.475 0.495 2.475 0.495 5 1 C5.33 1.99 5.66 2.98 6 4 C3.03 3.505 3.03 3.505 0 3 C0 2.01 0 1.02 0 0 Z " fill="#B6B1B0" transform="translate(327,48)"/>
<path d="M0 0 C1.98 0 3.96 0 6 0 C6 0.99 6 1.98 6 3 C4.02 3 2.04 3 0 3 C0 2.01 0 1.02 0 0 Z " fill="#E3EAFA" transform="translate(146,25)"/>
<path d="M0 0 C2.475 0.99 2.475 0.99 5 2 C5 2.66 5 3.32 5 4 C4.01 4 3.02 4 2 4 C2 4.66 2 5.32 2 6 C1.34 6 0.68 6 0 6 C0 4.02 0 2.04 0 0 Z " fill="#F5F0D8" transform="translate(283,70)"/>
<path d="M0 0 C2.475 0.99 2.475 0.99 5 2 C5 2.66 5 3.32 5 4 C4.01 4 3.02 4 2 4 C2 4.66 2 5.32 2 6 C1.34 6 0.68 6 0 6 C0 4.02 0 2.04 0 0 Z " fill="#F5F0D8" transform="translate(157,70)"/>
<path d="M0 0 C2.475 0.99 2.475 0.99 5 2 C5 2.66 5 3.32 5 4 C4.01 4 3.02 4 2 4 C2 4.66 2 5.32 2 6 C1.34 6 0.68 6 0 6 C0 4.02 0 2.04 0 0 Z " fill="#F6F0D9" transform="translate(73,70)"/>
<path d="M0 0 C1.32 0.33 2.64 0.66 4 1 C4 2.65 4 4.3 4 6 C3.67 5.34 3.34 4.68 3 4 C2.01 4 1.02 4 0 4 C0 2.68 0 1.36 0 0 Z " fill="#93B594" transform="translate(36,68)"/>
<path d="M0 0 C0.66 0 1.32 0 2 0 C0.8141763 3.37503669 -0.27573689 5.64722731 -3 8 C-2.25 2.25 -2.25 2.25 0 0 Z " fill="#4A627D" transform="translate(142,63)"/>
<path d="M0 0 C2.96175123 0.61277612 4.38058783 1.25372522 7 3 C7 3.66 7 4.32 7 5 C2.25 3.125 2.25 3.125 0 2 C0 1.34 0 0.68 0 0 Z " fill="#D8D8D8" transform="translate(372,48)"/>
<path d="M0 0 C0 1.65 0 3.3 0 5 C-1.32 5 -2.64 5 -4 5 C-4 4.01 -4 3.02 -4 2 C-1 0 -1 0 0 0 Z " fill="#E1E3E3" transform="translate(453,10)"/>
</svg>
