<?xml version="1.0" encoding="UTF-8"?>
<svg version="1.1" xmlns="http://www.w3.org/2000/svg" width="418" height="697">
<path d="M0 0 C137.94 0 275.88 0 418 0 C418 230.01 418 460.02 418 697 C280.06 697 142.12 697 0 697 C0 466.99 0 236.98 0 0 Z " fill="#333333" transform="translate(0,0)"/>
<path d="M0 0 C130.68 0 261.36 0 396 0 C396 92.07 396 184.14 396 279 C265.32 279 134.64 279 0 279 C0 186.93 0 94.86 0 0 Z " fill="#212021" transform="translate(22,55)"/>
<path d="M0 0 C130.68 0 261.36 0 396 0 C396 25.74 396 51.48 396 78 C284.13 78 172.26 78 57 78 C57 83.28 57 88.56 57 94 C56 95 56 95 52.18359375 95.09765625 C50.60152953 95.09191138 49.01948969 95.07889593 47.4375 95.0625 C44.653125 95.041875 41.86875 95.02125 39 95 C39 89.39 39 83.78 39 78 C33.39 78 27.78 78 22 78 C22.03957157 83.22063275 22.03957157 83.22063275 22.09008789 88.44116211 C22.09723945 90.29433759 22.0502852 92.14749308 22 94 C21 95 21 95 17.18359375 95.09765625 C15.60152953 95.09191138 14.01948969 95.07889593 12.4375 95.0625 C9.653125 95.041875 6.86875 95.02125 4 95 C4 89.39 4 83.78 4 78 C3.01 78 2.02 78 1 78 C1 83.94 1 89.88 1 96 C0.67 96 0.34 96 0 96 C0 64.32 0 32.64 0 0 Z " fill="#222222" transform="translate(22,55)"/>
<path d="M0 0 C130.35 0 260.7 0 395 0 C395 6.27 395 12.54 395 19 C292.04 19 189.08 19 83 19 C83 21.64 83 24.28 83 27 C89.93 27.495 89.93 27.495 97 28 C97 28.99 97 29.98 97 31 C94.36 31.66 91.72 32.32 89 33 C89 35.31 89 37.62 89 40 C89.391875 39.175 89.78375 38.35 90.1875 37.5 C90.785625 36.675 91.38375 35.85 92 35 C94.6875 34.6875 94.6875 34.6875 97 35 C96.96744792 37.05078125 96.93489583 39.1015625 96.90234375 41.15234375 C96.79438816 43.01732141 96.79438816 43.01732141 98 44 C97.9175 43.236875 97.835 42.47375 97.75 41.6875 C97.8325 40.800625 97.915 39.91375 98 39 C99.32 38.01 100.64 37.02 102 36 C102 39.96 102 43.92 102 48 C95.73 48 89.46 48 83 48 C83 53.28 83 58.56 83 64 C66.17 64 49.34 64 32 64 C32 49.15 32 34.3 32 19 C21.44 19 10.88 19 0 19 C0 12.73 0 6.46 0 0 Z " fill="#535353" transform="translate(23,391)"/>
<path d="M0 0 C4.62 0 9.24 0 14 0 C14 213.84 14 427.68 14 648 C9.38 648 4.76 648 0 648 C0 434.16 0 220.32 0 0 Z " fill="#D7D7D7" transform="translate(0,32)"/>
<path d="M0 0 C130.02 0 260.04 0 394 0 C394 6.93 394 13.86 394 21 C263.98 21 133.96 21 0 21 C0 14.07 0 7.14 0 0 Z " fill="#323232" transform="translate(24,57)"/>
<path d="M0 0 C111.87 0 223.74 0 339 0 C339 5.94 339 11.88 339 18 C227.13 18 115.26 18 0 18 C0 12.06 0 6.12 0 0 Z " fill="#0F6E01" transform="translate(79,133)"/>
<path d="M0 0 C66.66 0 133.32 0 202 0 C202 7.92 202 15.84 202 24 C135.34 24 68.68 24 0 24 C0 16.08 0 8.16 0 0 Z " fill="#504F50" transform="translate(123,558)"/>
<path d="M0 0 C75.9 0 151.8 0 230 0 C230 6.6 230 13.2 230 20 C154.1 20 78.2 20 0 20 C0 13.4 0 6.8 0 0 Z " fill="#222222" transform="translate(123,528)"/>
<path d="M0 0 C75.9 0 151.8 0 230 0 C230 6.6 230 13.2 230 20 C154.1 20 78.2 20 0 20 C0 13.4 0 6.8 0 0 Z " fill="#222222" transform="translate(123,496)"/>
<path d="M0 0 C16.83 0 33.66 0 51 0 C51 5.28 51 10.56 51 16 C57.93 16.495 57.93 16.495 65 17 C65 17.99 65 18.98 65 20 C62.36 20.66 59.72 21.32 57 22 C57 24.31 57 26.62 57 29 C57.391875 28.175 57.78375 27.35 58.1875 26.5 C58.785625 25.675 59.38375 24.85 60 24 C62.6875 23.6875 62.6875 23.6875 65 24 C64.96744792 26.05078125 64.93489583 28.1015625 64.90234375 30.15234375 C64.79438816 32.01732141 64.79438816 32.01732141 66 33 C65.9175 32.236875 65.835 31.47375 65.75 30.6875 C65.8325 29.800625 65.915 28.91375 66 28 C67.32 27.01 68.64 26.02 70 25 C70 28.96 70 32.92 70 37 C63.73 37 57.46 37 51 37 C51 42.28 51 47.56 51 53 C34.17 53 17.34 53 0 53 C0 35.51 0 18.02 0 0 Z " fill="#323131" transform="translate(55,402)"/>
<path d="M0 0 C48.84 0 97.68 0 148 0 C148 6.27 148 12.54 148 19 C99.16 19 50.32 19 0 19 C0 12.73 0 6.46 0 0 Z " fill="#505050" transform="translate(205,660)"/>
<path d="M0 0 C23.1 0 46.2 0 70 0 C70 6.6 70 13.2 70 20 C176.92 20 283.84 20 394 20 C394 20.33 394 20.66 394 21 C263.98 21 133.96 21 0 21 C0 14.07 0 7.14 0 0 Z " fill="#404040" transform="translate(24,57)"/>
<path d="M0 0 C16.83 0 33.66 0 51 0 C51 5.28 51 10.56 51 16 C57.93 16.495 57.93 16.495 65 17 C65 17.99 65 18.98 65 20 C62.36 20.66 59.72 21.32 57 22 C57 24.31 57 26.62 57 29 C57.391875 28.175 57.78375 27.35 58.1875 26.5 C58.785625 25.675 59.38375 24.85 60 24 C62.6875 23.6875 62.6875 23.6875 65 24 C64.96744792 26.05078125 64.93489583 28.1015625 64.90234375 30.15234375 C64.79438816 32.01732141 64.79438816 32.01732141 66 33 C65.9175 32.236875 65.835 31.47375 65.75 30.6875 C65.8325 29.800625 65.915 28.91375 66 28 C67.32 27.01 68.64 26.02 70 25 C70 28.96 70 32.92 70 37 C63.73 37 57.46 37 51 37 C51 42.28 51 47.56 51 53 C34.17 53 17.34 53 0 53 C0 35.51 0 18.02 0 0 Z M5 5 C5 19.19 5 33.38 5 48 C18.53 48 32.06 48 46 48 C46 33.81 46 19.62 46 5 C32.47 5 18.94 5 5 5 Z " fill="#ED1C24" transform="translate(55,402)"/>
<path d="M0 0 C1.65 0 3.3 0 5 0 C5 75.57 5 151.14 5 229 C3.35 229 1.7 229 0 229 C0 153.43 0 77.86 0 0 Z " fill="#535353" transform="translate(413,450)"/>
<path d="M0 0 C33.99 0 67.98 0 103 0 C103 3.63 103 7.26 103 11 C69.01 11 35.02 11 0 11 C0 7.37 0 3.74 0 0 Z " fill="#232323" transform="translate(207,686)"/>
<path d="M0 0 C1.53426888 0.00090637 1.53426888 0.00090637 3.09953308 0.00183105 C4.21161636 0.00831665 5.32369965 0.01480225 6.46948242 0.02148438 C7.64839554 0.02506958 8.82730865 0.02865479 10.04194641 0.03234863 C24.78723765 0.09687343 39.53074684 0.33695734 54.27398682 0.57879639 C58.07675731 0.64069834 61.87956683 0.70010633 65.68237305 0.75976562 C73.06327123 0.87590573 80.44412394 0.99466065 87.82495117 1.11523438 C87.82495117 3.42523437 87.82495117 5.73523438 87.82495117 8.11523438 C55.48495117 8.11523438 23.14495117 8.11523438 -10.17504883 8.11523438 C-10.17504883 5.80523438 -10.17504883 3.49523437 -10.17504883 1.11523438 C-6.71968517 0.33290068 -3.53999714 -0.00822528 0 0 Z " fill="#202020" transform="translate(328.175048828125,688.884765625)"/>
<path d="M0 0 C11.22 0 22.44 0 34 0 C34 6.6 34 13.2 34 20 C22.78 20 11.56 20 0 20 C0 13.4 0 6.8 0 0 Z " fill="#333333" transform="translate(59,57)"/>
<path d="M0 0 C7.59 0 15.18 0 23 0 C23 7.59 23 15.18 23 23 C15.41 23 7.82 23 0 23 C0 15.41 0 7.82 0 0 Z " fill="#545454" transform="translate(330,558)"/>
<path d="M0 0 C2.3125 0.375 2.3125 0.375 3.3125 1.375 C5.32844582 1.60927778 7.350974 1.78836124 9.375 1.9375 C12.3140625 2.1540625 12.3140625 2.1540625 15.3125 2.375 C15.3125 8.975 15.3125 15.575 15.3125 22.375 C12.198125 22.395625 9.08375 22.41625 5.875 22.4375 C4.40075562 22.45115601 4.40075562 22.45115601 2.89672852 22.46508789 C2.12772217 22.46758545 1.35871582 22.47008301 0.56640625 22.47265625 C-0.22435303 22.47789307 -1.0151123 22.48312988 -1.82983398 22.48852539 C-3.6875 22.375 -3.6875 22.375 -4.6875 21.375 C-4.89785905 19.25387958 -5.05600101 17.12746581 -5.1875 15 C-5.40330047 11.52407092 -5.5850492 8.6823524 -6.6875 5.375 C-3.75424542 0.5238482 -3.75424542 0.5238482 0 0 Z " fill="#9E9D9D" transform="translate(148.6875,416.625)"/>
<path d="M0 0 C2.375 0.625 2.375 0.625 5 2 C6.3125 5.125 6.3125 5.125 7 8 C6.67 8.33 6.34 8.66 6 9 C5.76518307 11.18292774 5.58636677 13.37203174 5.4375 15.5625 C5.35371094 16.76003906 5.26992187 17.95757812 5.18359375 19.19140625 C5.09271484 20.58166016 5.09271484 20.58166016 5 22 C1.85418577 22.02888514 -1.29159469 22.04675923 -4.4375 22.0625 C-5.33533203 22.07087891 -6.23316406 22.07925781 -7.15820312 22.08789062 C-8.43920898 22.09272461 -8.43920898 22.09272461 -9.74609375 22.09765625 C-10.53685303 22.10289307 -11.3276123 22.10812988 -12.14233398 22.11352539 C-14 22 -14 22 -15 21 C-15.08651611 19.58429877 -15.10704904 18.164405 -15.09765625 16.74609375 C-15.09443359 15.89208984 -15.09121094 15.03808594 -15.08789062 14.15820312 C-15.07951172 13.26037109 -15.07113281 12.36253906 -15.0625 11.4375 C-15.05798828 10.53580078 -15.05347656 9.63410156 -15.04882812 8.70507812 C-15.03700225 6.46998686 -15.0205222 4.23502563 -15 2 C-11.5309615 1.03529547 -8.84547153 1.05227091 -5.25 1.4375 C-4.26515625 1.53933594 -3.2803125 1.64117187 -2.265625 1.74609375 C-1.14414063 1.87177734 -1.14414063 1.87177734 0 2 C0 1.34 0 0.68 0 0 Z " fill="#969696" transform="translate(193,417)"/>
<path d="M0 0 C1.18613892 0.07069702 1.18613892 0.07069702 2.39624023 0.14282227 C3.16524658 0.18592529 3.93425293 0.22902832 4.7265625 0.2734375 C5.70939209 0.33474854 6.69222168 0.39605957 7.70483398 0.45922852 C12.37639648 0.73766602 12.37639648 0.73766602 17.14233398 1.02172852 C17.14233398 7.62172852 17.14233398 14.22172852 17.14233398 21.02172852 C14.02795898 21.04235352 10.91358398 21.06297852 7.70483398 21.08422852 C6.2305896 21.09788452 6.2305896 21.09788452 4.7265625 21.11181641 C3.95755615 21.11431396 3.1885498 21.11681152 2.39624023 21.11938477 C1.60548096 21.12462158 0.81472168 21.1298584 0 21.13525391 C-1.85766602 21.02172852 -1.85766602 21.02172852 -2.85766602 20.02172852 C-2.95626733 18.61824116 -2.98845538 17.20992374 -2.99047852 15.80297852 C-2.99176758 14.95348633 -2.99305664 14.10399414 -2.99438477 13.22875977 C-2.99051758 12.33543945 -2.98665039 11.44211914 -2.98266602 10.52172852 C-2.9865332 9.6284082 -2.99040039 8.73508789 -2.99438477 7.81469727 C-2.9930957 6.96520508 -2.99180664 6.11571289 -2.99047852 5.24047852 C-2.98935059 4.45608398 -2.98822266 3.67168945 -2.98706055 2.86352539 C-2.81022768 0.34649301 -2.53379826 0.02963701 0 0 Z " fill="#E1E1E1" transform="translate(253.857666015625,417.978271484375)"/>
<path d="M0 0 C2.45174415 0.09168163 4.86912314 0.23864707 7.3125 0.4375 C11.21838722 0.73852461 15.07806767 1 19 1 C19 6.28 19 11.56 19 17 C19.99 17 20.98 17 22 17 C21.67 18.32 21.34 19.64 21 21 C17.70840684 21.05790353 14.41694397 21.09356261 11.125 21.125 C9.71927734 21.15013672 9.71927734 21.15013672 8.28515625 21.17578125 C6.94130859 21.18544922 6.94130859 21.18544922 5.5703125 21.1953125 C4.74289551 21.20578613 3.91547852 21.21625977 3.06298828 21.22705078 C1 21 1 21 -1 19 C-1.24291992 17.13647461 -1.24291992 17.13647461 -1.23046875 14.90234375 C-1.22853516 14.10119141 -1.22660156 13.30003906 -1.22460938 12.47460938 C-1.21236328 11.63736328 -1.20011719 10.80011719 -1.1875 9.9375 C-1.18685547 9.09638672 -1.18621094 8.25527344 -1.18554688 7.38867188 C-1.14023184 1.14023184 -1.14023184 1.14023184 0 0 Z " fill="#B5B5B5" transform="translate(218,418)"/>
<path d="M0 0 C3.5 0.875 3.5 0.875 5.5 2.5 C6.96981805 5.99081787 6.48413921 8.26648956 5.5 11.875 C3.5625 13.8125 3.5625 13.8125 1.5 14.875 C0.84 14.875 0.18 14.875 -0.5 14.875 C-0.479375 15.679375 -0.45875 16.48375 -0.4375 17.3125 C-0.5 19.875 -0.5 19.875 -1.5 20.875 C-5.83530918 21.01893457 -10.16157731 20.91712061 -14.5 20.875 C-14.5 16.255 -14.5 11.635 -14.5 6.875 C-12.52 6.545 -10.54 6.215 -8.5 5.875 C-7.25825204 3.9748823 -7.25825204 3.9748823 -6.5 1.875 C-3.5 -0.125 -3.5 -0.125 0 0 Z " fill="#4F5E56" transform="translate(338.5,418.125)"/>
<path d="M0 0 C5.61 0 11.22 0 17 0 C17 5.94 17 11.88 17 18 C11.39 18 5.78 18 0 18 C0 12.06 0 6.12 0 0 Z " fill="#0F6E00" transform="translate(44,133)"/>
<path d="M0 0 C5.28 0 10.56 0 16 0 C16 5.94 16 11.88 16 18 C10.72 18 5.44 18 0 18 C0 12.06 0 6.12 0 0 Z " fill="#575757" transform="translate(336,529)"/>
<path d="M0 0 C3.3 0 6.6 0 10 0 C10 6.6 10 13.2 10 20 C6.885625 20.020625 3.77125 20.04125 0.5625 20.0625 C-0.91174438 20.07615601 -0.91174438 20.07615601 -2.41577148 20.09008789 C-3.18477783 20.09258545 -3.95378418 20.09508301 -4.74609375 20.09765625 C-5.53685303 20.10289307 -6.3276123 20.10812988 -7.14233398 20.11352539 C-9 20 -9 20 -10 19 C-10.07319621 16.30345146 -10.09242537 13.63308542 -10.0625 10.9375 C-10.05798828 10.17888672 -10.05347656 9.42027344 -10.04882812 8.63867188 C-10.0370068 6.75908129 -10.01907078 4.87953101 -10 3 C-8.02 2.67 -6.04 2.34 -4 2 C-3 5 -3 5 -3 8 C-4.32 8.33 -5.64 8.66 -7 9 C-4.22722293 13.31398316 -4.22722293 13.31398316 0.11328125 15.62109375 C2.06660622 15.84661084 4.03482858 15.93338402 6 16 C4.93354885 14.70366379 4.93354885 14.70366379 2.4375 14.9375 C1.633125 14.958125 0.82875 14.97875 0 15 C1.32 13.02 2.64 11.04 4 9 C2.68 9 1.36 9 0 9 C0 6.03 0 3.06 0 0 Z " fill="#C1A99D" transform="translate(81,419)"/>
<path d="M0 0 C6.93 0.495 6.93 0.495 14 1 C14 1.99 14 2.98 14 4 C11.36 4.66 8.72 5.32 6 6 C6 8.31 6 10.62 6 13 C6.391875 12.175 6.78375 11.35 7.1875 10.5 C8.0846875 9.2625 8.0846875 9.2625 9 8 C11.6875 7.6875 11.6875 7.6875 14 8 C13.95117188 11.07617188 13.95117188 11.07617188 13.90234375 14.15234375 C13.79438816 16.01732141 13.79438816 16.01732141 15 17 C14.9175 16.236875 14.835 15.47375 14.75 14.6875 C14.8325 13.800625 14.915 12.91375 15 12 C16.32 11.01 17.64 10.02 19 9 C19 12.96 19 16.92 19 21 C12.73 21 6.46 21 0 21 C0 14.07 0 7.14 0 0 Z " fill="#9B9B9B" transform="translate(106,418)"/>
<path d="M0 0 C5.28 0 10.56 0 16 0 C16 5.28 16 10.56 16 16 C10.72 16 5.44 16 0 16 C0 10.72 0 5.44 0 0 Z " fill="#535353" transform="translate(48,662)"/>
<path d="M0 0 C5.28 0 10.56 0 16 0 C16 5.28 16 10.56 16 16 C10.72 16 5.44 16 0 16 C0 10.72 0 5.44 0 0 Z " fill="#126F03" transform="translate(48,590)"/>
<path d="M0 0 C5.28 0 10.56 0 16 0 C16 5.28 16 10.56 16 16 C10.72 16 5.44 16 0 16 C0 10.72 0 5.44 0 0 Z " fill="#535353" transform="translate(62,188)"/>
<path d="M0 0 C5.28 0 10.56 0 16 0 C16 5.28 16 10.56 16 16 C10.72 16 5.44 16 0 16 C0 10.72 0 5.44 0 0 Z " fill="#126F03" transform="translate(27,188)"/>
<path d="M0 0 C5.28 0 10.56 0 16 0 C16 5.28 16 10.56 16 16 C10.72 16 5.44 16 0 16 C0 10.72 0 5.44 0 0 Z " fill="#535353" transform="translate(62,170)"/>
<path d="M0 0 C5.28 0 10.56 0 16 0 C16 5.28 16 10.56 16 16 C10.72 16 5.44 16 0 16 C0 10.72 0 5.44 0 0 Z " fill="#126F03" transform="translate(27,170)"/>
<path d="M0 0 C5.28 0 10.56 0 16 0 C16 5.28 16 10.56 16 16 C10.72 16 5.44 16 0 16 C0 10.72 0 5.44 0 0 Z " fill="#535353" transform="translate(62,152)"/>
<path d="M0 0 C5.28 0 10.56 0 16 0 C16 5.28 16 10.56 16 16 C10.72 16 5.44 16 0 16 C0 10.72 0 5.44 0 0 Z " fill="#126F03" transform="translate(27,152)"/>
<path d="M0 0 C5.28 0 10.56 0 16 0 C16 5.28 16 10.56 16 16 C10.72 16 5.44 16 0 16 C0 10.72 0 5.44 0 0 Z " fill="#535353" transform="translate(62,134)"/>
<path d="M0 0 C5.28 0 10.56 0 16 0 C16 5.28 16 10.56 16 16 C10.72 16 5.44 16 0 16 C0 10.72 0 5.44 0 0 Z " fill="#126F03" transform="translate(27,134)"/>
<path d="M0 0 C5.28 0 10.56 0 16 0 C16 5.28 16 10.56 16 16 C10.72 16 5.44 16 0 16 C0 10.72 0 5.44 0 0 Z " fill="#535353" transform="translate(62,116)"/>
<path d="M0 0 C5.28 0 10.56 0 16 0 C16 5.28 16 10.56 16 16 C10.72 16 5.44 16 0 16 C0 10.72 0 5.44 0 0 Z " fill="#126F03" transform="translate(27,116)"/>
<path d="M0 0 C5.28 0 10.56 0 16 0 C16 5.28 16 10.56 16 16 C10.72 16 5.44 16 0 16 C0 10.72 0 5.44 0 0 Z " fill="#535353" transform="translate(62,98)"/>
<path d="M0 0 C5.28 0 10.56 0 16 0 C16 5.28 16 10.56 16 16 C10.72 16 5.44 16 0 16 C0 10.72 0 5.44 0 0 Z " fill="#126F03" transform="translate(27,98)"/>
<path d="M0 0 C5.28 0 10.56 0 16 0 C16 5.28 16 10.56 16 16 C10.72 16 5.44 16 0 16 C0 10.72 0 5.44 0 0 Z " fill="#535353" transform="translate(62,80)"/>
<path d="M0 0 C5.28 0 10.56 0 16 0 C16 5.28 16 10.56 16 16 C10.72 16 5.44 16 0 16 C0 10.72 0 5.44 0 0 Z " fill="#126F03" transform="translate(27,80)"/>
<path d="M0 0 C0.74362793 0.01047363 1.48725586 0.02094727 2.25341797 0.03173828 C3.46191406 0.04140625 3.46191406 0.04140625 4.69482422 0.05126953 C5.95746094 0.07640625 5.95746094 0.07640625 7.24560547 0.10205078 C8.51984375 0.11558594 8.51984375 0.11558594 9.81982422 0.12939453 C11.9202043 0.15299431 14.02043991 0.18886595 16.12060547 0.22705078 C16.12060547 4.18705078 16.12060547 8.14705078 16.12060547 12.22705078 C13.20239084 12.36215331 10.29042895 12.46118129 7.37060547 12.53955078 C6.54560547 12.58144531 5.72060547 12.62333984 4.87060547 12.66650391 C2.51886147 12.7139181 0.4265839 12.69862672 -1.87939453 12.22705078 C-4.45751953 9.70751953 -4.45751953 9.70751953 -5.87939453 7.22705078 C-3.36664337 0.40672621 -3.36664337 0.40672621 0 0 Z " fill="#F1E169" transform="translate(294.87939453125,422.77294921875)"/>
<path d="M0 0 C1.18613892 0.07069702 1.18613892 0.07069702 2.39624023 0.14282227 C3.16524658 0.18592529 3.93425293 0.22902832 4.7265625 0.2734375 C5.70939209 0.33474854 6.69222168 0.39605957 7.70483398 0.45922852 C12.37639648 0.73766602 12.37639648 0.73766602 17.14233398 1.02172852 C17.14233398 7.62172852 17.14233398 14.22172852 17.14233398 21.02172852 C14.02795898 21.04235352 10.91358398 21.06297852 7.70483398 21.08422852 C6.2305896 21.09788452 6.2305896 21.09788452 4.7265625 21.11181641 C3.95755615 21.11431396 3.1885498 21.11681152 2.39624023 21.11938477 C1.60548096 21.12462158 0.81472168 21.1298584 0 21.13525391 C-1.85766602 21.02172852 -1.85766602 21.02172852 -2.85766602 20.02172852 C-2.95626733 18.61824116 -2.98845538 17.20992374 -2.99047852 15.80297852 C-2.99176758 14.95348633 -2.99305664 14.10399414 -2.99438477 13.22875977 C-2.99051758 12.33543945 -2.98665039 11.44211914 -2.98266602 10.52172852 C-2.9865332 9.6284082 -2.99040039 8.73508789 -2.99438477 7.81469727 C-2.9930957 6.96520508 -2.99180664 6.11571289 -2.99047852 5.24047852 C-2.98935059 4.45608398 -2.98822266 3.67168945 -2.98706055 2.86352539 C-2.81022768 0.34649301 -2.53379826 0.02963701 0 0 Z M2.14233398 2.02172852 C2.10108398 3.30047852 2.05983398 4.57922852 2.01733398 5.89672852 C1.99413086 6.61602539 1.97092773 7.33532227 1.94702148 8.07641602 C1.9590171 10.26036497 1.9590171 10.26036497 4.14233398 12.02172852 C5.13233398 12.02172852 6.12233398 12.02172852 7.14233398 12.02172852 C7.14233398 13.34172852 7.14233398 14.66172852 7.14233398 16.02172852 C6.15233398 16.02172852 5.16233398 16.02172852 4.14233398 16.02172852 C3.81233398 16.68172852 3.48233398 17.34172852 3.14233398 18.02172852 C1.49233398 17.69172852 -0.15766602 17.36172852 -1.85766602 17.02172852 C-1.52766602 18.01172852 -1.19766602 19.00172852 -0.85766602 20.02172852 C2.11233398 20.02172852 5.08233398 20.02172852 8.14233398 20.02172852 C8.14233398 19.03172852 8.14233398 18.04172852 8.14233398 17.02172852 C9.46233398 17.02172852 10.78233398 17.02172852 12.14233398 17.02172852 C12.14233398 18.01172852 12.14233398 19.00172852 12.14233398 20.02172852 C13.46233398 20.02172852 14.78233398 20.02172852 16.14233398 20.02172852 C16.14233398 18.70172852 16.14233398 17.38172852 16.14233398 16.02172852 C15.15233398 16.02172852 14.16233398 16.02172852 13.14233398 16.02172852 C13.14233398 14.70172852 13.14233398 13.38172852 13.14233398 12.02172852 C14.13233398 12.02172852 15.12233398 12.02172852 16.14233398 12.02172852 C16.14233398 8.72172852 16.14233398 5.42172852 16.14233398 2.02172852 C11.52233398 2.02172852 6.90233398 2.02172852 2.14233398 2.02172852 Z " fill="#878E96" transform="translate(253.857666015625,417.978271484375)"/>
<path d="M0 0 C1.81242052 -0.02687279 3.62495233 -0.04633715 5.4375 -0.0625 C6.44683594 -0.07410156 7.45617187 -0.08570313 8.49609375 -0.09765625 C11 0 11 0 12 1 C12.14115161 3.67058851 12.04247107 6.32432238 12 9 C13.65 9 15.3 9 17 9 C16.67 10.32 16.34 11.64 16 13 C15.34 13 14.68 13 14 13 C13.67 12.34 13.34 11.68 13 11 C12.01 12.485 12.01 12.485 11 14 C8.3984375 14.29296875 8.3984375 14.29296875 5.375 14.1875 C3.87066406 14.14689453 3.87066406 14.14689453 2.3359375 14.10546875 C1.56507813 14.07066406 0.79421875 14.03585937 0 14 C-1.89130504 9.74456366 -2.65199974 6.79299928 -1 2.25 C-0.67 1.5075 -0.34 0.765 0 0 Z " fill="#B4B5B4" transform="translate(369,663)"/>
<path d="M0 0 C1.81242052 -0.02687279 3.62495233 -0.04633715 5.4375 -0.0625 C6.44683594 -0.07410156 7.45617187 -0.08570313 8.49609375 -0.09765625 C11 0 11 0 12 1 C12.14115161 3.67058851 12.04247107 6.32432238 12 9 C13.65 9 15.3 9 17 9 C16.67 10.32 16.34 11.64 16 13 C15.34 13 14.68 13 14 13 C13.67 12.34 13.34 11.68 13 11 C12.01 12.485 12.01 12.485 11 14 C8.3984375 14.29296875 8.3984375 14.29296875 5.375 14.1875 C3.87066406 14.14689453 3.87066406 14.14689453 2.3359375 14.10546875 C1.56507813 14.07066406 0.79421875 14.03585937 0 14 C-1.89130504 9.74456366 -2.65199974 6.79299928 -1 2.25 C-0.67 1.5075 -0.34 0.765 0 0 Z " fill="#B4B5B4" transform="translate(369,563)"/>
<path d="M0 0 C1.81242052 -0.02687279 3.62495233 -0.04633715 5.4375 -0.0625 C6.44683594 -0.07410156 7.45617187 -0.08570313 8.49609375 -0.09765625 C11 0 11 0 12 1 C12.14115161 3.67058851 12.04247107 6.32432238 12 9 C13.65 9 15.3 9 17 9 C16.67 10.32 16.34 11.64 16 13 C15.34 13 14.68 13 14 13 C13.67 12.34 13.34 11.68 13 11 C12.01 12.485 12.01 12.485 11 14 C8.3984375 14.29296875 8.3984375 14.29296875 5.375 14.1875 C3.87066406 14.14689453 3.87066406 14.14689453 2.3359375 14.10546875 C1.56507813 14.07066406 0.79421875 14.03585937 0 14 C-1.89130504 9.74456366 -2.65199974 6.79299928 -1 2.25 C-0.67 1.5075 -0.34 0.765 0 0 Z " fill="#B4B5B4" transform="translate(369,531)"/>
<path d="M0 0 C1.81242052 -0.02687279 3.62495233 -0.04633715 5.4375 -0.0625 C6.44683594 -0.07410156 7.45617187 -0.08570313 8.49609375 -0.09765625 C11 0 11 0 12 1 C12.14115161 3.67058851 12.04247107 6.32432238 12 9 C13.65 9 15.3 9 17 9 C16.67 10.32 16.34 11.64 16 13 C15.34 13 14.68 13 14 13 C13.67 12.34 13.34 11.68 13 11 C12.01 12.485 12.01 12.485 11 14 C8.3984375 14.29296875 8.3984375 14.29296875 5.375 14.1875 C3.87066406 14.14689453 3.87066406 14.14689453 2.3359375 14.10546875 C1.56507813 14.07066406 0.79421875 14.03585937 0 14 C-1.89130504 9.74456366 -2.65199974 6.79299928 -1 2.25 C-0.67 1.5075 -0.34 0.765 0 0 Z " fill="#B4B5B4" transform="translate(369,499)"/>
<path d="M0 0 C0 5.94 0 11.88 0 18 C-3.63 18 -7.26 18 -11 18 C-11 12.06 -11 6.12 -11 0 C-7 -1 -7 -1 0 0 Z " fill="#E5E5E5" transform="translate(236,420)"/>
<path d="M0 0 C1.32 0 2.64 0 4 0 C4 15.18 4 30.36 4 46 C2.68 46 1.36 46 0 46 C0 30.82 0 15.64 0 0 Z " fill="#323232" transform="translate(414,451)"/>
<path d="M0 0 C8.25 0 16.5 0 25 0 C25 2.31 25 4.62 25 7 C16.75 7 8.5 7 0 7 C0 4.69 0 2.38 0 0 Z " fill="#4F4F4F" transform="translate(324,690)"/>
<path d="M0 0 C2.19050021 0.09017996 4.378466 0.24666208 6.5625 0.4375 C7.76003906 0.53933594 8.95757812 0.64117187 10.19140625 0.74609375 C11.11824219 0.82988281 12.04507813 0.91367188 13 1 C13 4.96 13 8.92 13 13 C10.85423363 13.02685938 8.70837355 13.04633088 6.5625 13.0625 C5.36753906 13.07410156 4.17257813 13.08570313 2.94140625 13.09765625 C0 13 0 13 -1 12 C-1.09851171 10.16884117 -1.12972629 8.33380067 -1.125 6.5 C-1.12757812 5.4996875 -1.13015625 4.499375 -1.1328125 3.46875 C-1 1 -1 1 0 0 Z " fill="#A5A7A5" transform="translate(98,135)"/>
<path d="M0 0 C4.62 0 9.24 0 14 0 C14 3.96 14 7.92 14 12 C9.38 12 4.76 12 0 12 C0 8.04 0 4.08 0 0 Z " fill="#B7B7B7" transform="translate(97,172)"/>
<path d="M0 0 C4.62 0 9.24 0 14 0 C14 3.96 14 7.92 14 12 C9.38 12 4.76 12 0 12 C0 8.04 0 4.08 0 0 Z " fill="#B7B7B7" transform="translate(97,100)"/>
<path d="M0 0 C5.28 0 10.56 0 16 0 C16 3.3 16 6.6 16 10 C10.72 10 5.44 10 0 10 C0 6.7 0 3.4 0 0 Z " fill="#575757" transform="translate(293,687)"/>
<path d="M0 0 C2.8125 -0.25 2.8125 -0.25 6 0 C7.875 1.8125 7.875 1.8125 9 4 C9 4.99 9 5.98 9 7 C9.66 7 10.32 7 11 7 C11 9.31 11 11.62 11 14 C8.69 14 6.38 14 4 14 C4 13.34 4 12.68 4 12 C3.236875 11.896875 2.47375 11.79375 1.6875 11.6875 C-1.21655911 10.94460116 -2.28995766 10.43006017 -4 8 C-4 6.68 -4 5.36 -4 4 C-3.34 4 -2.68 4 -2 4 C-1.34 2.68 -0.68 1.36 0 0 Z " fill="#9EA7AD" transform="translate(338,563)"/>
<path d="M0 0 C1.98 0 3.96 0 6 0 C6.391875 0.94875 6.78375 1.8975 7.1875 2.875 C9.19793856 6.34127338 10.22699642 6.9802693 14 8 C14.042721 9.66611905 14.04063832 11.33382885 14 13 C13 14 13 14 10.05859375 14.09765625 C6.70572917 14.06510417 3.35286458 14.03255208 0 14 C0 9.38 0 4.76 0 0 Z " fill="#4E5B50" transform="translate(324,425)"/>
<path d="M0 0 C2.4375 0.6875 2.4375 0.6875 4.4375 1.6875 C4.88671875 4.15625 4.88671875 4.15625 5.125 7.1875 C5.21136719 8.1878125 5.29773438 9.188125 5.38671875 10.21875 C5.40347656 11.0334375 5.42023438 11.848125 5.4375 12.6875 C4.4375 13.6875 4.4375 13.6875 2.1875 13.8203125 C1.28 13.81773438 0.3725 13.81515625 -0.5625 13.8125 C-1.92375 13.81636719 -1.92375 13.81636719 -3.3125 13.8203125 C-5.5625 13.6875 -5.5625 13.6875 -6.5625 12.6875 C-6.55085071 10.8731227 -6.45363787 9.05891702 -6.3125 7.25 C-6.24546875 6.26128906 -6.1784375 5.27257812 -6.109375 4.25390625 C-5.31762398 0.53833182 -3.75047143 -0.45737456 0 0 Z " fill="#717170" transform="translate(71.5625,60.3125)"/>
<path d="M0 0 C4.62 0 9.24 0 14 0 C14 3.3 14 6.6 14 10 C9.38 10 4.76 10 0 10 C0 6.7 0 3.4 0 0 Z " fill="#9A9A9A" transform="translate(97,191)"/>
<path d="M0 0 C4.62 0 9.24 0 14 0 C14 3.3 14 6.6 14 10 C9.38 10 4.76 10 0 10 C0 6.7 0 3.4 0 0 Z " fill="#9A9A9A" transform="translate(97,119)"/>
<path d="M0 0 C2.64 0 5.28 0 8 0 C7.67 1.32 7.34 2.64 7 4 C9.64 4.66 12.28 5.32 15 6 C15 4.68 15 3.36 15 2 C15.99 2.33 16.98 2.66 18 3 C18.66 2.34 19.32 1.68 20 1 C20.3125 3.75 20.3125 3.75 20 7 C17.20833617 10.2146432 15.62416577 10.93543113 11.375 11.375 C8 11 8 11 5 9 C2.35367713 9.3121764 2.35367713 9.3121764 0 10 C0 6.7 0 3.4 0 0 Z " fill="#426894" transform="translate(32,429)"/>
<path d="M0 0 C1.93102932 0.60376707 1.93102932 0.60376707 3.84765625 -0.61328125 C3.84765625 2.68671875 3.84765625 5.98671875 3.84765625 9.38671875 C1.20765625 9.38671875 -1.43234375 9.38671875 -4.15234375 9.38671875 C-3.82234375 8.06671875 -3.49234375 6.74671875 -3.15234375 5.38671875 C-5.79234375 5.05671875 -8.43234375 4.72671875 -11.15234375 4.38671875 C-11.48234375 5.04671875 -11.81234375 5.70671875 -12.15234375 6.38671875 C-13.14234375 6.38671875 -14.13234375 6.38671875 -15.15234375 6.38671875 C-15.48234375 7.04671875 -15.81234375 7.70671875 -16.15234375 8.38671875 C-16.58073177 4.61690414 -16.61837404 2.97301493 -14.21484375 -0.05078125 C-9.42386282 -2.49515928 -5.0422669 -1.43672578 0 0 Z " fill="#83A5CB" transform="translate(48.15234375,419.61328125)"/>
<path d="M0 0 C3.38133625 0.76080066 4.57467413 1.6745112 6.5 4.5625 C6.25 8.3125 6.25 8.3125 5.5 11.5625 C6.82 11.5625 8.14 11.5625 9.5 11.5625 C7.625 15.4375 7.625 15.4375 6.5 16.5625 C7.82 16.8925 9.14 17.2225 10.5 17.5625 C10.5 15.5825 10.5 13.6025 10.5 11.5625 C10.83 11.5625 11.16 11.5625 11.5 11.5625 C11.5 13.8725 11.5 16.1825 11.5 18.5625 C7.87 18.5625 4.24 18.5625 0.5 18.5625 C1.16 17.9025 1.82 17.2425 2.5 16.5625 C0.85 14.5825 -0.8 12.6025 -2.5 10.5625 C-0.85 10.5625 0.8 10.5625 2.5 10.5625 C2.5 9.5725 2.5 8.5825 2.5 7.5625 C1.84 7.2325 1.18 6.9025 0.5 6.5625 C0.83 6.2325 1.16 5.9025 1.5 5.5625 C-0.48 5.5625 -2.46 5.5625 -4.5 5.5625 C-4.83 6.5525 -5.16 7.5425 -5.5 8.5625 C-5.83 7.5725 -6.16 6.5825 -6.5 5.5625 C-4.64211945 2.48985139 -3.57789798 0.80502705 0 0 Z " fill="#B86C3E" transform="translate(75.5,416.4375)"/>
<path d="M0 0 C3.34067767 0.75165248 4.52113939 1.77743692 6.5 4.5625 C6.75 7.8125 6.75 7.8125 6.5 10.5625 C8.15 10.5625 9.8 10.5625 11.5 10.5625 C11.025625 11.325625 10.55125 12.08875 10.0625 12.875 C8.39893903 15.52660548 8.39893903 15.52660548 7.5 18.5625 C7.5 17.9025 7.5 17.2425 7.5 16.5625 C6.18 16.8925 4.86 17.2225 3.5 17.5625 C1.52 15.2525 -0.46 12.9425 -2.5 10.5625 C-0.85 10.5625 0.8 10.5625 2.5 10.5625 C2.17 8.9125 1.84 7.2625 1.5 5.5625 C-0.48 5.5625 -2.46 5.5625 -4.5 5.5625 C-4.83 6.5525 -5.16 7.5425 -5.5 8.5625 C-5.83 7.5725 -6.16 6.5825 -6.5 5.5625 C-4.64211945 2.48985139 -3.57789798 0.80502705 0 0 Z " fill="#D47841" transform="translate(148.5,416.4375)"/>
<path d="M0 0 C13.53 0 27.06 0 41 0 C41 0.99 41 1.98 41 3 C27.47 3 13.94 3 0 3 C0 2.01 0 1.02 0 0 Z " fill="#535353" transform="translate(60,407)"/>
<path d="M0 0 C2.375 0.625 2.375 0.625 5 2 C6.3125 5.125 6.3125 5.125 7 8 C6.195625 8.721875 5.39125 9.44375 4.5625 10.1875 C1.5520076 13.00637592 1.5520076 13.00637592 1 18 C-2.63 18 -6.26 18 -10 18 C-10 17.67 -10 17.34 -10 17 C-6.7 17 -3.4 17 0 17 C0 14.36 0 11.72 0 9 C-4.39314793 10.01160848 -4.39314793 10.01160848 -7.375 13.125 C-7.58125 13.74375 -7.7875 14.3625 -8 15 C-8.33 14.67 -8.66 14.34 -9 14 C-8.71269945 11.66055264 -8.38063221 9.3260857 -8 7 C-8.66 6.67 -9.32 6.34 -10 6 C-6.7 5.67 -3.4 5.34 0 5 C0 3.35 0 1.7 0 0 Z " fill="#D5763C" transform="translate(120,417)"/>
<path d="M0 0 C3.3 0 6.6 0 10 0 C10 0.66 10 1.32 10 2 C7.69 2.66 5.38 3.32 3 4 C2.67 6.31 2.34 8.62 2 11 C2.391875 10.175 2.78375 9.35 3.1875 8.5 C3.785625 7.675 4.38375 6.85 5 6 C7.6875 5.6875 7.6875 5.6875 10 6 C10 7.98 10 9.96 10 12 C8.35 12.33 6.7 12.66 5 13 C4.67 14.65 4.34 16.3 4 18 C1.69 18 -0.62 18 -3 18 C-3.33 17.01 -3.66 16.02 -4 15 C-2.68 15.33 -1.36 15.66 0 16 C0 10.72 0 5.44 0 0 Z " fill="#D9D7D6" transform="translate(183,420)"/>
<path d="M0 0 C1.67542976 0.28604898 3.34385343 0.61781233 5 1 C5 2.65 5 4.3 5 6 C3.68 6.33 2.36 6.66 1 7 C3.77277707 11.31398316 3.77277707 11.31398316 8.11328125 13.62109375 C10.06660622 13.84661084 12.03482858 13.93338402 14 14 C14.33 14.99 14.66 15.98 15 17 C10.05 17 5.1 17 0 17 C-0.91323299 13.34706804 -1.13408661 10.54255311 -1.125 6.8125 C-1.12757812 5.74644531 -1.13015625 4.68039062 -1.1328125 3.58203125 C-1 1 -1 1 0 0 Z " fill="#D2D2D2" transform="translate(73,421)"/>
<path d="M0 0 C2.375 0.625 2.375 0.625 5 2 C6.3125 5.125 6.3125 5.125 7 8 C4.69 9.98 2.38 11.96 0 14 C0 12.35 0 10.7 0 9 C-4.39314793 10.01160848 -4.39314793 10.01160848 -7.375 13.125 C-7.58125 13.74375 -7.7875 14.3625 -8 15 C-8.33 14.67 -8.66 14.34 -9 14 C-8.75 10.5625 -8.75 10.5625 -8 7 C-4.77208445 4.8480563 -3.71599191 4.79913557 0 5 C0 3.35 0 1.7 0 0 Z " fill="#D5753D" transform="translate(193,417)"/>
<path d="M0 0 C2.64 0 5.28 0 8 0 C8 5.94 8 11.88 8 18 C7.34 18 6.68 18 6 18 C6 16.02 6 14.04 6 12 C5.67 13.32 5.34 14.64 5 16 C4.01 15.67 3.02 15.34 2 15 C1.125 13.125 1.125 13.125 1 11 C2.4375 9.25 2.4375 9.25 4 8 C2.68 7.67 1.36 7.34 0 7 C0 4.69 0 2.38 0 0 Z " fill="#E3E3E3" transform="translate(155,420)"/>
<path d="M0 0 C0.74362793 0.01047363 1.48725586 0.02094727 2.25341797 0.03173828 C3.46191406 0.04140625 3.46191406 0.04140625 4.69482422 0.05126953 C5.95746094 0.07640625 5.95746094 0.07640625 7.24560547 0.10205078 C8.51984375 0.11558594 8.51984375 0.11558594 9.81982422 0.12939453 C11.9202043 0.15299431 14.02043991 0.18886595 16.12060547 0.22705078 C16.12060547 4.18705078 16.12060547 8.14705078 16.12060547 12.22705078 C13.20239084 12.36215331 10.29042895 12.46118129 7.37060547 12.53955078 C6.54560547 12.58144531 5.72060547 12.62333984 4.87060547 12.66650391 C2.51886147 12.7139181 0.4265839 12.69862672 -1.87939453 12.22705078 C-4.45751953 9.70751953 -4.45751953 9.70751953 -5.87939453 7.22705078 C-3.36664337 0.40672621 -3.36664337 0.40672621 0 0 Z M-2.98486328 2.93017578 C-4.3576864 5.68195383 -4.3576864 5.68195383 -1.87939453 10.22705078 C2.74060547 10.22705078 7.36060547 10.22705078 12.12060547 10.22705078 C11.46060547 9.89705078 10.80060547 9.56705078 10.12060547 9.22705078 C10.12060547 7.90705078 10.12060547 6.58705078 10.12060547 5.22705078 C10.45060547 6.21705078 10.78060547 7.20705078 11.12060547 8.22705078 C11.78060547 8.22705078 12.44060547 8.22705078 13.12060547 8.22705078 C13.45060547 8.88705078 13.78060547 9.54705078 14.12060547 10.22705078 C14.12060547 7.25705078 14.12060547 4.28705078 14.12060547 1.22705078 C11.68192379 1.11906488 9.24801413 1.03978489 6.80810547 0.97705078 C5.77266602 0.92677734 5.77266602 0.92677734 4.71630859 0.87548828 C1.46364534 0.81263489 -0.41150856 0.8485753 -2.98486328 2.93017578 Z " fill="#B89C14" transform="translate(294.87939453125,422.77294921875)"/>
<path d="M0 0 C5.28 0 10.56 0 16 0 C16 6.6 16 13.2 16 20 C15.01 19.67 14.02 19.34 13 19 C13.66 19 14.32 19 15 19 C15 17.68 15 16.36 15 15 C14.01 15 13.02 15 12 15 C12 13.68 12 12.36 12 11 C12.99 11 13.98 11 15 11 C15 7.7 15 4.4 15 1 C10.38 1 5.76 1 1 1 C1.45822468 4.46941546 1.89131683 7.67395049 3 11 C3.99 11 4.98 11 6 11 C6 12.32 6 13.64 6 15 C5.01 15 4.02 15 3 15 C2.67 15.99 2.34 16.98 2 18 C0.68 17.01 -0.64 16.02 -2 15 C-1.34 15 -0.68 15 0 15 C0 10.05 0 5.1 0 0 Z " fill="#7D8A99" transform="translate(255,419)"/>
<path d="M0 0 C0.66 0 1.32 0 2 0 C2.33 0.66 2.66 1.32 3 2 C3.33 1.34 3.66 0.68 4 0 C4.99 0.33 5.98 0.66 7 1 C6.34 2.32 5.68 3.64 5 5 C5.66 5.33 6.32 5.66 7 6 C7.66 5.67 8.32 5.34 9 5 C8.67 4.34 8.34 3.68 8 3 C9.65 3.33 11.3 3.66 13 4 C13 4.66 13 5.32 13 6 C13.66 5.67 14.32 5.34 15 5 C14.67 4.34 14.34 3.68 14 3 C15.65 3.33 17.3 3.66 19 4 C19 5.65 19 7.3 19 9 C14.05 9 9.1 9 4 9 C3.67 8.34 3.34 7.68 3 7 C2.67 7.66 2.34 8.32 2 9 C1.34 9 0.68 9 0 9 C0 6.03 0 3.06 0 0 Z " fill="#ABC0A4" transform="translate(119,136)"/>
<path d="M0 0 C1.81242052 -0.02687279 3.62495233 -0.04633715 5.4375 -0.0625 C6.44683594 -0.07410156 7.45617187 -0.08570313 8.49609375 -0.09765625 C11 0 11 0 12 1 C12.14115161 3.67058851 12.04247107 6.32432238 12 9 C13.65 9 15.3 9 17 9 C16.67 10.32 16.34 11.64 16 13 C15.34 13 14.68 13 14 13 C13.67 12.34 13.34 11.68 13 11 C12.01 12.485 12.01 12.485 11 14 C8.3984375 14.29296875 8.3984375 14.29296875 5.375 14.1875 C3.87066406 14.14689453 3.87066406 14.14689453 2.3359375 14.10546875 C1.56507813 14.07066406 0.79421875 14.03585937 0 14 C-1.89130504 9.74456366 -2.65199974 6.79299928 -1 2.25 C-0.67 1.5075 -0.34 0.765 0 0 Z M1 1 C1 4.96 1 8.92 1 13 C3.97 13 6.94 13 10 13 C10 9.04 10 5.08 10 1 C7.03 1 4.06 1 1 1 Z " fill="#818280" transform="translate(369,663)"/>
<path d="M0 0 C1.81242052 -0.02687279 3.62495233 -0.04633715 5.4375 -0.0625 C6.44683594 -0.07410156 7.45617187 -0.08570313 8.49609375 -0.09765625 C11 0 11 0 12 1 C12.14115161 3.67058851 12.04247107 6.32432238 12 9 C13.65 9 15.3 9 17 9 C16.67 10.32 16.34 11.64 16 13 C15.34 13 14.68 13 14 13 C13.67 12.34 13.34 11.68 13 11 C12.01 12.485 12.01 12.485 11 14 C8.3984375 14.29296875 8.3984375 14.29296875 5.375 14.1875 C3.87066406 14.14689453 3.87066406 14.14689453 2.3359375 14.10546875 C1.56507813 14.07066406 0.79421875 14.03585937 0 14 C-1.89130504 9.74456366 -2.65199974 6.79299928 -1 2.25 C-0.67 1.5075 -0.34 0.765 0 0 Z M1 1 C1 4.96 1 8.92 1 13 C3.97 13 6.94 13 10 13 C10 9.04 10 5.08 10 1 C7.03 1 4.06 1 1 1 Z " fill="#818280" transform="translate(369,563)"/>
<path d="M0 0 C1.81242052 -0.02687279 3.62495233 -0.04633715 5.4375 -0.0625 C6.44683594 -0.07410156 7.45617187 -0.08570313 8.49609375 -0.09765625 C11 0 11 0 12 1 C12.14115161 3.67058851 12.04247107 6.32432238 12 9 C13.65 9 15.3 9 17 9 C16.67 10.32 16.34 11.64 16 13 C15.34 13 14.68 13 14 13 C13.67 12.34 13.34 11.68 13 11 C12.01 12.485 12.01 12.485 11 14 C8.3984375 14.29296875 8.3984375 14.29296875 5.375 14.1875 C3.87066406 14.14689453 3.87066406 14.14689453 2.3359375 14.10546875 C1.56507813 14.07066406 0.79421875 14.03585937 0 14 C-1.89130504 9.74456366 -2.65199974 6.79299928 -1 2.25 C-0.67 1.5075 -0.34 0.765 0 0 Z M1 1 C1 4.96 1 8.92 1 13 C3.97 13 6.94 13 10 13 C10 9.04 10 5.08 10 1 C7.03 1 4.06 1 1 1 Z " fill="#818280" transform="translate(369,531)"/>
<path d="M0 0 C1.81242052 -0.02687279 3.62495233 -0.04633715 5.4375 -0.0625 C6.44683594 -0.07410156 7.45617187 -0.08570313 8.49609375 -0.09765625 C11 0 11 0 12 1 C12.14115161 3.67058851 12.04247107 6.32432238 12 9 C13.65 9 15.3 9 17 9 C16.67 10.32 16.34 11.64 16 13 C15.34 13 14.68 13 14 13 C13.67 12.34 13.34 11.68 13 11 C12.01 12.485 12.01 12.485 11 14 C8.3984375 14.29296875 8.3984375 14.29296875 5.375 14.1875 C3.87066406 14.14689453 3.87066406 14.14689453 2.3359375 14.10546875 C1.56507813 14.07066406 0.79421875 14.03585937 0 14 C-1.89130504 9.74456366 -2.65199974 6.79299928 -1 2.25 C-0.67 1.5075 -0.34 0.765 0 0 Z M1 1 C1 4.96 1 8.92 1 13 C3.97 13 6.94 13 10 13 C10 9.04 10 5.08 10 1 C7.03 1 4.06 1 1 1 Z " fill="#818280" transform="translate(369,499)"/>
<path d="M0 0 C3.3 0 6.6 0 10 0 C10 6.6 10 13.2 10 20 C6.885625 20.020625 3.77125 20.04125 0.5625 20.0625 C-0.91174438 20.07615601 -0.91174438 20.07615601 -2.41577148 20.09008789 C-3.18477783 20.09258545 -3.95378418 20.09508301 -4.74609375 20.09765625 C-5.53685303 20.10289307 -6.3276123 20.10812988 -7.14233398 20.11352539 C-9 20 -9 20 -10 19 C-10.07319621 16.30345146 -10.09242537 13.63308542 -10.0625 10.9375 C-10.05798828 10.17888672 -10.05347656 9.42027344 -10.04882812 8.63867188 C-10.0370068 6.75908129 -10.01907078 4.87953101 -10 3 C-9.67 3 -9.34 3 -9 3 C-8.67 7.95 -8.34 12.9 -8 18 C-3.05 18.33 1.9 18.66 7 19 C6.67 18.01 6.34 17.02 6 16 C6.66 16 7.32 16 8 16 C8 12.04 8 8.08 8 4 C7.34 3.67 6.68 3.34 6 3 C6.33 2.34 6.66 1.68 7 1 C4.69 1.33 2.38 1.66 0 2 C0 1.34 0 0.68 0 0 Z " fill="#959494" transform="translate(81,419)"/>
<path d="M0 0 C1.32 0 2.64 0 4 0 C4.33 1.32 4.66 2.64 5 4 C5 3.01 5 2.02 5 1 C6.875 1.3125 6.875 1.3125 9 2 C9.99 3.485 9.99 3.485 11 5 C9.9375 6.5 9.9375 6.5 8 8 C4.16306413 8.41857482 1.88796936 8.54644269 -1.4375 6.5 C-1.953125 6.005 -2.46875 5.51 -3 5 C-1.125 1.125 -1.125 1.125 0 0 Z " fill="#B4B4B2" transform="translate(32,63)"/>
<path d="M0 0 C0.33 0.66 0.66 1.32 1 2 C4.63 2 8.26 2 12 2 C11.01 2.495 11.01 2.495 10 3 C10 4.65 10 6.3 10 8 C5.71 8 1.42 8 -3 8 C-3 6.02 -3 4.04 -3 2 C-2.01 2 -1.02 2 0 2 C0 1.34 0 0.68 0 0 Z " fill="#6D6E6E" transform="translate(162,595)"/>
<path d="M0 0 C0.66 0 1.32 0 2 0 C2 2.31 2 4.62 2 7 C2.391875 6.175 2.78375 5.35 3.1875 4.5 C3.785625 3.675 4.38375 2.85 5 2 C7.6875 1.6875 7.6875 1.6875 10 2 C10 4.64 10 7.28 10 10 C6.7 10 3.4 10 0 10 C0 6.7 0 3.4 0 0 Z " fill="#E5E3E3" transform="translate(110,424)"/>
<path d="M0 0 C1.22589844 0.01353516 1.22589844 0.01353516 2.4765625 0.02734375 C3.41628906 0.04474609 3.41628906 0.04474609 4.375 0.0625 C3.385 0.3925 2.395 0.7225 1.375 1.0625 C1.375 2.0525 1.375 3.0425 1.375 4.0625 C2.365 4.0625 3.355 4.0625 4.375 4.0625 C4.045 4.7225 3.715 5.3825 3.375 6.0625 C2.715 5.7325 2.055 5.4025 1.375 5.0625 C1.375 6.0525 1.375 7.0425 1.375 8.0625 C-0.95794775 8.10491723 -3.29202567 8.10342937 -5.625 8.0625 C-6.625 7.0625 -6.625 7.0625 -6.6875 4 C-6.666875 3.030625 -6.64625 2.06125 -6.625 1.0625 C-4.21954362 -0.14022819 -2.67503047 -0.03821472 0 0 Z " fill="#838B88" transform="translate(57.625,566.9375)"/>
<path d="M0 0 C0.33 0 0.66 0 1 0 C1 3.3 1 6.6 1 10 C-2.3 10 -5.6 10 -9 10 C-9 8.35 -9 6.7 -9 5 C-8.071875 4.731875 -7.14375 4.46375 -6.1875 4.1875 C-3.20270088 3.07551601 -2.01587906 2.33417575 0 0 Z " fill="#DEDDDC" transform="translate(196,428)"/>
<path d="M0 0 C0.33 0 0.66 0 1 0 C1.33 2.31 1.66 4.62 2 7 C2.66 4.69 3.32 2.38 4 0 C4.33 0 4.66 0 5 0 C5 5.28 5 10.56 5 16 C3.35 16.33 1.7 16.66 0 17 C0 11.39 0 5.78 0 0 Z " fill="#54554F" transform="translate(0,15)"/>
<path d="M0 0 C1.22589844 0.01353516 1.22589844 0.01353516 2.4765625 0.02734375 C3.41628906 0.04474609 3.41628906 0.04474609 4.375 0.0625 C3.385 0.3925 2.395 0.7225 1.375 1.0625 C1.375 2.0525 1.375 3.0425 1.375 4.0625 C2.365 4.0625 3.355 4.0625 4.375 4.0625 C4.045 4.7225 3.715 5.3825 3.375 6.0625 C2.715 5.7325 2.055 5.4025 1.375 5.0625 C1.045 6.0525 0.715 7.0425 0.375 8.0625 C-1.62454746 8.10504356 -3.62541636 8.10330783 -5.625 8.0625 C-6.625 7.0625 -6.625 7.0625 -6.6875 4 C-6.666875 3.030625 -6.64625 2.06125 -6.625 1.0625 C-4.21954362 -0.14022819 -2.67503047 -0.03821472 0 0 Z " fill="#8D9390" transform="translate(191.625,566.9375)"/>
<path d="M0 0 C1.2065625 0.0309375 1.2065625 0.0309375 2.4375 0.0625 C2.4375 0.7225 2.4375 1.3825 2.4375 2.0625 C3.0975 2.0625 3.7575 2.0625 4.4375 2.0625 C4.4375 3.7125 4.4375 5.3625 4.4375 7.0625 C5.4275 7.0625 6.4175 7.0625 7.4375 7.0625 C7.4375 5.4125 7.4375 3.7625 7.4375 2.0625 C7.7675 2.0625 8.0975 2.0625 8.4375 2.0625 C8.4375 4.0425 8.4375 6.0225 8.4375 8.0625 C6.62507948 8.08937279 4.81254767 8.10883715 3 8.125 C1.99066406 8.13660156 0.98132813 8.14820313 -0.05859375 8.16015625 C-2.5625 8.0625 -2.5625 8.0625 -3.5625 7.0625 C-3.6875 4.0625 -3.6875 4.0625 -3.5625 1.0625 C-2.5625 0.0625 -2.5625 0.0625 0 0 Z " fill="#6E6F6A" transform="translate(214.5625,352.9375)"/>
<path d="M0 0 C0.66 0 1.32 0 2 0 C2.33 0.99 2.66 1.98 3 3 C5.01508358 3.73323796 5.01508358 3.73323796 7 4 C6.67 5.65 6.34 7.3 6 9 C3.03 9 0.06 9 -3 9 C-3.33 7.35 -3.66 5.7 -4 4 C-2.68 3.67 -1.36 3.34 0 3 C0 2.01 0 1.02 0 0 Z " fill="#71716A" transform="translate(115,23)"/>
<path d="M0 0 C1.51400391 0.01740234 1.51400391 0.01740234 3.05859375 0.03515625 C4.07050781 0.04417969 5.08242187 0.05320312 6.125 0.0625 C7.29869141 0.07990234 7.29869141 0.07990234 8.49609375 0.09765625 C8.49609375 3.09765625 8.49609375 3.09765625 7.49609375 6.09765625 C4.19609375 6.09765625 0.89609375 6.09765625 -2.50390625 6.09765625 C-2.88609392 4.44150968 -3.21785727 2.77308601 -3.50390625 1.09765625 C-2.50390625 0.09765625 -2.50390625 0.09765625 0 0 Z " fill="#A6A39D" transform="translate(136.50390625,467.90234375)"/>
<path d="M0 0 C0.66 0 1.32 0 2 0 C2 0.66 2 1.32 2 2 C3.65 2 5.3 2 7 2 C7 3.98 7 5.96 7 8 C4.69 8 2.38 8 0 8 C-0.33 6.68 -0.66 5.36 -1 4 C-1.66 4 -2.32 4 -3 4 C-3 5.32 -3 6.64 -3 8 C-3.66 8 -4.32 8 -5 8 C-5 6.02 -5 4.04 -5 2 C-3.35 2 -1.7 2 0 2 C0 1.34 0 0.68 0 0 Z " fill="#C9D5C2" transform="translate(125,466)"/>
<path d="M0 0 C0.33 0.66 0.66 1.32 1 2 C4.63 2 8.26 2 12 2 C11.01 2.495 11.01 2.495 10 3 C10 4.65 10 6.3 10 8 C6.7 8 3.4 8 0 8 C-1.125 2.25 -1.125 2.25 0 0 Z " fill="#757672" transform="translate(109,350)"/>
<path d="M0 0 C0.33 0.66 0.66 1.32 1 2 C4.63 2 8.26 2 12 2 C11.01 2.495 11.01 2.495 10 3 C10 4.65 10 6.3 10 8 C6.7 8 3.4 8 0 8 C-1.125 2.25 -1.125 2.25 0 0 Z " fill="#757672" transform="translate(103,60)"/>
<path d="M0 0 C0.33 0.66 0.66 1.32 1 2 C4.63 2 8.26 2 12 2 C11.01 2.495 11.01 2.495 10 3 C10 4.65 10 6.3 10 8 C6.7 8 3.4 8 0 8 C-1.125 2.25 -1.125 2.25 0 0 Z " fill="#757672" transform="translate(43,21)"/>
<path d="M0 0 C1.32 0 2.64 0 4 0 C4.33 0.99 4.66 1.98 5 3 C7.01508358 3.73323796 7.01508358 3.73323796 9 4 C8.67 5.65 8.34 7.3 8 9 C5.36 9 2.72 9 0 9 C0 6.03 0 3.06 0 0 Z " fill="#6A6967" transform="translate(83,666)"/>
<path d="M0 0 C1.98 0 3.96 0 6 0 C6 3.3 6 6.6 6 10 C4.02 10 2.04 10 0 10 C0 6.7 0 3.4 0 0 Z " fill="#E0E0E0" transform="translate(104,137)"/>
<path d="M0 0 C0.33 0.99 0.66 1.98 1 3 C2.32 3 3.64 3 5 3 C5 2.01 5 1.02 5 0 C8 1 8 1 9 2 C10.32 2 11.64 2 13 2 C12.67 2.66 12.34 3.32 12 4 C12.39938767 6.09821215 12.39938767 6.09821215 13 8 C10.36 8 7.72 8 5 8 C5 6.68 5 5.36 5 4 C3.68 4 2.36 4 1 4 C0.67 5.32 0.34 6.64 0 8 C0 5.36 0 2.72 0 0 Z " fill="#7F8077" transform="translate(126,24)"/>
<path d="M0 0 C0.33 0 0.66 0 1 0 C1 3.3 1 6.6 1 10 C-1.64 10 -4.28 10 -7 10 C-6.67 8.68 -6.34 7.36 -6 6 C-6.99 5.34 -7.98 4.68 -9 4 C-8.43410156 3.79503906 -7.86820313 3.59007812 -7.28515625 3.37890625 C-6.55167969 3.10949219 -5.81820312 2.84007812 -5.0625 2.5625 C-4.33160156 2.29566406 -3.60070313 2.02882813 -2.84765625 1.75390625 C-1.01694322 1.14613052 -1.01694322 1.14613052 0 0 Z " fill="#5780AF" transform="translate(51,419)"/>
<path d="M0 0 C0.99 0.66 1.98 1.32 3 2 C3.4375 8.125 3.4375 8.125 2 11 C1.01 11 0.02 11 -1 11 C-1 10.34 -1 9.68 -1 9 C-2.65 8.67 -4.3 8.34 -6 8 C-5.67 6.35 -5.34 4.7 -5 3 C-1.125 3.875 -1.125 3.875 0 5 C0 3.35 0 1.7 0 0 Z " fill="#7A7B77" transform="translate(237,666)"/>
<path d="M0 0 C2.64 0 5.28 0 8 0 C7.814375 0.61875 7.62875 1.2375 7.4375 1.875 C6.76313824 4.04160178 6.76313824 4.04160178 8 6 C7.01 6 6.02 6 5 6 C5 6.66 5 7.32 5 8 C3.35 8.66 1.7 9.32 0 10 C0 6.7 0 3.4 0 0 Z " fill="#688EB8" transform="translate(32,429)"/>
<path d="M0 0 C2.625 0.375 2.625 0.375 5 1 C5.04241723 3.33294775 5.04092937 5.66702567 5 8 C4 9 4 9 1.4375 9.0625 C0.633125 9.041875 -0.17125 9.02125 -1 9 C-1.625 5.625 -1.625 5.625 -2 2 C-1.34 1.34 -0.68 0.68 0 0 Z " fill="#6C6C67" transform="translate(121,118)"/>
<path d="M0 0 C4.62 0 9.24 0 14 0 C14 1.32 14 2.64 14 4 C9.38 4 4.76 4 0 4 C0 2.68 0 1.36 0 0 Z " fill="#6F6F6F" transform="translate(97,86)"/>
<path d="M0 0 C0.721875 0.00257813 1.44375 0.00515625 2.1875 0.0078125 C2.909375 0.00523437 3.63125 0.00265625 4.375 0 C6.1875 0.1328125 6.1875 0.1328125 7.1875 1.1328125 C7.22813832 2.79898365 7.230221 4.46669345 7.1875 6.1328125 C4.2175 6.1328125 1.2475 6.1328125 -1.8125 6.1328125 C-2.19468767 4.47666593 -2.52645102 2.80824226 -2.8125 1.1328125 C-1.8125 0.1328125 -1.8125 0.1328125 0 0 Z " fill="#5F6365" transform="translate(124.8125,596.8671875)"/>
<path d="M0 0 C1.1446875 0.2475 1.1446875 0.2475 2.3125 0.5 C5.03392445 1.00631153 6.40067115 0.74266539 9 0 C10 1 10 1 10 6 C6.7 6 3.4 6 0 6 C-0.38218767 4.34385343 -0.71395102 2.67542976 -1 1 C-0.67 0.67 -0.34 0.34 0 0 Z " fill="#797974" transform="translate(168,569)"/>
<path d="M0 0 C0.721875 0.00257813 1.44375 0.00515625 2.1875 0.0078125 C2.909375 0.00523437 3.63125 0.00265625 4.375 0 C6.1875 0.1328125 6.1875 0.1328125 7.1875 1.1328125 C7.22813832 2.79898365 7.230221 4.46669345 7.1875 6.1328125 C4.2175 6.1328125 1.2475 6.1328125 -1.8125 6.1328125 C-2.19468767 4.47666593 -2.52645102 2.80824226 -2.8125 1.1328125 C-1.8125 0.1328125 -1.8125 0.1328125 0 0 Z " fill="#5F6365" transform="translate(59.8125,504.8671875)"/>
<path d="M0 0 C0 3.96 0 7.92 0 12 C-6.27 12 -12.54 12 -19 12 C-19 11.67 -19 11.34 -19 11 C-13.72 11 -8.44 11 -3 11 C-3.33 10.34 -3.66 9.68 -4 9 C-4.45961699 3.59950042 -4.45961699 3.59950042 -2.5625 1.125 C-1 0 -1 0 0 0 Z " fill="#949393" transform="translate(125,427)"/>
<path d="M0 0 C3.57416264 0.49641148 6.69252492 1.58251068 10 3 C10 3.99 10 4.98 10 6 C6.04 6 2.08 6 -2 6 C-1 1 -1 1 0 0 Z " fill="#EAEAEA" transform="translate(100,194)"/>
<path d="M0 0 C3.57416264 0.49641148 6.69252492 1.58251068 10 3 C10 3.99 10 4.98 10 6 C6.04 6 2.08 6 -2 6 C-1 1 -1 1 0 0 Z " fill="#EAEAEA" transform="translate(100,122)"/>
<path d="M0 0 C2.97 0 5.94 0 9 0 C9 1.98 9 3.96 9 6 C6.03 6 3.06 6 0 6 C0 4.02 0 2.04 0 0 Z " fill="#A0A1A0" transform="translate(370,664)"/>
<path d="M0 0 C2.97 0 5.94 0 9 0 C9 1.98 9 3.96 9 6 C6.03 6 3.06 6 0 6 C0 4.02 0 2.04 0 0 Z " fill="#A0A1A0" transform="translate(370,564)"/>
<path d="M0 0 C2.97 0 5.94 0 9 0 C9 1.98 9 3.96 9 6 C6.03 6 3.06 6 0 6 C0 4.02 0 2.04 0 0 Z " fill="#A0A1A0" transform="translate(370,532)"/>
<path d="M0 0 C2.97 0 5.94 0 9 0 C9 1.98 9 3.96 9 6 C6.03 6 3.06 6 0 6 C0 4.02 0 2.04 0 0 Z " fill="#A0A1A0" transform="translate(370,500)"/>
<path d="M0 0 C0.99 0 1.98 0 3 0 C3 5.94 3 11.88 3 18 C2.01 18 1.02 18 0 18 C0 12.06 0 6.12 0 0 Z " fill="#0F6E00" transform="translate(23,133)"/>
<path d="M0 0 C0.33 0.66 0.66 1.32 1 2 C3.52733235 2.65555119 3.52733235 2.65555119 6 3 C7.03595522 7.02871475 6.86988854 8.65055731 6 13 C2.37 13 -1.26 13 -5 13 C-5 12.67 -5 12.34 -5 12 C-1.7 12 1.6 12 5 12 C5 9.36 5 6.72 5 4 C0.60685207 5.01160848 0.60685207 5.01160848 -2.375 8.125 C-2.58125 8.74375 -2.7875 9.3625 -3 10 C-3.33 9.67 -3.66 9.34 -4 9 C-3.71269945 6.66055264 -3.38063221 4.3260857 -3 2 C-3.66 1.67 -4.32 1.34 -5 1 C-3.35 0.67 -1.7 0.34 0 0 Z " fill="#885437" transform="translate(115,422)"/>
<path d="M0 0 C1.67542976 0.28604898 3.34385343 0.61781233 5 1 C5 2.65 5 4.3 5 6 C3.68 6.33 2.36 6.66 1 7 C1.33 7.33 1.66 7.66 2 8 C2.04063832 9.66617115 2.042721 11.33388095 2 13 C1.01 13 0.02 13 -1 13 C-1.02686553 11.02090602 -1.04633375 9.04171029 -1.0625 7.0625 C-1.07410156 5.96035156 -1.08570313 4.85820312 -1.09765625 3.72265625 C-1 1 -1 1 0 0 Z " fill="#E6E6E6" transform="translate(146,421)"/>
<path d="M0 0 C1.23556641 0.01740234 1.23556641 0.01740234 2.49609375 0.03515625 C3.32238281 0.04417969 4.14867187 0.05320312 5 0.0625 C5.63808594 0.07410156 6.27617187 0.08570313 6.93359375 0.09765625 C6.60359375 0.75765625 6.27359375 1.41765625 5.93359375 2.09765625 C6.26359375 3.41765625 6.59359375 4.73765625 6.93359375 6.09765625 C3.96359375 6.09765625 0.99359375 6.09765625 -2.06640625 6.09765625 C-2.44859392 4.44150968 -2.78035727 2.77308601 -3.06640625 1.09765625 C-2.06640625 0.09765625 -2.06640625 0.09765625 0 0 Z " fill="#757874" transform="translate(235.06640625,354.90234375)"/>
<path d="M0 0 C1.23556641 0.01740234 1.23556641 0.01740234 2.49609375 0.03515625 C3.32238281 0.04417969 4.14867187 0.05320312 5 0.0625 C5.63808594 0.07410156 6.27617187 0.08570313 6.93359375 0.09765625 C6.60359375 0.75765625 6.27359375 1.41765625 5.93359375 2.09765625 C6.26359375 3.41765625 6.59359375 4.73765625 6.93359375 6.09765625 C3.96359375 6.09765625 0.99359375 6.09765625 -2.06640625 6.09765625 C-2.44859392 4.44150968 -2.78035727 2.77308601 -3.06640625 1.09765625 C-2.06640625 0.09765625 -2.06640625 0.09765625 0 0 Z " fill="#757874" transform="translate(170.06640625,351.90234375)"/>
<path d="M0 0 C0.33 0.66 0.66 1.32 1 2 C2.4540625 1.9690625 2.4540625 1.9690625 3.9375 1.9375 C7 2 7 2 8 3 C8.04063832 4.66617115 8.042721 6.33388095 8 8 C5.36 8 2.72 8 0 8 C-1.125 2.25 -1.125 2.25 0 0 Z " fill="#757671" transform="translate(85,535)"/>
<path d="M0 0 C1.32 0 2.64 0 4 0 C4 5.28 4 10.56 4 16 C4.99 16 5.98 16 7 16 C6.67 17.32 6.34 18.64 6 20 C-0.6 20 -7.2 20 -14 20 C-14 19.67 -14 19.34 -14 19 C-8.39 19 -2.78 19 3 19 C3 13.06 3 7.12 3 1 C2.01 0.67 1.02 0.34 0 0 Z " fill="#9E9E9E" transform="translate(233,419)"/>
<path d="M0 0 C2.31 0 4.62 0 7 0 C7 2.31 7 4.62 7 7 C4.69 7 2.38 7 0 7 C0 4.69 0 2.38 0 0 Z " fill="#C6A81E" transform="translate(342,570)"/>
<path d="M0 0 C0.99 0 1.98 0 3 0 C3 0.66 3 1.32 3 2 C4.65 2.33 6.3 2.66 8 3 C8 4.65 8 6.3 8 8 C5.69 8 3.38 8 1 8 C0.26919734 6.02253397 -0.39421747 4.01927511 -1 2 C-0.67 1.34 -0.34 0.68 0 0 Z " fill="#6E6F6C" transform="translate(56,535)"/>
<path d="M0 0 C0.99 0 1.98 0 3 0 C3 5.28 3 10.56 3 16 C2.01 16 1.02 16 0 16 C0 10.72 0 5.44 0 0 Z " fill="#E0E0E0" transform="translate(252,418)"/>
<path d="M0 0 C0.99 0 1.98 0 3 0 C3 5.28 3 10.56 3 16 C2.01 16 1.02 16 0 16 C0 10.72 0 5.44 0 0 Z " fill="#E0E0E0" transform="translate(218,418)"/>
<path d="M0 0 C0.99 0 1.98 0 3 0 C3 5.28 3 10.56 3 16 C2.01 16 1.02 16 0 16 C0 10.72 0 5.44 0 0 Z " fill="#E0E0E0" transform="translate(179,418)"/>
<path d="M0 0 C0.99 0 1.98 0 3 0 C3 5.28 3 10.56 3 16 C2.01 16 1.02 16 0 16 C0 10.72 0 5.44 0 0 Z " fill="#E0E0E0" transform="translate(106,418)"/>
<path d="M0 0 C0.33 0.66 0.66 1.32 1 2 C2.98 2 4.96 2 7 2 C7.33 3.65 7.66 5.3 8 7 C5.23735711 7.59732819 2.83967231 8 0 8 C-1.125 2.25 -1.125 2.25 0 0 Z " fill="#74756E" transform="translate(141,24)"/>
<path d="M0 0 C0.99 0 1.98 0 3 0 C3 3.3 3 6.6 3 10 C1.02 10 -0.96 10 -3 10 C-2.25 2.25 -2.25 2.25 0 0 Z " fill="#F0F0F0" transform="translate(107,173)"/>
<path d="M0 0 C0.99 0 1.98 0 3 0 C3 3.3 3 6.6 3 10 C1.02 10 -0.96 10 -3 10 C-2.25 2.25 -2.25 2.25 0 0 Z " fill="#F0F0F0" transform="translate(107,101)"/>
<path d="M0 0 C-0.33 0.66 -0.66 1.32 -1 2 C-0.67 3.32 -0.34 4.64 0 6 C-3.3 6 -6.6 6 -10 6 C-9.67 4.68 -9.34 3.36 -9 2 C-5.70173093 0.21715186 -3.8225249 0 0 0 Z " fill="#787B78" transform="translate(155,597)"/>
<path d="M0 0 C2.05078125 0.03255208 4.1015625 0.06510417 6.15234375 0.09765625 C5.82234375 0.75765625 5.49234375 1.41765625 5.15234375 2.09765625 C5.48234375 3.41765625 5.81234375 4.73765625 6.15234375 6.09765625 C3.18234375 6.09765625 0.21234375 6.09765625 -2.84765625 6.09765625 C-2.89037725 4.4315372 -2.88829457 2.7638274 -2.84765625 1.09765625 C-1.84765625 0.09765625 -1.84765625 0.09765625 0 0 Z " fill="#767771" transform="translate(176.84765625,596.90234375)"/>
<path d="M0 0 C2.97 0.495 2.97 0.495 6 1 C6 2.98 6 4.96 6 7 C4.02 7.33 2.04 7.66 0 8 C0 5.36 0 2.72 0 0 Z " fill="#686863" transform="translate(71,595)"/>
<path d="M0 0 C4.62 0 9.24 0 14 0 C14.33 0.99 14.66 1.98 15 3 C10.05 3 5.1 3 0 3 C0 2.01 0 1.02 0 0 Z " fill="#E1E1E1" transform="translate(107,435)"/>
<path d="M0 0 C2.05078125 0.03255208 4.1015625 0.06510417 6.15234375 0.09765625 C5.82234375 0.75765625 5.49234375 1.41765625 5.15234375 2.09765625 C5.48234375 3.41765625 5.81234375 4.73765625 6.15234375 6.09765625 C3.18234375 6.09765625 0.21234375 6.09765625 -2.84765625 6.09765625 C-2.89037725 4.4315372 -2.88829457 2.7638274 -2.84765625 1.09765625 C-1.84765625 0.09765625 -1.84765625 0.09765625 0 0 Z " fill="#767771" transform="translate(57.84765625,22.90234375)"/>
<path d="M0 0 C6.15234375 -0.09765625 6.15234375 -0.09765625 8 0 C9 1 9 1 9.0625 3.5625 C9.041875 4.366875 9.02125 5.17125 9 6 C6.625 6.1875 6.625 6.1875 4 6 C3.34 5.01 2.68 4.02 2 3 C1.34 3.99 0.68 4.98 0 6 C0 4.02 0 2.04 0 0 Z " fill="#646D6C" transform="translate(78,597)"/>
<path d="M0 0 C2.4375 0.4375 2.4375 0.4375 5.4375 2.4375 C5.4375 3.4275 5.4375 4.4175 5.4375 5.4375 C2.1375 5.4375 -1.1625 5.4375 -4.5625 5.4375 C-4.8925 6.4275 -5.2225 7.4175 -5.5625 8.4375 C-5.8925 7.4475 -6.2225 6.4575 -6.5625 5.4375 C-3.65168406 0.62345825 -3.65168406 0.62345825 0 0 Z " fill="#D1733A" transform="translate(148.5625,416.5625)"/>
<path d="M0 0 C2.4375 0.4375 2.4375 0.4375 5.4375 2.4375 C5.4375 3.4275 5.4375 4.4175 5.4375 5.4375 C2.1375 5.4375 -1.1625 5.4375 -4.5625 5.4375 C-4.8925 6.4275 -5.2225 7.4175 -5.5625 8.4375 C-5.8925 7.4475 -6.2225 6.4575 -6.5625 5.4375 C-3.65168406 0.62345825 -3.65168406 0.62345825 0 0 Z " fill="#D1733A" transform="translate(75.5625,416.5625)"/>
<path d="M0 0 C1.65 0 3.3 0 5 0 C5 2.97 5 5.94 5 9 C3.35 9 1.7 9 0 9 C0 6.03 0 3.06 0 0 Z " fill="#A6B88C" transform="translate(177,136)"/>
<path d="M0 0 C3.16115776 1.36983503 3.9927092 1.9890638 6 5 C5.01 5 4.02 5 3 5 C3 5.99 3 6.98 3 8 C1.68 8 0.36 8 -1 8 C-1 7.01 -1 6.02 -1 5 C-1.99 4.67 -2.98 4.34 -4 4 C-2.68 2.68 -1.36 1.36 0 0 Z " fill="#4E6885" transform="translate(263,421)"/>
<path d="M0 0 C0.78375 0.04125 1.5675 0.0825 2.375 0.125 C2.375 2.105 2.375 4.085 2.375 6.125 C-2.375 7.125 -2.375 7.125 -4.625 7.125 C-4.75 4.75 -4.75 4.75 -4.625 2.125 C-2.625 0.125 -2.625 0.125 0 0 Z " fill="#E3E2E1" transform="translate(190.625,425.875)"/>
<path d="M0 0 C2.05078125 0.03255208 4.1015625 0.06510417 6.15234375 0.09765625 C5.16234375 0.59265625 5.16234375 0.59265625 4.15234375 1.09765625 C4.15234375 2.74765625 4.15234375 4.39765625 4.15234375 6.09765625 C2.17234375 6.09765625 0.19234375 6.09765625 -1.84765625 6.09765625 C-2.22984392 4.44150968 -2.56160727 2.77308601 -2.84765625 1.09765625 C-1.84765625 0.09765625 -1.84765625 0.09765625 0 0 Z " fill="#767975" transform="translate(139.84765625,668.90234375)"/>
<path d="M0 0 C2.05078125 0.03255208 4.1015625 0.06510417 6.15234375 0.09765625 C5.16234375 0.59265625 5.16234375 0.59265625 4.15234375 1.09765625 C4.15234375 2.74765625 4.15234375 4.39765625 4.15234375 6.09765625 C2.17234375 6.09765625 0.19234375 6.09765625 -1.84765625 6.09765625 C-2.22984392 4.44150968 -2.56160727 2.77308601 -2.84765625 1.09765625 C-1.84765625 0.09765625 -1.84765625 0.09765625 0 0 Z " fill="#757874" transform="translate(153.84765625,351.90234375)"/>
<path d="M0 0 C3.34373475 0.55728913 6.03312999 1.35173889 9 3 C8.34 3 7.68 3 7 3 C7 4.65 7 6.3 7 8 C6.34 8 5.68 8 5 8 C4.67 7.01 4.34 6.02 4 5 C3.01 5 2.02 5 1 5 C0.67 5.99 0.34 6.98 0 8 C0 5.36 0 2.72 0 0 Z " fill="#838681" transform="translate(148,567)"/>
<path d="M0 0 C3.34373475 0.55728913 6.03312999 1.35173889 9 3 C8.34 3 7.68 3 7 3 C7 4.65 7 6.3 7 8 C6.34 8 5.68 8 5 8 C4.67 7.01 4.34 6.02 4 5 C3.01 5 2.02 5 1 5 C0.67 5.99 0.34 6.98 0 8 C0 5.36 0 2.72 0 0 Z " fill="#777B75" transform="translate(129,350)"/>
<path d="M0 0 C3.96 0 7.92 0 12 0 C12 1.65 12 3.3 12 5 C11.30132812 4.855625 10.60265625 4.71125 9.8828125 4.5625 C8.97273438 4.376875 8.06265625 4.19125 7.125 4 C6.22007813 3.814375 5.31515625 3.62875 4.3828125 3.4375 C2.07592097 2.93980405 2.07592097 2.93980405 0 3 C0 2.01 0 1.02 0 0 Z " fill="#464646" transform="translate(98,192)"/>
<path d="M0 0 C0.66 0 1.32 0 2 0 C2.33 0.66 2.66 1.32 3 2 C3.33 1.34 3.66 0.68 4 0 C4.99 0.33 5.98 0.66 7 1 C6.62875 1.5775 6.2575 2.155 5.875 2.75 C4.70833333 5 4.70833333 5 5.875 7.25 C6.24625 7.8275 6.6175 8.405 7 9 C6.01 9 5.02 9 4 9 C3.67 8.34 3.34 7.68 3 7 C2.67 7.66 2.34 8.32 2 9 C1.34 9 0.68 9 0 9 C0 6.03 0 3.06 0 0 Z " fill="#BFD5BF" transform="translate(119,136)"/>
<path d="M0 0 C0.66 0 1.32 0 2 0 C2 2.97 2 5.94 2 9 C0.35 9 -1.3 9 -3 9 C-3.33 7.35 -3.66 5.7 -4 4 C-2.68 3.67 -1.36 3.34 0 3 C0 2.01 0 1.02 0 0 Z " fill="#93BCAE" transform="translate(155,136)"/>
<path d="M0 0 C3.96 0 7.92 0 12 0 C12 1.65 12 3.3 12 5 C11.30132812 4.855625 10.60265625 4.71125 9.8828125 4.5625 C8.97273438 4.376875 8.06265625 4.19125 7.125 4 C6.22007813 3.814375 5.31515625 3.62875 4.3828125 3.4375 C2.07592097 2.93980405 2.07592097 2.93980405 0 3 C0 2.01 0 1.02 0 0 Z " fill="#464646" transform="translate(98,120)"/>
<path d="M0 0 C3.3 0 6.6 0 10 0 C10 3 10 3 9 6 C7.68 5.67 6.36 5.34 5 5 C5.33 4.67 5.66 4.34 6 4 C4.68 3.34 3.36 2.68 2 2 C2 3.32 2 4.64 2 6 C1.34 6 0.68 6 0 6 C0 4.02 0 2.04 0 0 Z " fill="#CCCABB" transform="translate(84,632)"/>
<path d="M0 0 C2.97 0 5.94 0 9 0 C9.33 0.99 9.66 1.98 10 3 C8.68 3 7.36 3 6 3 C6 3.66 6 4.32 6 5 C4.02 5.33 2.04 5.66 0 6 C0.66 5.34 1.32 4.68 2 4 C1.34 3.67 0.68 3.34 0 3 C0 2.01 0 1.02 0 0 Z " fill="#898C89" transform="translate(134,569)"/>
<path d="M0 0 C3.3 0 6.6 0 10 0 C9.67 1.32 9.34 2.64 9 4 C8.34 3.34 7.68 2.68 7 2 C7 2.66 7 3.32 7 4 C7.66 4.66 8.32 5.32 9 6 C7.35 5.67 5.7 5.34 4 5 C4 4.01 4 3.02 4 2 C3.34 2 2.68 2 2 2 C2 3.32 2 4.64 2 6 C1.34 6 0.68 6 0 6 C0 4.02 0 2.04 0 0 Z " fill="#C0C6C2" transform="translate(94,468)"/>
<path d="M0 0 C1.65 0 3.3 0 5 0 C5.33 1.65 5.66 3.3 6 5 C4.68 5.33 3.36 5.66 2 6 C2 6.66 2 7.32 2 8 C1.34 8 0.68 8 0 8 C0 5.36 0 2.72 0 0 Z " fill="#A39A94" transform="translate(106,468)"/>
<path d="M0 0 C0 4.62 0 9.24 0 14 C-0.99 13.67 -1.98 13.34 -3 13 C-3 9.04 -3 5.08 -3 1 C-1 0 -1 0 0 0 Z " fill="#E3E3E3" transform="translate(90,422)"/>
<path d="M0 0 C0.99 0 1.98 0 3 0 C3 3.3 3 6.6 3 10 C1.68 10 0.36 10 -1 10 C-1.125 2.25 -1.125 2.25 0 0 Z " fill="#484847" transform="translate(415,367)"/>
<path d="M0 0 C0.99 0 1.98 0 3 0 C3 3.3 3 6.6 3 10 C1.68 10 0.36 10 -1 10 C-1.125 2.25 -1.125 2.25 0 0 Z " fill="#484847" transform="translate(415,38)"/>
<path d="M0 0 C3.63 0 7.26 0 11 0 C11.33 0.99 11.66 1.98 12 3 C7.71 3 3.42 3 -1 3 C-0.67 2.01 -0.34 1.02 0 0 Z " fill="#DDDDDD" transform="translate(76,435)"/>
<path d="M0 0 C1.65 0 3.3 0 5 0 C5 2.31 5 4.62 5 7 C3.35 7 1.7 7 0 7 C0 4.69 0 2.38 0 0 Z " fill="#0F6E00" transform="translate(318,690)"/>
<path d="M0 0 C0.33 0.99 0.66 1.98 1 3 C-0.21484375 5.04296875 -0.21484375 5.04296875 -1.9375 7.1875 C-2.50339844 7.90292969 -3.06929687 8.61835937 -3.65234375 9.35546875 C-4.09707031 9.89816406 -4.54179688 10.44085937 -5 11 C-6.9375 10.1875 -6.9375 10.1875 -9 9 C-9.33 8.01 -9.66 7.02 -10 6 C-7.525 6.99 -7.525 6.99 -5 8 C-4.731875 7.236875 -4.46375 6.47375 -4.1875 5.6875 C-3.05575888 3.12619116 -2.08776599 1.80307062 0 0 Z " fill="#C3CFC3" transform="translate(60,592)"/>
<path d="M0 0 C0.99 0.33 1.98 0.66 3 1 C2.67 1.66 2.34 2.32 2 3 C2.66 3.33 3.32 3.66 4 4 C4 4.99 4 5.98 4 7 C2.34385343 7.38218767 0.67542976 7.71395102 -1 8 C-2 7 -2 7 -2.0625 3.9375 C-2.041875 2.968125 -2.02125 1.99875 -2 1 C-1.34 0.67 -0.68 0.34 0 0 Z " fill="#706765" transform="translate(157,503)"/>
<path d="M0 0 C0.66 0 1.32 0 2 0 C2 0.66 2 1.32 2 2 C2.66 2 3.32 2 4 2 C4 3.32 4 4.64 4 6 C1.36 6 -1.28 6 -4 6 C-4 4.68 -4 3.36 -4 2 C-3.01 2 -2.02 2 -1 2 C-0.67 1.34 -0.34 0.68 0 0 Z " fill="#877F40" transform="translate(299,426)"/>
<path d="M0 0 C0.33 0.99 0.66 1.98 1 3 C-0.21484375 5.04296875 -0.21484375 5.04296875 -1.9375 7.1875 C-2.50339844 7.90292969 -3.06929687 8.61835938 -3.65234375 9.35546875 C-4.09707031 9.89816406 -4.54179688 10.44085938 -5 11 C-6.9375 10.1875 -6.9375 10.1875 -9 9 C-9.33 8.01 -9.66 7.02 -10 6 C-7.525 6.99 -7.525 6.99 -5 8 C-4.731875 7.236875 -4.46375 6.47375 -4.1875 5.6875 C-3.05575888 3.12619116 -2.08776599 1.80307062 0 0 Z " fill="#C3CFC3" transform="translate(39,190)"/>
<path d="M0 0 C0.33 0.99 0.66 1.98 1 3 C-0.21484375 5.04296875 -0.21484375 5.04296875 -1.9375 7.1875 C-2.50339844 7.90292969 -3.06929687 8.61835938 -3.65234375 9.35546875 C-4.09707031 9.89816406 -4.54179688 10.44085938 -5 11 C-6.9375 10.1875 -6.9375 10.1875 -9 9 C-9.33 8.01 -9.66 7.02 -10 6 C-7.525 6.99 -7.525 6.99 -5 8 C-4.731875 7.236875 -4.46375 6.47375 -4.1875 5.6875 C-3.05575888 3.12619116 -2.08776599 1.80307062 0 0 Z " fill="#C3CFC3" transform="translate(39,172)"/>
<path d="M0 0 C0.33 0.99 0.66 1.98 1 3 C-0.21484375 5.04296875 -0.21484375 5.04296875 -1.9375 7.1875 C-2.50339844 7.90292969 -3.06929687 8.61835938 -3.65234375 9.35546875 C-4.09707031 9.89816406 -4.54179688 10.44085938 -5 11 C-6.9375 10.1875 -6.9375 10.1875 -9 9 C-9.33 8.01 -9.66 7.02 -10 6 C-7.525 6.99 -7.525 6.99 -5 8 C-4.731875 7.236875 -4.46375 6.47375 -4.1875 5.6875 C-3.05575888 3.12619116 -2.08776599 1.80307062 0 0 Z " fill="#C3CFC3" transform="translate(39,154)"/>
<path d="M0 0 C0.33 0.99 0.66 1.98 1 3 C-0.21484375 5.04296875 -0.21484375 5.04296875 -1.9375 7.1875 C-2.50339844 7.90292969 -3.06929687 8.61835938 -3.65234375 9.35546875 C-4.09707031 9.89816406 -4.54179688 10.44085938 -5 11 C-6.9375 10.1875 -6.9375 10.1875 -9 9 C-9.33 8.01 -9.66 7.02 -10 6 C-7.525 6.99 -7.525 6.99 -5 8 C-4.731875 7.236875 -4.46375 6.47375 -4.1875 5.6875 C-3.05575888 3.12619116 -2.08776599 1.80307062 0 0 Z " fill="#C3CFC3" transform="translate(39,136)"/>
<path d="M0 0 C0.33 0.99 0.66 1.98 1 3 C-0.21484375 5.04296875 -0.21484375 5.04296875 -1.9375 7.1875 C-2.50339844 7.90292969 -3.06929687 8.61835937 -3.65234375 9.35546875 C-4.09707031 9.89816406 -4.54179688 10.44085938 -5 11 C-6.9375 10.1875 -6.9375 10.1875 -9 9 C-9.33 8.01 -9.66 7.02 -10 6 C-7.525 6.99 -7.525 6.99 -5 8 C-4.731875 7.236875 -4.46375 6.47375 -4.1875 5.6875 C-3.05575888 3.12619116 -2.08776599 1.80307062 0 0 Z " fill="#C3CFC3" transform="translate(39,118)"/>
<path d="M0 0 C0.33 0.99 0.66 1.98 1 3 C-0.21484375 5.04296875 -0.21484375 5.04296875 -1.9375 7.1875 C-2.50339844 7.90292969 -3.06929687 8.61835937 -3.65234375 9.35546875 C-4.09707031 9.89816406 -4.54179688 10.44085938 -5 11 C-6.9375 10.1875 -6.9375 10.1875 -9 9 C-9.33 8.01 -9.66 7.02 -10 6 C-7.525 6.99 -7.525 6.99 -5 8 C-4.731875 7.236875 -4.46375 6.47375 -4.1875 5.6875 C-3.05575888 3.12619116 -2.08776599 1.80307062 0 0 Z " fill="#C3CFC3" transform="translate(39,100)"/>
<path d="M0 0 C0.33 0.99 0.66 1.98 1 3 C-0.21484375 5.04296875 -0.21484375 5.04296875 -1.9375 7.1875 C-2.50339844 7.90292969 -3.06929687 8.61835937 -3.65234375 9.35546875 C-4.09707031 9.89816406 -4.54179688 10.44085938 -5 11 C-6.9375 10.1875 -6.9375 10.1875 -9 9 C-9.33 8.01 -9.66 7.02 -10 6 C-7.525 6.99 -7.525 6.99 -5 8 C-4.731875 7.236875 -4.46375 6.47375 -4.1875 5.6875 C-3.05575888 3.12619116 -2.08776599 1.80307062 0 0 Z " fill="#C3CFC3" transform="translate(39,82)"/>
<path d="M0 0 C1.65 0 3.3 0 5 0 C5.33 1.32 5.66 2.64 6 4 C4.68 4.33 3.36 4.66 2 5 C2 5.99 2 6.98 2 8 C1.34 8 0.68 8 0 8 C0 5.36 0 2.72 0 0 Z " fill="#C1B8AC" transform="translate(87,466)"/>
<path d="M0 0 C2.64 0 5.28 0 8 0 C8 2.64 8 5.28 8 8 C7.67 7.34 7.34 6.68 7 6 C6.34 6 5.68 6 5 6 C5 5.34 5 4.68 5 4 C3.35 3.67 1.7 3.34 0 3 C0 2.01 0 1.02 0 0 Z " fill="#FBED78" transform="translate(301,425)"/>
<path d="M0 0 C0.66 0 1.32 0 2 0 C2 0.66 2 1.32 2 2 C2.66 2.33 3.32 2.66 4 3 C3.34 3 2.68 3 2 3 C2 4.32 2 5.64 2 7 C2.66 7.33 3.32 7.66 4 8 C2.68 7.67 1.36 7.34 0 7 C0 5.68 0 4.36 0 3 C-0.99 3 -1.98 3 -3 3 C-3 4.65 -3 6.3 -3 8 C-3.66 8 -4.32 8 -5 8 C-5 6.02 -5 4.04 -5 2 C-3.35 2 -1.7 2 0 2 C0 1.34 0 0.68 0 0 Z " fill="#B9CFC4" transform="translate(144,137)"/>
<path d="M0 0 C0.33 0.99 0.66 1.98 1 3 C1.99 3.33 2.98 3.66 4 4 C3.01 4 2.02 4 1 4 C1 5.65 1 7.3 1 9 C-0.32 9 -1.64 9 -3 9 C-3.625 6.125 -3.625 6.125 -4 3 C-3.34 2.34 -2.68 1.68 -2 1 C-2 1.66 -2 2.32 -2 3 C-1.34 3 -0.68 3 0 3 C0 2.01 0 1.02 0 0 Z " fill="#80827A" transform="translate(131,666)"/>
<path d="M0 0 C0.33 0.66 0.66 1.32 1 2 C3.02463255 2.65213292 3.02463255 2.65213292 5 3 C4.67 4.32 4.34 5.64 4 7 C1.69 7 -0.62 7 -3 7 C-2.690625 6.401875 -2.38125 5.80375 -2.0625 5.1875 C-0.89790296 2.91043228 -0.89790296 2.91043228 0 0 Z " fill="#767977" transform="translate(199,568)"/>
<path d="M0 0 C0.33 0.66 0.66 1.32 1 2 C3.02463255 2.65213292 3.02463255 2.65213292 5 3 C4.67 4.32 4.34 5.64 4 7 C1.69 7 -0.62 7 -3 7 C-2.690625 6.401875 -2.38125 5.80375 -2.0625 5.1875 C-0.89790296 2.91043228 -0.89790296 2.91043228 0 0 Z " fill="#676B69" transform="translate(65,568)"/>
<path d="M0 0 C1.98 0 3.96 0 6 0 C6 1.98 6 3.96 6 6 C4.35 5.67 2.7 5.34 1 5 C0.67 3.35 0.34 1.7 0 0 Z " fill="#748E9F" transform="translate(331,426)"/>
<path d="M0 0 C0.66 0 1.32 0 2 0 C2 0.66 2 1.32 2 2 C2.66 2.33 3.32 2.66 4 3 C3.34 3 2.68 3 2 3 C2 3.66 2 4.32 2 5 C-1.3 5 -4.6 5 -8 5 C-7.34 4.01 -6.68 3.02 -6 2 C-3.375 1.8125 -3.375 1.8125 -1 2 C-0.67 1.34 -0.34 0.68 0 0 Z " fill="#969996" transform="translate(78,397)"/>
<path d="M0 0 C1.65 0 3.3 0 5 0 C5 1.65 5 3.3 5 5 C4.360625 5.103125 3.72125 5.20625 3.0625 5.3125 C2.381875 5.539375 1.70125 5.76625 1 6 C0.67 6.99 0.34 7.98 0 9 C0 6.03 0 3.06 0 0 Z " fill="#747D79" transform="translate(217,373)"/>
<path d="M0 0 C1.65 0 3.3 0 5 0 C5 1.65 5 3.3 5 5 C4.360625 5.103125 3.72125 5.20625 3.0625 5.3125 C2.381875 5.539375 1.70125 5.76625 1 6 C0.67 6.99 0.34 7.98 0 9 C0 6.03 0 3.06 0 0 Z " fill="#8A9890" transform="translate(153,193)"/>
<path d="M0 0 C0.99 0 1.98 0 3 0 C3 3.3 3 6.6 3 10 C1.68 10 0.36 10 -1 10 C-0.67 6.7 -0.34 3.4 0 0 Z " fill="#C8C8C8" transform="translate(101,137)"/>
<path d="M0 0 C1.98 0 3.96 0 6 0 C5.62875 0.5775 5.2575 1.155 4.875 1.75 C3.70833333 4 3.70833333 4 4.875 6.25 C5.24625 6.8275 5.6175 7.405 6 8 C4 8 2 8 0 8 C0 5.36 0 2.72 0 0 Z " fill="#A4A098" transform="translate(30,397)"/>
<path d="M0 0 C1.32 0.33 2.64 0.66 4 1 C4 1.66 4 2.32 4 3 C4.66 3.33 5.32 3.66 6 4 C5.34 4 4.68 4 4 4 C4 5.32 4 6.64 4 8 C4.66 8.33 5.32 8.66 6 9 C4.02 9 2.04 9 0 9 C0 6.03 0 3.06 0 0 Z " fill="#7E8375" transform="translate(172,370)"/>
<path d="M0 0 C2.475 0.495 2.475 0.495 5 1 C4.67 2.65 4.34 4.3 4 6 C3.01 6 2.02 6 1 6 C0.67 6.99 0.34 7.98 0 9 C0 6.03 0 3.06 0 0 Z " fill="#788179" transform="translate(199,370)"/>
<path d="M0 0 C0.33 0 0.66 0 1 0 C1 2.97 1 5.94 1 9 C-0.65 8.67 -2.3 8.34 -4 8 C-3.67 6.35 -3.34 4.7 -3 3 C-2.01 3 -1.02 3 0 3 C0 2.01 0 1.02 0 0 Z " fill="#797A6E" transform="translate(230,352)"/>
<path d="M0 0 C0.99 1.485 0.99 1.485 2 3 C2.99 3 3.98 3 5 3 C5 4.65 5 6.3 5 8 C3.35 8.33 1.7 8.66 0 9 C0 6.03 0 3.06 0 0 Z " fill="#8A9991" transform="translate(153,82)"/>
<path d="M0 0 C1.32 0.33 2.64 0.66 4 1 C4 1.66 4 2.32 4 3 C4.66 3.33 5.32 3.66 6 4 C5.34 4 4.68 4 4 4 C4 5.32 4 6.64 4 8 C4.66 8.33 5.32 8.66 6 9 C4.02 9 2.04 9 0 9 C0 6.03 0 3.06 0 0 Z " fill="#7E8375" transform="translate(197,41)"/>
<path d="M0 0 C2.475 0.495 2.475 0.495 5 1 C4.67 2.65 4.34 4.3 4 6 C3.01 6 2.02 6 1 6 C0.67 6.66 0.34 7.32 0 8 C0 5.36 0 2.72 0 0 Z " fill="#757871" transform="translate(118,669)"/>
<path d="M0 0 C2.475 0.495 2.475 0.495 5 1 C4.67 2.65 4.34 4.3 4 6 C3.01 6 2.02 6 1 6 C0.67 6.66 0.34 7.32 0 8 C0 5.36 0 2.72 0 0 Z " fill="#757871" transform="translate(113,597)"/>
<path d="M0 0 C2.475 0.495 2.475 0.495 5 1 C4.67 2.65 4.34 4.3 4 6 C3.01 6 2.02 6 1 6 C0.67 6.66 0.34 7.32 0 8 C0 5.36 0 2.72 0 0 Z " fill="#757871" transform="translate(65,537)"/>
<path d="M0 0 C2.31 0 4.62 0 7 0 C7.5625 1.9375 7.5625 1.9375 8 4 C7 5 7 5 3.4375 5.0625 C2.303125 5.041875 1.16875 5.02125 0 5 C0.66 3.68 1.32 2.36 2 1 C1.34 0.67 0.68 0.34 0 0 Z " fill="#959595" transform="translate(188,432)"/>
<path d="M0 0 C2.475 0.495 2.475 0.495 5 1 C4.67 2.65 4.34 4.3 4 6 C3.01 6 2.02 6 1 6 C0.67 6.66 0.34 7.32 0 8 C0 5.36 0 2.72 0 0 Z " fill="#757871" transform="translate(145,352)"/>
<path d="M0 0 C1.32 0 2.64 0 4 0 C4 2.64 4 5.28 4 8 C3.01 8 2.02 8 1 8 C1.33 7.34 1.66 6.68 2 6 C1.34 6 0.68 6 0 6 C0 4.02 0 2.04 0 0 Z " fill="#7F8D88" transform="translate(160,193)"/>
<path d="M0 0 C0.79921875 0.00902344 1.5984375 0.01804688 2.421875 0.02734375 C3.02515625 0.03894531 3.6284375 0.05054688 4.25 0.0625 C3.26 1.5475 3.26 1.5475 2.25 3.0625 C1.59 3.0625 0.93 3.0625 0.25 3.0625 C0.25 4.0525 0.25 5.0425 0.25 6.0625 C-0.41 5.7325 -1.07 5.4025 -1.75 5.0625 C-1.42 4.0725 -1.09 3.0825 -0.75 2.0625 C-2.173125 2.5884375 -2.173125 2.5884375 -3.625 3.125 C-6.75 4.0625 -6.75 4.0625 -8.75 3.0625 C-8.75 2.4025 -8.75 1.7425 -8.75 1.0625 C-5.75519083 0.1901588 -3.11424089 -0.04579766 0 0 Z " fill="#525250" transform="translate(36.75,60.9375)"/>
<path d="M0 0 C2.475 0.495 2.475 0.495 5 1 C5 2.65 5 4.3 5 6 C3.35 6 1.7 6 0 6 C0 4.02 0 2.04 0 0 Z " fill="#767977" transform="translate(112,669)"/>
<path d="M0 0 C1.65 0 3.3 0 5 0 C5 1.98 5 3.96 5 6 C3.35 6 1.7 6 0 6 C0 4 0 2 0 0 Z " fill="#B4BDBC" transform="translate(63,632)"/>
<path d="M0 0 C2.475 0.495 2.475 0.495 5 1 C5 2.65 5 4.3 5 6 C3.35 6 1.7 6 0 6 C0 4.02 0 2.04 0 0 Z " fill="#767977" transform="translate(107,597)"/>
<path d="M0 0 C1.65 0 3.3 0 5 0 C5 1.98 5 3.96 5 6 C3.35 6 1.7 6 0 6 C0 4 0 2 0 0 Z " fill="#B4BDBC" transform="translate(67,468)"/>
<path d="M0 0 C-0.99 0.495 -0.99 0.495 -2 1 C-2 1.66 -2 2.32 -2 3 C-3.98 3 -5.96 3 -8 3 C-8.33 1.68 -8.66 0.36 -9 -1 C-5.23375329 -2.25541557 -3.62811066 -1.37061958 0 0 Z " fill="#4478B0" transform="translate(46,436)"/>
<path d="M0 0 C2 1.25 2 1.25 4 3 C4 4.32 4 5.64 4 7 C1.69 7 -0.62 7 -3 7 C-3.33 6.01 -3.66 5.02 -4 4 C-2.68 4.33 -1.36 4.66 0 5 C0 3.35 0 1.7 0 0 Z " fill="#BEBEBE" transform="translate(149,431)"/>
<path d="M0 0 C1.65 0 3.3 0 5 0 C5 1.98 5 3.96 5 6 C3.35 6 1.7 6 0 6 C0 4 0 2 0 0 Z " fill="#949999" transform="translate(44,399)"/>
<path d="M0 0 C1.65 0 3.3 0 5 0 C5 1.98 5 3.96 5 6 C3.35 6 1.7 6 0 6 C0 4 0 2 0 0 Z " fill="#949999" transform="translate(37,399)"/>
<path d="M0 0 C1.32 0 2.64 0 4 0 C4.33 1.32 4.66 2.64 5 4 C5 3.01 5 2.02 5 1 C5.66 1 6.32 1 7 1 C6.6875 2.9375 6.6875 2.9375 6 5 C3 6 3 6 0 5 C0 3.35 0 1.7 0 0 Z " fill="#A1A19E" transform="translate(32,63)"/>
<path d="M0 0 C1.98 0.495 1.98 0.495 4 1 C4 2.98 4 4.96 4 7 C2.68 7.33 1.36 7.66 0 8 C0.66 7.34 1.32 6.68 2 6 C1.01 5.34 0.02 4.68 -1 4 C-0.67 2.68 -0.34 1.36 0 0 Z " fill="#959B8D" transform="translate(140,503)"/>
<path d="M0 0 C0.99 0 1.98 0 3 0 C3 2.97 3 5.94 3 9 C2.01 9 1.02 9 0 9 C0 6.03 0 3.06 0 0 Z " fill="#7FA1C5" transform="translate(229,419)"/>
<path d="M0 0 C0.66 0 1.32 0 2 0 C2 0.66 2 1.32 2 2 C2.66 2.33 3.32 2.66 4 3 C3.34 3 2.68 3 2 3 C2 3.66 2 4.32 2 5 C0.35 4.67 -1.3 4.34 -3 4 C-3 5.32 -3 6.64 -3 8 C-3.66 8 -4.32 8 -5 8 C-5 6.02 -5 4.04 -5 2 C-3.35 2 -1.7 2 0 2 C0 1.34 0 0.68 0 0 Z " fill="#A1A69B" transform="translate(56,397)"/>
<path d="M0 0 C0.99 0 1.98 0 3 0 C3 2.97 3 5.94 3 9 C2.01 9 1.02 9 0 9 C0 6.03 0 3.06 0 0 Z " fill="#7D7D71" transform="translate(83,666)"/>
<path d="M0 0 C1.98 0 3.96 0 6 0 C6 1.65 6 3.3 6 5 C4.35 4.67 2.7 4.34 1 4 C0.67 2.68 0.34 1.36 0 0 Z " fill="#9BBED6" transform="translate(336,570)"/>
<path d="M0 0 C0.33 0.66 0.66 1.32 1 2 C1.99 2 2.98 2 4 2 C4 3.98 4 5.96 4 8 C2.68 8 1.36 8 0 8 C-1.125 2.25 -1.125 2.25 0 0 Z " fill="#7B7C73" transform="translate(95,535)"/>
<path d="M0 0 C1.32 0.33 2.64 0.66 4 1 C4 2.65 4 4.3 4 6 C1.69 6 -0.62 6 -3 6 C-3.33 5.01 -3.66 4.02 -4 3 C-2.68 3.33 -1.36 3.66 0 4 C0 2.68 0 1.36 0 0 Z " fill="#BBBBBB" transform="translate(183,432)"/>
<path d="M0 0 C0.33 0 0.66 0 1 0 C1 5.94 1 11.88 1 18 C-0.32 18 -1.64 18 -3 18 C-3 17.01 -3 16.02 -3 15 C-2.01 15 -1.02 15 0 15 C0 10.05 0 5.1 0 0 Z " fill="#C9C9C9" transform="translate(222,420)"/>
<path d="M0 0 C0 1.98 0 3.96 0 6 C-1.65 6 -3.3 6 -5 6 C-5.33 4.35 -5.66 2.7 -6 1 C-3 0 -3 0 0 0 Z " fill="#93908D" transform="translate(95,396)"/>
<path d="M0 0 C0.33 0.66 0.66 1.32 1 2 C1.99 2 2.98 2 4 2 C4 3.98 4 5.96 4 8 C2.68 8 1.36 8 0 8 C-1.125 2.25 -1.125 2.25 0 0 Z " fill="#7B7C73" transform="translate(162,350)"/>
<path d="M0 0 C1.65 0.33 3.3 0.66 5 1 C5 2.65 5 4.3 5 6 C3.35 6 1.7 6 0 6 C-0.33 5.01 -0.66 4.02 -1 3 C-0.34 2.67 0.32 2.34 1 2 C0.67 1.34 0.34 0.68 0 0 Z " fill="#B9C5A5" transform="translate(171,139)"/>
<path d="M0 0 C1.98 0.495 1.98 0.495 4 1 C3.67 2.65 3.34 4.3 3 6 C1.68 5.67 0.36 5.34 -1 5 C-0.67 3.35 -0.34 1.7 0 0 Z " fill="#554E4D" transform="translate(187,568)"/>
<path d="M0 0 C1.98 0.495 1.98 0.495 4 1 C3.67 2.65 3.34 4.3 3 6 C1.68 5.67 0.36 5.34 -1 5 C-0.67 3.35 -0.34 1.7 0 0 Z " fill="#3C3332" transform="translate(53,568)"/>
<path d="M0 0 C0 1.98 0 3.96 0 6 C-1.65 5.67 -3.3 5.34 -5 5 C-5 3.68 -5 2.36 -5 1 C-3 0 -3 0 0 0 Z " fill="#8F8383" transform="translate(132,468)"/>
<path d="M0 0 C0.99 1.485 0.99 1.485 2 3 C2.99 3 3.98 3 5 3 C5 4.98 5 6.96 5 9 C3.33333333 9 1.66666667 9 0 9 C0 6.03 0 3.06 0 0 Z " fill="#95A48A" transform="translate(131,100)"/>
<path d="M0 0 C1.98 0.495 1.98 0.495 4 1 C3.67 2.65 3.34 4.3 3 6 C1.68 5.67 0.36 5.34 -1 5 C-0.67 3.35 -0.34 1.7 0 0 Z " fill="#6C6D67" transform="translate(126,103)"/>
<path d="M0 0 C0.99 1.485 0.99 1.485 2 3 C2.99 3 3.98 3 5 3 C5 4.98 5 6.96 5 9 C3.33333333 9 1.66666667 9 0 9 C0 6.03 0 3.06 0 0 Z " fill="#95A48A" transform="translate(131,82)"/>
<path d="M0 0 C1.98 0.495 1.98 0.495 4 1 C3.67 2.65 3.34 4.3 3 6 C1.68 5.67 0.36 5.34 -1 5 C-0.67 3.35 -0.34 1.7 0 0 Z " fill="#6C6D67" transform="translate(126,85)"/>
<path d="M0 0 C0.33 0 0.66 0 1 0 C1 2.64 1 5.28 1 8 C2.65 8 4.3 8 6 8 C5.67 9.32 5.34 10.64 5 12 C4.34 12 3.68 12 3 12 C2.67 11.34 2.34 10.68 2 10 C1.34 10.66 0.68 11.32 0 12 C0 8.04 0 4.08 0 0 Z " fill="#717271" transform="translate(380,664)"/>
<path d="M0 0 C1.32 0.33 2.64 0.66 4 1 C4.99 1 5.98 1 7 1 C6.01 3.31 5.02 5.62 4 8 C3.34 8 2.68 8 2 8 C1.34 5.36 0.68 2.72 0 0 Z " fill="#C2CCC4" transform="translate(69,632)"/>
<path d="M0 0 C1.67542976 0.28604898 3.34385343 0.61781233 5 1 C5 1.66 5 2.32 5 3 C3.68 3 2.36 3 1 3 C1 3.66 1 4.32 1 5 C2.32 5.33 3.64 5.66 5 6 C3.35 6 1.7 6 0 6 C-0.38218767 4.34385343 -0.71395102 2.67542976 -1 1 C-0.67 0.67 -0.34 0.34 0 0 Z " fill="#C9C1B4" transform="translate(78,632)"/>
<path d="M0 0 C0.33 0.66 0.66 1.32 1 2 C1.66 2.33 2.32 2.66 3 3 C2.34 3 1.68 3 1 3 C1 4.32 1 5.64 1 7 C1.66 7.33 2.32 7.66 3 8 C1.02 8 -0.96 8 -3 8 C-3 6.02 -3 4.04 -3 2 C-2.01 2 -1.02 2 0 2 C0 1.34 0 0.68 0 0 Z " fill="#827E6B" transform="translate(162,595)"/>
<path d="M0 0 C0.33 0 0.66 0 1 0 C1 2.64 1 5.28 1 8 C2.65 8 4.3 8 6 8 C5.67 9.32 5.34 10.64 5 12 C4.34 12 3.68 12 3 12 C2.67 11.34 2.34 10.68 2 10 C1.34 10.66 0.68 11.32 0 12 C0 8.04 0 4.08 0 0 Z " fill="#717271" transform="translate(380,564)"/>
<path d="M0 0 C0.33 0 0.66 0 1 0 C1 2.64 1 5.28 1 8 C2.65 8 4.3 8 6 8 C5.67 9.32 5.34 10.64 5 12 C4.34 12 3.68 12 3 12 C2.67 11.34 2.34 10.68 2 10 C1.34 10.66 0.68 11.32 0 12 C0 8.04 0 4.08 0 0 Z " fill="#717271" transform="translate(380,532)"/>
<path d="M0 0 C0.33 0 0.66 0 1 0 C1 2.64 1 5.28 1 8 C2.65 8 4.3 8 6 8 C5.67 9.32 5.34 10.64 5 12 C4.34 12 3.68 12 3 12 C2.67 11.34 2.34 10.68 2 10 C1.34 10.66 0.68 11.32 0 12 C0 8.04 0 4.08 0 0 Z " fill="#717271" transform="translate(380,500)"/>
<path d="M0 0 C1.67542976 0.28604898 3.34385343 0.61781233 5 1 C5 1.66 5 2.32 5 3 C3.68 3 2.36 3 1 3 C1 3.66 1 4.32 1 5 C2.32 5.33 3.64 5.66 5 6 C3.35 6 1.7 6 0 6 C-0.38218767 4.34385343 -0.71395102 2.67542976 -1 1 C-0.67 0.67 -0.34 0.34 0 0 Z " fill="#C9C1B4" transform="translate(114,468)"/>
<path d="M0 0 C0.99 0 1.98 0 3 0 C3 3.3 3 6.6 3 10 C2.01 9.34 1.02 8.68 0 8 C-0.40843923 5.28796348 -0.13336867 2.7562858 0 0 Z " fill="#D4D4D4" transform="translate(256,420)"/>
<path d="M0 0 C3.3 0 6.6 0 10 0 C10 0.66 10 1.32 10 2 C6.7 2.33 3.4 2.66 0 3 C0 2.01 0 1.02 0 0 Z " fill="#DEDCDB" transform="translate(110,420)"/>
<path d="M0 0 C0.99 0 1.98 0 3 0 C3.66 1.65 4.32 3.3 5 5 C4.34 5 3.68 5 3 5 C2.67 5.99 2.34 6.98 2 8 C1.34 8 0.68 8 0 8 C0 5.36 0 2.72 0 0 Z " fill="#C4C3AF" transform="translate(57,466)"/>
<path d="M0 0 C1.65 0.33 3.3 0.66 5 1 C5 1.66 5 2.32 5 3 C3.68 3 2.36 3 1 3 C1 3.66 1 4.32 1 5 C1.99 5.33 2.98 5.66 4 6 C2.35 5.67 0.7 5.34 -1 5 C-0.67 3.35 -0.34 1.7 0 0 Z " fill="#C3CDB0" transform="translate(160,139)"/>
<path d="M0 0 C0.66 0 1.32 0 2 0 C2.625 2.3125 2.625 2.3125 3 5 C2.01 6.485 2.01 6.485 1 8 C1 7.01 1 6.02 1 5 C-0.32 5 -1.64 5 -3 5 C-1.125 1.125 -1.125 1.125 0 0 Z " fill="#9EA69C" transform="translate(136,503)"/>
<path d="M0 0 C0.66 0 1.32 0 2 0 C2 1.98 2 3.96 2 6 C0.02 6 -1.96 6 -4 6 C-3.67 5.01 -3.34 4.02 -3 3 C-2.01 3 -1.02 3 0 3 C0 2.01 0 1.02 0 0 Z " fill="#8C939A" transform="translate(67,396)"/>
<path d="M0 0 C3.3 0 6.6 0 10 0 C9.01 0.495 9.01 0.495 8 1 C8 1.99 8 2.98 8 4 C6.35 4 4.7 4 3 4 C3.33 3.01 3.66 2.02 4 1 C2.68 0.67 1.36 0.34 0 0 Z " fill="#A2A29C" transform="translate(211,693)"/>
<path d="M0 0 C1.32 1.32 2.64 2.64 4 4 C3.01 4 2.02 4 1 4 C0.67 5.32 0.34 6.64 0 8 C-0.99 7.67 -1.98 7.34 -3 7 C-2.67 6.01 -2.34 5.02 -2 4 C-1.34 4 -0.68 4 0 4 C0 2.68 0 1.36 0 0 Z " fill="#B6B6B6" transform="translate(75,430)"/>
<path d="M0 0 C1.43088528 2.86177057 0.59991697 4.93375773 0 8 C-1.32 7.67 -2.64 7.34 -4 7 C-3.6875 4.625 -3.6875 4.625 -3 2 C-2.01 1.34 -1.02 0.68 0 0 Z " fill="#4A7FB8" transform="translate(51,419)"/>
<path d="M0 0 C0.66 0 1.32 0 2 0 C3.125 2.25 3.125 2.25 4 5 C3.125 7.3125 3.125 7.3125 2 9 C1.34 9 0.68 9 0 9 C0 6.03 0 3.06 0 0 Z " fill="#9EA289" transform="translate(119,190)"/>
<path d="M0 0 C0.78375 0.185625 1.5675 0.37125 2.375 0.5625 C4.97089775 1.25962266 4.97089775 1.25962266 7 0 C6.67 1.32 6.34 2.64 6 4 C4.02 4 2.04 4 0 4 C0 2.68 0 1.36 0 0 Z " fill="#9D9B8A" transform="translate(234,693)"/>
<path d="M0 0 C1.65 0.33 3.3 0.66 5 1 C5 1.99 5 2.98 5 4 C3.02 4 1.04 4 -1 4 C-0.67 2.68 -0.34 1.36 0 0 Z " fill="#686962" transform="translate(18,693)"/>
<path d="M0 0 C3 0 6 0 9 0 C8.360625 0.28875 7.72125 0.5775 7.0625 0.875 C4.84793921 1.82823451 4.84793921 1.82823451 4 4 C3.01 4 2.02 4 1 4 C0.67 4.66 0.34 5.32 0 6 C0 4.02 0 2.04 0 0 Z " fill="#466B9A" transform="translate(32,422)"/>
<path d="M0 0 C0.33 0.66 0.66 1.32 1 2 C1.66 2.33 2.32 2.66 3 3 C2.34 3 1.68 3 1 3 C1 4.32 1 5.64 1 7 C1.66 7.33 2.32 7.66 3 8 C2.01 8 1.02 8 0 8 C0 6.35 0 4.7 0 3 C-0.99 3 -1.98 3 -3 3 C-3 4.65 -3 6.3 -3 8 C-3.33 8 -3.66 8 -4 8 C-4 6.02 -4 4.04 -4 2 C-2.68 2 -1.36 2 0 2 C0 1.34 0 0.68 0 0 Z " fill="#8EA296" transform="translate(234,371)"/>
<path d="M0 0 C0.33 0.66 0.66 1.32 1 2 C1.66 2.33 2.32 2.66 3 3 C2.34 3 1.68 3 1 3 C1 4.32 1 5.64 1 7 C1.66 7.33 2.32 7.66 3 8 C2.01 8 1.02 8 0 8 C0 6.35 0 4.7 0 3 C-0.99 3 -1.98 3 -3 3 C-3 4.65 -3 6.3 -3 8 C-3.33 8 -3.66 8 -4 8 C-4 6.02 -4 4.04 -4 2 C-2.68 2 -1.36 2 0 2 C0 1.34 0 0.68 0 0 Z " fill="#B2D2BF" transform="translate(132,119)"/>
<path d="M0 0 C0 1.65 0 3.3 0 5 C-1.65 5 -3.3 5 -5 5 C-4.6875 3.0625 -4.6875 3.0625 -4 1 C-1 0 -1 0 0 0 Z " fill="#818179" transform="translate(132,598)"/>
<path d="M0 0 C0 1.65 0 3.3 0 5 C-1.65 5 -3.3 5 -5 5 C-4.6875 3.0625 -4.6875 3.0625 -4 1 C-1 0 -1 0 0 0 Z " fill="#818179" transform="translate(87,598)"/>
<path d="M0 0 C0 1.65 0 3.3 0 5 C-1.65 5 -3.3 5 -5 5 C-4.6875 3.0625 -4.6875 3.0625 -4 1 C-1 0 -1 0 0 0 Z " fill="#818179" transform="translate(64,538)"/>
<path d="M0 0 C0 1.65 0 3.3 0 5 C-1.65 5 -3.3 5 -5 5 C-4.6875 3.0625 -4.6875 3.0625 -4 1 C-1 0 -1 0 0 0 Z " fill="#818179" transform="translate(67,506)"/>
<path d="M0 0 C1.98 0.495 1.98 0.495 4 1 C4 1.66 4 2.32 4 3 C3.01 3.33 2.02 3.66 1 4 C1.99 4.66 2.98 5.32 4 6 C2.35 5.67 0.7 5.34 -1 5 C-0.67 3.35 -0.34 1.7 0 0 Z " fill="#919186" transform="translate(242,373)"/>
<path d="M0 0 C1.98 0.495 1.98 0.495 4 1 C4 1.66 4 2.32 4 3 C3.01 3.33 2.02 3.66 1 4 C1.99 4.66 2.98 5.32 4 6 C2.35 5.67 0.7 5.34 -1 5 C-0.67 3.35 -0.34 1.7 0 0 Z " fill="#919186" transform="translate(225,373)"/>
<path d="M0 0 C1.98 0.495 1.98 0.495 4 1 C4 1.66 4 2.32 4 3 C3.01 3.33 2.02 3.66 1 4 C1.99 4.66 2.98 5.32 4 6 C2.35 5.67 0.7 5.34 -1 5 C-0.67 3.35 -0.34 1.7 0 0 Z " fill="#919186" transform="translate(180,373)"/>
<path d="M0 0 C0 1.65 0 3.3 0 5 C-1.65 5 -3.3 5 -5 5 C-4.6875 3.0625 -4.6875 3.0625 -4 1 C-1 0 -1 0 0 0 Z " fill="#818179" transform="translate(48,356)"/>
<path d="M0 0 C1.32 0 2.64 0 4 0 C4 1.98 4 3.96 4 6 C2.68 6 1.36 6 0 6 C0.185625 5.38125 0.37125 4.7625 0.5625 4.125 C1.23686176 1.95839822 1.23686176 1.95839822 0 0 Z " fill="#A5ACA7" transform="translate(173,175)"/>
<path d="M0 0 C1.32 0 2.64 0 4 0 C4 1.98 4 3.96 4 6 C2.68 6 1.36 6 0 6 C0.185625 5.38125 0.37125 4.7625 0.5625 4.125 C1.23686176 1.95839822 1.23686176 1.95839822 0 0 Z " fill="#A5ACA7" transform="translate(158,175)"/>
<path d="M0 0 C1.98 0.495 1.98 0.495 4 1 C4 1.66 4 2.32 4 3 C3.01 3.33 2.02 3.66 1 4 C1.99 4.66 2.98 5.32 4 6 C2.35 5.67 0.7 5.34 -1 5 C-0.67 3.35 -0.34 1.7 0 0 Z " fill="#B7B7A5" transform="translate(187,175)"/>
<path d="M0 0 C1.98 0.495 1.98 0.495 4 1 C4 1.66 4 2.32 4 3 C3.01 3.33 2.02 3.66 1 4 C1.99 4.66 2.98 5.32 4 6 C2.35 5.67 0.7 5.34 -1 5 C-0.67 3.35 -0.34 1.7 0 0 Z " fill="#B7B7A5" transform="translate(139,175)"/>
<path d="M0 0 C1.98 0.495 1.98 0.495 4 1 C4 1.66 4 2.32 4 3 C3.01 3.33 2.02 3.66 1 4 C1.99 4.66 2.98 5.32 4 6 C2.35 5.67 0.7 5.34 -1 5 C-0.67 3.35 -0.34 1.7 0 0 Z " fill="#B7B7A5" transform="translate(126,175)"/>
<path d="M0 0 C1.32 0 2.64 0 4 0 C4 1.98 4 3.96 4 6 C2.68 6 1.36 6 0 6 C0.185625 5.38125 0.37125 4.7625 0.5625 4.125 C1.23686176 1.95839822 1.23686176 1.95839822 0 0 Z " fill="#A5ACA7" transform="translate(158,157)"/>
<path d="M0 0 C1.98 0.495 1.98 0.495 4 1 C4 1.66 4 2.32 4 3 C3.01 3.33 2.02 3.66 1 4 C1.99 4.66 2.98 5.32 4 6 C2.35 5.67 0.7 5.34 -1 5 C-0.67 3.35 -0.34 1.7 0 0 Z " fill="#B7B7A5" transform="translate(139,157)"/>
<path d="M0 0 C1.98 0.495 1.98 0.495 4 1 C4 1.66 4 2.32 4 3 C3.01 3.33 2.02 3.66 1 4 C1.99 4.66 2.98 5.32 4 6 C2.35 5.67 0.7 5.34 -1 5 C-0.67 3.35 -0.34 1.7 0 0 Z " fill="#B7B7A5" transform="translate(126,157)"/>
<path d="M0 0 C0.66 0 1.32 0 2 0 C2 0.66 2 1.32 2 2 C2.66 2.33 3.32 2.66 4 3 C3.34 3 2.68 3 2 3 C2 4.32 2 5.64 2 7 C2.66 7.33 3.32 7.66 4 8 C2.68 7.67 1.36 7.34 0 7 C-1.125 2.25 -1.125 2.25 0 0 Z " fill="#A7CACA" transform="translate(166,137)"/>
<path d="M0 0 C1.32 0 2.64 0 4 0 C4 1.98 4 3.96 4 6 C2.68 6 1.36 6 0 6 C0.185625 5.38125 0.37125 4.7625 0.5625 4.125 C1.23686176 1.95839822 1.23686176 1.95839822 0 0 Z " fill="#A5ACA7" transform="translate(136,121)"/>
<path d="M0 0 C1.98 0.495 1.98 0.495 4 1 C4 1.66 4 2.32 4 3 C3.01 3.33 2.02 3.66 1 4 C1.99 4.66 2.98 5.32 4 6 C2.35 5.67 0.7 5.34 -1 5 C-0.67 3.35 -0.34 1.7 0 0 Z " fill="#B7B7A5" transform="translate(150,121)"/>
<path d="M0 0 C1.32 0 2.64 0 4 0 C4 1.98 4 3.96 4 6 C2.68 6 1.36 6 0 6 C0.185625 5.38125 0.37125 4.7625 0.5625 4.125 C1.23686176 1.95839822 1.23686176 1.95839822 0 0 Z " fill="#A5ACA7" transform="translate(162,103)"/>
<path d="M0 0 C1.32 0 2.64 0 4 0 C4 1.98 4 3.96 4 6 C2.68 6 1.36 6 0 6 C0.185625 5.38125 0.37125 4.7625 0.5625 4.125 C1.23686176 1.95839822 1.23686176 1.95839822 0 0 Z " fill="#A5ACA7" transform="translate(144,103)"/>
<path d="M0 0 C1.32 0 2.64 0 4 0 C4 1.98 4 3.96 4 6 C2.68 6 1.36 6 0 6 C0.185625 5.38125 0.37125 4.7625 0.5625 4.125 C1.23686176 1.95839822 1.23686176 1.95839822 0 0 Z " fill="#A5ACA7" transform="translate(138,103)"/>
<path d="M0 0 C1.98 0.495 1.98 0.495 4 1 C4 1.66 4 2.32 4 3 C3.01 3.33 2.02 3.66 1 4 C1.99 4.66 2.98 5.32 4 6 C2.35 5.67 0.7 5.34 -1 5 C-0.67 3.35 -0.34 1.7 0 0 Z " fill="#B7B7A5" transform="translate(176,103)"/>
<path d="M0 0 C1.32 0 2.64 0 4 0 C4 1.98 4 3.96 4 6 C2.68 6 1.36 6 0 6 C0.185625 5.38125 0.37125 4.7625 0.5625 4.125 C1.23686176 1.95839822 1.23686176 1.95839822 0 0 Z " fill="#A5ACA7" transform="translate(160,85)"/>
<path d="M0 0 C1.32 0 2.64 0 4 0 C4 1.98 4 3.96 4 6 C2.68 6 1.36 6 0 6 C0.185625 5.38125 0.37125 4.7625 0.5625 4.125 C1.23686176 1.95839822 1.23686176 1.95839822 0 0 Z " fill="#A5ACA7" transform="translate(144,85)"/>
<path d="M0 0 C1.32 0 2.64 0 4 0 C4 1.98 4 3.96 4 6 C2.68 6 1.36 6 0 6 C0.185625 5.38125 0.37125 4.7625 0.5625 4.125 C1.23686176 1.95839822 1.23686176 1.95839822 0 0 Z " fill="#A5ACA7" transform="translate(138,85)"/>
<path d="M0 0 C1.32 0 2.64 0 4 0 C4 0.66 4 1.32 4 2 C5.32 2.33 6.64 2.66 8 3 C4.04 3 0.08 3 -4 3 C-2.68 2.67 -1.36 2.34 0 2 C0 1.34 0 0.68 0 0 Z " fill="#C2C2C2" transform="translate(102,87)"/>
<path d="M0 0 C1.98 0.495 1.98 0.495 4 1 C4 1.66 4 2.32 4 3 C3.01 3.33 2.02 3.66 1 4 C1.99 4.66 2.98 5.32 4 6 C2.35 5.67 0.7 5.34 -1 5 C-0.67 3.35 -0.34 1.7 0 0 Z " fill="#919186" transform="translate(205,44)"/>
<path d="M0 0 C0.99 0.33 1.98 0.66 3 1 C3 2.65 3 4.3 3 6 C1.68 6 0.36 6 -1 6 C-1.042721 4.33388095 -1.04063832 2.66617115 -1 1 C-0.67 0.67 -0.34 0.34 0 0 Z " fill="#7A7869" transform="translate(147,669)"/>
<path d="M0 0 C0.99 0.33 1.98 0.66 3 1 C3 2.65 3 4.3 3 6 C1.68 6 0.36 6 -1 6 C-1.042721 4.33388095 -1.04063832 2.66617115 -1 1 C-0.67 0.67 -0.34 0.34 0 0 Z " fill="#7A7869" transform="translate(108,669)"/>
<path d="M0 0 C2.31 0 4.62 0 7 0 C5.515 1.98 5.515 1.98 4 4 C2.68 3.34 1.36 2.68 0 2 C0 1.34 0 0.68 0 0 Z " fill="#404040" transform="translate(40,632)"/>
<path d="M0 0 C0.99 0.33 1.98 0.66 3 1 C3 2.65 3 4.3 3 6 C1.68 6 0.36 6 -1 6 C-1.042721 4.33388095 -1.04063832 2.66617115 -1 1 C-0.67 0.67 -0.34 0.34 0 0 Z " fill="#7A7869" transform="translate(103,597)"/>
<path d="M0 0 C2.31 0 4.62 0 7 0 C5.515 1.98 5.515 1.98 4 4 C2.68 3.34 1.36 2.68 0 2 C0 1.34 0 0.68 0 0 Z " fill="#404040" transform="translate(40,468)"/>
<path d="M0 0 C0.33 0 0.66 0 1 0 C1 2.64 1 5.28 1 8 C0.01 7.67 -0.98 7.34 -2 7 C-2.125 4.625 -2.125 4.625 -2 2 C-1.34 1.34 -0.68 0.68 0 0 Z " fill="#E2E0DE" transform="translate(123,428)"/>
<path d="M0 0 C2.475 0.99 2.475 0.99 5 2 C1.25 4 1.25 4 -1 4 C-1.33 4.99 -1.66 5.98 -2 7 C-2.33 6.01 -2.66 5.02 -3 4 C-1.5625 1.8125 -1.5625 1.8125 0 0 Z " fill="#C47042" transform="translate(145,418)"/>
<path d="M0 0 C2.475 0.99 2.475 0.99 5 2 C1.25 4 1.25 4 -1 4 C-1.33 4.99 -1.66 5.98 -2 7 C-2.33 6.01 -2.66 5.02 -3 4 C-1.5625 1.8125 -1.5625 1.8125 0 0 Z " fill="#C47042" transform="translate(72,418)"/>
<path d="M0 0 C0.99 0.33 1.98 0.66 3 1 C3 2.65 3 4.3 3 6 C1.68 6 0.36 6 -1 6 C-1.042721 4.33388095 -1.04063832 2.66617115 -1 1 C-0.67 0.67 -0.34 0.34 0 0 Z " fill="#7A7869" transform="translate(122,352)"/>
<path d="M0 0 C2.475 0.495 2.475 0.495 5 1 C5 2.65 5 4.3 5 6 C3.35 6 1.7 6 0 6 C0.99 5.67 1.98 5.34 3 5 C3 4.34 3 3.68 3 3 C2.34 2.67 1.68 2.34 1 2 C0.67 1.34 0.34 0.68 0 0 Z " fill="#D0CCA9" transform="translate(133,139)"/>
<path d="M0 0 C0.99 0.33 1.98 0.66 3 1 C3 2.65 3 4.3 3 6 C1.68 6 0.36 6 -1 6 C-1.042721 4.33388095 -1.04063832 2.66617115 -1 1 C-0.67 0.67 -0.34 0.34 0 0 Z " fill="#7A7869" transform="translate(116,62)"/>
<path d="M0 0 C0.99 0 1.98 0 3 0 C3 1.98 3 3.96 3 6 C2.01 6 1.02 6 0 6 C0 4.02 0 2.04 0 0 Z " fill="#636052" transform="translate(143,536)"/>
<path d="M0 0 C0.99 0 1.98 0 3 0 C3 1.98 3 3.96 3 6 C2.01 6 1.02 6 0 6 C0 4.02 0 2.04 0 0 Z " fill="#636052" transform="translate(137,536)"/>
<path d="M0 0 C0.99 0 1.98 0 3 0 C3 1.98 3 3.96 3 6 C2.01 6 1.02 6 0 6 C0 4.02 0 2.04 0 0 Z " fill="#636052" transform="translate(127,536)"/>
<path d="M0 0 C0.66 0 1.32 0 2 0 C2 2.64 2 5.28 2 8 C1.34 8 0.68 8 0 8 C-0.38063221 5.6739143 -0.71269945 3.33944736 -1 1 C-0.67 0.67 -0.34 0.34 0 0 Z " fill="#BBCECB" transform="translate(63,466)"/>
<path d="M0 0 C1.98 0 3.96 0 6 0 C6 0.99 6 1.98 6 3 C4.02 3 2.04 3 0 3 C0 2.01 0 1.02 0 0 Z " fill="#CACACA" transform="translate(107,435)"/>
<path d="M0 0 C1.65 0 3.3 0 5 0 C3.625 2.5 3.625 2.5 2 5 C1.34 5 0.68 5 0 5 C0 3.35 0 1.7 0 0 Z " fill="#E5D794" transform="translate(343,571)"/>
<path d="M0 0 C0.99 0.33 1.98 0.66 3 1 C2.67 1.99 2.34 2.98 2 4 C1.01 4 0.02 4 -1 4 C-1.33 4.99 -1.66 5.98 -2 7 C-2 5.02 -2 3.04 -2 1 C-1.34 0.67 -0.68 0.34 0 0 Z " fill="#96A098" transform="translate(157,503)"/>
<path d="M0 0 C0.99 0.495 0.99 0.495 2 1 C2 2.32 2 3.64 2 5 C2.66 5.33 3.32 5.66 4 6 C3.34 6 2.68 6 2 6 C2 6.66 2 7.32 2 8 C1.34 8 0.68 8 0 8 C0 5.36 0 2.72 0 0 Z " fill="#D0D3C0" transform="translate(106,468)"/>
<path d="M0 0 C0.99 0.33 1.98 0.66 3 1 C3 2.65 3 4.3 3 6 C2.01 6 1.02 6 0 6 C0 4.02 0 2.04 0 0 Z " fill="#E5E5E5" transform="translate(145,428)"/>
<path d="M0 0 C0.99 0.33 1.98 0.66 3 1 C3 2.65 3 4.3 3 6 C2.01 6 1.02 6 0 6 C0 4.02 0 2.04 0 0 Z " fill="#E5E5E5" transform="translate(72,428)"/>
<path d="M0 0 C0.66 0 1.32 0 2 0 C1.979375 1.093125 1.95875 2.18625 1.9375 3.3125 C1.81455548 6.94384191 1.81455548 6.94384191 3 10 C2.01 10 1.02 10 0 10 C0 6.7 0 3.4 0 0 Z " fill="#D1CFCE" transform="translate(110,424)"/>
<path d="M0 0 C0.66 0.33 1.32 0.66 2 1 C2 4.10551666 1.4606285 5.35261084 0 8 C-0.33 7.67 -0.66 7.34 -1 7 C-0.71269945 4.66055264 -0.38063221 2.3260857 0 0 Z " fill="#D37442" transform="translate(112,424)"/>
<path d="M0 0 C0.99 0.33 1.98 0.66 3 1 C3 1.66 3 2.32 3 3 C2.34 3 1.68 3 1 3 C1 3.99 1 4.98 1 6 C0.34 6 -0.32 6 -1 6 C-1.625 4.125 -1.625 4.125 -2 2 C-1.34 1.34 -0.68 0.68 0 0 Z " fill="#678FBA" transform="translate(264,422)"/>
<path d="M0 0 C0.99 0.33 1.98 0.66 3 1 C3 2.65 3 4.3 3 6 C2.01 6 1.02 6 0 6 C0 4.02 0 2.04 0 0 Z " fill="#BDBDBD" transform="translate(148,421)"/>
<path d="M0 0 C1.98 0 3.96 0 6 0 C5.67 0.99 5.34 1.98 5 3 C3.35 3 1.7 3 0 3 C0 2.01 0 1.02 0 0 Z " fill="#E0E0E0" transform="translate(82,420)"/>
</svg>
