<?xml version="1.0" encoding="UTF-8"?>
<svg version="1.1" xmlns="http://www.w3.org/2000/svg" width="414" height="313">
<path d="M0 0 C136.62 0 273.24 0 414 0 C414 103.29 414 206.58 414 313 C277.38 313 140.76 313 0 313 C0 209.71 0 106.42 0 0 Z " fill="#242424" transform="translate(0,0)"/>
<path d="M0 0 C0.66 0 1.32 0 2 0 C1 3 1 3 -1 4 C0.32 5.32 1.64 6.64 3 8 C1.63016497 11.16115776 1.0109362 11.9927092 -2 14 C-3.9375 14.16015625 -3.9375 14.16015625 -6 14.0625 C-8.82667719 13.93936823 -10.22352981 14.07450994 -13 15 C-13 15.66 -13 16.32 -13 17 C-13.66 17 -14.32 17 -15 17 C-14.62875 16.2575 -14.2575 15.515 -13.875 14.75 C-12.70484137 12.05716353 -12.70484137 12.05716353 -13.875 9.6875 C-14.24625 9.130625 -14.6175 8.57375 -15 8 C-11.04397799 4.2837369 -8.29147789 3.68593232 -3 3 C-1.20614008 1.5420814 -1.20614008 1.5420814 0 0 Z " fill="#343434" transform="translate(78,245)"/>
<path d="M0 0 C0.66 0 1.32 0 2 0 C1 3 1 3 -1 4 C0.32 5.32 1.64 6.64 3 8 C1.63016497 11.16115776 1.0109362 11.9927092 -2 14 C-3.9375 14.16015625 -3.9375 14.16015625 -6 14.0625 C-8.82667719 13.93936823 -10.22352981 14.07450994 -13 15 C-13 15.66 -13 16.32 -13 17 C-13.66 17 -14.32 17 -15 17 C-14.62875 16.2575 -14.2575 15.515 -13.875 14.75 C-12.70484137 12.05716353 -12.70484137 12.05716353 -13.875 9.6875 C-14.24625 9.130625 -14.6175 8.57375 -15 8 C-11.04397799 4.2837369 -8.29147789 3.68593232 -3 3 C-1.20614008 1.5420814 -1.20614008 1.5420814 0 0 Z " fill="#343434" transform="translate(58,197)"/>
<path d="M0 0 C0.66 0 1.32 0 2 0 C1 3 1 3 -1 4 C0.32 5.32 1.64 6.64 3 8 C1.63016497 11.16115776 1.0109362 11.9927092 -2 14 C-3.9375 14.16015625 -3.9375 14.16015625 -6 14.0625 C-8.82667719 13.93936823 -10.22352981 14.07450994 -13 15 C-13 15.66 -13 16.32 -13 17 C-13.66 17 -14.32 17 -15 17 C-14.62875 16.2575 -14.2575 15.515 -13.875 14.75 C-12.70484137 12.05716353 -12.70484137 12.05716353 -13.875 9.6875 C-14.24625 9.130625 -14.6175 8.57375 -15 8 C-11.04397799 4.2837369 -8.29147789 3.68593232 -3 3 C-1.20614008 1.5420814 -1.20614008 1.5420814 0 0 Z " fill="#343434" transform="translate(58,173)"/>
<path d="M0 0 C0.66 0 1.32 0 2 0 C1 3 1 3 -1 4 C0.32 5.32 1.64 6.64 3 8 C1.63016497 11.16115776 1.0109362 11.9927092 -2 14 C-3.9375 14.16015625 -3.9375 14.16015625 -6 14.0625 C-8.82667719 13.93936823 -10.22352981 14.07450994 -13 15 C-13 15.66 -13 16.32 -13 17 C-13.66 17 -14.32 17 -15 17 C-14.62875 16.2575 -14.2575 15.515 -13.875 14.75 C-12.70484137 12.05716353 -12.70484137 12.05716353 -13.875 9.6875 C-14.24625 9.130625 -14.6175 8.57375 -15 8 C-11.04397799 4.2837369 -8.29147789 3.68593232 -3 3 C-1.20614008 1.5420814 -1.20614008 1.5420814 0 0 Z " fill="#343434" transform="translate(58,149)"/>
<path d="M0 0 C0.66 0 1.32 0 2 0 C1 3 1 3 -1 4 C0.32 5.32 1.64 6.64 3 8 C1.63016497 11.16115776 1.0109362 11.9927092 -2 14 C-3.9375 14.16015625 -3.9375 14.16015625 -6 14.0625 C-8.82667719 13.93936823 -10.22352981 14.07450994 -13 15 C-13 15.66 -13 16.32 -13 17 C-13.66 17 -14.32 17 -15 17 C-14.62875 16.2575 -14.2575 15.515 -13.875 14.75 C-12.70484137 12.05716353 -12.70484137 12.05716353 -13.875 9.6875 C-14.24625 9.130625 -14.6175 8.57375 -15 8 C-11.04397799 4.2837369 -8.29147789 3.68593232 -3 3 C-1.20614008 1.5420814 -1.20614008 1.5420814 0 0 Z " fill="#343434" transform="translate(58,125)"/>
<path d="M0 0 C0.66 0 1.32 0 2 0 C1 3 1 3 -1 4 C0.32 5.32 1.64 6.64 3 8 C1.63016497 11.16115776 1.0109362 11.9927092 -2 14 C-3.9375 14.16015625 -3.9375 14.16015625 -6 14.0625 C-8.82667719 13.93936823 -10.22352981 14.07450994 -13 15 C-13 15.66 -13 16.32 -13 17 C-13.66 17 -14.32 17 -15 17 C-14.62875 16.2575 -14.2575 15.515 -13.875 14.75 C-12.70484137 12.05716353 -12.70484137 12.05716353 -13.875 9.6875 C-14.24625 9.130625 -14.6175 8.57375 -15 8 C-11.04397799 4.2837369 -8.29147789 3.68593232 -3 3 C-1.20614008 1.5420814 -1.20614008 1.5420814 0 0 Z " fill="#343434" transform="translate(58,101)"/>
<path d="M0 0 C0.66 0 1.32 0 2 0 C1 3 1 3 -1 4 C0.32 5.32 1.64 6.64 3 8 C1.63016497 11.16115776 1.0109362 11.9927092 -2 14 C-3.9375 14.16015625 -3.9375 14.16015625 -6 14.0625 C-8.82667719 13.93936823 -10.22352981 14.07450994 -13 15 C-13 15.66 -13 16.32 -13 17 C-13.66 17 -14.32 17 -15 17 C-14.62875 16.2575 -14.2575 15.515 -13.875 14.75 C-12.70484137 12.05716353 -12.70484137 12.05716353 -13.875 9.6875 C-14.24625 9.130625 -14.6175 8.57375 -15 8 C-11.04397799 4.2837369 -8.29147789 3.68593232 -3 3 C-1.20614008 1.5420814 -1.20614008 1.5420814 0 0 Z " fill="#343434" transform="translate(58,77)"/>
<path d="M0 0 C0.66 0 1.32 0 2 0 C1 3 1 3 -1 4 C0.32 5.32 1.64 6.64 3 8 C1.63016497 11.16115776 1.0109362 11.9927092 -2 14 C-3.9375 14.16015625 -3.9375 14.16015625 -6 14.0625 C-8.82667719 13.93936823 -10.22352981 14.07450994 -13 15 C-13 15.66 -13 16.32 -13 17 C-13.66 17 -14.32 17 -15 17 C-14.62875 16.2575 -14.2575 15.515 -13.875 14.75 C-12.70484137 12.05716353 -12.70484137 12.05716353 -13.875 9.6875 C-14.24625 9.130625 -14.6175 8.57375 -15 8 C-11.04397799 4.2837369 -8.29147789 3.68593232 -3 3 C-1.20614008 1.5420814 -1.20614008 1.5420814 0 0 Z " fill="#343434" transform="translate(58,53)"/>
<path d="M0 0 C0.66 0 1.32 0 2 0 C1 3 1 3 -1 4 C0.32 5.32 1.64 6.64 3 8 C1.63016497 11.16115776 1.0109362 11.9927092 -2 14 C-3.9375 14.16015625 -3.9375 14.16015625 -6 14.0625 C-8.82667719 13.93936823 -10.22352981 14.07450994 -13 15 C-13 15.66 -13 16.32 -13 17 C-13.66 17 -14.32 17 -15 17 C-14.62875 16.2575 -14.2575 15.515 -13.875 14.75 C-12.70484137 12.05716353 -12.70484137 12.05716353 -13.875 9.6875 C-14.24625 9.130625 -14.6175 8.57375 -15 8 C-11.04397799 4.2837369 -8.29147789 3.68593232 -3 3 C-1.20614008 1.5420814 -1.20614008 1.5420814 0 0 Z " fill="#343434" transform="translate(58,29)"/>
<path d="M0 0 C3 2 3 2 5 4 C3.63016497 7.16115776 3.0109362 7.9927092 0 10 C-6.98591549 10.67605634 -6.98591549 10.67605634 -11 8 C-11.66 7.34 -12.32 6.68 -13 6 C-10.4082475 0.0190327 -6.20699212 -1.03852397 0 0 Z " fill="#E1E1E1" transform="translate(76,297)"/>
<path d="M0 0 C3 2 3 2 5 4 C3.63016497 7.16115776 3.0109362 7.9927092 0 10 C-6.98591549 10.67605634 -6.98591549 10.67605634 -11 8 C-11.66 7.34 -12.32 6.68 -13 6 C-10.4082475 0.0190327 -6.20699212 -1.03852397 0 0 Z " fill="#E1E1E1" transform="translate(76,273)"/>
<path d="M0 0 C3 2 3 2 5 4 C3.63016497 7.16115776 3.0109362 7.9927092 0 10 C-6.98591549 10.67605634 -6.98591549 10.67605634 -11 8 C-11.66 7.34 -12.32 6.68 -13 6 C-10.4082475 0.0190327 -6.20699212 -1.03852397 0 0 Z " fill="#E1E1E1" transform="translate(56,225)"/>
<path d="M0 0 C3 2 3 2 5 4 C3.63016497 7.16115776 3.0109362 7.9927092 0 10 C-6.98591549 10.67605634 -6.98591549 10.67605634 -11 8 C-11.66 7.34 -12.32 6.68 -13 6 C-10.4082475 0.0190327 -6.20699212 -1.03852397 0 0 Z " fill="#E1E1E1" transform="translate(36,9)"/>
<path d="M0 0 C1.65 0 3.3 0 5 0 C5 1.32 5 2.64 5 4 C6.32 4 7.64 4 9 4 C9 5.65 9 7.3 9 9 C7.68 9 6.36 9 5 9 C5 10.32 5 11.64 5 13 C3.35 13 1.7 13 0 13 C0 11.68 0 10.36 0 9 C-1.32 9 -2.64 9 -4 9 C-4 7.35 -4 5.7 -4 4 C-2.68 4 -1.36 4 0 4 C0 2.68 0 1.36 0 0 Z " fill="#97ADC4" transform="translate(93,296)"/>
<path d="M0 0 C1.65 0 3.3 0 5 0 C5 1.32 5 2.64 5 4 C6.32 4 7.64 4 9 4 C9 5.65 9 7.3 9 9 C7.68 9 6.36 9 5 9 C5 10.32 5 11.64 5 13 C3.35 13 1.7 13 0 13 C0 11.68 0 10.36 0 9 C-1.32 9 -2.64 9 -4 9 C-4 7.35 -4 5.7 -4 4 C-2.68 4 -1.36 4 0 4 C0 2.68 0 1.36 0 0 Z " fill="#97ADC4" transform="translate(93,272)"/>
<path d="M0 0 C1.65 0 3.3 0 5 0 C5 1.32 5 2.64 5 4 C6.32 4 7.64 4 9 4 C9 5.65 9 7.3 9 9 C7.68 9 6.36 9 5 9 C5 10.32 5 11.64 5 13 C3.35 13 1.7 13 0 13 C0 11.68 0 10.36 0 9 C-1.32 9 -2.64 9 -4 9 C-4 7.35 -4 5.7 -4 4 C-2.68 4 -1.36 4 0 4 C0 2.68 0 1.36 0 0 Z " fill="#97ADC4" transform="translate(93,248)"/>
<path d="M0 0 C1.32 0 2.64 0 4 0 C4 2.64 4 5.28 4 8 C3.01 8.495 3.01 8.495 2 9 C2.99 9 3.98 9 5 9 C5 6.03 5 3.06 5 0 C6.32 0 7.64 0 9 0 C9 2.97 9 5.94 9 9 C8.34 9 7.68 9 7 9 C7 9.66 7 10.32 7 11 C4.03 11 1.06 11 -2 11 C-2 8.03 -2 5.06 -2 2 C-1.34 2 -0.68 2 0 2 C0 1.34 0 0.68 0 0 Z " fill="#9EA09C" transform="translate(72,224)"/>
<path d="M0 0 C1.32 0 2.64 0 4 0 C4 2.64 4 5.28 4 8 C3.01 8.495 3.01 8.495 2 9 C2.99 9 3.98 9 5 9 C5 6.03 5 3.06 5 0 C6.32 0 7.64 0 9 0 C9 2.97 9 5.94 9 9 C8.34 9 7.68 9 7 9 C7 9.66 7 10.32 7 11 C4.03 11 1.06 11 -2 11 C-2 8.03 -2 5.06 -2 2 C-1.34 2 -0.68 2 0 2 C0 1.34 0 0.68 0 0 Z " fill="#9EA09C" transform="translate(72,200)"/>
<path d="M0 0 C1.32 0 2.64 0 4 0 C4 2.64 4 5.28 4 8 C3.01 8.495 3.01 8.495 2 9 C2.99 9 3.98 9 5 9 C5 6.03 5 3.06 5 0 C6.32 0 7.64 0 9 0 C9 2.97 9 5.94 9 9 C8.34 9 7.68 9 7 9 C7 9.66 7 10.32 7 11 C4.03 11 1.06 11 -2 11 C-2 8.03 -2 5.06 -2 2 C-1.34 2 -0.68 2 0 2 C0 1.34 0 0.68 0 0 Z " fill="#9EA09C" transform="translate(72,176)"/>
<path d="M0 0 C1.32 0 2.64 0 4 0 C4 2.64 4 5.28 4 8 C3.01 8.495 3.01 8.495 2 9 C2.99 9 3.98 9 5 9 C5 6.03 5 3.06 5 0 C6.32 0 7.64 0 9 0 C9 2.97 9 5.94 9 9 C8.34 9 7.68 9 7 9 C7 9.66 7 10.32 7 11 C4.03 11 1.06 11 -2 11 C-2 8.03 -2 5.06 -2 2 C-1.34 2 -0.68 2 0 2 C0 1.34 0 0.68 0 0 Z " fill="#9EA09C" transform="translate(72,152)"/>
<path d="M0 0 C1.32 0 2.64 0 4 0 C4 2.64 4 5.28 4 8 C3.01 8.495 3.01 8.495 2 9 C2.99 9 3.98 9 5 9 C5 6.03 5 3.06 5 0 C6.32 0 7.64 0 9 0 C9 2.97 9 5.94 9 9 C8.34 9 7.68 9 7 9 C7 9.66 7 10.32 7 11 C4.03 11 1.06 11 -2 11 C-2 8.03 -2 5.06 -2 2 C-1.34 2 -0.68 2 0 2 C0 1.34 0 0.68 0 0 Z " fill="#9EA09C" transform="translate(72,128)"/>
<path d="M0 0 C1.32 0 2.64 0 4 0 C4 2.64 4 5.28 4 8 C3.01 8.495 3.01 8.495 2 9 C2.99 9 3.98 9 5 9 C5 6.03 5 3.06 5 0 C6.32 0 7.64 0 9 0 C9 2.97 9 5.94 9 9 C8.34 9 7.68 9 7 9 C7 9.66 7 10.32 7 11 C4.03 11 1.06 11 -2 11 C-2 8.03 -2 5.06 -2 2 C-1.34 2 -0.68 2 0 2 C0 1.34 0 0.68 0 0 Z " fill="#9EA09C" transform="translate(72,104)"/>
<path d="M0 0 C1.32 0 2.64 0 4 0 C4 2.64 4 5.28 4 8 C3.01 8.495 3.01 8.495 2 9 C2.99 9 3.98 9 5 9 C5 6.03 5 3.06 5 0 C6.32 0 7.64 0 9 0 C9 2.97 9 5.94 9 9 C8.34 9 7.68 9 7 9 C7 9.66 7 10.32 7 11 C4.03 11 1.06 11 -2 11 C-2 8.03 -2 5.06 -2 2 C-1.34 2 -0.68 2 0 2 C0 1.34 0 0.68 0 0 Z " fill="#9EA09C" transform="translate(72,80)"/>
<path d="M0 0 C1.32 0 2.64 0 4 0 C4 2.64 4 5.28 4 8 C3.01 8.495 3.01 8.495 2 9 C2.99 9 3.98 9 5 9 C5 6.03 5 3.06 5 0 C6.32 0 7.64 0 9 0 C9 2.97 9 5.94 9 9 C8.34 9 7.68 9 7 9 C7 9.66 7 10.32 7 11 C4.03 11 1.06 11 -2 11 C-2 8.03 -2 5.06 -2 2 C-1.34 2 -0.68 2 0 2 C0 1.34 0 0.68 0 0 Z " fill="#9EA09C" transform="translate(72,56)"/>
<path d="M0 0 C1.32 0 2.64 0 4 0 C4 2.64 4 5.28 4 8 C3.01 8.495 3.01 8.495 2 9 C2.99 9 3.98 9 5 9 C5 6.03 5 3.06 5 0 C6.32 0 7.64 0 9 0 C9 2.97 9 5.94 9 9 C8.34 9 7.68 9 7 9 C7 9.66 7 10.32 7 11 C4.03 11 1.06 11 -2 11 C-2 8.03 -2 5.06 -2 2 C-1.34 2 -0.68 2 0 2 C0 1.34 0 0.68 0 0 Z " fill="#9EA09C" transform="translate(72,32)"/>
<path d="M0 0 C1.32 0 2.64 0 4 0 C4 2.64 4 5.28 4 8 C3.01 8.495 3.01 8.495 2 9 C2.99 9 3.98 9 5 9 C5 6.03 5 3.06 5 0 C6.32 0 7.64 0 9 0 C9 2.97 9 5.94 9 9 C8.34 9 7.68 9 7 9 C7 9.66 7 10.32 7 11 C4.03 11 1.06 11 -2 11 C-2 8.03 -2 5.06 -2 2 C-1.34 2 -0.68 2 0 2 C0 1.34 0 0.68 0 0 Z " fill="#9EA09C" transform="translate(52,8)"/>
<path d="M0 0 C3.96 0 7.92 0 12 0 C12 2.64 12 5.28 12 8 C10.35 8.33 8.7 8.66 7 9 C7.99 8.67 8.98 8.34 10 8 C10 7.34 10 6.68 10 6 C6.7 6 3.4 6 0 6 C0 4.02 0 2.04 0 0 Z " fill="#B8C7D4" transform="translate(169,301)"/>
<path d="M0 0 C3.96 0 7.92 0 12 0 C12 2.64 12 5.28 12 8 C10.35 8.33 8.7 8.66 7 9 C7.99 8.67 8.98 8.34 10 8 C10 7.34 10 6.68 10 6 C6.7 6 3.4 6 0 6 C0 4.02 0 2.04 0 0 Z " fill="#B8C7D4" transform="translate(167,277)"/>
<path d="M0 0 C0.66 0 1.32 0 2 0 C2.33 1.32 2.66 2.64 3 4 C3.721875 3.814375 4.44375 3.62875 5.1875 3.4375 C8.13982052 2.97825014 10.11300664 3.37578522 13 4 C13.66 3.67 14.32 3.34 15 3 C14.34 4.98 13.68 6.96 13 9 C12.01 8.67 11.02 8.34 10 8 C9.01 8.495 9.01 8.495 8 9 C7.67 7.35 7.34 5.7 7 4 C6.01 4.495 6.01 4.495 5 5 C5.33 6.32 5.66 7.64 6 9 C4 9 2 9 0 9 C0 7.35 0 5.7 0 4 C-0.66 4 -1.32 4 -2 4 C-2 5.65 -2 7.3 -2 9 C-2.33 9 -2.66 9 -3 9 C-3 7.02 -3 5.04 -3 3 C-2.01 3 -1.02 3 0 3 C0 2.01 0 1.02 0 0 Z " fill="#8E9E9C" transform="translate(305,202)"/>
<path d="M0 0 C3.3 0 6.6 0 10 0 C9.34 0.66 8.68 1.32 8 2 C8.5775 1.649375 9.155 1.29875 9.75 0.9375 C12.35801776 -0.14917407 13.39417629 0.06934867 16 1 C15.01 1 14.02 1 13 1 C13 2.32 13 3.64 13 5 C13.99 5.33 14.98 5.66 16 6 C12.37 6 8.74 6 5 6 C5.66 5.34 6.32 4.68 7 4 C4.03 3.505 4.03 3.505 1 3 C1 3.66 1 4.32 1 5 C1.99 5.33 2.98 5.66 4 6 C2.35 5.67 0.7 5.34 -1 5 C-0.67 3.35 -0.34 1.7 0 0 Z " fill="#C0C1B7" transform="translate(119,301)"/>
<path d="M0 0 C4 0 8 0 12 0 C11.67 0.99 11.34 1.98 11 3 C10.01 3 9.02 3 8 3 C8 3.66 8 4.32 8 5 C8.99 5.33 9.98 5.66 11 6 C10.0925 5.814375 9.185 5.62875 8.25 5.4375 C5.31685676 5.04265379 3.7355343 5.05308428 1 6 C1 6.99 1 7.98 1 9 C0.34 9 -0.32 9 -1 9 C-0.67 6.03 -0.34 3.06 0 0 Z " fill="#908F8D" transform="translate(156,253)"/>
<path d="M0 0 C0.99 0 1.98 0 3 0 C3.33 0.66 3.66 1.32 4 2 C4.33 1.34 4.66 0.68 5 0 C5.99 0 6.98 0 8 0 C8.33 0.66 8.66 1.32 9 2 C9.33 1.34 9.66 0.68 10 0 C10.66 0.33 11.32 0.66 12 1 C11.34 3.64 10.68 6.28 10 9 C9.01 9 8.02 9 7 9 C6.67 7.68 6.34 6.36 6 5 C5.67 6.32 5.34 7.64 5 9 C4.01 9 3.02 9 2 9 C1.34 6.03 0.68 3.06 0 0 Z " fill="#B7C1BA" transform="translate(109,274)"/>
<path d="M0 0 C0.66 0 1.32 0 2 0 C2.33 1.32 2.66 2.64 3 4 C3.66 2.68 4.32 1.36 5 0 C5.66 0 6.32 0 7 0 C7.33 1.32 7.66 2.64 8 4 C8.66 2.68 9.32 1.36 10 0 C10.66 0 11.32 0 12 0 C10.94124926 3.40312738 9.99097846 6.01353231 8 9 C7.34 9 6.68 9 6 9 C5.67 7.68 5.34 6.36 5 5 C4.34 6.32 3.68 7.64 3 9 C2.01 9 1.02 9 0 9 C0 6.03 0 3.06 0 0 Z " fill="#B9C9C6" transform="translate(110,250)"/>
<path d="M0 0 C2.625 0.375 2.625 0.375 5 1 C5.04241723 3.33294775 5.04092937 5.66702567 5 8 C4 9 4 9 1.4375 9.0625 C0.633125 9.041875 -0.17125 9.02125 -1 9 C-1.625 5.625 -1.625 5.625 -2 2 C-1.34 1.34 -0.68 0.68 0 0 Z " fill="#6C6C67" transform="translate(194,178)"/>
<path d="M0 0 C0.66 0 1.32 0 2 0 C2.33 0.99 2.66 1.98 3 3 C2.34 3 1.68 3 1 3 C1.33 4.65 1.66 6.3 2 8 C1.01 8 0.02 8 -1 8 C-1.33 7.01 -1.66 6.02 -2 5 C-2.33 5.99 -2.66 6.98 -3 8 C-4.65 8 -6.3 8 -8 8 C-8.625 6.125 -8.625 6.125 -9 4 C-7 2 -7 2 -3.375 1.875 C-1.704375 1.936875 -1.704375 1.936875 0 2 C0 1.34 0 0.68 0 0 Z " fill="#CBC5AC" transform="translate(130,251)"/>
<path d="M0 0 C1.9375 0.1875 1.9375 0.1875 4 1 C5.25 3.0625 5.25 3.0625 6 5 C2.9315153 7.97550031 1.53763669 8.96474513 -2.8125 9.25 C-3.864375 9.1675 -4.91625 9.085 -6 9 C-6 8.01 -6 7.02 -6 6 C-5.01 6 -4.02 6 -3 6 C-2.01 5.67 -1.02 5.34 0 5 C-0.2784375 4.0409375 -0.2784375 4.0409375 -0.5625 3.0625 C-0.706875 2.381875 -0.85125 1.70125 -1 1 C-0.67 0.67 -0.34 0.34 0 0 Z " fill="#303030" transform="translate(75,250)"/>
<path d="M0 0 C1.9375 0.1875 1.9375 0.1875 4 1 C5.25 3.0625 5.25 3.0625 6 5 C2.9315153 7.97550031 1.53763669 8.96474513 -2.8125 9.25 C-3.864375 9.1675 -4.91625 9.085 -6 9 C-6 8.01 -6 7.02 -6 6 C-5.01 6 -4.02 6 -3 6 C-2.01 5.67 -1.02 5.34 0 5 C-0.2784375 4.0409375 -0.2784375 4.0409375 -0.5625 3.0625 C-0.706875 2.381875 -0.85125 1.70125 -1 1 C-0.67 0.67 -0.34 0.34 0 0 Z " fill="#303030" transform="translate(55,202)"/>
<path d="M0 0 C1.9375 0.1875 1.9375 0.1875 4 1 C5.25 3.0625 5.25 3.0625 6 5 C2.9315153 7.97550031 1.53763669 8.96474513 -2.8125 9.25 C-3.864375 9.1675 -4.91625 9.085 -6 9 C-6 8.01 -6 7.02 -6 6 C-5.01 6 -4.02 6 -3 6 C-2.01 5.67 -1.02 5.34 0 5 C-0.2784375 4.0409375 -0.2784375 4.0409375 -0.5625 3.0625 C-0.706875 2.381875 -0.85125 1.70125 -1 1 C-0.67 0.67 -0.34 0.34 0 0 Z " fill="#303030" transform="translate(55,178)"/>
<path d="M0 0 C1.9375 0.1875 1.9375 0.1875 4 1 C5.25 3.0625 5.25 3.0625 6 5 C2.9315153 7.97550031 1.53763669 8.96474513 -2.8125 9.25 C-3.864375 9.1675 -4.91625 9.085 -6 9 C-6 8.01 -6 7.02 -6 6 C-5.01 6 -4.02 6 -3 6 C-2.01 5.67 -1.02 5.34 0 5 C-0.2784375 4.0409375 -0.2784375 4.0409375 -0.5625 3.0625 C-0.706875 2.381875 -0.85125 1.70125 -1 1 C-0.67 0.67 -0.34 0.34 0 0 Z " fill="#303030" transform="translate(55,154)"/>
<path d="M0 0 C1.9375 0.1875 1.9375 0.1875 4 1 C5.25 3.0625 5.25 3.0625 6 5 C2.9315153 7.97550031 1.53763669 8.96474513 -2.8125 9.25 C-3.864375 9.1675 -4.91625 9.085 -6 9 C-6 8.01 -6 7.02 -6 6 C-5.01 6 -4.02 6 -3 6 C-2.01 5.67 -1.02 5.34 0 5 C-0.2784375 4.0409375 -0.2784375 4.0409375 -0.5625 3.0625 C-0.706875 2.381875 -0.85125 1.70125 -1 1 C-0.67 0.67 -0.34 0.34 0 0 Z " fill="#303030" transform="translate(55,130)"/>
<path d="M0 0 C1.9375 0.1875 1.9375 0.1875 4 1 C5.25 3.0625 5.25 3.0625 6 5 C2.9315153 7.97550031 1.53763669 8.96474513 -2.8125 9.25 C-3.864375 9.1675 -4.91625 9.085 -6 9 C-6 8.01 -6 7.02 -6 6 C-5.01 6 -4.02 6 -3 6 C-2.01 5.67 -1.02 5.34 0 5 C-0.2784375 4.0409375 -0.2784375 4.0409375 -0.5625 3.0625 C-0.706875 2.381875 -0.85125 1.70125 -1 1 C-0.67 0.67 -0.34 0.34 0 0 Z " fill="#303030" transform="translate(55,106)"/>
<path d="M0 0 C1.9375 0.1875 1.9375 0.1875 4 1 C5.25 3.0625 5.25 3.0625 6 5 C2.9315153 7.97550031 1.53763669 8.96474513 -2.8125 9.25 C-3.864375 9.1675 -4.91625 9.085 -6 9 C-6 8.01 -6 7.02 -6 6 C-5.01 6 -4.02 6 -3 6 C-2.01 5.67 -1.02 5.34 0 5 C-0.2784375 4.0409375 -0.2784375 4.0409375 -0.5625 3.0625 C-0.706875 2.381875 -0.85125 1.70125 -1 1 C-0.67 0.67 -0.34 0.34 0 0 Z " fill="#303030" transform="translate(55,82)"/>
<path d="M0 0 C1.9375 0.1875 1.9375 0.1875 4 1 C5.25 3.0625 5.25 3.0625 6 5 C2.9315153 7.97550031 1.53763669 8.96474513 -2.8125 9.25 C-3.864375 9.1675 -4.91625 9.085 -6 9 C-6 8.01 -6 7.02 -6 6 C-5.01 6 -4.02 6 -3 6 C-2.01 5.67 -1.02 5.34 0 5 C-0.2784375 4.0409375 -0.2784375 4.0409375 -0.5625 3.0625 C-0.706875 2.381875 -0.85125 1.70125 -1 1 C-0.67 0.67 -0.34 0.34 0 0 Z " fill="#303030" transform="translate(55,58)"/>
<path d="M0 0 C1.9375 0.1875 1.9375 0.1875 4 1 C5.25 3.0625 5.25 3.0625 6 5 C2.9315153 7.97550031 1.53763669 8.96474513 -2.8125 9.25 C-3.864375 9.1675 -4.91625 9.085 -6 9 C-6 8.01 -6 7.02 -6 6 C-5.01 6 -4.02 6 -3 6 C-2.01 5.67 -1.02 5.34 0 5 C-0.2784375 4.0409375 -0.2784375 4.0409375 -0.5625 3.0625 C-0.706875 2.381875 -0.85125 1.70125 -1 1 C-0.67 0.67 -0.34 0.34 0 0 Z " fill="#303030" transform="translate(55,34)"/>
<path d="M0 0 C3.3 0 6.6 0 10 0 C9.34 1.32 8.68 2.64 8 4 C8.66 4.66 9.32 5.32 10 6 C6.37 6 2.74 6 -1 6 C-0.34 5.34 0.32 4.68 1 4 C0.34 3.67 -0.32 3.34 -1 3 C-0.67 2.01 -0.34 1.02 0 0 Z " fill="#898C8D" transform="translate(183,301)"/>
<path d="M0 0 C1.65 0 3.3 0 5 0 C5.84454356 3.37817425 6.10844919 5.67465243 5 9 C3.35 9 1.7 9 0 9 C0 6.03 0 3.06 0 0 Z " fill="#A5ACA7" transform="translate(110,298)"/>
<path d="M0 0 C1.66611905 -0.042721 3.33382885 -0.04063832 5 0 C6 1 6 1 6.0625 4.5625 C6.041875 5.696875 6.02125 6.83125 6 8 C4.02 8.33 2.04 8.66 0 9 C0 6.03 0 3.06 0 0 Z " fill="#767C75" transform="translate(211,226)"/>
<path d="M0 0 C1.66611905 -0.042721 3.33382885 -0.04063832 5 0 C6 1 6 1 6.0625 4.5625 C6.041875 5.696875 6.02125 6.83125 6 8 C4.02 8.33 2.04 8.66 0 9 C0 6.03 0 3.06 0 0 Z " fill="#767C75" transform="translate(256,178)"/>
<path d="M0 0 C1.66611905 -0.042721 3.33382885 -0.04063832 5 0 C6 1 6 1 6.0625 4.5625 C6.041875 5.696875 6.02125 6.83125 6 8 C4.02 8.33 2.04 8.66 0 9 C0 6.03 0 3.06 0 0 Z " fill="#767C75" transform="translate(155,178)"/>
<path d="M0 0 C1.66611905 -0.042721 3.33382885 -0.04063832 5 0 C6 1 6 1 6.0625 4.5625 C6.041875 5.696875 6.02125 6.83125 6 8 C4.02 8.33 2.04 8.66 0 9 C0 6.03 0 3.06 0 0 Z " fill="#767C75" transform="translate(155,154)"/>
<path d="M0 0 C1.66611905 -0.042721 3.33382885 -0.04063832 5 0 C6 1 6 1 6.0625 4.5625 C6.041875 5.696875 6.02125 6.83125 6 8 C4.02 8.33 2.04 8.66 0 9 C0 6.03 0 3.06 0 0 Z " fill="#767C75" transform="translate(172,130)"/>
<path d="M0 0 C1.66611905 -0.042721 3.33382885 -0.04063832 5 0 C6 1 6 1 6.0625 4.5625 C6.041875 5.696875 6.02125 6.83125 6 8 C4.02 8.33 2.04 8.66 0 9 C0 6.03 0 3.06 0 0 Z " fill="#767C75" transform="translate(155,130)"/>
<path d="M0 0 C1.66611905 -0.042721 3.33382885 -0.04063832 5 0 C6 1 6 1 6.0625 4.5625 C6.041875 5.696875 6.02125 6.83125 6 8 C4.02 8.33 2.04 8.66 0 9 C0 6.03 0 3.06 0 0 Z " fill="#767C75" transform="translate(210,106)"/>
<path d="M0 0 C0.09765625 6.15234375 0.09765625 6.15234375 0 8 C-1 9 -1 9 -3.5625 9.0625 C-4.366875 9.041875 -5.17125 9.02125 -6 9 C-6 6.36 -6 3.72 -6 1 C-4 0 -4 0 0 0 Z " fill="#6F787C" transform="translate(94,13)"/>
<path d="M0 0 C0.33 1.32 0.66 2.64 1 4 C1.99 4 2.98 4 4 4 C4 5.65 4 7.3 4 9 C3.01 9 2.02 9 1 9 C0.67 10.32 0.34 11.64 0 13 C0 11.68 0 10.36 0 9 C-1.32 9 -2.64 9 -4 9 C-4 7.35 -4 5.7 -4 4 C-2.68 4 -1.36 4 0 4 C0 2.68 0 1.36 0 0 Z " fill="#687A8E" transform="translate(93,296)"/>
<path d="M0 0 C0.33 1.32 0.66 2.64 1 4 C1.99 4 2.98 4 4 4 C4 5.65 4 7.3 4 9 C3.01 9 2.02 9 1 9 C0.67 10.32 0.34 11.64 0 13 C0 11.68 0 10.36 0 9 C-1.32 9 -2.64 9 -4 9 C-4 7.35 -4 5.7 -4 4 C-2.68 4 -1.36 4 0 4 C0 2.68 0 1.36 0 0 Z " fill="#687A8E" transform="translate(93,272)"/>
<path d="M0 0 C0.33 1.32 0.66 2.64 1 4 C1.99 4 2.98 4 4 4 C4 5.65 4 7.3 4 9 C3.01 9 2.02 9 1 9 C0.67 10.32 0.34 11.64 0 13 C0 11.68 0 10.36 0 9 C-1.32 9 -2.64 9 -4 9 C-4 7.35 -4 5.7 -4 4 C-2.68 4 -1.36 4 0 4 C0 2.68 0 1.36 0 0 Z " fill="#687A8E" transform="translate(93,248)"/>
<path d="M0 0 C2.97 0 5.94 0 9 0 C9 1.98 9 3.96 9 6 C6.03 6 3.06 6 0 6 C0 4.02 0 2.04 0 0 Z " fill="#B6BBB4" transform="translate(155,301)"/>
<path d="M0 0 C1.98 0 3.96 0 6 0 C7 2 7 2 6.375 4.5625 C5 7 5 7 2.375 7.8125 C1.59125 7.874375 0.8075 7.93625 0 8 C-0.66 6.68 -1.32 5.36 -2 4 C-0.68 4.33 0.64 4.66 2 5 C1.34 3.35 0.68 1.7 0 0 Z " fill="#F4F4F4" transform="translate(70,297)"/>
<path d="M0 0 C1.98 0 3.96 0 6 0 C7 2 7 2 6.375 4.5625 C5 7 5 7 2.375 7.8125 C1.59125 7.874375 0.8075 7.93625 0 8 C-0.66 6.68 -1.32 5.36 -2 4 C-0.68 4.33 0.64 4.66 2 5 C1.34 3.35 0.68 1.7 0 0 Z " fill="#F4F4F4" transform="translate(70,273)"/>
<path d="M0 0 C1.98 0 3.96 0 6 0 C7 2 7 2 6.375 4.5625 C5 7 5 7 2.375 7.8125 C1.59125 7.874375 0.8075 7.93625 0 8 C-0.66 6.68 -1.32 5.36 -2 4 C-0.68 4.33 0.64 4.66 2 5 C1.34 3.35 0.68 1.7 0 0 Z " fill="#F4F4F4" transform="translate(50,225)"/>
<path d="M0 0 C1.98 0 3.96 0 6 0 C7 2 7 2 6.375 4.5625 C5 7 5 7 2.375 7.8125 C1.59125 7.874375 0.8075 7.93625 0 8 C-0.66 6.68 -1.32 5.36 -2 4 C-0.68 4.33 0.64 4.66 2 5 C1.34 3.35 0.68 1.7 0 0 Z " fill="#F4F4F4" transform="translate(30,9)"/>
<path d="M0 0 C3.3 0 6.6 0 10 0 C9.34 0.66 8.68 1.32 8 2 C8.66 2.33 9.32 2.66 10 3 C9.67 3.99 9.34 4.98 9 6 C7.68 5.67 6.36 5.34 5 5 C5.66 4.67 6.32 4.34 7 4 C4.03 3.505 4.03 3.505 1 3 C1 3.66 1 4.32 1 5 C1.99 5.33 2.98 5.66 4 6 C2.35 5.67 0.7 5.34 -1 5 C-0.67 3.35 -0.34 1.7 0 0 Z " fill="#C3C6BD" transform="translate(209,301)"/>
<path d="M0 0 C0.33 0.66 0.66 1.32 1 2 C2.98 2 4.96 2 7 2 C6.67 2.66 6.34 3.32 6 4 C6.66 4.33 7.32 4.66 8 5 C7.67 5.99 7.34 6.98 7 8 C4.69 8 2.38 8 0 8 C-1.125 2.25 -1.125 2.25 0 0 Z " fill="#8F9183" transform="translate(180,179)"/>
<path d="M0 0 C0.33 0.66 0.66 1.32 1 2 C2.98 2 4.96 2 7 2 C6.67 2.66 6.34 3.32 6 4 C6.66 4.33 7.32 4.66 8 5 C7.67 5.99 7.34 6.98 7 8 C4.69 8 2.38 8 0 8 C-1.125 2.25 -1.125 2.25 0 0 Z " fill="#8F9183" transform="translate(192,107)"/>
<path d="M0 0 C0.66 0 1.32 0 2 0 C0.74243422 3.77269733 -0.67467431 4.88388365 -4 7 C-6.8125 6.75 -6.8125 6.75 -9 6 C-9.33 6.66 -9.66 7.32 -10 8 C-10.66 8 -11.32 8 -12 8 C-12.33 8.66 -12.66 9.32 -13 10 C-13.66 10 -14.32 10 -15 10 C-13.63016497 6.83884224 -13.0109362 6.0072908 -10 4 C-8.845 3.855625 -7.69 3.71125 -6.5 3.5625 C-2.91721639 2.98669549 -2.19672032 2.65918776 0 0 Z " fill="#3D3D3D" transform="translate(78,245)"/>
<path d="M0 0 C0.66 0 1.32 0 2 0 C0.74243422 3.77269733 -0.67467431 4.88388365 -4 7 C-6.8125 6.75 -6.8125 6.75 -9 6 C-9.33 6.66 -9.66 7.32 -10 8 C-10.66 8 -11.32 8 -12 8 C-12.33 8.66 -12.66 9.32 -13 10 C-13.66 10 -14.32 10 -15 10 C-13.63016497 6.83884224 -13.0109362 6.0072908 -10 4 C-8.845 3.855625 -7.69 3.71125 -6.5 3.5625 C-2.91721639 2.98669549 -2.19672032 2.65918776 0 0 Z " fill="#3D3D3D" transform="translate(58,197)"/>
<path d="M0 0 C0.66 0 1.32 0 2 0 C0.74243422 3.77269733 -0.67467431 4.88388365 -4 7 C-6.8125 6.75 -6.8125 6.75 -9 6 C-9.33 6.66 -9.66 7.32 -10 8 C-10.66 8 -11.32 8 -12 8 C-12.33 8.66 -12.66 9.32 -13 10 C-13.66 10 -14.32 10 -15 10 C-13.63016497 6.83884224 -13.0109362 6.0072908 -10 4 C-8.845 3.855625 -7.69 3.71125 -6.5 3.5625 C-2.91721639 2.98669549 -2.19672032 2.65918776 0 0 Z " fill="#3D3D3D" transform="translate(58,173)"/>
<path d="M0 0 C0.66 0 1.32 0 2 0 C0.74243422 3.77269733 -0.67467431 4.88388365 -4 7 C-6.8125 6.75 -6.8125 6.75 -9 6 C-9.33 6.66 -9.66 7.32 -10 8 C-10.66 8 -11.32 8 -12 8 C-12.33 8.66 -12.66 9.32 -13 10 C-13.66 10 -14.32 10 -15 10 C-13.63016497 6.83884224 -13.0109362 6.0072908 -10 4 C-8.845 3.855625 -7.69 3.71125 -6.5 3.5625 C-2.91721639 2.98669549 -2.19672032 2.65918776 0 0 Z " fill="#3D3D3D" transform="translate(58,149)"/>
<path d="M0 0 C0.66 0 1.32 0 2 0 C0.74243422 3.77269733 -0.67467431 4.88388365 -4 7 C-6.8125 6.75 -6.8125 6.75 -9 6 C-9.33 6.66 -9.66 7.32 -10 8 C-10.66 8 -11.32 8 -12 8 C-12.33 8.66 -12.66 9.32 -13 10 C-13.66 10 -14.32 10 -15 10 C-13.63016497 6.83884224 -13.0109362 6.0072908 -10 4 C-8.845 3.855625 -7.69 3.71125 -6.5 3.5625 C-2.91721639 2.98669549 -2.19672032 2.65918776 0 0 Z " fill="#3D3D3D" transform="translate(58,125)"/>
<path d="M0 0 C0.66 0 1.32 0 2 0 C0.74243422 3.77269733 -0.67467431 4.88388365 -4 7 C-6.8125 6.75 -6.8125 6.75 -9 6 C-9.33 6.66 -9.66 7.32 -10 8 C-10.66 8 -11.32 8 -12 8 C-12.33 8.66 -12.66 9.32 -13 10 C-13.66 10 -14.32 10 -15 10 C-13.63016497 6.83884224 -13.0109362 6.0072908 -10 4 C-8.845 3.855625 -7.69 3.71125 -6.5 3.5625 C-2.91721639 2.98669549 -2.19672032 2.65918776 0 0 Z " fill="#3D3D3D" transform="translate(58,101)"/>
<path d="M0 0 C0.66 0 1.32 0 2 0 C0.74243422 3.77269733 -0.67467431 4.88388365 -4 7 C-6.8125 6.75 -6.8125 6.75 -9 6 C-9.33 6.66 -9.66 7.32 -10 8 C-10.66 8 -11.32 8 -12 8 C-12.33 8.66 -12.66 9.32 -13 10 C-13.66 10 -14.32 10 -15 10 C-13.63016497 6.83884224 -13.0109362 6.0072908 -10 4 C-8.845 3.855625 -7.69 3.71125 -6.5 3.5625 C-2.91721639 2.98669549 -2.19672032 2.65918776 0 0 Z " fill="#3D3D3D" transform="translate(58,77)"/>
<path d="M0 0 C0.66 0 1.32 0 2 0 C0.74243422 3.77269733 -0.67467431 4.88388365 -4 7 C-6.8125 6.75 -6.8125 6.75 -9 6 C-9.33 6.66 -9.66 7.32 -10 8 C-10.66 8 -11.32 8 -12 8 C-12.33 8.66 -12.66 9.32 -13 10 C-13.66 10 -14.32 10 -15 10 C-13.63016497 6.83884224 -13.0109362 6.0072908 -10 4 C-8.845 3.855625 -7.69 3.71125 -6.5 3.5625 C-2.91721639 2.98669549 -2.19672032 2.65918776 0 0 Z " fill="#3D3D3D" transform="translate(58,53)"/>
<path d="M0 0 C0.66 0 1.32 0 2 0 C0.74243422 3.77269733 -0.67467431 4.88388365 -4 7 C-6.8125 6.75 -6.8125 6.75 -9 6 C-9.33 6.66 -9.66 7.32 -10 8 C-10.66 8 -11.32 8 -12 8 C-12.33 8.66 -12.66 9.32 -13 10 C-13.66 10 -14.32 10 -15 10 C-13.63016497 6.83884224 -13.0109362 6.0072908 -10 4 C-8.845 3.855625 -7.69 3.71125 -6.5 3.5625 C-2.91721639 2.98669549 -2.19672032 2.65918776 0 0 Z " fill="#3D3D3D" transform="translate(58,29)"/>
<path d="M0 0 C0.66 0.33 1.32 0.66 2 1 C2.33 1.99 2.66 2.98 3 4 C3.33 2.68 3.66 1.36 4 0 C4.66 0 5.32 0 6 0 C5.34 2.97 4.68 5.94 4 9 C3.34 9 2.68 9 2 9 C1.34 8.01 0.68 7.02 0 6 C-0.33 6.99 -0.66 7.98 -1 9 C-1.66 9 -2.32 9 -3 9 C-3 7.68 -3 6.36 -3 5 C-2.34 5 -1.68 5 -1 5 C-0.67 3.35 -0.34 1.7 0 0 Z " fill="#96A39A" transform="translate(94,226)"/>
<path d="M0 0 C2.64 0 5.28 0 8 0 C8 1.98 8 3.96 8 6 C5.5625 5.625 5.5625 5.625 3 5 C2.67 4.34 2.34 3.68 2 3 C1.34 3.99 0.68 4.98 0 6 C0 4.02 0 2.04 0 0 Z " fill="#A5ACA7" transform="translate(150,205)"/>
<path d="M0 0 C0.66 0.33 1.32 0.66 2 1 C2.33 1.99 2.66 2.98 3 4 C3.33 2.68 3.66 1.36 4 0 C4.66 0 5.32 0 6 0 C5.34 2.97 4.68 5.94 4 9 C3.34 9 2.68 9 2 9 C1.34 8.01 0.68 7.02 0 6 C-0.33 6.99 -0.66 7.98 -1 9 C-1.66 9 -2.32 9 -3 9 C-3 7.68 -3 6.36 -3 5 C-2.34 5 -1.68 5 -1 5 C-0.67 3.35 -0.34 1.7 0 0 Z " fill="#96A39A" transform="translate(94,178)"/>
<path d="M0 0 C0.66 0.33 1.32 0.66 2 1 C2.33 1.99 2.66 2.98 3 4 C3.33 2.68 3.66 1.36 4 0 C4.66 0 5.32 0 6 0 C5.34 2.97 4.68 5.94 4 9 C3.34 9 2.68 9 2 9 C1.34 8.01 0.68 7.02 0 6 C-0.33 6.99 -0.66 7.98 -1 9 C-1.66 9 -2.32 9 -3 9 C-3 7.68 -3 6.36 -3 5 C-2.34 5 -1.68 5 -1 5 C-0.67 3.35 -0.34 1.7 0 0 Z " fill="#96A39A" transform="translate(94,154)"/>
<path d="M0 0 C0.66 0.33 1.32 0.66 2 1 C2.33 1.99 2.66 2.98 3 4 C3.33 2.68 3.66 1.36 4 0 C4.66 0 5.32 0 6 0 C5.34 2.97 4.68 5.94 4 9 C3.34 9 2.68 9 2 9 C1.34 8.01 0.68 7.02 0 6 C-0.33 6.99 -0.66 7.98 -1 9 C-1.66 9 -2.32 9 -3 9 C-3 7.68 -3 6.36 -3 5 C-2.34 5 -1.68 5 -1 5 C-0.67 3.35 -0.34 1.7 0 0 Z " fill="#96A39A" transform="translate(94,130)"/>
<path d="M0 0 C2.64 0 5.28 0 8 0 C8 1.98 8 3.96 8 6 C5.5625 5.625 5.5625 5.625 3 5 C2.67 4.34 2.34 3.68 2 3 C1.34 3.99 0.68 4.98 0 6 C0 4.02 0 2.04 0 0 Z " fill="#A5ACA7" transform="translate(162,109)"/>
<path d="M0 0 C0.66 0.33 1.32 0.66 2 1 C2.33 1.99 2.66 2.98 3 4 C3.33 2.68 3.66 1.36 4 0 C4.66 0 5.32 0 6 0 C5.34 2.97 4.68 5.94 4 9 C3.34 9 2.68 9 2 9 C1.34 8.01 0.68 7.02 0 6 C-0.33 6.99 -0.66 7.98 -1 9 C-1.66 9 -2.32 9 -3 9 C-3 7.68 -3 6.36 -3 5 C-2.34 5 -1.68 5 -1 5 C-0.67 3.35 -0.34 1.7 0 0 Z " fill="#96A39A" transform="translate(94,106)"/>
<path d="M0 0 C0.66 0.33 1.32 0.66 2 1 C2.33 1.99 2.66 2.98 3 4 C3.33 2.68 3.66 1.36 4 0 C4.66 0 5.32 0 6 0 C5.34 2.97 4.68 5.94 4 9 C3.34 9 2.68 9 2 9 C1.34 8.01 0.68 7.02 0 6 C-0.33 6.99 -0.66 7.98 -1 9 C-1.66 9 -2.32 9 -3 9 C-3 7.68 -3 6.36 -3 5 C-2.34 5 -1.68 5 -1 5 C-0.67 3.35 -0.34 1.7 0 0 Z " fill="#96A39A" transform="translate(94,82)"/>
<path d="M0 0 C0.66 0.33 1.32 0.66 2 1 C2.33 1.99 2.66 2.98 3 4 C3.33 2.68 3.66 1.36 4 0 C4.66 0 5.32 0 6 0 C5.34 2.97 4.68 5.94 4 9 C3.34 9 2.68 9 2 9 C1.34 8.01 0.68 7.02 0 6 C-0.33 6.99 -0.66 7.98 -1 9 C-1.66 9 -2.32 9 -3 9 C-3 7.68 -3 6.36 -3 5 C-2.34 5 -1.68 5 -1 5 C-0.67 3.35 -0.34 1.7 0 0 Z " fill="#96A39A" transform="translate(94,58)"/>
<path d="M0 0 C1.65 0 3.3 0 5 0 C5 1.65 5 3.3 5 5 C4.01 5.495 4.01 5.495 3 6 C3.99 6 4.98 6 6 6 C6 4.02 6 2.04 6 0 C6.33 0 6.66 0 7 0 C7 2.31 7 4.62 7 7 C4.69 7 2.38 7 0 7 C0 4.69 0 2.38 0 0 Z " fill="#EDEDEB" transform="translate(71,227)"/>
<path d="M0 0 C1.65 0 3.3 0 5 0 C5 1.65 5 3.3 5 5 C4.01 5.495 4.01 5.495 3 6 C3.99 6 4.98 6 6 6 C6 4.02 6 2.04 6 0 C6.33 0 6.66 0 7 0 C7 2.31 7 4.62 7 7 C4.69 7 2.38 7 0 7 C0 4.69 0 2.38 0 0 Z " fill="#EDEDEB" transform="translate(71,203)"/>
<path d="M0 0 C1.65 0 3.3 0 5 0 C5 1.65 5 3.3 5 5 C4.01 5.495 4.01 5.495 3 6 C3.99 6 4.98 6 6 6 C6 4.02 6 2.04 6 0 C6.33 0 6.66 0 7 0 C7 2.31 7 4.62 7 7 C4.69 7 2.38 7 0 7 C0 4.69 0 2.38 0 0 Z " fill="#EDEDEB" transform="translate(71,179)"/>
<path d="M0 0 C1.65 0 3.3 0 5 0 C5 1.65 5 3.3 5 5 C4.01 5.495 4.01 5.495 3 6 C3.99 6 4.98 6 6 6 C6 4.02 6 2.04 6 0 C6.33 0 6.66 0 7 0 C7 2.31 7 4.62 7 7 C4.69 7 2.38 7 0 7 C0 4.69 0 2.38 0 0 Z " fill="#EDEDEB" transform="translate(71,155)"/>
<path d="M0 0 C1.65 0 3.3 0 5 0 C5 1.65 5 3.3 5 5 C4.01 5.495 4.01 5.495 3 6 C3.99 6 4.98 6 6 6 C6 4.02 6 2.04 6 0 C6.33 0 6.66 0 7 0 C7 2.31 7 4.62 7 7 C4.69 7 2.38 7 0 7 C0 4.69 0 2.38 0 0 Z " fill="#EDEDEB" transform="translate(71,131)"/>
<path d="M0 0 C1.65 0 3.3 0 5 0 C5 1.65 5 3.3 5 5 C4.01 5.495 4.01 5.495 3 6 C3.99 6 4.98 6 6 6 C6 4.02 6 2.04 6 0 C6.33 0 6.66 0 7 0 C7 2.31 7 4.62 7 7 C4.69 7 2.38 7 0 7 C0 4.69 0 2.38 0 0 Z " fill="#EDEDEB" transform="translate(71,107)"/>
<path d="M0 0 C1.65 0 3.3 0 5 0 C5 1.65 5 3.3 5 5 C4.01 5.495 4.01 5.495 3 6 C3.99 6 4.98 6 6 6 C6 4.02 6 2.04 6 0 C6.33 0 6.66 0 7 0 C7 2.31 7 4.62 7 7 C4.69 7 2.38 7 0 7 C0 4.69 0 2.38 0 0 Z " fill="#EDEDEB" transform="translate(71,83)"/>
<path d="M0 0 C1.65 0 3.3 0 5 0 C5 1.65 5 3.3 5 5 C4.01 5.495 4.01 5.495 3 6 C3.99 6 4.98 6 6 6 C6 4.02 6 2.04 6 0 C6.33 0 6.66 0 7 0 C7 2.31 7 4.62 7 7 C4.69 7 2.38 7 0 7 C0 4.69 0 2.38 0 0 Z " fill="#EDEDEB" transform="translate(71,59)"/>
<path d="M0 0 C1.65 0 3.3 0 5 0 C5 1.65 5 3.3 5 5 C4.01 5.495 4.01 5.495 3 6 C3.99 6 4.98 6 6 6 C6 4.02 6 2.04 6 0 C6.33 0 6.66 0 7 0 C7 2.31 7 4.62 7 7 C4.69 7 2.38 7 0 7 C0 4.69 0 2.38 0 0 Z " fill="#EDEDEB" transform="translate(71,35)"/>
<path d="M0 0 C1.65 0 3.3 0 5 0 C5 1.65 5 3.3 5 5 C4.01 5.495 4.01 5.495 3 6 C3.99 6 4.98 6 6 6 C6 4.02 6 2.04 6 0 C6.33 0 6.66 0 7 0 C7 2.31 7 4.62 7 7 C4.69 7 2.38 7 0 7 C0 4.69 0 2.38 0 0 Z " fill="#EDEDEB" transform="translate(51,11)"/>
<path d="M0 0 C0.226875 0.639375 0.45375 1.27875 0.6875 1.9375 C1.85250896 4.27193661 1.85250896 4.27193661 4.625 4.75 C5.40875 4.8325 6.1925 4.915 7 5 C7.66 3.35 8.32 1.7 9 0 C9.99 0.66 10.98 1.32 12 2 C10.25 5.875 10.25 5.875 8 7 C4.51044604 7.30343947 2.62494296 7.39470082 -0.375 5.5 C-0.91125 5.005 -1.4475 4.51 -2 4 C-1.34 2.68 -0.68 1.36 0 0 Z " fill="#555555" transform="translate(67,299)"/>
<path d="M0 0 C0.226875 0.639375 0.45375 1.27875 0.6875 1.9375 C1.85250896 4.27193661 1.85250896 4.27193661 4.625 4.75 C5.40875 4.8325 6.1925 4.915 7 5 C7.66 3.35 8.32 1.7 9 0 C9.99 0.66 10.98 1.32 12 2 C10.25 5.875 10.25 5.875 8 7 C4.51044604 7.30343947 2.62494296 7.39470082 -0.375 5.5 C-0.91125 5.005 -1.4475 4.51 -2 4 C-1.34 2.68 -0.68 1.36 0 0 Z " fill="#555555" transform="translate(67,275)"/>
<path d="M0 0 C0.226875 0.639375 0.45375 1.27875 0.6875 1.9375 C1.85250896 4.27193661 1.85250896 4.27193661 4.625 4.75 C5.40875 4.8325 6.1925 4.915 7 5 C7.66 3.35 8.32 1.7 9 0 C9.99 0.66 10.98 1.32 12 2 C10.25 5.875 10.25 5.875 8 7 C4.51044604 7.30343947 2.62494296 7.39470082 -0.375 5.5 C-0.91125 5.005 -1.4475 4.51 -2 4 C-1.34 2.68 -0.68 1.36 0 0 Z " fill="#555555" transform="translate(47,227)"/>
<path d="M0 0 C0.66 0 1.32 0 2 0 C2.99 2.97 3.98 5.94 5 9 C4.34 9 3.68 9 3 9 C3 8.34 3 7.68 3 7 C1.68 7 0.36 7 -1 7 C-1 7.66 -1 8.32 -1 9 C-1.66 9 -2.32 9 -3 9 C-2.01 6.03 -1.02 3.06 0 0 Z " fill="#8F958F" transform="translate(157,82)"/>
<path d="M0 0 C0.66 0 1.32 0 2 0 C2.99 2.97 3.98 5.94 5 9 C4.34 9 3.68 9 3 9 C3 8.34 3 7.68 3 7 C1.68 7 0.36 7 -1 7 C-1 7.66 -1 8.32 -1 9 C-1.66 9 -2.32 9 -3 9 C-2.01 6.03 -1.02 3.06 0 0 Z " fill="#8F958F" transform="translate(157,58)"/>
<path d="M0 0 C0.226875 0.639375 0.45375 1.27875 0.6875 1.9375 C1.85250896 4.27193661 1.85250896 4.27193661 4.625 4.75 C5.40875 4.8325 6.1925 4.915 7 5 C7.66 3.35 8.32 1.7 9 0 C9.99 0.66 10.98 1.32 12 2 C10.25 5.875 10.25 5.875 8 7 C4.51044604 7.30343947 2.62494296 7.39470082 -0.375 5.5 C-0.91125 5.005 -1.4475 4.51 -2 4 C-1.34 2.68 -0.68 1.36 0 0 Z " fill="#555555" transform="translate(27,11)"/>
<path d="M0 0 C4 0 4 0 6 1 C6 1.99 6 2.98 6 4 C5.34 4 4.68 4 4 4 C4 5.65 4 7.3 4 9 C2.68 9 1.36 9 0 9 C0 6.03 0 3.06 0 0 Z " fill="#A2A88C" transform="translate(169,154)"/>
<path d="M0 0 C1.65 0.33 3.3 0.66 5 1 C4.67 2.65 4.34 4.3 4 6 C2.35 5.67 0.7 5.34 -1 5 C-0.67 3.35 -0.34 1.7 0 0 Z " fill="#A49A8D" transform="translate(195,301)"/>
<path d="M0 0 C1.65 0 3.3 0 5 0 C5 1.65 5 3.3 5 5 C4.360625 5.103125 3.72125 5.20625 3.0625 5.3125 C2.381875 5.539375 1.70125 5.76625 1 6 C0.67 6.99 0.34 7.98 0 9 C0 6.03 0 3.06 0 0 Z " fill="#8A9890" transform="translate(145,229)"/>
<path d="M0 0 C1.65 0 3.3 0 5 0 C5 1.65 5 3.3 5 5 C4.360625 5.103125 3.72125 5.20625 3.0625 5.3125 C2.381875 5.539375 1.70125 5.76625 1 6 C0.67 6.99 0.34 7.98 0 9 C0 6.03 0 3.06 0 0 Z " fill="#8A9890" transform="translate(197,205)"/>
<path d="M0 0 C1.65 0 3.3 0 5 0 C5 1.65 5 3.3 5 5 C4.360625 5.103125 3.72125 5.20625 3.0625 5.3125 C2.381875 5.539375 1.70125 5.76625 1 6 C0.67 6.99 0.34 7.98 0 9 C0 6.03 0 3.06 0 0 Z " fill="#8A9890" transform="translate(145,181)"/>
<path d="M0 0 C1.65 0 3.3 0 5 0 C5 1.65 5 3.3 5 5 C4.360625 5.103125 3.72125 5.20625 3.0625 5.3125 C2.381875 5.539375 1.70125 5.76625 1 6 C0.67 6.99 0.34 7.98 0 9 C0 6.03 0 3.06 0 0 Z " fill="#8A9890" transform="translate(145,157)"/>
<path d="M0 0 C1.65 0 3.3 0 5 0 C5 1.65 5 3.3 5 5 C4.360625 5.103125 3.72125 5.20625 3.0625 5.3125 C2.381875 5.539375 1.70125 5.76625 1 6 C0.67 6.99 0.34 7.98 0 9 C0 6.03 0 3.06 0 0 Z " fill="#8A9890" transform="translate(145,133)"/>
<path d="M0 0 C1.65 0 3.3 0 5 0 C5 1.65 5 3.3 5 5 C4.360625 5.103125 3.72125 5.20625 3.0625 5.3125 C2.381875 5.539375 1.70125 5.76625 1 6 C0.67 6.99 0.34 7.98 0 9 C0 6.03 0 3.06 0 0 Z " fill="#8A9890" transform="translate(145,109)"/>
<path d="M0 0 C1.65 0 3.3 0 5 0 C5 1.65 5 3.3 5 5 C4.360625 5.103125 3.72125 5.20625 3.0625 5.3125 C2.381875 5.539375 1.70125 5.76625 1 6 C0.67 6.99 0.34 7.98 0 9 C0 6.03 0 3.06 0 0 Z " fill="#8A9890" transform="translate(145,85)"/>
<path d="M0 0 C1.65 0 3.3 0 5 0 C5 1.65 5 3.3 5 5 C4.360625 5.103125 3.72125 5.20625 3.0625 5.3125 C2.381875 5.539375 1.70125 5.76625 1 6 C0.67 6.99 0.34 7.98 0 9 C0 6.03 0 3.06 0 0 Z " fill="#8A9890" transform="translate(145,61)"/>
<path d="M0 0 C0.66 0 1.32 0 2 0 C2 0.99 2 1.98 2 3 C3.32 3.33 4.64 3.66 6 4 C6 5.65 6 7.3 6 9 C5.34 9 4.68 9 4 9 C4 7.35 4 5.7 4 4 C3.34 4 2.68 4 2 4 C2 5.65 2 7.3 2 9 C1.34 9 0.68 9 0 9 C0 6.03 0 3.06 0 0 Z " fill="#CEBEA2" transform="translate(136,298)"/>
<path d="M0 0 C0.66 0 1.32 0 2 0 C2.33 0.99 2.66 1.98 3 3 C3.99 3.33 4.98 3.66 6 4 C6 5.32 6 6.64 6 8 C3.92446352 8.5534764 2.15634036 9 0 9 C0 6.03 0 3.06 0 0 Z " fill="#CECFB9" transform="translate(145,274)"/>
<path d="M0 0 C1.32 0 2.64 0 4 0 C4 1.65 4 3.3 4 5 C2.35 5.33 0.7 5.66 -1 6 C-1.625 4.125 -1.625 4.125 -2 2 C-1.34 1.34 -0.68 0.68 0 0 Z " fill="#99A3A3" transform="translate(150,253)"/>
<path d="M0 0 C1.32 0.33 2.64 0.66 4 1 C4 1.66 4 2.32 4 3 C4.66 3.33 5.32 3.66 6 4 C5.34 4 4.68 4 4 4 C4 5.32 4 6.64 4 8 C4.66 8.33 5.32 8.66 6 9 C4.02 9 2.04 9 0 9 C0 6.03 0 3.06 0 0 Z " fill="#A2AB93" transform="translate(225,226)"/>
<path d="M0 0 C1.32 0.33 2.64 0.66 4 1 C4 1.66 4 2.32 4 3 C4.66 3.33 5.32 3.66 6 4 C5.34 4 4.68 4 4 4 C4 5.32 4 6.64 4 8 C4.66 8.33 5.32 8.66 6 9 C4.02 9 2.04 9 0 9 C0 6.03 0 3.06 0 0 Z " fill="#A2AB93" transform="translate(270,178)"/>
<path d="M0 0 C0.99 1.485 0.99 1.485 2 3 C2.99 3 3.98 3 5 3 C5 4.65 5 6.3 5 8 C3.35 8.33 1.7 8.66 0 9 C0 6.03 0 3.06 0 0 Z " fill="#8A9991" transform="translate(172,106)"/>
<path d="M0 0 C1.32 0.33 2.64 0.66 4 1 C4 1.66 4 2.32 4 3 C4.66 3.33 5.32 3.66 6 4 C5.34 4 4.68 4 4 4 C4 5.32 4 6.64 4 8 C4.66 8.33 5.32 8.66 6 9 C4.02 9 2.04 9 0 9 C0 6.03 0 3.06 0 0 Z " fill="#A2AB93" transform="translate(224,106)"/>
<path d="M0 0 C1.66611905 -0.042721 3.33382885 -0.04063832 5 0 C6 1 6 1 6.0625 3.5625 C6.041875 4.366875 6.02125 5.17125 6 6 C4.02 6 2.04 6 0 6 C0 4.02 0 2.04 0 0 Z " fill="#BDB4A7" transform="translate(201,301)"/>
<path d="M0 0 C1.66611905 -0.042721 3.33382885 -0.04063832 5 0 C6 1 6 1 6.0625 3.5625 C6.041875 4.366875 6.02125 5.17125 6 6 C4.02 6 2.04 6 0 6 C0 4.02 0 2.04 0 0 Z " fill="#BDB4A7" transform="translate(169,301)"/>
<path d="M0 0 C1.66611905 -0.042721 3.33382885 -0.04063832 5 0 C6 1 6 1 6.0625 3.5625 C6.041875 4.366875 6.02125 5.17125 6 6 C4.02 6 2.04 6 0 6 C0 4.02 0 2.04 0 0 Z " fill="#BDB4A7" transform="translate(188,277)"/>
<path d="M0 0 C1.66611905 -0.042721 3.33382885 -0.04063832 5 0 C6 1 6 1 6.0625 3.5625 C6.041875 4.366875 6.02125 5.17125 6 6 C4.02 6 2.04 6 0 6 C0 4.02 0 2.04 0 0 Z " fill="#BDB4A7" transform="translate(167,277)"/>
<path d="M0 0 C1.32 0 2.64 0 4 0 C4 2.64 4 5.28 4 8 C3.01 8 2.02 8 1 8 C1.33 7.34 1.66 6.68 2 6 C1.34 6 0.68 6 0 6 C0 4.02 0 2.04 0 0 Z " fill="#7F8D88" transform="translate(217,181)"/>
<path d="M0 0 C0.33 1.32 0.66 2.64 1 4 C2.32 3.67 3.64 3.34 5 3 C5 4.65 5 6.3 5 8 C2.03 7.505 2.03 7.505 -1 7 C-1.04254356 5.00045254 -1.04080783 2.99958364 -1 1 C-0.67 0.67 -0.34 0.34 0 0 Z " fill="#85908A" transform="translate(199,83)"/>
<path d="M0 0 C0.33 0.66 0.66 1.32 1 2 C1.66 2.33 2.32 2.66 3 3 C2.34 3 1.68 3 1 3 C1 4.32 1 5.64 1 7 C1.66 7.33 2.32 7.66 3 8 C2.01 8 1.02 8 0 8 C0 6.35 0 4.7 0 3 C-0.99 3.33 -1.98 3.66 -3 4 C-2.34 4.33 -1.68 4.66 -1 5 C-1.33 5.99 -1.66 6.98 -2 8 C-2.99 7.67 -3.98 7.34 -5 7 C-5 5.33333333 -5 3.66666667 -5 2 C-3.35 2 -1.7 2 0 2 C0 1.34 0 0.68 0 0 Z " fill="#B5BFB0" transform="translate(179,83)"/>
<path d="M0 0 C0.33 0.66 0.66 1.32 1 2 C1.66 2.33 2.32 2.66 3 3 C2.34 3 1.68 3 1 3 C1 4.32 1 5.64 1 7 C1.66 7.33 2.32 7.66 3 8 C2.01 8 1.02 8 0 8 C0 6.35 0 4.7 0 3 C-0.99 3.33 -1.98 3.66 -3 4 C-2.34 4.33 -1.68 4.66 -1 5 C-1.33 5.99 -1.66 6.98 -2 8 C-2.99 7.67 -3.98 7.34 -5 7 C-5 5.33333333 -5 3.66666667 -5 2 C-3.35 2 -1.7 2 0 2 C0 1.34 0 0.68 0 0 Z " fill="#B5BFB0" transform="translate(148,35)"/>
<path d="M0 0 C1.65 0.33 3.3 0.66 5 1 C5 2.65 5 4.3 5 6 C3.35 6 1.7 6 0 6 C-0.33 5.01 -0.66 4.02 -1 3 C-0.34 2.67 0.32 2.34 1 2 C0.67 1.34 0.34 0.68 0 0 Z " fill="#BCB7AC" transform="translate(122,277)"/>
<path d="M0 0 C3 0 3 0 6 1 C6.66 0.67 7.32 0.34 8 0 C7.34 1.98 6.68 3.96 6 6 C5.01 5.67 4.02 5.34 3 5 C2.01 5.495 2.01 5.495 1 6 C0.67 4.02 0.34 2.04 0 0 Z " fill="#9D9F8E" transform="translate(114,37)"/>
<path d="M0 0 C1.32 0.66 2.64 1.32 4 2 C4 2.99 4 3.98 4 5 C3.38125 4.835 2.7625 4.67 2.125 4.5 C0.03936614 3.92365356 0.03936614 3.92365356 -2 4 C-2.33 4.66 -2.66 5.32 -3 6 C-3.66 6 -4.32 6 -5 6 C-3.63016497 2.83884224 -3.0109362 2.0072908 0 0 Z " fill="#9F9F9F" transform="translate(68,297)"/>
<path d="M0 0 C1.32 0.66 2.64 1.32 4 2 C4 2.99 4 3.98 4 5 C3.38125 4.835 2.7625 4.67 2.125 4.5 C0.03936614 3.92365356 0.03936614 3.92365356 -2 4 C-2.33 4.66 -2.66 5.32 -3 6 C-3.66 6 -4.32 6 -5 6 C-3.63016497 2.83884224 -3.0109362 2.0072908 0 0 Z " fill="#9F9F9F" transform="translate(68,273)"/>
<path d="M0 0 C1.98 0 3.96 0 6 0 C5.67 1.98 5.34 3.96 5 6 C4.34 6 3.68 6 3 6 C3 4.68 3 3.36 3 2 C2.34 2 1.68 2 1 2 C1 3.32 1 4.64 1 6 C0.34 5.67 -0.32 5.34 -1 5 C-0.67 3.35 -0.34 1.7 0 0 Z " fill="#B0BBBA" transform="translate(169,253)"/>
<path d="M0 0 C0.99 1.485 0.99 1.485 2 3 C2.99 3 3.98 3 5 3 C5 4.98 5 6.96 5 9 C3.33333333 9 1.66666667 9 0 9 C0 6.03 0 3.06 0 0 Z " fill="#95A48A" transform="translate(132,226)"/>
<path d="M0 0 C1.98 0.495 1.98 0.495 4 1 C3.67 2.65 3.34 4.3 3 6 C1.68 5.67 0.36 5.34 -1 5 C-0.67 3.35 -0.34 1.7 0 0 Z " fill="#6C6D67" transform="translate(127,229)"/>
<path d="M0 0 C1.32 0.66 2.64 1.32 4 2 C4 2.99 4 3.98 4 5 C3.38125 4.835 2.7625 4.67 2.125 4.5 C0.03936614 3.92365356 0.03936614 3.92365356 -2 4 C-2.33 4.66 -2.66 5.32 -3 6 C-3.66 6 -4.32 6 -5 6 C-3.63016497 2.83884224 -3.0109362 2.0072908 0 0 Z " fill="#9F9F9F" transform="translate(48,225)"/>
<path d="M0 0 C0.99 1.485 0.99 1.485 2 3 C2.99 3 3.98 3 5 3 C5 4.98 5 6.96 5 9 C3.33333333 9 1.66666667 9 0 9 C0 6.03 0 3.06 0 0 Z " fill="#95A48A" transform="translate(184,202)"/>
<path d="M0 0 C0.99 1.485 0.99 1.485 2 3 C2.99 3 3.98 3 5 3 C5 4.98 5 6.96 5 9 C3.33333333 9 1.66666667 9 0 9 C0 6.03 0 3.06 0 0 Z " fill="#95A48A" transform="translate(120,202)"/>
<path d="M0 0 C1.98 0.495 1.98 0.495 4 1 C3.67 2.65 3.34 4.3 3 6 C1.68 5.67 0.36 5.34 -1 5 C-0.67 3.35 -0.34 1.7 0 0 Z " fill="#6C6D67" transform="translate(179,205)"/>
<path d="M0 0 C0.99 1.485 0.99 1.485 2 3 C2.99 3 3.98 3 5 3 C5 4.98 5 6.96 5 9 C3.33333333 9 1.66666667 9 0 9 C0 6.03 0 3.06 0 0 Z " fill="#95A48A" transform="translate(132,178)"/>
<path d="M0 0 C1.98 0.495 1.98 0.495 4 1 C3.67 2.65 3.34 4.3 3 6 C1.68 5.67 0.36 5.34 -1 5 C-0.67 3.35 -0.34 1.7 0 0 Z " fill="#6C6D67" transform="translate(127,181)"/>
<path d="M0 0 C0.99 1.485 0.99 1.485 2 3 C2.99 3 3.98 3 5 3 C5 4.98 5 6.96 5 9 C3.33333333 9 1.66666667 9 0 9 C0 6.03 0 3.06 0 0 Z " fill="#95A48A" transform="translate(132,154)"/>
<path d="M0 0 C1.98 0.495 1.98 0.495 4 1 C3.67 2.65 3.34 4.3 3 6 C1.68 5.67 0.36 5.34 -1 5 C-0.67 3.35 -0.34 1.7 0 0 Z " fill="#6C6D67" transform="translate(127,157)"/>
<path d="M0 0 C0.99 1.485 0.99 1.485 2 3 C2.99 3 3.98 3 5 3 C5 4.98 5 6.96 5 9 C3.33333333 9 1.66666667 9 0 9 C0 6.03 0 3.06 0 0 Z " fill="#95A48A" transform="translate(132,130)"/>
<path d="M0 0 C1.98 0.495 1.98 0.495 4 1 C3.67 2.65 3.34 4.3 3 6 C1.68 5.67 0.36 5.34 -1 5 C-0.67 3.35 -0.34 1.7 0 0 Z " fill="#6C6D67" transform="translate(127,133)"/>
<path d="M0 0 C0.99 1.485 0.99 1.485 2 3 C2.99 3 3.98 3 5 3 C5 4.98 5 6.96 5 9 C3.33333333 9 1.66666667 9 0 9 C0 6.03 0 3.06 0 0 Z " fill="#95A48A" transform="translate(132,106)"/>
<path d="M0 0 C1.98 0.495 1.98 0.495 4 1 C3.67 2.65 3.34 4.3 3 6 C1.68 5.67 0.36 5.34 -1 5 C-0.67 3.35 -0.34 1.7 0 0 Z " fill="#6C6D67" transform="translate(127,109)"/>
<path d="M0 0 C0.99 1.485 0.99 1.485 2 3 C2.99 3 3.98 3 5 3 C5 4.98 5 6.96 5 9 C3.33333333 9 1.66666667 9 0 9 C0 6.03 0 3.06 0 0 Z " fill="#95A38A" transform="translate(260,82)"/>
<path d="M0 0 C0.99 1.485 0.99 1.485 2 3 C2.99 3 3.98 3 5 3 C5 4.98 5 6.96 5 9 C3.33333333 9 1.66666667 9 0 9 C0 6.03 0 3.06 0 0 Z " fill="#95A48A" transform="translate(132,82)"/>
<path d="M0 0 C1.98 0.495 1.98 0.495 4 1 C3.67 2.65 3.34 4.3 3 6 C1.68 5.67 0.36 5.34 -1 5 C-0.67 3.35 -0.34 1.7 0 0 Z " fill="#6C6D67" transform="translate(255,85)"/>
<path d="M0 0 C1.98 0.495 1.98 0.495 4 1 C3.67 2.65 3.34 4.3 3 6 C1.68 5.67 0.36 5.34 -1 5 C-0.67 3.35 -0.34 1.7 0 0 Z " fill="#6C6D67" transform="translate(127,85)"/>
<path d="M0 0 C0.99 1.485 0.99 1.485 2 3 C2.99 3 3.98 3 5 3 C5 4.98 5 6.96 5 9 C3.33333333 9 1.66666667 9 0 9 C0 6.03 0 3.06 0 0 Z " fill="#95A48A" transform="translate(132,58)"/>
<path d="M0 0 C1.98 0.495 1.98 0.495 4 1 C3.67 2.65 3.34 4.3 3 6 C1.68 5.67 0.36 5.34 -1 5 C-0.67 3.35 -0.34 1.7 0 0 Z " fill="#6C6D67" transform="translate(127,61)"/>
<path d="M0 0 C1.32 0.66 2.64 1.32 4 2 C4 2.99 4 3.98 4 5 C3.38125 4.835 2.7625 4.67 2.125 4.5 C0.03936614 3.92365356 0.03936614 3.92365356 -2 4 C-2.33 4.66 -2.66 5.32 -3 6 C-3.66 6 -4.32 6 -5 6 C-3.63016497 2.83884224 -3.0109362 2.0072908 0 0 Z " fill="#9F9F9F" transform="translate(28,9)"/>
<path d="M0 0 C0.99 0.33 1.98 0.66 3 1 C3 2.65 3 4.3 3 6 C1.35 5.67 -0.3 5.34 -2 5 C-1.125 1.125 -1.125 1.125 0 0 Z " fill="#8A98A1" transform="translate(123,253)"/>
<path d="M0 0 C1.65 0.33 3.3 0.66 5 1 C5 1.66 5 2.32 5 3 C3.68 3 2.36 3 1 3 C1 3.66 1 4.32 1 5 C1.99 5.33 2.98 5.66 4 6 C2.35 5.67 0.7 5.34 -1 5 C-0.67 3.35 -0.34 1.7 0 0 Z " fill="#C5C2B5" transform="translate(144,301)"/>
<path d="M0 0 C1.98 0.66 3.96 1.32 6 2 C6 2.66 6 3.32 6 4 C4.02 4.66 2.04 5.32 0 6 C0 4.02 0 2.04 0 0 Z " fill="#676767" transform="translate(47,299)"/>
<path d="M0 0 C1.65 0.33 3.3 0.66 5 1 C5 1.66 5 2.32 5 3 C3.68 3 2.36 3 1 3 C1 3.66 1 4.32 1 5 C1.99 5.33 2.98 5.66 4 6 C2.35 5.67 0.7 5.34 -1 5 C-0.67 3.35 -0.34 1.7 0 0 Z " fill="#C5C2B5" transform="translate(182,277)"/>
<path d="M0 0 C1.65 0.33 3.3 0.66 5 1 C5 1.66 5 2.32 5 3 C3.68 3 2.36 3 1 3 C1 3.66 1 4.32 1 5 C1.99 5.33 2.98 5.66 4 6 C2.35 5.67 0.7 5.34 -1 5 C-0.67 3.35 -0.34 1.7 0 0 Z " fill="#C5C2B5" transform="translate(153,277)"/>
<path d="M0 0 C1.65 0.33 3.3 0.66 5 1 C5 1.66 5 2.32 5 3 C3.68 3 2.36 3 1 3 C1 3.66 1 4.32 1 5 C1.99 5.33 2.98 5.66 4 6 C2.35 5.67 0.7 5.34 -1 5 C-0.67 3.35 -0.34 1.7 0 0 Z " fill="#C5C2B5" transform="translate(134,277)"/>
<path d="M0 0 C1.98 0.66 3.96 1.32 6 2 C6 2.66 6 3.32 6 4 C4.02 4.66 2.04 5.32 0 6 C0 4.02 0 2.04 0 0 Z " fill="#676767" transform="translate(47,275)"/>
<path d="M0 0 C1.98 0.66 3.96 1.32 6 2 C6 2.66 6 3.32 6 4 C4.02 4.66 2.04 5.32 0 6 C0 4.02 0 2.04 0 0 Z " fill="#676767" transform="translate(47,251)"/>
<path d="M0 0 C1.98 0 3.96 0 6 0 C5.34 1.98 4.68 3.96 4 6 C3.34 6 2.68 6 2 6 C1.34 4.02 0.68 2.04 0 0 Z " fill="#676767" transform="translate(27,227)"/>
<path d="M0 0 C1.98 0.66 3.96 1.32 6 2 C6 2.66 6 3.32 6 4 C4.02 4.66 2.04 5.32 0 6 C0 4.02 0 2.04 0 0 Z " fill="#676767" transform="translate(27,203)"/>
<path d="M0 0 C1.98 0.66 3.96 1.32 6 2 C6 2.66 6 3.32 6 4 C4.02 4.66 2.04 5.32 0 6 C0 4.02 0 2.04 0 0 Z " fill="#676767" transform="translate(27,179)"/>
<path d="M0 0 C1.98 0.66 3.96 1.32 6 2 C6 2.66 6 3.32 6 4 C4.02 4.66 2.04 5.32 0 6 C0 4.02 0 2.04 0 0 Z " fill="#676767" transform="translate(27,155)"/>
<path d="M0 0 C1.98 0.66 3.96 1.32 6 2 C6 2.66 6 3.32 6 4 C4.02 4.66 2.04 5.32 0 6 C0 4.02 0 2.04 0 0 Z " fill="#676767" transform="translate(27,131)"/>
<path d="M0 0 C1.98 0.66 3.96 1.32 6 2 C6 2.66 6 3.32 6 4 C4.02 4.66 2.04 5.32 0 6 C0 4.02 0 2.04 0 0 Z " fill="#676767" transform="translate(27,107)"/>
<path d="M0 0 C1.98 0.66 3.96 1.32 6 2 C6 2.66 6 3.32 6 4 C4.02 4.66 2.04 5.32 0 6 C0 4.02 0 2.04 0 0 Z " fill="#676767" transform="translate(27,83)"/>
<path d="M0 0 C1.98 0.66 3.96 1.32 6 2 C6 2.66 6 3.32 6 4 C4.02 4.66 2.04 5.32 0 6 C0 4.02 0 2.04 0 0 Z " fill="#676767" transform="translate(27,59)"/>
<path d="M0 0 C1.98 0.66 3.96 1.32 6 2 C6 2.66 6 3.32 6 4 C4.02 4.66 2.04 5.32 0 6 C0 4.02 0 2.04 0 0 Z " fill="#676767" transform="translate(27,35)"/>
<path d="M0 0 C1.98 0 3.96 0 6 0 C5.34 1.98 4.68 3.96 4 6 C3.34 6 2.68 6 2 6 C1.34 4.02 0.68 2.04 0 0 Z " fill="#676767" transform="translate(7,11)"/>
<path d="M0 0 C0.66 0 1.32 0 2 0 C2 1.98 2 3.96 2 6 C2.66 6 3.32 6 4 6 C3.67 6.99 3.34 7.98 3 9 C2.01 9 1.02 9 0 9 C0 6.03 0 3.06 0 0 Z " fill="#A7BCC1" transform="translate(110,250)"/>
<path d="M0 0 C0.99 0.33 1.98 0.66 3 1 C3.66 0.67 4.32 0.34 5 0 C4.34 1.98 3.68 3.96 3 6 C2.01 5.67 1.02 5.34 0 5 C-0.99 5.495 -0.99 5.495 -2 6 C-1.125 1.125 -1.125 1.125 0 0 Z " fill="#999E93" transform="translate(315,205)"/>
<path d="M0 0 C1.32 0 2.64 0 4 0 C3.67 0.99 3.34 1.98 3 3 C2.01 3 1.02 3 0 3 C0 3.66 0 4.32 0 5 C0.99 5.33 1.98 5.66 3 6 C1.35 5.67 -0.3 5.34 -2 5 C-1.125 1.125 -1.125 1.125 0 0 Z " fill="#B2C0C2" transform="translate(135,253)"/>
<path d="M0 0 C0.66 0 1.32 0 2 0 C3.125 2.25 3.125 2.25 4 5 C3.125 7.3125 3.125 7.3125 2 9 C1.34 9 0.68 9 0 9 C0 6.03 0 3.06 0 0 Z " fill="#9EA289" transform="translate(262,202)"/>
<path d="M0 0 C0.99 0 1.98 0 3 0 C3 1.98 3 3.96 3 6 C3.66 6 4.32 6 5 6 C5 6.99 5 7.98 5 9 C4.01 9 3.02 9 2 9 C1.34 6.03 0.68 3.06 0 0 Z " fill="#C5C5B2" transform="translate(109,274)"/>
<path d="M0 0 C1.32 0 2.64 0 4 0 C4 0.99 4 1.98 4 3 C2.35 3 0.7 3 -1 3 C-1 5.31 -1 7.62 -1 10 C-1.33 10 -1.66 10 -2 10 C-2 7.36 -2 4.72 -2 2 C-1.34 2 -0.68 2 0 2 C0 1.34 0 0.68 0 0 Z " fill="#969893" transform="translate(72,224)"/>
<path d="M0 0 C0.33 0.66 0.66 1.32 1 2 C1.66 2.33 2.32 2.66 3 3 C2.34 3 1.68 3 1 3 C1 4.32 1 5.64 1 7 C1.66 7.33 2.32 7.66 3 8 C2.01 8 1.02 8 0 8 C0 6.35 0 4.7 0 3 C-0.99 3 -1.98 3 -3 3 C-3 4.65 -3 6.3 -3 8 C-3.33 8 -3.66 8 -4 8 C-4 6.02 -4 4.04 -4 2 C-2.68 2 -1.36 2 0 2 C0 1.34 0 0.68 0 0 Z " fill="#B1D1BF" transform="translate(331,203)"/>
<path d="M0 0 C1.32 0 2.64 0 4 0 C4 0.99 4 1.98 4 3 C2.35 3 0.7 3 -1 3 C-1 5.31 -1 7.62 -1 10 C-1.33 10 -1.66 10 -2 10 C-2 7.36 -2 4.72 -2 2 C-1.34 2 -0.68 2 0 2 C0 1.34 0 0.68 0 0 Z " fill="#969893" transform="translate(72,200)"/>
<path d="M0 0 C1.32 0 2.64 0 4 0 C4 0.99 4 1.98 4 3 C2.35 3 0.7 3 -1 3 C-1 5.31 -1 7.62 -1 10 C-1.33 10 -1.66 10 -2 10 C-2 7.36 -2 4.72 -2 2 C-1.34 2 -0.68 2 0 2 C0 1.34 0 0.68 0 0 Z " fill="#969893" transform="translate(72,176)"/>
<path d="M0 0 C1.32 0 2.64 0 4 0 C4 0.99 4 1.98 4 3 C2.35 3 0.7 3 -1 3 C-1 5.31 -1 7.62 -1 10 C-1.33 10 -1.66 10 -2 10 C-2 7.36 -2 4.72 -2 2 C-1.34 2 -0.68 2 0 2 C0 1.34 0 0.68 0 0 Z " fill="#969893" transform="translate(72,152)"/>
<path d="M0 0 C1.32 0 2.64 0 4 0 C4 0.99 4 1.98 4 3 C2.35 3 0.7 3 -1 3 C-1 5.31 -1 7.62 -1 10 C-1.33 10 -1.66 10 -2 10 C-2 7.36 -2 4.72 -2 2 C-1.34 2 -0.68 2 0 2 C0 1.34 0 0.68 0 0 Z " fill="#969893" transform="translate(72,128)"/>
<path d="M0 0 C1.32 0 2.64 0 4 0 C4 0.99 4 1.98 4 3 C2.35 3 0.7 3 -1 3 C-1 5.31 -1 7.62 -1 10 C-1.33 10 -1.66 10 -2 10 C-2 7.36 -2 4.72 -2 2 C-1.34 2 -0.68 2 0 2 C0 1.34 0 0.68 0 0 Z " fill="#969893" transform="translate(72,104)"/>
<path d="M0 0 C1.32 0 2.64 0 4 0 C4 0.99 4 1.98 4 3 C2.35 3 0.7 3 -1 3 C-1 5.31 -1 7.62 -1 10 C-1.33 10 -1.66 10 -2 10 C-2 7.36 -2 4.72 -2 2 C-1.34 2 -0.68 2 0 2 C0 1.34 0 0.68 0 0 Z " fill="#969893" transform="translate(72,80)"/>
<path d="M0 0 C1.32 0 2.64 0 4 0 C4 0.99 4 1.98 4 3 C2.35 3 0.7 3 -1 3 C-1 5.31 -1 7.62 -1 10 C-1.33 10 -1.66 10 -2 10 C-2 7.36 -2 4.72 -2 2 C-1.34 2 -0.68 2 0 2 C0 1.34 0 0.68 0 0 Z " fill="#969893" transform="translate(72,56)"/>
<path d="M0 0 C1.32 0 2.64 0 4 0 C4 0.99 4 1.98 4 3 C2.35 3 0.7 3 -1 3 C-1 5.31 -1 7.62 -1 10 C-1.33 10 -1.66 10 -2 10 C-2 7.36 -2 4.72 -2 2 C-1.34 2 -0.68 2 0 2 C0 1.34 0 0.68 0 0 Z " fill="#969893" transform="translate(72,32)"/>
<path d="M0 0 C1.32 0 2.64 0 4 0 C4 0.99 4 1.98 4 3 C2.35 3 0.7 3 -1 3 C-1 5.31 -1 7.62 -1 10 C-1.33 10 -1.66 10 -2 10 C-2 7.36 -2 4.72 -2 2 C-1.34 2 -0.68 2 0 2 C0 1.34 0 0.68 0 0 Z " fill="#969893" transform="translate(52,8)"/>
<path d="M0 0 C1.65 0 3.3 0 5 0 C4.34 1.32 3.68 2.64 3 4 C3.66 4.66 4.32 5.32 5 6 C3.02 6 1.04 6 -1 6 C-0.649375 5.38125 -0.29875 4.7625 0.0625 4.125 C0.371875 3.42375 0.68125 2.7225 1 2 C0.67 1.34 0.34 0.68 0 0 Z " fill="#C6D0CB" transform="translate(188,301)"/>
<path d="M0 0 C0.66 0 1.32 0 2 0 C2 0.66 2 1.32 2 2 C2.66 2.33 3.32 2.66 4 3 C3.34 3 2.68 3 2 3 C2 4.32 2 5.64 2 7 C2.66 7.33 3.32 7.66 4 8 C2.68 7.67 1.36 7.34 0 7 C-1.125 2.25 -1.125 2.25 0 0 Z " fill="#ABBECC" transform="translate(128,275)"/>
<path d="M0 0 C1.32 0 2.64 0 4 0 C4 1.98 4 3.96 4 6 C2.68 6 1.36 6 0 6 C0.185625 5.38125 0.37125 4.7625 0.5625 4.125 C1.23686176 1.95839822 1.23686176 1.95839822 0 0 Z " fill="#A5ACA7" transform="translate(232,229)"/>
<path d="M0 0 C1.32 0 2.64 0 4 0 C4 1.98 4 3.96 4 6 C2.68 6 1.36 6 0 6 C0.185625 5.38125 0.37125 4.7625 0.5625 4.125 C1.23686176 1.95839822 1.23686176 1.95839822 0 0 Z " fill="#A5ACA7" transform="translate(177,229)"/>
<path d="M0 0 C1.32 0 2.64 0 4 0 C4 1.98 4 3.96 4 6 C2.68 6 1.36 6 0 6 C0.185625 5.38125 0.37125 4.7625 0.5625 4.125 C1.23686176 1.95839822 1.23686176 1.95839822 0 0 Z " fill="#A5ACA7" transform="translate(139,229)"/>
<path d="M0 0 C1.32 0 2.64 0 4 0 C4 1.98 4 3.96 4 6 C2.68 6 1.36 6 0 6 C0.185625 5.38125 0.37125 4.7625 0.5625 4.125 C1.23686176 1.95839822 1.23686176 1.95839822 0 0 Z " fill="#A5ACA7" transform="translate(101,229)"/>
<path d="M0 0 C1.98 0.495 1.98 0.495 4 1 C4 1.66 4 2.32 4 3 C3.01 3.33 2.02 3.66 1 4 C1.99 4.66 2.98 5.32 4 6 C2.35 5.67 0.7 5.34 -1 5 C-0.67 3.35 -0.34 1.7 0 0 Z " fill="#B7B7A5" transform="translate(220,229)"/>
<path d="M0 0 C1.98 0.495 1.98 0.495 4 1 C4 1.66 4 2.32 4 3 C3.01 3.33 2.02 3.66 1 4 C1.99 4.66 2.98 5.32 4 6 C2.35 5.67 0.7 5.34 -1 5 C-0.67 3.35 -0.34 1.7 0 0 Z " fill="#B7B7A5" transform="translate(203,229)"/>
<path d="M0 0 C1.98 0.495 1.98 0.495 4 1 C4 1.66 4 2.32 4 3 C3.01 3.33 2.02 3.66 1 4 C1.99 4.66 2.98 5.32 4 6 C2.35 5.67 0.7 5.34 -1 5 C-0.67 3.35 -0.34 1.7 0 0 Z " fill="#B7B7A5" transform="translate(112,229)"/>
<path d="M0 0 C1.32 0 2.64 0 4 0 C4 1.98 4 3.96 4 6 C2.68 6 1.36 6 0 6 C0.185625 5.38125 0.37125 4.7625 0.5625 4.125 C1.23686176 1.95839822 1.23686176 1.95839822 0 0 Z " fill="#A5ACA7" transform="translate(321,205)"/>
<path d="M0 0 C1.32 0 2.64 0 4 0 C4 1.98 4 3.96 4 6 C2.68 6 1.36 6 0 6 C0.185625 5.38125 0.37125 4.7625 0.5625 4.125 C1.23686176 1.95839822 1.23686176 1.95839822 0 0 Z " fill="#A5ACA7" transform="translate(234,205)"/>
<path d="M0 0 C1.32 0 2.64 0 4 0 C4 1.98 4 3.96 4 6 C2.68 6 1.36 6 0 6 C0.185625 5.38125 0.37125 4.7625 0.5625 4.125 C1.23686176 1.95839822 1.23686176 1.95839822 0 0 Z " fill="#A5ACA7" transform="translate(191,205)"/>
<path d="M0 0 C1.32 0 2.64 0 4 0 C4 1.98 4 3.96 4 6 C2.68 6 1.36 6 0 6 C0.185625 5.38125 0.37125 4.7625 0.5625 4.125 C1.23686176 1.95839822 1.23686176 1.95839822 0 0 Z " fill="#A5ACA7" transform="translate(160,205)"/>
<path d="M0 0 C1.98 0.495 1.98 0.495 4 1 C4 1.66 4 2.32 4 3 C3.01 3.33 2.02 3.66 1 4 C1.99 4.66 2.98 5.32 4 6 C2.35 5.67 0.7 5.34 -1 5 C-0.67 3.35 -0.34 1.7 0 0 Z " fill="#B7B7A5" transform="translate(339,205)"/>
<path d="M0 0 C1.98 0.495 1.98 0.495 4 1 C4 1.66 4 2.32 4 3 C3.01 3.33 2.02 3.66 1 4 C1.99 4.66 2.98 5.32 4 6 C2.35 5.67 0.7 5.34 -1 5 C-0.67 3.35 -0.34 1.7 0 0 Z " fill="#B7B7A5" transform="translate(297,205)"/>
<path d="M0 0 C1.98 0.495 1.98 0.495 4 1 C4 1.66 4 2.32 4 3 C3.01 3.33 2.02 3.66 1 4 C1.99 4.66 2.98 5.32 4 6 C2.35 5.67 0.7 5.34 -1 5 C-0.67 3.35 -0.34 1.7 0 0 Z " fill="#B7B7A5" transform="translate(134,205)"/>
<path d="M0 0 C1.98 0.495 1.98 0.495 4 1 C4 1.66 4 2.32 4 3 C3.01 3.33 2.02 3.66 1 4 C1.99 4.66 2.98 5.32 4 6 C2.35 5.67 0.7 5.34 -1 5 C-0.67 3.35 -0.34 1.7 0 0 Z " fill="#B7B7A5" transform="translate(128,205)"/>
<path d="M0 0 C1.32 0 2.64 0 4 0 C4 1.98 4 3.96 4 6 C2.68 6 1.36 6 0 6 C0.185625 5.38125 0.37125 4.7625 0.5625 4.125 C1.23686176 1.95839822 1.23686176 1.95839822 0 0 Z " fill="#A5ACA7" transform="translate(277,181)"/>
<path d="M0 0 C1.32 0 2.64 0 4 0 C4 1.98 4 3.96 4 6 C2.68 6 1.36 6 0 6 C0.185625 5.38125 0.37125 4.7625 0.5625 4.125 C1.23686176 1.95839822 1.23686176 1.95839822 0 0 Z " fill="#A5ACA7" transform="translate(139,181)"/>
<path d="M0 0 C1.32 0 2.64 0 4 0 C4 1.98 4 3.96 4 6 C2.68 6 1.36 6 0 6 C0.185625 5.38125 0.37125 4.7625 0.5625 4.125 C1.23686176 1.95839822 1.23686176 1.95839822 0 0 Z " fill="#A5ACA7" transform="translate(101,181)"/>
<path d="M0 0 C1.98 0.495 1.98 0.495 4 1 C4 1.66 4 2.32 4 3 C3.01 3.33 2.02 3.66 1 4 C1.99 4.66 2.98 5.32 4 6 C2.35 5.67 0.7 5.34 -1 5 C-0.67 3.35 -0.34 1.7 0 0 Z " fill="#B7B7A5" transform="translate(265,181)"/>
<path d="M0 0 C1.98 0.495 1.98 0.495 4 1 C4 1.66 4 2.32 4 3 C3.01 3.33 2.02 3.66 1 4 C1.99 4.66 2.98 5.32 4 6 C2.35 5.67 0.7 5.34 -1 5 C-0.67 3.35 -0.34 1.7 0 0 Z " fill="#B7B7A5" transform="translate(248,181)"/>
<path d="M0 0 C1.98 0.495 1.98 0.495 4 1 C4 1.66 4 2.32 4 3 C3.01 3.33 2.02 3.66 1 4 C1.99 4.66 2.98 5.32 4 6 C2.35 5.67 0.7 5.34 -1 5 C-0.67 3.35 -0.34 1.7 0 0 Z " fill="#B7B7A5" transform="translate(234,181)"/>
<path d="M0 0 C1.98 0.495 1.98 0.495 4 1 C4 1.66 4 2.32 4 3 C3.01 3.33 2.02 3.66 1 4 C1.99 4.66 2.98 5.32 4 6 C2.35 5.67 0.7 5.34 -1 5 C-0.67 3.35 -0.34 1.7 0 0 Z " fill="#B7B7A5" transform="translate(208,181)"/>
<path d="M0 0 C1.98 0.495 1.98 0.495 4 1 C4 1.66 4 2.32 4 3 C3.01 3.33 2.02 3.66 1 4 C1.99 4.66 2.98 5.32 4 6 C2.35 5.67 0.7 5.34 -1 5 C-0.67 3.35 -0.34 1.7 0 0 Z " fill="#B7B7A5" transform="translate(168,181)"/>
<path d="M0 0 C1.98 0.495 1.98 0.495 4 1 C4 1.66 4 2.32 4 3 C3.01 3.33 2.02 3.66 1 4 C1.99 4.66 2.98 5.32 4 6 C2.35 5.67 0.7 5.34 -1 5 C-0.67 3.35 -0.34 1.7 0 0 Z " fill="#B7B7A5" transform="translate(112,181)"/>
<path d="M0 0 C1.32 0 2.64 0 4 0 C4 1.98 4 3.96 4 6 C2.68 6 1.36 6 0 6 C0.185625 5.38125 0.37125 4.7625 0.5625 4.125 C1.23686176 1.95839822 1.23686176 1.95839822 0 0 Z " fill="#A5ACA7" transform="translate(179,157)"/>
<path d="M0 0 C1.32 0 2.64 0 4 0 C4 1.98 4 3.96 4 6 C2.68 6 1.36 6 0 6 C0.185625 5.38125 0.37125 4.7625 0.5625 4.125 C1.23686176 1.95839822 1.23686176 1.95839822 0 0 Z " fill="#A5ACA7" transform="translate(139,157)"/>
<path d="M0 0 C1.32 0 2.64 0 4 0 C4 1.98 4 3.96 4 6 C2.68 6 1.36 6 0 6 C0.185625 5.38125 0.37125 4.7625 0.5625 4.125 C1.23686176 1.95839822 1.23686176 1.95839822 0 0 Z " fill="#A5ACA7" transform="translate(101,157)"/>
<path d="M0 0 C1.98 0.495 1.98 0.495 4 1 C4 1.66 4 2.32 4 3 C3.01 3.33 2.02 3.66 1 4 C1.99 4.66 2.98 5.32 4 6 C2.35 5.67 0.7 5.34 -1 5 C-0.67 3.35 -0.34 1.7 0 0 Z " fill="#B7B7A5" transform="translate(164,157)"/>
<path d="M0 0 C1.98 0.495 1.98 0.495 4 1 C4 1.66 4 2.32 4 3 C3.01 3.33 2.02 3.66 1 4 C1.99 4.66 2.98 5.32 4 6 C2.35 5.67 0.7 5.34 -1 5 C-0.67 3.35 -0.34 1.7 0 0 Z " fill="#B7B7A5" transform="translate(112,157)"/>
<path d="M0 0 C1.32 0 2.64 0 4 0 C4 1.98 4 3.96 4 6 C2.68 6 1.36 6 0 6 C0.185625 5.38125 0.37125 4.7625 0.5625 4.125 C1.23686176 1.95839822 1.23686176 1.95839822 0 0 Z " fill="#A5ACA7" transform="translate(139,133)"/>
<path d="M0 0 C1.32 0 2.64 0 4 0 C4 1.98 4 3.96 4 6 C2.68 6 1.36 6 0 6 C0.185625 5.38125 0.37125 4.7625 0.5625 4.125 C1.23686176 1.95839822 1.23686176 1.95839822 0 0 Z " fill="#A5ACA7" transform="translate(101,133)"/>
<path d="M0 0 C1.98 0.495 1.98 0.495 4 1 C4 1.66 4 2.32 4 3 C3.01 3.33 2.02 3.66 1 4 C1.99 4.66 2.98 5.32 4 6 C2.35 5.67 0.7 5.34 -1 5 C-0.67 3.35 -0.34 1.7 0 0 Z " fill="#B7B7A5" transform="translate(210,133)"/>
<path d="M0 0 C1.98 0.495 1.98 0.495 4 1 C4 1.66 4 2.32 4 3 C3.01 3.33 2.02 3.66 1 4 C1.99 4.66 2.98 5.32 4 6 C2.35 5.67 0.7 5.34 -1 5 C-0.67 3.35 -0.34 1.7 0 0 Z " fill="#B7B7A5" transform="translate(164,133)"/>
<path d="M0 0 C1.98 0.495 1.98 0.495 4 1 C4 1.66 4 2.32 4 3 C3.01 3.33 2.02 3.66 1 4 C1.99 4.66 2.98 5.32 4 6 C2.35 5.67 0.7 5.34 -1 5 C-0.67 3.35 -0.34 1.7 0 0 Z " fill="#B7B7A5" transform="translate(112,133)"/>
<path d="M0 0 C1.32 0 2.64 0 4 0 C4 1.98 4 3.96 4 6 C2.68 6 1.36 6 0 6 C0.185625 5.38125 0.37125 4.7625 0.5625 4.125 C1.23686176 1.95839822 1.23686176 1.95839822 0 0 Z " fill="#A5ACA7" transform="translate(231,109)"/>
<path d="M0 0 C1.32 0 2.64 0 4 0 C4 1.98 4 3.96 4 6 C2.68 6 1.36 6 0 6 C0.185625 5.38125 0.37125 4.7625 0.5625 4.125 C1.23686176 1.95839822 1.23686176 1.95839822 0 0 Z " fill="#A5ACA7" transform="translate(179,109)"/>
<path d="M0 0 C1.32 0 2.64 0 4 0 C4 1.98 4 3.96 4 6 C2.68 6 1.36 6 0 6 C0.185625 5.38125 0.37125 4.7625 0.5625 4.125 C1.23686176 1.95839822 1.23686176 1.95839822 0 0 Z " fill="#A5ACA7" transform="translate(139,109)"/>
<path d="M0 0 C1.32 0 2.64 0 4 0 C4 1.98 4 3.96 4 6 C2.68 6 1.36 6 0 6 C0.185625 5.38125 0.37125 4.7625 0.5625 4.125 C1.23686176 1.95839822 1.23686176 1.95839822 0 0 Z " fill="#A5ACA7" transform="translate(101,109)"/>
<path d="M0 0 C1.98 0.495 1.98 0.495 4 1 C4 1.66 4 2.32 4 3 C3.01 3.33 2.02 3.66 1 4 C1.99 4.66 2.98 5.32 4 6 C2.35 5.67 0.7 5.34 -1 5 C-0.67 3.35 -0.34 1.7 0 0 Z " fill="#B7B7A5" transform="translate(219,109)"/>
<path d="M0 0 C1.98 0.495 1.98 0.495 4 1 C4 1.66 4 2.32 4 3 C3.01 3.33 2.02 3.66 1 4 C1.99 4.66 2.98 5.32 4 6 C2.35 5.67 0.7 5.34 -1 5 C-0.67 3.35 -0.34 1.7 0 0 Z " fill="#B7B7A5" transform="translate(202,109)"/>
<path d="M0 0 C1.98 0.495 1.98 0.495 4 1 C4 1.66 4 2.32 4 3 C3.01 3.33 2.02 3.66 1 4 C1.99 4.66 2.98 5.32 4 6 C2.35 5.67 0.7 5.34 -1 5 C-0.67 3.35 -0.34 1.7 0 0 Z " fill="#B7B7A5" transform="translate(112,109)"/>
<path d="M0 0 C1.32 0 2.64 0 4 0 C4 1.98 4 3.96 4 6 C2.68 6 1.36 6 0 6 C0.185625 5.38125 0.37125 4.7625 0.5625 4.125 C1.23686176 1.95839822 1.23686176 1.95839822 0 0 Z " fill="#A5ACA7" transform="translate(139,85)"/>
<path d="M0 0 C1.32 0 2.64 0 4 0 C4 1.98 4 3.96 4 6 C2.68 6 1.36 6 0 6 C0.185625 5.38125 0.37125 4.7625 0.5625 4.125 C1.23686176 1.95839822 1.23686176 1.95839822 0 0 Z " fill="#A5ACA7" transform="translate(101,85)"/>
<path d="M0 0 C1.98 0.495 1.98 0.495 4 1 C4 1.66 4 2.32 4 3 C3.01 3.33 2.02 3.66 1 4 C1.99 4.66 2.98 5.32 4 6 C2.35 5.67 0.7 5.34 -1 5 C-0.67 3.35 -0.34 1.7 0 0 Z " fill="#B7B7A5" transform="translate(249,85)"/>
<path d="M0 0 C1.98 0.495 1.98 0.495 4 1 C4 1.66 4 2.32 4 3 C3.01 3.33 2.02 3.66 1 4 C1.99 4.66 2.98 5.32 4 6 C2.35 5.67 0.7 5.34 -1 5 C-0.67 3.35 -0.34 1.7 0 0 Z " fill="#B7B7A5" transform="translate(227,85)"/>
<path d="M0 0 C1.98 0.495 1.98 0.495 4 1 C4 1.66 4 2.32 4 3 C3.01 3.33 2.02 3.66 1 4 C1.99 4.66 2.98 5.32 4 6 C2.35 5.67 0.7 5.34 -1 5 C-0.67 3.35 -0.34 1.7 0 0 Z " fill="#B7B7A5" transform="translate(184,85)"/>
<path d="M0 0 C1.98 0.495 1.98 0.495 4 1 C4 1.66 4 2.32 4 3 C3.01 3.33 2.02 3.66 1 4 C1.99 4.66 2.98 5.32 4 6 C2.35 5.67 0.7 5.34 -1 5 C-0.67 3.35 -0.34 1.7 0 0 Z " fill="#B7B7A5" transform="translate(112,85)"/>
<path d="M0 0 C1.32 0 2.64 0 4 0 C4 1.98 4 3.96 4 6 C2.68 6 1.36 6 0 6 C0.185625 5.38125 0.37125 4.7625 0.5625 4.125 C1.23686176 1.95839822 1.23686176 1.95839822 0 0 Z " fill="#A5ACA7" transform="translate(205,61)"/>
<path d="M0 0 C1.32 0 2.64 0 4 0 C4 1.98 4 3.96 4 6 C2.68 6 1.36 6 0 6 C0.185625 5.38125 0.37125 4.7625 0.5625 4.125 C1.23686176 1.95839822 1.23686176 1.95839822 0 0 Z " fill="#A5ACA7" transform="translate(199,61)"/>
<path d="M0 0 C1.32 0 2.64 0 4 0 C4 1.98 4 3.96 4 6 C2.68 6 1.36 6 0 6 C0.185625 5.38125 0.37125 4.7625 0.5625 4.125 C1.23686176 1.95839822 1.23686176 1.95839822 0 0 Z " fill="#A5ACA7" transform="translate(163,61)"/>
<path d="M0 0 C1.32 0 2.64 0 4 0 C4 1.98 4 3.96 4 6 C2.68 6 1.36 6 0 6 C0.185625 5.38125 0.37125 4.7625 0.5625 4.125 C1.23686176 1.95839822 1.23686176 1.95839822 0 0 Z " fill="#A5ACA7" transform="translate(139,61)"/>
<path d="M0 0 C1.32 0 2.64 0 4 0 C4 1.98 4 3.96 4 6 C2.68 6 1.36 6 0 6 C0.185625 5.38125 0.37125 4.7625 0.5625 4.125 C1.23686176 1.95839822 1.23686176 1.95839822 0 0 Z " fill="#A5ACA7" transform="translate(101,61)"/>
<path d="M0 0 C1.98 0.495 1.98 0.495 4 1 C4 1.66 4 2.32 4 3 C3.01 3.33 2.02 3.66 1 4 C1.99 4.66 2.98 5.32 4 6 C2.35 5.67 0.7 5.34 -1 5 C-0.67 3.35 -0.34 1.7 0 0 Z " fill="#B7B7A5" transform="translate(173,61)"/>
<path d="M0 0 C1.98 0.495 1.98 0.495 4 1 C4 1.66 4 2.32 4 3 C3.01 3.33 2.02 3.66 1 4 C1.99 4.66 2.98 5.32 4 6 C2.35 5.67 0.7 5.34 -1 5 C-0.67 3.35 -0.34 1.7 0 0 Z " fill="#B7B7A5" transform="translate(112,61)"/>
<path d="M0 0 C1.32 0 2.64 0 4 0 C4 1.98 4 3.96 4 6 C2.68 6 1.36 6 0 6 C0.185625 5.38125 0.37125 4.7625 0.5625 4.125 C1.23686176 1.95839822 1.23686176 1.95839822 0 0 Z " fill="#A5ACA7" transform="translate(158,37)"/>
<path d="M0 0 C1.32 0 2.64 0 4 0 C4 1.98 4 3.96 4 6 C2.68 6 1.36 6 0 6 C0.185625 5.38125 0.37125 4.7625 0.5625 4.125 C1.23686176 1.95839822 1.23686176 1.95839822 0 0 Z " fill="#A5ACA7" transform="translate(152,37)"/>
<path d="M0 0 C1.32 0 2.64 0 4 0 C4 1.98 4 3.96 4 6 C2.68 6 1.36 6 0 6 C0.185625 5.38125 0.37125 4.7625 0.5625 4.125 C1.23686176 1.95839822 1.23686176 1.95839822 0 0 Z " fill="#A5ACA7" transform="translate(123,37)"/>
<path d="M0 0 C1.98 0.495 1.98 0.495 4 1 C4 1.66 4 2.32 4 3 C3.01 3.33 2.02 3.66 1 4 C1.99 4.66 2.98 5.32 4 6 C2.35 5.67 0.7 5.34 -1 5 C-0.67 3.35 -0.34 1.7 0 0 Z " fill="#B7B7A5" transform="translate(134,37)"/>
<path d="M0 0 C1.98 0.495 1.98 0.495 4 1 C4 1.66 4 2.32 4 3 C3.01 3.33 2.02 3.66 1 4 C1.99 4.66 2.98 5.32 4 6 C2.35 5.67 0.7 5.34 -1 5 C-0.67 3.35 -0.34 1.7 0 0 Z " fill="#B7B7A5" transform="translate(97,13)"/>
<path d="M0 0 C1.98 0.495 1.98 0.495 4 1 C4 1.66 4 2.32 4 3 C3.01 3.33 2.02 3.66 1 4 C1.99 4.66 2.98 5.32 4 6 C2.35 5.67 0.7 5.34 -1 5 C-0.67 3.35 -0.34 1.7 0 0 Z " fill="#B7B7A5" transform="translate(77,13)"/>
<path d="M0 0 C0.99 0 1.98 0 3 0 C3 2.64 3 5.28 3 8 C1.68 7.67 0.36 7.34 -1 7 C-0.01 7 0.98 7 2 7 C2 6.01 2 5.02 2 4 C1.34 4 0.68 4 0 4 C0 2.68 0 1.36 0 0 Z " fill="#828A88" transform="translate(177,302)"/>
<path d="M0 0 C0.99 0 1.98 0 3 0 C3 2.64 3 5.28 3 8 C1.68 7.67 0.36 7.34 -1 7 C-0.01 7 0.98 7 2 7 C2 6.01 2 5.02 2 4 C1.34 4 0.68 4 0 4 C0 2.68 0 1.36 0 0 Z " fill="#828A88" transform="translate(175,278)"/>
<path d="M0 0 C1.32 0 2.64 0 4 0 C3.67 0.99 3.34 1.98 3 3 C2.01 3 1.02 3 0 3 C0 3.66 0 4.32 0 5 C0.99 5.33 1.98 5.66 3 6 C1.68 6 0.36 6 -1 6 C-1.042721 4.33388095 -1.04063832 2.66617115 -1 1 C-0.67 0.67 -0.34 0.34 0 0 Z " fill="#C2C8C0" transform="translate(164,253)"/>
<path d="M0 0 C0.33 0 0.66 0 1 0 C1 1.65 1 3.3 1 5 C2.32 4.67 3.64 4.34 5 4 C4.67 4.66 4.34 5.32 4 6 C3.01 6 2.02 6 1 6 C1 6.99 1 7.98 1 9 C0.34 9 -0.32 9 -1 9 C-0.67 6.03 -0.34 3.06 0 0 Z " fill="#C5D0C2" transform="translate(156,253)"/>
<path d="M0 0 C2.31 0.33 4.62 0.66 7 1 C5.68 2.32 4.36 3.64 3 5 C2.67 4.34 2.34 3.68 2 3 C1.34 3.99 0.68 4.98 0 6 C0 4.02 0 2.04 0 0 Z " fill="#5D7A7F" transform="translate(150,205)"/>
<path d="M0 0 C2.31 0.33 4.62 0.66 7 1 C5.68 2.32 4.36 3.64 3 5 C2.67 4.34 2.34 3.68 2 3 C1.34 3.99 0.68 4.98 0 6 C0 4.02 0 2.04 0 0 Z " fill="#5D7A7F" transform="translate(162,109)"/>
</svg>
