<?xml version="1.0" encoding="UTF-8"?>
<svg version="1.1" xmlns="http://www.w3.org/2000/svg" width="239" height="264">
<path d="M0 0 C78.87 0 157.74 0 239 0 C239 87.12 239 174.24 239 264 C160.13 264 81.26 264 0 264 C0 176.88 0 89.76 0 0 Z " fill="#343434" transform="translate(0,0)"/>
<path d="M0 0 C57.42 0 114.84 0 174 0 C174 58.08 174 116.16 174 176 C116.58 176 59.16 176 0 176 C0 117.92 0 59.84 0 0 Z " fill="#D7D7D7" transform="translate(65,88)"/>
<path d="M0 0 C12.87 0 25.74 0 39 0 C39 13.2 39 26.4 39 40 C26.13 40 13.26 40 0 40 C0 26.8 0 13.6 0 0 Z " fill="#323232" transform="translate(5,202)"/>
<path d="M0 0 C13.53 0 27.06 0 41 0 C41 12.54 41 25.08 41 38 C43.31 38 45.62 38 48 38 C48 41.96 48 45.92 48 50 C52.95 50 57.9 50 63 50 C63 50.33 63 50.66 63 51 C58.05 51 53.1 51 48 51 C48 58.26 48 65.52 48 73 C52.95 73 57.9 73 63 73 C63 73.33 63 73.66 63 74 C58.05 74 53.1 74 48 74 C48 78.62 48 83.24 48 88 C31.83 88 15.66 88 -1 88 C-1.08115968 58.62019549 -0.92476779 29.36137733 0 0 Z M1 1 C1 13.21 1 25.42 1 38 C13.87 38 26.74 38 40 38 C40 25.79 40 13.58 40 1 C27.13 1 14.26 1 1 1 Z M4 43 C4 56.2 4 69.4 4 83 C16.87 83 29.74 83 43 83 C43 69.8 43 56.6 43 43 C30.13 43 17.26 43 4 43 Z " fill="#E92824" transform="translate(1,159)"/>
<path d="M0 0 C1.11697266 0.04382813 2.23394531 0.08765625 3.38476562 0.1328125 C5.14143555 0.21015625 5.14143555 0.21015625 6.93359375 0.2890625 C8.10857422 0.33289063 9.28355469 0.37671875 10.49414062 0.421875 C19.24280205 0.7857708 19.24280205 0.7857708 20.37109375 1.9140625 C20.47081161 3.82864532 20.50189964 5.74688567 20.50390625 7.6640625 C20.50583984 9.41203125 20.50583984 9.41203125 20.5078125 11.1953125 C20.50394531 12.4225 20.50007813 13.6496875 20.49609375 14.9140625 C20.50189453 16.75484375 20.50189453 16.75484375 20.5078125 18.6328125 C20.50652344 19.798125 20.50523438 20.9634375 20.50390625 22.1640625 C20.50277832 23.24171875 20.50165039 24.319375 20.50048828 25.4296875 C20.37109375 27.9140625 20.37109375 27.9140625 19.37109375 28.9140625 C15.42065763 29.22222542 11.457073 29.19245533 7.49609375 29.2265625 C6.38105469 29.25556641 5.26601563 29.28457031 4.1171875 29.31445312 C3.04855469 29.32283203 1.97992188 29.33121094 0.87890625 29.33984375 C-0.1044873 29.35442627 -1.08788086 29.36900879 -2.10107422 29.3840332 C-4.62890625 28.9140625 -4.62890625 28.9140625 -6.45483398 27.23999023 C-7.89540671 24.38610453 -7.97277779 22.46334567 -7.921875 19.2734375 C-7.91220703 18.20351562 -7.90253906 17.13359375 -7.89257812 16.03125 C-7.86744141 14.92007813 -7.84230469 13.80890625 -7.81640625 12.6640625 C-7.80287109 11.53742188 -7.78933594 10.41078125 -7.77539062 9.25 C-7.7400627 6.47086986 -7.69073145 3.69270887 -7.62890625 0.9140625 C-4.94445523 -0.42816301 -2.99791676 -0.11859478 0 0 Z " fill="#78808A" transform="translate(14.62890625,206.0859375)"/>
<path d="M0 0 C3.44302615 1.11730514 6.7224503 2.46728365 10 4 C10 3.34 10 2.68 10 2 C10.66 2 11.32 2 12 2 C11.98839844 2.85464844 11.97679687 3.70929687 11.96484375 4.58984375 C11.95582031 5.69457031 11.94679687 6.79929687 11.9375 7.9375 C11.92589844 9.03964844 11.91429687 10.14179687 11.90234375 11.27734375 C11.68737429 13.91447634 11.68737429 13.91447634 13 15 C13.61192269 20.26253509 12.24509023 22.8959153 9 27 C5.09108308 28.95445846 0.2717779 28.37819804 -4 28 C-6.875 26.4375 -6.875 26.4375 -9 25 C-11.60364245 25.36536906 -11.60364245 25.36536906 -14 26 C-14 21.33333333 -14 16.66666667 -14 12 C-14.103125 10.906875 -14.20625 9.81375 -14.3125 8.6875 C-14 5 -14 5 -12.0625 2.0625 C-7.87619003 -0.75685161 -4.90784715 -0.8692582 0 0 Z " fill="#333941" transform="translate(194,30)"/>
<path d="M0 0 C3.63 0 7.26 0 11 0 C11 0.66 11 1.32 11 2 C12.65 2 14.3 2 16 2 C16 1.34 16 0.68 16 0 C19.63 0 23.26 0 27 0 C27 3.63 27 7.26 27 11 C26.34 11 25.68 11 25 11 C25 12.65 25 14.3 25 16 C25.66 16 26.32 16 27 16 C27 19.63 27 23.26 27 27 C23.04 27 19.08 27 15 27 C15.33 26.34 15.66 25.68 16 25 C14.35 24.67 12.7 24.34 11 24 C11 23.34 11 22.68 11 22 C10.34 22 9.68 22 9 22 C6.875 20.1875 6.875 20.1875 5 18 C5 17.01 5 16.02 5 15 C4.34 15 3.68 15 3 15 C2.67 13.68 2.34 12.36 2 11 C1.01 11.495 1.01 11.495 0 12 C0 8.04 0 4.08 0 0 Z " fill="#4F6379" transform="translate(140,28)"/>
<path d="M0 0 C2.3203125 0.58984375 2.3203125 0.58984375 4.4453125 2.58984375 C5.64162259 6.69147834 6.16228727 10.36466126 5.3203125 14.58984375 C3.13872105 17.34553822 1.44853756 19.02573122 -1.6796875 20.58984375 C-4.5546875 20.90234375 -4.5546875 20.90234375 -7.6796875 20.58984375 C-8.2984375 19.90921875 -8.9171875 19.22859375 -9.5546875 18.52734375 C-11.44977699 16.37275152 -11.44977699 16.37275152 -13.703125 16.546875 C-15.70813778 16.81069247 -17.69666438 17.19323913 -19.6796875 17.58984375 C-19.6796875 12.30984375 -19.6796875 7.02984375 -19.6796875 1.58984375 C-16.6796875 1.58984375 -13.6796875 1.58984375 -10.6796875 1.58984375 C-6.76828324 -1.01775909 -4.53106667 -0.58784976 0 0 Z " fill="#9D9F9F" transform="translate(116.6796875,30.41015625)"/>
<path d="M0 0 C10.56 0 21.12 0 32 0 C32 3.96 32 7.92 32 12 C31 13 31 13 28.05859375 13.09765625 C26.26615234 13.08025391 26.26615234 13.08025391 24.4375 13.0625 C22.64119141 13.04896484 22.64119141 13.04896484 20.80859375 13.03515625 C19.88175781 13.02355469 18.95492187 13.01195312 18 13 C17.67 12.01 17.34 11.02 17 10 C11.39 10 5.78 10 0 10 C0 6.7 0 3.4 0 0 Z " fill="#968742" transform="translate(98,0)"/>
<path d="M0 0 C0.66 0 1.32 0 2 0 C2 3.63 2 7.26 2 11 C2.66 11 3.32 11 4 11 C4 8.03 4 5.06 4 2 C4.66 2 5.32 2 6 2 C6 4.64 6 7.28 6 10 C6.66 10 7.32 10 8 10 C8 8.35 8 6.7 8 5 C10.97 5.495 10.97 5.495 14 6 C14.05454409 8.35448675 14.0939279 10.70767875 14.125 13.0625 C14.14820312 14.37347656 14.17140625 15.68445313 14.1953125 17.03515625 C13.99417522 21.11824299 13.27165462 24.14999053 12 28 C8.37 28 4.74 28 1 28 C-0.34070318 25.39939496 -1.67273354 22.79495084 -3 20.1875 C-3.3815625 19.44951172 -3.763125 18.71152344 -4.15625 17.95117188 C-4.5171875 17.23896484 -4.878125 16.52675781 -5.25 15.79296875 C-5.58515625 15.1383667 -5.9203125 14.48376465 -6.265625 13.80932617 C-7 12 -7 12 -7 9 C-5.0625 9.375 -5.0625 9.375 -3 10 C-2.67 10.66 -2.34 11.32 -2 12 C-1.93941406 11.21753906 -1.87882812 10.43507813 -1.81640625 9.62890625 C-1.73261719 8.61699219 -1.64882813 7.60507813 -1.5625 6.5625 C-1.48128906 5.55316406 -1.40007813 4.54382813 -1.31640625 3.50390625 C-1 1 -1 1 0 0 Z " fill="#F6F6F6" transform="translate(18,80)"/>
<path d="M0 0 C10.23 0 20.46 0 31 0 C31 3.96 31 7.92 31 12 C30 13 30 13 27.05859375 13.09765625 C25.26615234 13.08025391 25.26615234 13.08025391 23.4375 13.0625 C21.64119141 13.04896484 21.64119141 13.04896484 19.80859375 13.03515625 C18.88175781 13.02355469 17.95492187 13.01195312 17 13 C16.67 11.68 16.34 10.36 16 9 C14.02 9 12.04 9 10 9 C10 9.99 10 10.98 10 12 C7.69 12 5.38 12 3 12 C3 11.34 3 10.68 3 10 C2.01 10 1.02 10 0 10 C0 6.7 0 3.4 0 0 Z " fill="#BE9D09" transform="translate(57,0)"/>
<path d="M0 0 C5.94 0 11.88 0 18 0 C18 4.29 18 8.58 18 13 C16.68 13 15.36 13 14 13 C14 14.98 14 16.96 14 19 C15.32 19 16.64 19 18 19 C18 20.65 18 22.3 18 24 C16.35 24 14.7 24 13 24 C13 22.68 13 21.36 13 20 C11.02 20 9.04 20 7 20 C7 21.32 7 22.64 7 24 C3.04 24 -0.92 24 -5 24 C-5.33 22.68 -5.66 21.36 -6 20 C-0.125 20.875 -0.125 20.875 1 22 C1.33 21.01 1.66 20.02 2 19 C3.32 19 4.64 19 6 19 C6 17.02 6 15.04 6 13 C4.68 13 3.36 13 2 13 C2 11.68 2 10.36 2 9 C1.34 9 0.68 9 0 9 C0 6.03 0 3.06 0 0 Z " fill="#E1E1E1" transform="translate(15,209)"/>
<path d="M0 0 C3.01333109 1.62256289 5.26132782 3.10074691 7.4375 5.75 C8.33375314 9.33501256 8.16003788 12.53361463 7 16 C4.02740178 19.48011499 1.54993673 21.29451122 -3 21.6875 C-7.00086658 21.39512898 -9.32398217 19.92216992 -11.92578125 16.9140625 C-13.92964514 13.34354139 -13.98993971 9.92362965 -13 6 C-9.08606917 1.05608737 -6.27104539 -0.60298513 0 0 Z " fill="#BDBDBD" transform="translate(28,122)"/>
<path d="M0 0 C3.0625 1.9375 3.0625 1.9375 5 5 C5.69022545 8.15450142 5.73034598 10.85038296 5 14 C2.10799895 17.65305395 -0.11040837 19.74232841 -4.75 20.375 C-8.25406902 19.97068434 -10.2017089 19.03458907 -12.79296875 16.62109375 C-15.01359596 13.63869798 -15.44888471 10.64807888 -15 7 C-11.31496208 0.01113498 -7.5633454 -1.10842131 0 0 Z " fill="#BEBEBE" transform="translate(75,31)"/>
<path d="M0 0 C3.0625 1.9375 3.0625 1.9375 5 5 C5.69022545 8.15450142 5.73034598 10.85038296 5 14 C2.10799895 17.65305395 -0.11040837 19.74232841 -4.75 20.375 C-8.25406902 19.97068434 -10.2017089 19.03458907 -12.79296875 16.62109375 C-15.01359596 13.63869798 -15.44888471 10.64807888 -15 7 C-11.31496208 0.01113498 -7.5633454 -1.10842131 0 0 Z " fill="#BCBCBC" transform="translate(33,31)"/>
<path d="M0 0 C8.25 0 16.5 0 25 0 C25 3.3 25 6.6 25 10 C21.02084841 10.02886984 17.04172347 10.04675406 13.0625 10.0625 C11.35803711 10.07506836 11.35803711 10.07506836 9.61914062 10.08789062 C8.53955078 10.09111328 7.45996094 10.09433594 6.34765625 10.09765625 C4.84730835 10.10551147 4.84730835 10.10551147 3.31665039 10.11352539 C1 10 1 10 0 9 C0 6.03 0 3.06 0 0 Z " fill="#778695" transform="translate(13,0)"/>
<path d="M0 0 C4.29 0 8.58 0 13 0 C13.66 1.98 14.32 3.96 15 6 C15.268125 6.639375 15.53625 7.27875 15.8125 7.9375 C16.12446777 11.36914548 14.47390193 13.93428398 13 17 C8.71 17 4.42 17 0 17 C0 11.39 0 5.78 0 0 Z " fill="#2F2F30" transform="translate(0,247)"/>
<path d="M0 0 C8.91 0 17.82 0 27 0 C26.67 2.97 26.34 5.94 26 9 C17.42 9 8.84 9 0 9 C0 6.03 0 3.06 0 0 Z " fill="#FBD84E" transform="translate(183,0)"/>
<path d="M0 0 C2.64 0 5.28 0 8 0 C7.34 1.65 6.68 3.3 6 5 C7.32 5.99 8.64 6.98 10 8 C11.32 7.34 12.64 6.68 14 6 C14 8.64 14 11.28 14 14 C13.01 14 12.02 14 11 14 C9.66018514 14.3062434 8.32488113 14.63451555 7 15 C7 15.99 7 16.98 7 18 C7 18.33 7 18.66 7 19 C-0.21804511 19.48120301 -0.21804511 19.48120301 -3.4375 17.5 C-5.63640725 13.98174839 -5.72498419 11.12523715 -6 7 C-4.35 7 -2.7 7 -1 7 C-0.31292445 4.50935112 0 2.62113708 0 0 Z " fill="#BCBCBD" transform="translate(150,31)"/>
<path d="M0 0 C3.3 0 6.6 0 10 0 C9.67 1.32 9.34 2.64 9 4 C12.39464446 6.08901197 15.04841529 6.34361606 19 6 C19.66 5.34 20.32 4.68 21 4 C22.32 4 23.64 4 25 4 C25.33 3.01 25.66 2.02 26 1 C26.40488369 5.12981363 26.39370285 7.36192987 24.1875 10.9375 C19.55281938 13.93641099 15.38005017 13.78831551 10 13 C7.125 11.4375 7.125 11.4375 5 10 C3.35 10.33 1.7 10.66 0 11 C0 7.37 0 3.74 0 0 Z " fill="#4373A7" transform="translate(180,45)"/>
<path d="M0 0 C2.125 0.375 2.125 0.375 4 1 C4.08894531 1.61230469 4.17789062 2.22460938 4.26953125 2.85546875 C5.20430187 5.59979533 6.12384901 6.04776551 8.6875 7.3125 C12.48747389 9.07579723 14.90065099 9.09982534 19 8 C20 9 20 9 20.0625 12.0625 C20.041875 13.031875 20.02125 14.00125 20 15 C17.59940183 16.20029908 16.10639351 16.11459743 13.4296875 16.09765625 C12.53378906 16.09443359 11.63789063 16.09121094 10.71484375 16.08789062 C9.77769531 16.07951172 8.84054688 16.07113281 7.875 16.0625 C6.93011719 16.05798828 5.98523438 16.05347656 5.01171875 16.04882812 C2.67441613 16.03702357 0.33723939 16.02055759 -2 16 C-1.4140625 13.52604167 -0.828125 11.05208333 -0.2421875 8.578125 C0.03088304 5.67124507 -0.46491972 4.43338652 -2 2 C-1.34 1.34 -0.68 0.68 0 0 Z " fill="#4A4947" transform="translate(15,248)"/>
<path d="M0 0 C4.48688461 0.6497775 8.47952553 2.46172782 12.5625 4.37109375 C12.5625 3.71109375 12.5625 3.05109375 12.5625 2.37109375 C13.2225 2.37109375 13.8825 2.37109375 14.5625 2.37109375 C14.5625 6.00109375 14.5625 9.63109375 14.5625 13.37109375 C11.5925 13.37109375 8.6225 13.37109375 5.5625 13.37109375 C5.8925 12.05109375 6.2225 10.73109375 6.5625 9.37109375 C1.53393045 6.35395202 -1.73361395 5.99706844 -7.4375 6.37109375 C-8.4275 6.70109375 -9.4175 7.03109375 -10.4375 7.37109375 C-9.3256925 0.92261023 -6.02421449 -0.16844021 0 0 Z " fill="#5B8CC2" transform="translate(191.4375,29.62890625)"/>
<path d="M0 0 C5.28 0 10.56 0 16 0 C16 2.97 16 5.94 16 9 C14.02 9 12.04 9 10 9 C10 9.99 10 10.98 10 12 C7.69 12 5.38 12 3 12 C3 11.34 3 10.68 3 10 C2.01 10 1.02 10 0 10 C0 6.7 0 3.4 0 0 Z " fill="#B9980C" transform="translate(57,0)"/>
<path d="M0 0 C9.13787316 0.1885865 9.13787316 0.1885865 12.125 3 C13.32131009 7.10163459 13.84197477 10.77481751 13 15 C10.81840855 17.75569447 9.12822506 19.43588747 6 21 C3 21.1875 3 21.1875 0 21 C-0.66 20.34 -1.32 19.68 -2 19 C0.31 19 2.62 19 5 19 C5 18.01 5 17.02 5 16 C4.01 16 3.02 16 2 16 C2 15.01 2 14.02 2 13 C2.66 13 3.32 13 4 13 C4 12.01 4 11.02 4 10 C3.34 10 2.68 10 2 10 C2 9.34 2 8.68 2 8 C2.99 8 3.98 8 5 8 C5 6.02 5 4.04 5 2 C3.35 1.67 1.7 1.34 0 1 C0 0.67 0 0.34 0 0 Z " fill="#B6B7B7" transform="translate(109,30)"/>
<path d="M0 0 C2.06132142 -0.10864945 4.12431321 -0.18588321 6.1875 -0.25 C7.33605469 -0.29640625 8.48460937 -0.3428125 9.66796875 -0.390625 C13.70878943 0.08309372 15.20686954 1.08284066 18 4 C18.66 5.65 19.32 7.3 20 9 C13.4 9 6.8 9 0 9 C0 6.03 0 3.06 0 0 Z " fill="#F9F9FA" transform="translate(143,0)"/>
<path d="M0 0 C10.53568235 7.71704525 10.53568235 7.71704525 15 12 C15 12.33 15 12.66 15 13 C13.35 13 11.7 13 10 13 C10.28875 13.54269531 10.5775 14.08539063 10.875 14.64453125 C11.431875 15.71767578 11.431875 15.71767578 12 16.8125 C12.556875 17.87404297 12.556875 17.87404297 13.125 18.95703125 C14 21 14 21 14 24 C10.24623848 22.74874616 9.75926711 21.4347596 8 18 C8 17.34 8 16.68 8 16 C6.02 16.99 4.04 17.98 2 19 C0.26044666 12.56986533 -0.24991456 6.65050424 0 0 Z " fill="#F4F4F4" transform="translate(14,169)"/>
<path d="M0 0 C0.66 0 1.32 0 2 0 C2 2.97 2 5.94 2 9 C8.6 9 15.2 9 22 9 C18.73918712 4.29737811 18.73918712 4.29737811 15 0 C19.95 0 24.9 0 30 0 C30 3.96 30 7.92 30 12 C28.35 12.33 26.7 12.66 25 13 C24.34 12.01 23.68 11.02 23 10 C20.57900645 9.5835465 20.57900645 9.5835465 17.7734375 9.70703125 C16.2265625 9.7215332 16.2265625 9.7215332 14.6484375 9.73632812 C13.56820312 9.76146484 12.48796875 9.78660156 11.375 9.8125 C10.28703125 9.82603516 9.1990625 9.83957031 8.078125 9.85351562 C5.38520709 9.88894876 2.69254259 9.94275697 0 10 C0 6.7 0 3.4 0 0 Z " fill="#B1A987" transform="translate(141,0)"/>
<path d="M0 0 C3.31248187 -0.02888146 6.62493167 -0.04675799 9.9375 -0.0625 C10.88302734 -0.07087891 11.82855469 -0.07925781 12.80273438 -0.08789062 C14.15141602 -0.09272461 14.15141602 -0.09272461 15.52734375 -0.09765625 C16.77632446 -0.10551147 16.77632446 -0.10551147 18.05053711 -0.11352539 C20 0 20 0 21 1 C21.09971786 2.91458282 21.13080589 4.83282317 21.1328125 6.75 C21.13474609 8.49796875 21.13474609 8.49796875 21.13671875 10.28125 C21.13285156 11.5084375 21.12898438 12.735625 21.125 14 C21.13080078 15.84078125 21.13080078 15.84078125 21.13671875 17.71875 C21.13542969 18.8840625 21.13414063 20.049375 21.1328125 21.25 C21.13168457 22.32765625 21.13055664 23.4053125 21.12939453 24.515625 C21 27 21 27 20 28 C18.21928754 28.08726223 16.4351686 28.10699041 14.65234375 28.09765625 C13.57275391 28.09443359 12.49316406 28.09121094 11.38085938 28.08789062 C10.24455078 28.07951172 9.10824219 28.07113281 7.9375 28.0625 C6.79732422 28.05798828 5.65714844 28.05347656 4.48242188 28.04882812 C1.65489649 28.03699747 -1.1725264 28.0205141 -4 28 C-4 27.67 -4 27.34 -4 27 C3.59 26.67 11.18 26.34 19 26 C19 24.35 19 22.7 19 21 C17.68 21 16.36 21 15 21 C15 19.02 15 17.04 15 15 C16.32 15 17.64 15 19 15 C19 10.38 19 5.76 19 1 C12.73 1 6.46 1 0 1 C0 0.67 0 0.34 0 0 Z " fill="#73797F" transform="translate(14,207)"/>
<path d="M0 0 C1.32 0.33 2.64 0.66 4 1 C4 2.32 4 3.64 4 5 C5.65 5.33 7.3 5.66 9 6 C8.67 7.32 8.34 8.64 8 10 C6.68 10 5.36 10 4 10 C3.87625 10.804375 3.7525 11.60875 3.625 12.4375 C3.41875 13.283125 3.2125 14.12875 3 15 C2.01 15.495 2.01 15.495 1 16 C0.34 15.67 -0.32 15.34 -1 15 C-1 13.35 -1 11.7 -1 10 C-2.65 9.67 -4.3 9.34 -6 9 C-6 8.01 -6 7.02 -6 6 C-4.35 5.67 -2.7 5.34 -1 5 C-0.67 3.35 -0.34 1.7 0 0 Z " fill="#6D8AA9" transform="translate(27,33)"/>
<path d="M0 0 C4.95 0 9.9 0 15 0 C15 2.64 15 5.28 15 8 C10.05 8 5.1 8 0 8 C0 5.36 0 2.72 0 0 Z " fill="#E7E7E7" transform="translate(17,1)"/>
<path d="M0 0 C3.63 0 7.26 0 11 0 C11 3.3 11 6.6 11 10 C3.28515625 10.09765625 3.28515625 10.09765625 1 10 C0 9 0 9 -0.09765625 6.93359375 C-0.06510417 4.62239583 -0.03255208 2.31119792 0 0 Z " fill="#DDDDDD" transform="translate(228,0)"/>
<path d="M0 0 C2.31 0 4.62 0 7 0 C7 4.62 7 9.24 7 14 C4.69 14 2.38 14 0 14 C0 9.38 0 4.76 0 0 Z " fill="#C2E0F4" transform="translate(232,33)"/>
<path d="M0 0 C1.33332095 2.6666419 0.67102033 4.16680303 0 7 C-0.99 7 -1.98 7 -3 7 C-3 7.66 -3 8.32 -3 9 C-2.34 9 -1.68 9 -1 9 C-1 9.99 -1 10.98 -1 12 C-1.66 12 -2.32 12 -3 12 C-3.33 12.66 -3.66 13.32 -4 14 C-4 10.7 -4 7.4 -4 4 C-5.65 4.66 -7.3 5.32 -9 6 C-9 6.66 -9 7.32 -9 8 C-8.34 8 -7.68 8 -7 8 C-7 9.65 -7 11.3 -7 13 C-8.32 13.33 -9.64 13.66 -11 14 C-11.47493725 9.15564006 -11.72418203 6.0436741 -8.875 1.9375 C-5.57683856 -0.28517401 -3.89503578 -0.45291114 0 0 Z " fill="#E2E3E3" transform="translate(114,31)"/>
<path d="M0 0 C3.17383489 0.42101891 5.59073361 1.63936972 8.296875 3.3046875 C7.203125 4.796875 7.203125 4.796875 5.296875 6.3046875 C2.265625 6.5625 2.265625 6.5625 -1.203125 6.4296875 C-6.03960893 6.23741478 -6.03960893 6.23741478 -10.703125 7.3046875 C-9.55996171 0.6743404 -6.13400349 -0.18041187 0 0 Z " fill="#8CAED4" transform="translate(191.703125,29.6953125)"/>
<path d="M0 0 C0.99 0.33 1.98 0.66 3 1 C3 7.6 3 14.2 3 21 C1.68 21 0.36 21 -1 21 C-1.02888146 17.68751813 -1.04675799 14.37506833 -1.0625 11.0625 C-1.07087891 10.11697266 -1.07925781 9.17144531 -1.08789062 8.19726562 C-1.09111328 7.29814453 -1.09433594 6.39902344 -1.09765625 5.47265625 C-1.10289307 4.64000244 -1.10812988 3.80734863 -1.11352539 2.94946289 C-1 1 -1 1 0 0 Z " fill="#E3E3E3" transform="translate(10,207)"/>
<path d="M0 0 C3.7952131 1.49097658 5.61042731 3.75700849 8 7 C6.68 7 5.36 7 4 7 C4 8.32 4 9.64 4 11 C2.02 11 0.04 11 -2 11 C-2 9.68 -2 8.36 -2 7 C-3.32 6.67 -4.64 6.34 -6 6 C-4.02 4.02 -2.04 2.04 0 0 Z " fill="#516983" transform="translate(24,210)"/>
<path d="M0 0 C2.31 0 4.62 0 7 0 C6.67257813 0.70511719 6.34515625 1.41023438 6.0078125 2.13671875 C4.91599278 5.23867167 4.79614604 7.54006053 4.875 10.8125 C4.89304687 11.78832031 4.91109375 12.76414062 4.9296875 13.76953125 C4.95289062 14.50558594 4.97609375 15.24164063 5 16 C3.35 16 1.7 16 0 16 C0 10.72 0 5.44 0 0 Z " fill="#E8E8E6" transform="translate(97,32)"/>
<path d="M0 0 C3.3 0 6.6 0 10 0 C8.25 6.75 8.25 6.75 6 9 C4.01643517 9.71408334 2.01684563 10.38617742 0 11 C0 7.37 0 3.74 0 0 Z " fill="#6F98C5" transform="translate(180,45)"/>
<path d="M0 0 C0.99 0 1.98 0 3 0 C2.67 2.31 2.34 4.62 2 7 C9.59 7 17.18 7 25 7 C25.33 5.35 25.66 3.7 26 2 C26.93423645 5.01031744 27.04449911 5.86650268 26 9 C17.42 9 8.84 9 0 9 C0 6.03 0 3.06 0 0 Z " fill="#B69E3C" transform="translate(183,0)"/>
<path d="M0 0 C0.66 0.33 1.32 0.66 2 1 C1.484375 2.11375 0.96875 3.2275 0.4375 4.375 C-0.036875 5.57125 -0.51125 6.7675 -1 8 C-0.67 8.66 -0.34 9.32 0 10 C2.02463255 10.65213292 2.02463255 10.65213292 4 11 C4 12.65 4 14.3 4 16 C6.475 16.99 6.475 16.99 9 18 C9 18.33 9 18.66 9 19 C4.95181889 19.48192632 3.2294197 19.13851755 -0.3125 17 C-3.18700807 14.32268773 -4.0109691 11.88353895 -4.25390625 8.00390625 C-3.81911331 4.57238656 -2.17480638 2.63612894 0 0 Z " fill="#B7B7B7" transform="translate(22,32)"/>
<path d="M0 0 C0.66 0 1.32 0 2 0 C2 1.98 2 3.96 2 6 C7.61 6 13.22 6 19 6 C19.33 6.99 19.66 7.98 20 9 C13.4 9 6.8 9 0 9 C0 6.03 0 3.06 0 0 Z " fill="#E3EAF9" transform="translate(143,0)"/>
<path d="M0 0 C1.08410156 0.00257812 2.16820313 0.00515625 3.28515625 0.0078125 C4.90744141 0.00394531 4.90744141 0.00394531 6.5625 0 C9.34765625 0.1328125 9.34765625 0.1328125 11.34765625 1.1328125 C11.01765625 2.4528125 10.68765625 3.7728125 10.34765625 5.1328125 C6.05765625 5.1328125 1.76765625 5.1328125 -2.65234375 5.1328125 C-2.98234375 3.8128125 -3.31234375 2.4928125 -3.65234375 1.1328125 C-2.65234375 0.1328125 -2.65234375 0.1328125 0 0 Z " fill="#6F8AA7" transform="translate(66.65234375,37.8671875)"/>
<path d="M0 0 C3 1 3 1 4.171875 2.7734375 C5.07592946 5.20414997 5.26729795 7.03895599 5.25 9.625 C5.25515625 10.40101562 5.2603125 11.17703125 5.265625 11.9765625 C5 14 5 14 3 16 C2.01 15.67 1.02 15.34 0 15 C0 12.69 0 10.38 0 8 C-0.66 8 -1.32 8 -2 8 C-1.34 6.68 -0.68 5.36 0 4 C0.66 4 1.32 4 2 4 C1.34 2.68 0.68 1.36 0 0 Z " fill="#969797" transform="translate(117,31)"/>
<path d="M0 0 C0.99 0 1.98 0 3 0 C3 1.98 3 3.96 3 6 C7.29 6 11.58 6 16 6 C16 6.99 16 7.98 16 9 C10.72 9 5.44 9 0 9 C0 6.03 0 3.06 0 0 Z " fill="#C2C2C2" transform="translate(99,0)"/>
<path d="M0 0 C1.98 0 3.96 0 6 0 C6.02686553 1.97909398 6.04633375 3.95828971 6.0625 5.9375 C6.07410156 7.03964844 6.08570313 8.14179688 6.09765625 9.27734375 C6 12 6 12 5 13 C3.00041636 13.04080783 0.99954746 13.04254356 -1 13 C-0.67 11.35 -0.34 9.7 0 8 C0.99 8 1.98 8 3 8 C2.7215625 7.0409375 2.7215625 7.0409375 2.4375 6.0625 C2.293125 5.381875 2.14875 4.70125 2 4 C2.33 3.67 2.66 3.34 3 3 C2.01 3 1.02 3 0 3 C0 2.01 0 1.02 0 0 Z " fill="#C3A10A" transform="translate(124,0)"/>
<path d="M0 0 C1.98 0 3.96 0 6 0 C6.02686553 1.97909398 6.04633375 3.95828971 6.0625 5.9375 C6.07410156 7.03964844 6.08570312 8.14179688 6.09765625 9.27734375 C6 12 6 12 5 13 C3.00041636 13.04080783 0.99954746 13.04254356 -1 13 C-0.67 11.35 -0.34 9.7 0 8 C0.99 8 1.98 8 3 8 C2.7215625 7.0409375 2.7215625 7.0409375 2.4375 6.0625 C2.293125 5.381875 2.14875 4.70125 2 4 C2.33 3.67 2.66 3.34 3 3 C2.01 3 1.02 3 0 3 C0 2.01 0 1.02 0 0 Z " fill="#C3A10A" transform="translate(82,0)"/>
<path d="M0 0 C1.47906892 -0.02689216 2.95827483 -0.04634621 4.4375 -0.0625 C5.26121094 -0.07410156 6.08492187 -0.08570312 6.93359375 -0.09765625 C9 0 9 0 10 1 C10.04080783 2.99958364 10.04254356 5.00045254 10 7 C6.26562152 7.87867729 2.83225427 8.08912219 -1 8 C0.32 5.69 1.64 3.38 3 1 C2.01 0.67 1.02 0.34 0 0 Z " fill="#6F716C" transform="translate(142,71)"/>
<path d="M0 0 C1.98 0 3.96 0 6 0 C6.93423645 3.01031744 7.04449911 3.86650268 6 7 C5.34 7 4.68 7 4 7 C4 8.32 4 9.64 4 11 C2.68 11 1.36 11 0 11 C0 7.37 0 3.74 0 0 Z " fill="#696B68" transform="translate(49,213)"/>
<path d="M0 0 C0.66 0 1.32 0 2 0 C2 0.99 2 1.98 2 3 C3.32 2.67 4.64 2.34 6 2 C6 2.66 6 3.32 6 4 C5.34 4 4.68 4 4 4 C4.66 5.65 5.32 7.3 6 9 C4.68 9 3.36 9 2 9 C1.01 10.485 1.01 10.485 0 12 C-0.33 11.01 -0.66 10.02 -1 9 C-3.01508358 8.26676204 -3.01508358 8.26676204 -5 8 C-4.34 6.68 -3.68 5.36 -3 4 C-3.66 4 -4.32 4 -5 4 C-5 3.34 -5 2.68 -5 2 C-2.525 2.495 -2.525 2.495 0 3 C0 2.01 0 1.02 0 0 Z " fill="#F7F7E9" transform="translate(122,0)"/>
<path d="M0 0 C0.66 0 1.32 0 2 0 C2 0.99 2 1.98 2 3 C3.32 2.67 4.64 2.34 6 2 C6 2.66 6 3.32 6 4 C5.34 4 4.68 4 4 4 C4.66 5.65 5.32 7.3 6 9 C4.68 9 3.36 9 2 9 C1.01 10.485 1.01 10.485 0 12 C-0.33 11.01 -0.66 10.02 -1 9 C-3.01508358 8.26676204 -3.01508358 8.26676204 -5 8 C-4.34 6.68 -3.68 5.36 -3 4 C-3.66 4 -4.32 4 -5 4 C-5 3.34 -5 2.68 -5 2 C-2.525 2.495 -2.525 2.495 0 3 C0 2.01 0 1.02 0 0 Z " fill="#F7F7E9" transform="translate(80,0)"/>
<path d="M0 0 C3.96 0 7.92 0 12 0 C12 1.65 12 3.3 12 5 C8.04 5 4.08 5 0 5 C0 3.35 0 1.7 0 0 Z " fill="#E9EEF8" transform="translate(103,0)"/>
<path d="M0 0 C0.62261719 0.15339844 1.24523438 0.30679688 1.88671875 0.46484375 C6.18274772 1.20330795 10.46241952 1.36462162 14.8125 1.5625 C15.69615234 1.60568359 16.57980469 1.64886719 17.49023438 1.69335938 C19.65999623 1.79891536 21.8299791 1.89991071 24 2 C24 2.33 24 2.66 24 3 C18.06 3 12.12 3 6 3 C6 5.97 6 8.94 6 12 C6.66 12.33 7.32 12.66 8 13 C7.01 13.495 7.01 13.495 6 14 C5.59270772 16.32156597 5.25561323 18.6568787 5 21 C4.67 21 4.34 21 4 21 C3.98541748 20.43490723 3.97083496 19.86981445 3.95581055 19.28759766 C3.88143942 16.73269981 3.78474758 14.17912502 3.6875 11.625 C3.66494141 10.73554688 3.64238281 9.84609375 3.61914062 8.9296875 C3.58369141 8.07890625 3.54824219 7.228125 3.51171875 6.3515625 C3.48553467 5.56604004 3.45935059 4.78051758 3.43237305 3.97119141 C3.15110403 1.59959844 3.15110403 1.59959844 0 0 Z " fill="#9F9FA0" transform="translate(9,206)"/>
<path d="M0 0 C0.66 0 1.32 0 2 0 C2.66 1.32 3.32 2.64 4 4 C1.36 6.64 -1.28 9.28 -4 12 C-5.32 10.68 -6.64 9.36 -8 8 C-6.50260417 6.79557292 -5.00520833 5.59114583 -3.5078125 4.38671875 C-1.74707893 2.87729455 -1.74707893 2.87729455 0 0 Z " fill="#5D594D" transform="translate(13,141)"/>
<path d="M0 0 C1.98 0 3.96 0 6 0 C6 2.97 6 5.94 6 9 C4.02 9 2.04 9 0 9 C0 6.03 0 3.06 0 0 Z " fill="#FFFFFF" transform="translate(67,0)"/>
<path d="M0 0 C0.721875 0.12375 1.44375 0.2475 2.1875 0.375 C2.1875 1.365 2.1875 2.355 2.1875 3.375 C1.40375 3.54 0.62 3.705 -0.1875 3.875 C-2.9218471 5.07896899 -2.9218471 5.07896899 -3.58984375 7.2890625 C-4.07663052 9.30016699 -4.45103255 11.337638 -4.8125 13.375 C-5.8025 13.375 -6.7925 13.375 -7.8125 13.375 C-8.23570237 9.14297628 -8.21611534 6.33024165 -5.625 2.9375 C-2.8125 0.375 -2.8125 0.375 0 0 Z " fill="#E7E8E8" transform="translate(24.8125,122.625)"/>
<path d="M0 0 C0.969375 0.165 1.93875 0.33 2.9375 0.5 C5.9052331 1.29133785 5.9052331 1.29133785 8 0 C8 2.64 8 5.28 8 8 C5.36 8 2.72 8 0 8 C0.20625 7.401875 0.4125 6.80375 0.625 6.1875 C1.30671915 3.71549154 1.30671915 3.71549154 -1 1 C-0.67 0.67 -0.34 0.34 0 0 Z " fill="#6891BC" transform="translate(158,46)"/>
<path d="M0 0 C2.33294775 -0.04241723 4.66702567 -0.04092937 7 0 C8 1 8 1 8.0625 4.5625 C8.041875 5.696875 8.02125 6.83125 8 8 C7.401875 7.79375 6.80375 7.5875 6.1875 7.375 C3.71549154 6.69328085 3.71549154 6.69328085 1 9 C0.34 8.01 -0.32 7.02 -1 6 C-0.649375 5.38125 -0.29875 4.7625 0.0625 4.125 C0.371875 3.42375 0.68125 2.7225 1 2 C0.67 1.34 0.34 0.68 0 0 Z " fill="#6890BB" transform="translate(158,29)"/>
<path d="M0 0 C2.64 0 5.28 0 8 0 C7.814375 0.5775 7.62875 1.155 7.4375 1.75 C6.95976454 4.20692525 7.24270636 5.64397534 8 8 C5.33333333 8 2.66666667 8 0 8 C0 5.36 0 2.72 0 0 Z " fill="#6891BC" transform="translate(141,29)"/>
<path d="M0 0 C3.63 0 7.26 0 11 0 C11 0.33 11 0.66 11 1 C8.69 1 6.38 1 4 1 C4 3.64 4 6.28 4 9 C6.31 9 8.62 9 11 9 C11 9.33 11 9.66 11 10 C9.35425434 10.02688151 7.70838587 10.04634123 6.0625 10.0625 C5.14597656 10.07410156 4.22945312 10.08570313 3.28515625 10.09765625 C1 10 1 10 0 9 C-0.14193337 5.99668982 -0.04236378 3.00782866 0 0 Z " fill="#728FAD" transform="translate(228,0)"/>
<path d="M0 0 C0.0270043 1.45823212 0.04639787 2.91660675 0.0625 4.375 C0.07410156 5.18710938 0.08570312 5.99921875 0.09765625 6.8359375 C0 9 0 9 -1 11 C-2.65 10.67 -4.3 10.34 -6 10 C-6 8.02 -6 6.04 -6 4 C-5.01 4 -4.02 4 -3 4 C-3 3.34 -3 2.68 -3 2 C-3.99 1.67 -4.98 1.34 -6 1 C-3 0 -3 0 0 0 Z " fill="#EDD058" transform="translate(67,0)"/>
<path d="M0 0 C1.39448173 2.73343101 2.66338777 5.49374924 3.875 8.3125 C4.23078125 9.09238281 4.5865625 9.87226562 4.953125 10.67578125 C5.60995497 12.13404182 6.23074324 13.60965983 6.796875 15.10546875 C7.66652371 17.31414839 7.66652371 17.31414839 10 20 C13.34643373 20.88147387 16.54965492 21.0460924 20 21 C20 21.33 20 21.66 20 22 C16.04 22 12.08 22 8 22 C6.67997444 19.44113496 5.36886218 16.87832932 4.0625 14.3125 C3.68931641 13.59126953 3.31613281 12.87003906 2.93164062 12.12695312 C-0.63188992 5.09620367 -0.63188992 5.09620367 -1 1 C-0.67 0.67 -0.34 0.34 0 0 Z " fill="#A1A1A1" transform="translate(9,89)"/>
<path d="M0 0 C1.98 0 3.96 0 6 0 C6 1.32 6 2.64 6 4 C6.99 4.33 7.98 4.66 9 5 C1.74 5 -5.52 5 -13 5 C-13.33 4.34 -13.66 3.68 -14 3 C-7.07 3.495 -7.07 3.495 0 4 C0 2.68 0 1.36 0 0 Z " fill="#7B8997" transform="translate(22,229)"/>
<path d="M0 0 C0.66 0 1.32 0 2 0 C2 3.63 2 7.26 2 11 C-1.96 11 -5.92 11 -10 11 C-9.67 10.34 -9.34 9.68 -9 9 C-10.65 8.67 -12.3 8.34 -14 8 C-14 7.67 -14 7.34 -14 7 C-9.545 6.505 -9.545 6.505 -5 6 C-5.33 6.99 -5.66 7.98 -6 9 C-3.69 9.33 -1.38 9.66 1 10 C0.67 6.7 0.34 3.4 0 0 Z " fill="#415A75" transform="translate(165,44)"/>
<path d="M0 0 C3.625 -0.1875 3.625 -0.1875 7 0 C5.55193761 4.34418718 2.61138436 5.17253236 -1.3125 7.1875 C-1.869375 7.455625 -2.42625 7.72375 -3 8 C-2.45276317 4.62537285 -1.9451 2.91765 0 0 Z " fill="#E1E3E3" transform="translate(66,31)"/>
<path d="M0 0 C0.66 0 1.32 0 2 0 C2 3.96 2 7.92 2 12 C0.35 12.33 -1.3 12.66 -3 13 C-2.67 12.21625 -2.34 11.4325 -2 10.625 C-0.88133489 8.15667503 -0.88133489 8.15667503 -1 6 C-1.63474075 4.65117592 -2.29848848 3.3153341 -3 2 C-2.01 2.495 -2.01 2.495 -1 3 C-0.67 2.01 -0.34 1.02 0 0 Z " fill="#787465" transform="translate(169,0)"/>
<path d="M0 0 C3.625 -0.1875 3.625 -0.1875 7 0 C7 0.66 7 1.32 7 2 C5.68 2.33 4.36 2.66 3 3 C2.67 4.32 2.34 5.64 2 7 C0.35 7.33 -1.3 7.66 -3 8 C-2.45276317 4.62537285 -1.9451 2.91765 0 0 Z " fill="#DEDFDF" transform="translate(24,31)"/>
<path d="M0 0 C1.98 0 3.96 0 6 0 C6 1.98 6 3.96 6 6 C4.02 6 2.04 6 0 6 C0 4.02 0 2.04 0 0 Z " fill="#7C7C7C" transform="translate(7,184)"/>
<path d="M0 0 C3.3 0 6.6 0 10 0 C8.515 1.485 8.515 1.485 7 3 C7 2.34 7 1.68 7 1 C5.35 1 3.7 1 2 1 C2 2.98 2 4.96 2 7 C2.66 7.33 3.32 7.66 4 8 C2.68 8.99 1.36 9.98 0 11 C0 7.37 0 3.74 0 0 Z " fill="#80A4CD" transform="translate(180,45)"/>
<path d="M0 0 C3.36704285 -0.2295711 5.41370268 -0.33943529 8.375 1.375 C8.91125 1.91125 9.4475 2.4475 10 3 C10 5 10 5 7.6875 7.625 C5 10 5 10 2 10 C2 9.34 2 8.68 2 8 C2.99 8 3.98 8 5 8 C5 6.02 5 4.04 5 2 C3.35 1.67 1.7 1.34 0 1 C0 0.67 0 0.34 0 0 Z " fill="#A6A7A7" transform="translate(109,30)"/>
<path d="M0 0 C2.125 0.375 2.125 0.375 4 1 C4 2.98 4 4.96 4 7 C2.68 7.33 1.36 7.66 0 8 C-0.66 6.02 -1.32 4.04 -2 2 C-1.34 1.34 -0.68 0.68 0 0 Z " fill="#467FD3" transform="translate(31,256)"/>
<path d="M0 0 C0.99 0.495 0.99 0.495 2 1 C2.66 0.67 3.32 0.34 4 0 C6.6723621 -0.13415472 9.32250488 -0.04318541 12 0 C12 0.33 12 0.66 12 1 C10.824375 1.1546875 10.824375 1.1546875 9.625 1.3125 C6.66954819 1.77595022 6.66954819 1.77595022 5 5 C3.68 5 2.36 5 1 5 C0.67 5.66 0.34 6.32 0 7 C0 4.69 0 2.38 0 0 Z " fill="#416797" transform="translate(180,35)"/>
<path d="M0 0 C2.64 0 5.28 0 8 0 C8 1.65 8 3.3 8 5 C6.02 5 4.04 5 2 5 C2 3.68 2 2.36 2 1 C1.34 0.67 0.68 0.34 0 0 Z " fill="#828282" transform="translate(24,166)"/>
<path d="M0 0 C2.31 0 4.62 0 7 0 C7 0.99 7 1.98 7 3 C5.35 2.67 3.7 2.34 2 2 C2 2.66 2 3.32 2 4 C2.66 4 3.32 4 4 4 C4 4.66 4 5.32 4 6 C3.01 6 2.02 6 1 6 C0.67 6.99 0.34 7.98 0 9 C0 6.03 0 3.06 0 0 Z " fill="#D2B844" transform="translate(73,0)"/>
<path d="M0 0 C0.99 0 1.98 0 3 0 C3 3.3 3 6.6 3 10 C2.01 10 1.02 10 0 10 C0 6.7 0 3.4 0 0 Z " fill="#A3A3A3" transform="translate(57,0)"/>
<path d="M0 0 C2.0625 0.4375 2.0625 0.4375 4 1 C3.67 2.65 3.34 4.3 3 6 C1.68 5.67 0.36 5.34 -1 5 C-1 1 -1 1 0 0 Z " fill="#2A7BF6" transform="translate(15,248)"/>
<path d="M0 0 C3.875 1.75 3.875 1.75 5 4 C4.01 4 3.02 4 2 4 C2 5.32 2 6.64 2 8 C1.34 8 0.68 8 0 8 C0 6.68 0 5.36 0 4 C-0.99 3.67 -1.98 3.34 -3 3 C-2.01 2.01 -1.02 1.02 0 0 Z " fill="#6891BC" transform="translate(24,212)"/>
<path d="M0 0 C2.31 0 4.62 0 7 0 C7 0.99 7 1.98 7 3 C5.35 2.67 3.7 2.34 2 2 C2 2.66 2 3.32 2 4 C2.66 4 3.32 4 4 4 C4 4.66 4 5.32 4 6 C2.68 5.67 1.36 5.34 0 5 C0 3.35 0 1.7 0 0 Z " fill="#D2B842" transform="translate(115,0)"/>
<path d="M0 0 C1.65 0 3.3 0 5 0 C5.33 0.66 5.66 1.32 6 2 C5.34 2 4.68 2 4 2 C4 3.32 4 4.64 4 6 C2.68 6 1.36 6 0 6 C0 4.02 0 2.04 0 0 Z " fill="#625B5A" transform="translate(49,218)"/>
<path d="M0 0 C2.05078125 0.03255208 4.1015625 0.06510417 6.15234375 0.09765625 C5.82234375 1.08765625 5.49234375 2.07765625 5.15234375 3.09765625 C3.17234375 3.42765625 1.19234375 3.75765625 -0.84765625 4.09765625 C-1.50765625 3.10765625 -2.16765625 2.11765625 -2.84765625 1.09765625 C-1.84765625 0.09765625 -1.84765625 0.09765625 0 0 Z " fill="#D8D9DA" transform="translate(151.84765625,30.90234375)"/>
<path d="M0 0 C0.99 0 1.98 0 3 0 C3 2.97 3 5.94 3 9 C2.01 9 1.02 9 0 9 C0 6.03 0 3.06 0 0 Z " fill="#6D97C4" transform="translate(34,0)"/>
<path d="M0 0 C0.99 0 1.98 0 3 0 C3 2.97 3 5.94 3 9 C2.01 9 1.02 9 0 9 C0 6.03 0 3.06 0 0 Z " fill="#6D97C4" transform="translate(13,0)"/>
<path d="M0 0 C0.99 0.495 0.99 0.495 2 1 C2 1.99 2 2.98 2 4 C3.32 4 4.64 4 6 4 C6 4.66 6 5.32 6 6 C4.68 6 3.36 6 2 6 C1.67 7.32 1.34 8.64 1 10 C0.67 10 0.34 10 0 10 C0 6.7 0 3.4 0 0 Z " fill="#6B8CB0" transform="translate(14,220)"/>
<path d="M0 0 C0.99 0.33 1.98 0.66 3 1 C1.02 3.31 -0.96 5.62 -3 8 C-3.66 7.67 -4.32 7.34 -5 7 C-3.70700306 4.11562221 -2.34058637 2.12780579 0 0 Z " fill="#EAC962" transform="translate(12,143)"/>
<path d="M0 0 C-0.54087318 3.78611227 -2.11722332 5.55400767 -5 8 C-5.66 8 -6.32 8 -7 8 C-6.44414399 4.1090079 -4.34122117 0 0 0 Z " fill="#E1C162" transform="translate(144,50)"/>
<path d="M0 0 C-0.54087318 3.78611227 -2.11722332 5.55400767 -5 8 C-5.66 8 -6.32 8 -7 8 C-6.44414399 4.1090079 -4.34122117 0 0 0 Z " fill="#E1C162" transform="translate(102,50)"/>
<path d="M0 0 C-0.54087318 3.78611227 -2.11722332 5.55400767 -5 8 C-5.66 8 -6.32 8 -7 8 C-6.44414399 4.1090079 -4.34122117 0 0 0 Z " fill="#E1C262" transform="translate(60,50)"/>
<path d="M0 0 C-0.54087318 3.78611227 -2.11722332 5.55400767 -5 8 C-5.66 8 -6.32 8 -7 8 C-6.44414399 4.1090079 -4.34122117 0 0 0 Z " fill="#E1C262" transform="translate(18,50)"/>
<path d="M0 0 C5 6.59090909 5 6.59090909 5 10 C2 9 2 9 0.25 6.6875 C-1 4 -1 4 -0.6875 1.6875 C-0.460625 1.130625 -0.23375 0.57375 0 0 Z " fill="#E1E1E1" transform="translate(23,183)"/>
<path d="M0 0 C1.98 0 3.96 0 6 0 C6 0.99 6 1.98 6 3 C3.69 3.33 1.38 3.66 -1 4 C-0.67 2.68 -0.34 1.36 0 0 Z " fill="#ECEEED" transform="translate(108,31)"/>
<path d="M0 0 C0.66 0 1.32 0 2 0 C2 0.99 2 1.98 2 3 C1.34 3 0.68 3 0 3 C0 2.01 0 1.02 0 0 Z M-5 2 C-2.69 2.66 -0.38 3.32 2 4 C2 4.99 2 5.98 2 7 C0.35 7 -1.3 7 -3 7 C-3 6.01 -3 5.02 -3 4 C-3.66 4 -4.32 4 -5 4 C-5 3.34 -5 2.68 -5 2 Z " fill="#EAE2B1" transform="translate(122,0)"/>
<path d="M0 0 C0.66 0 1.32 0 2 0 C2 0.99 2 1.98 2 3 C1.34 3 0.68 3 0 3 C0 2.01 0 1.02 0 0 Z M-5 2 C-2.69 2.66 -0.38 3.32 2 4 C2 4.99 2 5.98 2 7 C0.35 7 -1.3 7 -3 7 C-3 6.01 -3 5.02 -3 4 C-3.66 4 -4.32 4 -5 4 C-5 3.34 -5 2.68 -5 2 Z " fill="#EAE2B1" transform="translate(80,0)"/>
<path d="M0 0 C2.475 0.495 2.475 0.495 5 1 C5 2.98 5 4.96 5 7 C4.01 7 3.02 7 2 7 C2 4 2 4 3 3 C2.01 3 1.02 3 0 3 C0 2.01 0 1.02 0 0 Z " fill="#D3B943" transform="translate(124,0)"/>
<path d="M0 0 C2.475 0.495 2.475 0.495 5 1 C5 2.98 5 4.96 5 7 C4.01 7 3.02 7 2 7 C2 4 2 4 3 3 C2.01 3 1.02 3 0 3 C0 2.01 0 1.02 0 0 Z " fill="#D0B847" transform="translate(82,0)"/>
<path d="M0 0 C1.32 0 2.64 0 4 0 C4 1.98 4 3.96 4 6 C2.68 6 1.36 6 0 6 C0 4.02 0 2.04 0 0 Z " fill="#546A82" transform="translate(234,2)"/>
<path d="M0 0 C1.32 0 2.64 0 4 0 C4 1.98 4 3.96 4 6 C2.68 6 1.36 6 0 6 C0 4.02 0 2.04 0 0 Z " fill="#546A82" transform="translate(19,2)"/>
<path d="M0 0 C0.66 0.33 1.32 0.66 2 1 C1.525625 1.9075 1.05125 2.815 0.5625 3.75 C-0.64628821 6.26427949 -1.47993886 8.29568209 -2 11 C-2.66 11 -3.32 11 -4 11 C-3.56179109 6.44262737 -3.14958831 3.42346555 0 0 Z " fill="#B2B2B2" transform="translate(64,32)"/>
<path d="M0 0 C2.3773161 2.3773161 2.67028521 3.70285207 3 7 C2.34 7.66 1.68 8.32 1 9 C-1.625 8.625 -1.625 8.625 -4 8 C-3.34 7.34 -2.68 6.68 -2 6 C-1.34 6.33 -0.68 6.66 0 7 C-0.185625 6.030625 -0.37125 5.06125 -0.5625 4.0625 C-0.706875 3.051875 -0.85125 2.04125 -1 1 C-0.67 0.67 -0.34 0.34 0 0 Z " fill="#526880" transform="translate(148,30)"/>
<path d="M0 0 C2.97 0.495 2.97 0.495 6 1 C6.33 1.99 6.66 2.98 7 4 C5.02 4 3.04 4 1 4 C0.67 2.68 0.34 1.36 0 0 Z " fill="#BFBFC0" transform="translate(9,229)"/>
<path d="M0 0 C2 3 2 3 3 6 C3.66 6.33 4.32 6.66 5 7 C4.34 7.66 3.68 8.32 3 9 C2.01 9 1.02 9 0 9 C0 6.03 0 3.06 0 0 Z " fill="#1D1D1D" transform="translate(14,181)"/>
<path d="M0 0 C1.32 0.33 2.64 0.66 4 1 C4 2.32 4 3.64 4 5 C2.68 5 1.36 5 0 5 C0 3.35 0 1.7 0 0 Z " fill="#9A9A9A" transform="translate(8,166)"/>
<path d="M0 0 C-0.33 1.65 -0.66 3.3 -1 5 C-2.32 4.67 -3.64 4.34 -5 4 C-4.67 3.67 -4.34 3.34 -4 3 C-5.65 2.67 -7.3 2.34 -9 2 C-9 1.67 -9 1.34 -9 1 C-2.25 0 -2.25 0 0 0 Z " fill="#445465" transform="translate(160,50)"/>
<path d="M0 0 C1.98 0 3.96 0 6 0 C6 0.99 6 1.98 6 3 C4.02 3 2.04 3 0 3 C0 2.01 0 1.02 0 0 Z " fill="#41484A" transform="translate(50,120)"/>
<path d="M0 0 C0.99 0 1.98 0 3 0 C3 1.98 3 3.96 3 6 C2.01 6 1.02 6 0 6 C0 4.02 0 2.04 0 0 Z " fill="#5C5A51" transform="translate(153,72)"/>
<path d="M0 0 C1.98 0 3.96 0 6 0 C6 0.99 6 1.98 6 3 C4.02 3 2.04 3 0 3 C0 2.01 0 1.02 0 0 Z " fill="#E3EAFA" transform="translate(67,6)"/>
<path d="M0 0 C2.97 0 5.94 0 9 0 C7.35 1.32 5.7 2.64 4 4 C2.68 2.68 1.36 1.36 0 0 Z " fill="#5E5A4A" transform="translate(156,0)"/>
<path d="M0 0 C0 1.65 0 3.3 0 5 C-1.32 5 -2.64 5 -4 5 C-4 4.01 -4 3.02 -4 2 C-1 0 -1 0 0 0 Z " fill="#E1E3E3" transform="translate(150,38)"/>
<path d="M0 0 C-0.33 2.64 -0.66 5.28 -1 8 C-1.66 6.68 -2.32 5.36 -3 4 C-3.99 4.495 -3.99 4.495 -5 5 C-5 4.01 -5 3.02 -5 2 C-2 0 -2 0 0 0 Z " fill="#445465" transform="translate(145,35)"/>
<path d="M0 0 C0.66 0 1.32 0 2 0 C2 3.3 2 6.6 2 10 C1.67 10 1.34 10 1 10 C1 7.69 1 5.38 1 3 C0.01 3.33 -0.98 3.66 -2 4 C-1.34 2.68 -0.68 1.36 0 0 Z " fill="#373D3F" transform="translate(117,35)"/>
</svg>
