<?xml version="1.0" encoding="UTF-8"?>
<svg version="1.1" xmlns="http://www.w3.org/2000/svg" width="389" height="117">
<path d="M0 0 C128.37 0 256.74 0 389 0 C389 38.61 389 77.22 389 117 C260.63 117 132.26 117 0 117 C0 78.39 0 39.78 0 0 Z " fill="#343434" transform="translate(0,0)"/>
<path d="M0 0 C49.83 0 99.66 0 151 0 C151 6.6 151 13.2 151 20 C101.17 20 51.34 20 0 20 C0 13.4 0 6.8 0 0 Z " fill="#252526" transform="translate(179,96)"/>
<path d="M0 0 C49.83 0 99.66 0 151 0 C151 6.6 151 13.2 151 20 C101.17 20 51.34 20 0 20 C0 13.4 0 6.8 0 0 Z " fill="#242425" transform="translate(179,64)"/>
<path d="M0 0 C49.83 0 99.66 0 151 0 C151 6.6 151 13.2 151 20 C101.17 20 51.34 20 0 20 C0 13.4 0 6.8 0 0 Z " fill="#252525" transform="translate(179,0)"/>
<path d="M0 0 C47.52 0 95.04 0 144 0 C144 14.52 144 29.04 144 44 C96.48 44 48.96 44 0 44 C0 29.48 0 14.96 0 0 Z M5 5 C5 16.22 5 27.44 5 39 C49.22 39 93.44 39 139 39 C139 27.78 139 16.56 139 5 C94.78 5 50.56 5 5 5 Z " fill="#ED1C24" transform="translate(5,53)"/>
<path d="M0 0 C5.28 0 10.56 0 16 0 C16 5.94 16 11.88 16 18 C10.72 18 5.44 18 0 18 C0 12.06 0 6.12 0 0 Z " fill="#575757" transform="translate(313,97)"/>
<path d="M0 0 C5.28 0 10.56 0 16 0 C16 5.94 16 11.88 16 18 C10.72 18 5.44 18 0 18 C0 12.06 0 6.12 0 0 Z " fill="#575757" transform="translate(313,65)"/>
<path d="M0 0 C5.28 0 10.56 0 16 0 C16 5.94 16 11.88 16 18 C10.72 18 5.44 18 0 18 C0 12.06 0 6.12 0 0 Z " fill="#575757" transform="translate(313,1)"/>
<path d="M0 0 C2.5 1.5 2.5 1.5 4 4 C4.79669284 8.04985528 4.64099302 10.97441116 2.4375 14.5 C-0.96381375 16.59311615 -3.07072743 16.55147685 -7 16 C-9.9375 14.5 -9.9375 14.5 -12 12 C-12.9352036 7.99667231 -12.61385602 5.02309336 -10.5 1.5 C-6.96411027 -0.62153384 -4.02098277 -0.791013 0 0 Z " fill="#0F6901" transform="translate(37,66)"/>
<path d="M0 0 C2.0625 1.5625 2.0625 1.5625 3 4 C3.17821261 6.85140177 2.92914963 9.292848 2 12 C-0.93837168 14.85194898 -2.53597436 15 -6.625 15 C-10 14 -10 14 -12 11.875 C-13.30782688 8.11499772 -13.06090617 5.81926223 -12 2 C-8.81688665 -2.07438508 -4.54417813 -1.38635943 0 0 Z " fill="#525252" transform="translate(38,35)"/>
<path d="M0 0 C3.63 0 7.26 0 11 0 C11 4.62 11 9.24 11 14 C7.37 14 3.74 14 0 14 C-2.49026498 7.77433756 -2.49026498 6.22566244 0 0 Z " fill="#B4B5B4" transform="translate(346,99)"/>
<path d="M0 0 C3.63 0 7.26 0 11 0 C11 4.62 11 9.24 11 14 C7.37 14 3.74 14 0 14 C-2.49026498 7.77433756 -2.49026498 6.22566244 0 0 Z " fill="#B4B5B4" transform="translate(346,67)"/>
<path d="M0 0 C3.63 0 7.26 0 11 0 C11 4.62 11 9.24 11 14 C7.37 14 3.74 14 0 14 C-2.49026498 7.77433756 -2.49026498 6.22566244 0 0 Z " fill="#5E5D58" transform="translate(346,35)"/>
<path d="M0 0 C3.63 0 7.26 0 11 0 C11 4.62 11 9.24 11 14 C7.37 14 3.74 14 0 14 C-2.49026498 7.77433756 -2.49026498 6.22566244 0 0 Z " fill="#B4B5B4" transform="translate(346,3)"/>
<path d="M0 0 C2.57161458 0.03255208 5.14322917 0.06510417 7.71484375 0.09765625 C7.71484375 3.39765625 7.71484375 6.69765625 7.71484375 10.09765625 C0.1953125 10.48828125 0.1953125 10.48828125 -2.28515625 10.09765625 C-4.15625 8.25 -4.15625 8.25 -5.28515625 6.09765625 C-3.62673742 0.15498878 -3.62673742 0.15498878 0 0 Z " fill="#9E9E9E" transform="translate(293.28515625,100.90234375)"/>
<path d="M0 0 C2.57161458 0.03255208 5.14322917 0.06510417 7.71484375 0.09765625 C7.71484375 3.39765625 7.71484375 6.69765625 7.71484375 10.09765625 C0.1953125 10.48828125 0.1953125 10.48828125 -2.28515625 10.09765625 C-4.15625 8.25 -4.15625 8.25 -5.28515625 6.09765625 C-3.62673742 0.15498878 -3.62673742 0.15498878 0 0 Z " fill="#9E9E9E" transform="translate(293.28515625,68.90234375)"/>
<path d="M0 0 C2.57161458 0.03255208 5.14322917 0.06510417 7.71484375 0.09765625 C7.71484375 3.39765625 7.71484375 6.69765625 7.71484375 10.09765625 C0.1953125 10.48828125 0.1953125 10.48828125 -2.28515625 10.09765625 C-4.15625 8.25 -4.15625 8.25 -5.28515625 6.09765625 C-3.62673742 0.15498878 -3.62673742 0.15498878 0 0 Z " fill="#9E9E9E" transform="translate(293.28515625,4.90234375)"/>
<path d="M0 0 C0.33 0 0.66 0 1 0 C1 2.97 1 5.94 1 9 C-2.96 9 -6.92 9 -11 9 C-10.67 9.66 -10.34 10.32 -10 11 C-11.98 11 -13.96 11 -16 11 C-16 8.36 -16 5.72 -16 3 C-10.66666667 3 -5.33333333 3 0 3 C0 2.01 0 1.02 0 0 Z " fill="#7B7E7A" transform="translate(72,38)"/>
<path d="M0 0 C5.28 0 10.56 0 16 0 C16 2.31 16 4.62 16 7 C15.34773438 6.9278125 14.69546875 6.855625 14.0234375 6.78125 C9.3262944 6.28243834 4.73147344 5.87548754 0 6 C0.33 5.34 0.66 4.68 1 4 C0.67 2.68 0.34 1.36 0 0 Z " fill="#6D6B67" transform="translate(63,73)"/>
<path d="M0 0 C3.63 0 7.26 0 11 0 C11 4.62 11 9.24 11 14 C7.37 14 3.74 14 0 14 C-2.49026498 7.77433756 -2.49026498 6.22566244 0 0 Z M1 1 C1 2.65 1 4.3 1 6 C1.66 5.67 2.32 5.34 3 5 C2.67 4.34 2.34 3.68 2 3 C2.66 3 3.32 3 4 3 C3.67 5.31 3.34 7.62 3 10 C2.34 9.67 1.68 9.34 1 9 C1 10.32 1 11.64 1 13 C3.97 13 6.94 13 10 13 C10 9.04 10 5.08 10 1 C7.03 1 4.06 1 1 1 Z " fill="#4A4945" transform="translate(346,35)"/>
<path d="M0 0 C1.47906892 -0.02689216 2.95827483 -0.04634621 4.4375 -0.0625 C5.26121094 -0.07410156 6.08492187 -0.08570312 6.93359375 -0.09765625 C9 0 9 0 10 1 C10.04080783 2.99958364 10.04254356 5.00045254 10 7 C6.26562152 7.87867729 2.83225427 8.08912219 -1 8 C0.32 5.69 1.64 3.38 3 1 C2.01 0.67 1.02 0.34 0 0 Z " fill="#82847D" transform="translate(184,71)"/>
<path d="M0 0 C3.63 0 7.26 0 11 0 C11 4.62 11 9.24 11 14 C7.37 14 3.74 14 0 14 C-2.49026498 7.77433756 -2.49026498 6.22566244 0 0 Z M1 1 C1 4.96 1 8.92 1 13 C3.97 13 6.94 13 10 13 C10 9.04 10 5.08 10 1 C7.03 1 4.06 1 1 1 Z " fill="#818280" transform="translate(346,99)"/>
<path d="M0 0 C3.63 0 7.26 0 11 0 C11 4.62 11 9.24 11 14 C7.37 14 3.74 14 0 14 C-2.49026498 7.77433756 -2.49026498 6.22566244 0 0 Z M1 1 C1 4.96 1 8.92 1 13 C3.97 13 6.94 13 10 13 C10 9.04 10 5.08 10 1 C7.03 1 4.06 1 1 1 Z " fill="#818280" transform="translate(346,67)"/>
<path d="M0 0 C3.63 0 7.26 0 11 0 C11 4.62 11 9.24 11 14 C7.37 14 3.74 14 0 14 C-2.49026498 7.77433756 -2.49026498 6.22566244 0 0 Z M1 1 C1 4.96 1 8.92 1 13 C3.97 13 6.94 13 10 13 C10 9.04 10 5.08 10 1 C7.03 1 4.06 1 1 1 Z " fill="#818280" transform="translate(346,3)"/>
<path d="M0 0 C2.97 0 5.94 0 9 0 C9 1.98 9 3.96 9 6 C6.03 6 3.06 6 0 6 C0 4.02 0 2.04 0 0 Z " fill="#A0A1A0" transform="translate(347,100)"/>
<path d="M0 0 C2.97 0 5.94 0 9 0 C9 1.98 9 3.96 9 6 C6.03 6 3.06 6 0 6 C0 4.02 0 2.04 0 0 Z " fill="#A0A1A0" transform="translate(347,68)"/>
<path d="M0 0 C2.97 0 5.94 0 9 0 C9 1.98 9 3.96 9 6 C6.03 6 3.06 6 0 6 C0 4.02 0 2.04 0 0 Z " fill="#A0A1A0" transform="translate(347,4)"/>
<path d="M0 0 C1.64574566 -0.02688151 3.29161413 -0.04634123 4.9375 -0.0625 C5.85402344 -0.07410156 6.77054688 -0.08570313 7.71484375 -0.09765625 C10 0 10 0 11 1 C11.04080783 2.99958364 11.04254356 5.00045254 11 7 C9.68 7.33 8.36 7.66 7 8 C6.34 6.68 5.68 5.36 5 4 C4.34 5.32 3.68 6.64 3 8 C2.34 7.67 1.68 7.34 1 7 C1.99 5.02 2.98 3.04 4 1 C2.68 0.67 1.36 0.34 0 0 Z " fill="#444543" transform="translate(183,39)"/>
<path d="M0 0 C2.625 0.375 2.625 0.375 5 1 C5.625 3.375 5.625 3.375 6 6 C5.34 6.66 4.68 7.32 4 8 C1.375 7.625 1.375 7.625 -1 7 C-1.625 4.625 -1.625 4.625 -2 2 C-1.34 1.34 -0.68 0.68 0 0 Z " fill="#CBD3C9" transform="translate(31,70)"/>
<path d="M0 0 C0.33 0 0.66 0 1 0 C1 2.97 1 5.94 1 9 C-2.3 9 -5.6 9 -9 9 C-9 8.01 -9 7.02 -9 6 C-7.68 6 -6.36 6 -5 6 C-5 5.34 -5 4.68 -5 4 C-3.35 3.67 -1.7 3.34 0 3 C0 2.01 0 1.02 0 0 Z " fill="#6E6D67" transform="translate(72,38)"/>
<path d="M0 0 C1.23556641 0.01740234 1.23556641 0.01740234 2.49609375 0.03515625 C3.32238281 0.04417969 4.14867188 0.05320312 5 0.0625 C5.63808594 0.07410156 6.27617188 0.08570312 6.93359375 0.09765625 C5.94359375 0.42765625 4.95359375 0.75765625 3.93359375 1.09765625 C3.93359375 2.74765625 3.93359375 4.39765625 3.93359375 6.09765625 C1.95359375 6.09765625 -0.02640625 6.09765625 -2.06640625 6.09765625 C-2.44859392 4.44150968 -2.78035727 2.77308601 -3.06640625 1.09765625 C-2.06640625 0.09765625 -2.06640625 0.09765625 0 0 Z " fill="#777976" transform="translate(91.06640625,72.90234375)"/>
<path d="M0 0 C0.33 0.66 0.66 1.32 1 2 C2.98 2 4.96 2 7 2 C6.67 2.66 6.34 3.32 6 4 C6.39938767 6.09821215 6.39938767 6.09821215 7 8 C4.69 8 2.38 8 0 8 C-1.125 2.25 -1.125 2.25 0 0 Z " fill="#454644" transform="translate(253,39)"/>
<path d="M0 0 C2.97 0 5.94 0 9 0 C9.33 0.99 9.66 1.98 10 3 C8.68 3 7.36 3 6 3 C6 3.66 6 4.32 6 5 C4.02 5.33 2.04 5.66 0 6 C0.33 5.34 0.66 4.68 1 4 C0.67 2.68 0.34 1.36 0 0 Z " fill="#80837E" transform="translate(63,73)"/>
<path d="M0 0 C2.31 0 4.62 0 7 0 C7 2.64 7 5.28 7 8 C6.34 8 5.68 8 5 8 C5 6.68 5 5.36 5 4 C3.68 4 2.36 4 1 4 C0.67 5.32 0.34 6.64 0 8 C0 5.36 0 2.72 0 0 Z " fill="#74766F" transform="translate(48,71)"/>
<path d="M0 0 C0.33 0.99 0.66 1.98 1 3 C1.99 3.33 2.98 3.66 4 4 C3.01 4 2.02 4 1 4 C1 5.65 1 7.3 1 9 C-0.32 9 -1.64 9 -3 9 C-3.625 6.125 -3.625 6.125 -4 3 C-3.34 2.34 -2.68 1.68 -2 1 C-2 1.66 -2 2.32 -2 3 C-1.34 3 -0.68 3 0 3 C0 2.01 0 1.02 0 0 Z " fill="#80827A" transform="translate(127,70)"/>
<path d="M0 0 C0.33 0.99 0.66 1.98 1 3 C1.99 3.33 2.98 3.66 4 4 C3.01 4 2.02 4 1 4 C1 5.65 1 7.3 1 9 C-0.32 9 -1.64 9 -3 9 C-3.625 6.125 -3.625 6.125 -4 3 C-3.34 2.34 -2.68 1.68 -2 1 C-2 1.66 -2 2.32 -2 3 C-1.34 3 -0.68 3 0 3 C0 2.01 0 1.02 0 0 Z " fill="#80827A" transform="translate(97,38)"/>
<path d="M0 0 C0.33 0 0.66 0 1 0 C1 2.97 1 5.94 1 9 C-0.65 8.67 -2.3 8.34 -4 8 C-3.67 6.35 -3.34 4.7 -3 3 C-2.01 3 -1.02 3 0 3 C0 2.01 0 1.02 0 0 Z " fill="#797A6E" transform="translate(121,70)"/>
<path d="M0 0 C0.33 0 0.66 0 1 0 C1 2.97 1 5.94 1 9 C-0.65 8.67 -2.3 8.34 -4 8 C-3.67 6.35 -3.34 4.7 -3 3 C-2.01 3 -1.02 3 0 3 C0 2.01 0 1.02 0 0 Z " fill="#797A6E" transform="translate(91,38)"/>
<path d="M0 0 C1.32 0 2.64 0 4 0 C4 2.31 4 4.62 4 7 C1.525 6.01 1.525 6.01 -1 5 C-0.67 3.35 -0.34 1.7 0 0 Z " fill="#8F8E7F" transform="translate(190,9)"/>
<path d="M0 0 C1.65 0 3.3 0 5 0 C3.68 0.33 2.36 0.66 1 1 C1 1.66 1 2.32 1 3 C2.98 2.67 4.96 2.34 7 2 C7 3.98 7 5.96 7 8 C6.34 8 5.68 8 5 8 C5 6.68 5 5.36 5 4 C3.68 4 2.36 4 1 4 C0.67 5.32 0.34 6.64 0 8 C0 5.36 0 2.72 0 0 Z " fill="#888D82" transform="translate(48,39)"/>
<path d="M0 0 C0.66 0 1.32 0 2 0 C2.625 2.3125 2.625 2.3125 3 5 C2.01 6.485 2.01 6.485 1 8 C1 7.01 1 6.02 1 5 C-0.32 5 -1.64 5 -3 5 C-1.125 1.125 -1.125 1.125 0 0 Z " fill="#9EA69C" transform="translate(186,103)"/>
<path d="M0 0 C2.97 0 5.94 0 9 0 C8.67 0.99 8.34 1.98 8 3 C5.69 2.67 3.38 2.34 1 2 C1.33 2.99 1.66 3.98 2 5 C1.34 5 0.68 5 0 5 C0 3.35 0 1.7 0 0 Z " fill="#555450" transform="translate(347,36)"/>
<path d="M0 0 C1.423125 0.2784375 1.423125 0.2784375 2.875 0.5625 C5.89868793 1.28686632 5.89868793 1.28686632 8 0 C7.34 1.32 6.68 2.64 6 4 C4.02 4 2.04 4 0 4 C0 2.68 0 1.36 0 0 Z " fill="#555450" transform="translate(347,44)"/>
<path d="M0 0 C0.99 0.33 1.98 0.66 3 1 C3 2.65 3 4.3 3 6 C1.68 6 0.36 6 -1 6 C-1.042721 4.33388095 -1.04063832 2.66617115 -1 1 C-0.67 0.67 -0.34 0.34 0 0 Z " fill="#949079" transform="translate(226,105)"/>
<path d="M0 0 C0.99 0.33 1.98 0.66 3 1 C3 2.65 3 4.3 3 6 C1.68 6 0.36 6 -1 6 C-1.042721 4.33388095 -1.04063832 2.66617115 -1 1 C-0.67 0.67 -0.34 0.34 0 0 Z " fill="#949079" transform="translate(218,105)"/>
<path d="M0 0 C0.99 0.33 1.98 0.66 3 1 C3 2.65 3 4.3 3 6 C1.68 6 0.36 6 -1 6 C-1.042721 4.33388095 -1.04063832 2.66617115 -1 1 C-0.67 0.67 -0.34 0.34 0 0 Z " fill="#949079" transform="translate(226,73)"/>
<path d="M0 0 C0.99 0.33 1.98 0.66 3 1 C3 2.65 3 4.3 3 6 C1.68 6 0.36 6 -1 6 C-1.042721 4.33388095 -1.04063832 2.66617115 -1 1 C-0.67 0.67 -0.34 0.34 0 0 Z " fill="#949079" transform="translate(218,73)"/>
<path d="M0 0 C0.99 0.33 1.98 0.66 3 1 C3 2.65 3 4.3 3 6 C1.68 6 0.36 6 -1 6 C-1.042721 4.33388095 -1.04063832 2.66617115 -1 1 C-0.67 0.67 -0.34 0.34 0 0 Z " fill="#7A7869" transform="translate(84,73)"/>
<path d="M0 0 C0.99 0 1.98 0 3 0 C3 1.98 3 3.96 3 6 C2.01 6 1.02 6 0 6 C0 4.02 0 2.04 0 0 Z " fill="#636052" transform="translate(205,104)"/>
<path d="M0 0 C0.99 0 1.98 0 3 0 C3 1.98 3 3.96 3 6 C2.01 6 1.02 6 0 6 C0 4.02 0 2.04 0 0 Z " fill="#636052" transform="translate(199,104)"/>
<path d="M0 0 C0.99 0 1.98 0 3 0 C3 1.98 3 3.96 3 6 C2.01 6 1.02 6 0 6 C0 4.02 0 2.04 0 0 Z " fill="#636052" transform="translate(205,72)"/>
<path d="M0 0 C0.99 0 1.98 0 3 0 C3 1.98 3 3.96 3 6 C2.01 6 1.02 6 0 6 C0 4.02 0 2.04 0 0 Z " fill="#636052" transform="translate(199,72)"/>
<path d="M0 0 C0.99 0 1.98 0 3 0 C3 1.98 3 3.96 3 6 C2.01 6 1.02 6 0 6 C0 4.02 0 2.04 0 0 Z " fill="#3D3D3A" transform="translate(229,40)"/>
<path d="M0 0 C0.99 0 1.98 0 3 0 C3 1.98 3 3.96 3 6 C2.01 6 1.02 6 0 6 C0 4.02 0 2.04 0 0 Z " fill="#3D3D3A" transform="translate(223,40)"/>
<path d="M0 0 C0.99 0 1.98 0 3 0 C3 1.98 3 3.96 3 6 C2.01 6 1.02 6 0 6 C0 4.02 0 2.04 0 0 Z " fill="#3D3D3A" transform="translate(217,40)"/>
<path d="M0 0 C0.99 0 1.98 0 3 0 C3 1.98 3 3.96 3 6 C2.01 6 1.02 6 0 6 C0 4.02 0 2.04 0 0 Z " fill="#3D3D3A" transform="translate(211,40)"/>
<path d="M0 0 C0.99 0 1.98 0 3 0 C3 1.98 3 3.96 3 6 C2.01 6 1.02 6 0 6 C0 4.02 0 2.04 0 0 Z " fill="#3D3D3A" transform="translate(205,40)"/>
<path d="M0 0 C0.99 0 1.98 0 3 0 C3 1.98 3 3.96 3 6 C2.01 6 1.02 6 0 6 C0 4.02 0 2.04 0 0 Z " fill="#3D3D3A" transform="translate(199,40)"/>
<path d="M0 0 C0.66 0 1.32 0 2 0 C2 1.98 2 3.96 2 6 C1.01 6 0.02 6 -1 6 C-1.042721 4.33388095 -1.04063832 2.66617115 -1 1 C-0.67 0.67 -0.34 0.34 0 0 Z " fill="#464643" transform="translate(249,41)"/>
</svg>
