<?xml version="1.0" encoding="UTF-8"?>
<svg version="1.1" xmlns="http://www.w3.org/2000/svg" width="588" height="210">
<path d="M0 0 C194.04 0 388.08 0 588 0 C588 69.3 588 138.6 588 210 C393.96 210 199.92 210 0 210 C0 140.7 0 71.4 0 0 Z " fill="#FCFCFC" transform="translate(0,0)"/>
<path d="M0 0 C32.01 0 64.02 0 97 0 C97 6.6 97 13.2 97 20 C64.99 20 32.98 20 0 20 C0 13.4 0 6.8 0 0 Z " fill="#ED1C24" transform="translate(121,100)"/>
<path d="M0 0 C28.71 0 57.42 0 87 0 C87 3.3 87 6.6 87 10 C58.29 10 29.58 10 0 10 C0 6.7 0 3.4 0 0 Z " fill="#D3D3D3" transform="translate(126,105)"/>
<path d="M0 0 C0.66 0 1.32 0 2 0 C2 0.66 2 1.32 2 2 C2.99 2.33 3.98 2.66 5 3 C5.33 3.66 5.66 4.32 6 5 C6.33 4.01 6.66 3.02 7 2 C11 2 11 2 14 3 C13.67 4.32 13.34 5.64 13 7 C13.66 7 14.32 7 15 7 C15 4.69 15 2.38 15 0 C15.33 0 15.66 0 16 0 C16 2.97 16 5.94 16 9 C10.91211757 10.03066429 6.03951563 10.15027495 0.875 10.125 C0.07707031 10.12886719 -0.72085938 10.13273438 -1.54296875 10.13671875 C-2.31511719 10.13542969 -3.08726562 10.13414062 -3.8828125 10.1328125 C-4.57777832 10.13168457 -5.27274414 10.13055664 -5.98876953 10.12939453 C-8.09572476 9.99384145 -9.97162851 9.57230879 -12 9 C-12 7.02 -12 5.04 -12 3 C-8.01080675 1.8995329 -4.98919325 1.8995329 -1 3 C-0.67 2.01 -0.34 1.02 0 0 Z " fill="#A25858" transform="translate(198,143)"/>
<path d="M0 0 C3 0.5625 3 0.5625 5.375 2.75 C7.14232156 5.80882577 7.70698088 7.11596821 7 10.5625 C5.375 12.875 5.375 12.875 3 14.5625 C-0.6717087 15.17445145 -2.28813568 15.04956506 -5.375 12.9375 C-7.48706506 9.85063568 -7.61195145 8.2342087 -7 4.5625 C-4.88658096 1.47365679 -3.68753254 0.69141235 0 0 Z " fill="#B8CBD5" transform="translate(74,10.4375)"/>
<path d="M0 0 C3.3 0 6.6 0 10 0 C10 3.3 10 6.6 10 10 C-0.23 10 -10.46 10 -21 10 C-20.34 9.67 -19.68 9.34 -19 9 C-19.33 7.35 -19.66 5.7 -20 4 C-19.34 4 -18.68 4 -18 4 C-18 5.65 -18 7.3 -18 9 C-17.34 9 -16.68 9 -16 9 C-16 7.35 -16 5.7 -16 4 C-15.67 4 -15.34 4 -15 4 C-15 5.65 -15 7.3 -15 9 C-14.34 9 -13.68 9 -13 9 C-13 7.35 -13 5.7 -13 4 C-12.34 5.32 -11.68 6.64 -11 8 C-10.01 8 -9.02 8 -8 8 C-7.34 6.68 -6.68 5.36 -6 4 C-6 5.65 -6 7.3 -6 9 C-5.34 9 -4.68 9 -4 9 C-4 7.35 -4 5.7 -4 4 C-3.67 4 -3.34 4 -3 4 C-3 5.65 -3 7.3 -3 9 C-2.34 9 -1.68 9 -1 9 C-1.020625 7.88625 -1.04125 6.7725 -1.0625 5.625 C-1 2 -1 2 0 0 Z " fill="#FDFDFD" transform="translate(203,105)"/>
<path d="M0 0 C0.66 0.99 1.32 1.98 2 3 C2.598125 2.835 3.19625 2.67 3.8125 2.5 C6.88527968 1.79765036 9.84469164 2 13 2 C13 4.31 13 6.62 13 9 C7.63531778 10.12940678 2.4492652 10.08820753 -3 10 C-3.66 10 -4.32 10 -5 10 C-7 10 -9 10 -11 10 C-10.67 7.36 -10.34 4.72 -10 2 C-3.84765625 1.90234375 -3.84765625 1.90234375 -2 2 C-1.67 2.33 -1.34 2.66 -1 3 C-0.67 2.01 -0.34 1.02 0 0 Z " fill="#8C4C4C" transform="translate(225,143)"/>
<path d="M0 0 C1.65 0 3.3 0 5 0 C5.33 2.31 5.66 4.62 6 7 C6.66 7 7.32 7 8 7 C8.33 4.69 8.66 2.38 9 0 C10.65 0 12.3 0 14 0 C14 4.62 14 9.24 14 14 C13.01 14 12.02 14 11 14 C10.67 12.35 10.34 10.7 10 9 C9.67 10.65 9.34 12.3 9 14 C7.68 14 6.36 14 5 14 C4.67 12.35 4.34 10.7 4 9 C3.67 10.65 3.34 12.3 3 14 C2.01 14 1.02 14 0 14 C0 9.38 0 4.76 0 0 Z " fill="#B8CBD5" transform="translate(52,11)"/>
<path d="M0 0 C1.65 0 3.3 0 5 0 C5.33 2.31 5.66 4.62 6 7 C6.66 7 7.32 7 8 7 C8.33 4.69 8.66 2.38 9 0 C10.65 0 12.3 0 14 0 C14 4.62 14 9.24 14 14 C13.01 14 12.02 14 11 14 C10.67 12.35 10.34 10.7 10 9 C9.67 10.65 9.34 12.3 9 14 C7.68 14 6.36 14 5 14 C4.67 12.35 4.34 10.7 4 9 C3.67 10.65 3.34 12.3 3 14 C2.01 14 1.02 14 0 14 C0 9.38 0 4.76 0 0 Z " fill="#B8CBD5" transform="translate(24,11)"/>
<path d="M0 0 C1.32 0.99 2.64 1.98 4 3 C3.67 3.66 3.34 4.32 3 5 C3.66 5 4.32 5 5 5 C5 4.01 5 3.02 5 2 C6.32 2 7.64 2 9 2 C9 2.99 9 3.98 9 5 C9.66 4.01 10.32 3.02 11 2 C11.99 2.33 12.98 2.66 14 3 C13.01 3.495 13.01 3.495 12 4 C12.33 4.66 12.66 5.32 13 6 C14.32 5.34 15.64 4.68 17 4 C16.67 3.34 16.34 2.68 16 2 C17.32 2 18.64 2 20 2 C20 3.65 20 5.3 20 7 C20.66 7 21.32 7 22 7 C22 5.35 22 3.7 22 2 C23.32 2 24.64 2 26 2 C26 3.65 26 5.3 26 7 C25.67 5.68 25.34 4.36 25 3 C24.34 3 23.68 3 23 3 C23 4.98 23 6.96 23 9 C15.04406917 11.12158155 6.20432412 10 -2 10 C-1.34 6.7 -0.68 3.4 0 0 Z " fill="#793A3A" transform="translate(150,143)"/>
<path d="M0 0 C0.33 0.66 0.66 1.32 1 2 C1.77085938 2 2.54171875 2 3.3359375 2 C9.22395833 2 15.11197917 2 21 2 C21.33 3.65 21.66 5.3 22 7 C19.10765685 7.82638376 17.11257569 8 14 8 C14 7.01 14 6.02 14 5 C12.68 5 11.36 5 10 5 C10 5.66 10 6.32 10 7 C10.99 6.67 11.98 6.34 13 6 C13 6.66 13 7.32 13 8 C9.7 8.33 6.4 8.66 3 9 C3.33 8.01 3.66 7.02 4 6 C4.66 6.33 5.32 6.66 6 7 C6 5.68 6 4.36 6 3 C5.34 3 4.68 3 4 3 C3.67 3.66 3.34 4.32 3 5 C3 4.34 3 3.68 3 3 C2.34 3 1.68 3 1 3 C1 4.65 1 6.3 1 8 C-0.98 8 -2.96 8 -5 8 C-5.33 6.35 -5.66 4.7 -6 3 C-5.195625 2.87625 -4.39125 2.7525 -3.5625 2.625 C-2.716875 2.41875 -1.87125 2.2125 -1 2 C-0.67 1.34 -0.34 0.68 0 0 Z " fill="#3F3F3F" transform="translate(62,70)"/>
<path d="M0 0 C1.65 0 3.3 0 5 0 C5.33 1.32 5.66 2.64 6 4 C4.35 4.33 2.7 4.66 1 5 C1.33 5.99 1.66 6.98 2 8 C2.99 7.67 3.98 7.34 5 7 C5.66 7.33 6.32 7.66 7 8 C7.33 6.02 7.66 4.04 8 2 C8.5775 2.185625 9.155 2.37125 9.75 2.5625 C12.20692525 3.04023546 13.64397534 2.75729364 16 2 C15.01 2.495 15.01 2.495 14 3 C14.33 4.32 14.66 5.64 15 7 C15.99 6.01 16.98 5.02 18 4 C17.67 3.34 17.34 2.68 17 2 C18.32 2 19.64 2 21 2 C21 4.31 21 6.62 21 9 C16.34462644 9.92092281 11.85314567 10.12205997 7.125 10.0625 C6.09246094 10.05573242 6.09246094 10.05573242 5.0390625 10.04882812 C3.35933665 10.03716336 1.67965625 10.01923271 0 10 C-1.231394 6.30581799 -0.64432764 3.7943739 0 0 Z " fill="#9D4444" transform="translate(128,88)"/>
<path d="M0 0 C6.93 0 13.86 0 21 0 C20.67 2.97 20.34 5.94 20 9 C12.75 9 12.75 9 9 8 C9 6.68 9 5.36 9 4 C7.68 3.67 6.36 3.34 5 3 C5 2.34 5 1.68 5 1 C4.34 1 3.68 1 3 1 C3 1.66 3 2.32 3 3 C2.01 3 1.02 3 0 3 C0 2.01 0 1.02 0 0 Z " fill="#FAFAFA" transform="translate(182,105)"/>
<path d="M0 0 C0.721875 0.185625 1.44375 0.37125 2.1875 0.5625 C5.12826973 1.01995307 7.14103058 0.73516357 10 0 C9.01 0.33 8.02 0.66 7 1 C7 1.66 7 2.32 7 3 C8.65 3.33 10.3 3.66 12 4 C12 2.68 12 1.36 12 0 C13.32 0 14.64 0 16 0 C16.33 1.65 16.66 3.3 17 5 C17.66 5 18.32 5 19 5 C19 5.99 19 6.98 19 8 C17.35 8 15.7 8 14 8 C13.67 7.34 13.34 6.68 13 6 C12.34 6.66 11.68 7.32 11 8 C9 8 9 8 6.625 7.4375 C3.98904939 6.9981749 2.50112995 7.16629002 0 8 C-1.125 2.25 -1.125 2.25 0 0 Z " fill="#686868" transform="translate(152,180)"/>
<path d="M0 0 C3.3 0 6.6 0 10 0 C10 0.99 10 1.98 10 3 C7.69 3 5.38 3 3 3 C3 3.66 3 4.32 3 5 C5.31 5 7.62 5 10 5 C10 5.99 10 6.98 10 8 C7.69 8 5.38 8 3 8 C3 8.99 3 9.98 3 11 C5.31 11 7.62 11 10 11 C10 11.99 10 12.98 10 14 C6.7 14 3.4 14 0 14 C0 9.38 0 4.76 0 0 Z " fill="#B4C8D3" transform="translate(40,11)"/>
<path d="M0 0 C1.32 0.33 2.64 0.66 4 1 C3.01 1 2.02 1 1 1 C1 1.66 1 2.32 1 3 C2.65 3 4.3 3 6 3 C6 2.01 6 1.02 6 0 C7.32 0.33 8.64 0.66 10 1 C10 1.99 10 2.98 10 4 C10.66 2.68 11.32 1.36 12 0 C13.32 0.33 14.64 0.66 16 1 C16 2.98 16 4.96 16 7 C12.61118982 8.04271083 9.53109033 8.07512958 6 8 C5.01 8 4.02 8 3 8 C0.875 7.6875 0.875 7.6875 -1 7 C-2 4 -2 4 -1.0625 1.8125 C-0.5365625 0.9153125 -0.5365625 0.9153125 0 0 Z " fill="#6E6E6E" transform="translate(146,161)"/>
<path d="M0 0 C3.96 0 7.92 0 12 0 C11.67 0.66 11.34 1.32 11 2 C8.525 1.505 8.525 1.505 6 1 C6 3.64 6 6.28 6 9 C9.93075644 8.42547254 9.93075644 8.42547254 13 6 C12.67 7.32 12.34 8.64 12 10 C5.4 10 -1.2 10 -8 10 C-8 9.67 -8 9.34 -8 9 C-6.35 9 -4.7 9 -3 9 C-3.99 8.67 -4.98 8.34 -6 8 C-6 6.68 -6 5.36 -6 4 C-4.68 4 -3.36 4 -2 4 C-1.34 4.66 -0.68 5.32 0 6 C0 5.01 0 4.02 0 3 C0 2.01 0 1.02 0 0 Z " fill="#EFEFEF" transform="translate(157,105)"/>
<path d="M0 0 C1.67542976 0.28604898 3.34385343 0.61781233 5 1 C5.66 2.98 6.32 4.96 7 7 C7 5.35 7 3.7 7 2 C7.33 2 7.66 2 8 2 C8 3.65 8 5.3 8 7 C8.66 7 9.32 7 10 7 C10 5.35 10 3.7 10 2 C10.66 2 11.32 2 12 2 C12 4.31 12 6.62 12 9 C7.08641143 9.89337974 2.85592571 10.38740735 -2 9 C-1.125 1.125 -1.125 1.125 0 0 Z " fill="#973D3D" transform="translate(129,143)"/>
<path d="M0 0 C0 0.99 0 1.98 0 3 C0.99 3.33 1.98 3.66 3 4 C2.34 4 1.68 4 1 4 C0.67 4.99 0.34 5.98 0 7 C-0.66 7.66 -1.32 8.32 -2 9 C-2 7.35 -2 5.7 -2 4 C-3.32 4 -4.64 4 -6 4 C-6 5.32 -6 6.64 -6 8 C-5.01 7.67 -4.02 7.34 -3 7 C-3 7.66 -3 8.32 -3 9 C-5.31 9 -7.62 9 -10 9 C-10 7.35 -10 5.7 -10 4 C-10.66 4 -11.32 4 -12 4 C-12 5.65 -12 7.3 -12 9 C-12.33 9 -12.66 9 -13 9 C-13.3125 6.1875 -13.3125 6.1875 -13 3 C-9.04892571 -0.70413214 -5.10391767 -0.25952124 0 0 Z " fill="#7D7D7D" transform="translate(157,105)"/>
<path d="M0 0 C0.66 1.32 1.32 2.64 2 4 C2.33 3.67 2.66 3.34 3 3 C4.32594105 2.63837971 5.65938457 2.30271961 7 2 C7 3.98 7 5.96 7 8 C4.69 8 2.38 8 0 8 C0 6.35 0 4.7 0 3 C-0.66 3 -1.32 3 -2 3 C-2 4.65 -2 6.3 -2 8 C-4.31 8 -6.62 8 -9 8 C-10.125 4.25 -10.125 4.25 -9 2 C-6.03 2 -3.06 2 0 2 C0 1.34 0 0.68 0 0 Z " fill="#636363" transform="translate(200,88)"/>
<path d="M0 0 C0.99 1.485 0.99 1.485 2 3 C2.5775 2.814375 3.155 2.62875 3.75 2.4375 C6 2 6 2 7.9375 2.5 C10.53454154 3.12958583 12.41788653 2.55829481 15 2 C16 3 16 3 16.0625 5.5625 C16.041875 6.366875 16.02125 7.17125 16 8 C14.35 8 12.7 8 11 8 C11 7.01 11 6.02 11 5 C9.68 5 8.36 5 7 5 C7 5.66 7 6.32 7 7 C7.99 6.67 8.98 6.34 10 6 C10 6.66 10 7.32 10 8 C6.7 8 3.4 8 0 8 C0 5.36 0 2.72 0 0 Z " fill="#5A5A5A" transform="translate(46,161)"/>
<path d="M0 0 C0.33 0 0.66 0 1 0 C1 2.31 1 4.62 1 7 C1.66 7 2.32 7 3 7 C3 5.35 3 3.7 3 2 C3.33 2 3.66 2 4 2 C4 4.31 4 6.62 4 9 C-1.28 8.67 -6.56 8.34 -12 8 C-11.67 6.68 -11.34 5.36 -11 4 C-11.33 3.34 -11.66 2.68 -12 2 C-10.68 2 -9.36 2 -8 2 C-8 2.99 -8 3.98 -8 5 C-7.01 4.67 -6.02 4.34 -5 4 C-5.33 3.34 -5.66 2.68 -6 2 C-4.02 2 -2.04 2 0 2 C0 1.34 0 0.68 0 0 Z " fill="#5E5E5E" transform="translate(296,143)"/>
<path d="M0 0 C2.56695636 0.39491636 4.67123994 0.83561997 7 2 C8.32 2 9.64 2 11 2 C11 3.65 11 5.3 11 7 C6.68662408 8.1898968 3.35345729 7.94128806 -1 7 C-1.04254356 5.00045254 -1.04080783 2.99958364 -1 1 C-0.67 0.67 -0.34 0.34 0 0 Z " fill="#A5A5A5" transform="translate(29,125)"/>
<path d="M0 0 C2.56695636 0.39491636 4.67123994 0.83561997 7 2 C8.32 2 9.64 2 11 2 C11 3.65 11 5.3 11 7 C6.68662408 8.1898968 3.35345729 7.94128806 -1 7 C-1.04254356 5.00045254 -1.04080783 2.99958364 -1 1 C-0.67 0.67 -0.34 0.34 0 0 Z " fill="#A5A5A5" transform="translate(29,70)"/>
<path d="M0 0 C0.66 0 1.32 0 2 0 C2 0.66 2 1.32 2 2 C4.31 2 6.62 2 9 2 C8.67 3.98 8.34 5.96 8 8 C5.36 8 2.72 8 0 8 C0 7.01 0 6.02 0 5 C-1.32 5 -2.64 5 -4 5 C-4 5.66 -4 6.32 -4 7 C-3.01 6.67 -2.02 6.34 -1 6 C-1 6.66 -1 7.32 -1 8 C-2.65 7.67 -4.3 7.34 -6 7 C-5.67 5.35 -5.34 3.7 -5 2 C-3.02 2.495 -3.02 2.495 -1 3 C-0.67 2.01 -0.34 1.02 0 0 Z " fill="#737373" transform="translate(151,198)"/>
<path d="M0 0 C1.32 0 2.64 0 4 0 C4 0.66 4 1.32 4 2 C5.98 2 7.96 2 10 2 C10.33 3.32 10.66 4.64 11 6 C11.66 4.68 12.32 3.36 13 2 C13 3.98 13 5.96 13 8 C8.71 8 4.42 8 0 8 C0 5.36 0 2.72 0 0 Z " fill="#858585" transform="translate(331,143)"/>
<path d="M0 0 C11.25 0 11.25 0 16 1 C16 2.65 16 4.3 16 6 C14.35 6 12.7 6 11 6 C11 5.01 11 4.02 11 3 C9.68 3 8.36 3 7 3 C7 3.66 7 4.32 7 5 C7.99 4.67 8.98 4.34 10 4 C10 4.66 10 5.32 10 6 C6.7 6 3.4 6 0 6 C0.33 5.34 0.66 4.68 1 4 C0.60061233 1.90178785 0.60061233 1.90178785 0 0 Z " fill="#595959" transform="translate(213,72)"/>
<path d="M0 0 C3.625 0.375 3.625 0.375 7 1 C7.625 2.8125 7.625 2.8125 8 5 C6 8 6 8 2.4375 8.75 C0.7359375 8.87375 0.7359375 8.87375 -1 9 C-2 8 -2 8 -2.1875 5.0625 C-2 2 -2 2 0 0 Z " fill="#5D5D5D" transform="translate(130,125)"/>
<path d="M0 0 C1.65 0 3.3 0 5 0 C5.33 0.99 5.66 1.98 6 3 C7.65 2.67 9.3 2.34 11 2 C11.33 2.99 11.66 3.98 12 5 C11.67 5.33 11.34 5.66 11 6 C11.33 6.66 11.66 7.32 12 8 C11.030625 7.814375 10.06125 7.62875 9.0625 7.4375 C8.051875 7.293125 7.04125 7.14875 6 7 C5.67 7.33 5.34 7.66 5 8 C3.33382885 8.04063832 1.66611905 8.042721 0 8 C0 5.36 0 2.72 0 0 Z " fill="#7F7F7F" transform="translate(163,106)"/>
<path d="M0 0 C1.1446875 0.2475 1.1446875 0.2475 2.3125 0.5 C5.00856207 1.00159294 6.44020291 0.8532657 9 0 C9.33 0.99 9.66 1.98 10 3 C9.67 3.33 9.34 3.66 9 4 C9 4.99 9 5.98 9 7 C5.23866661 8.00302224 1.88566706 8 -2 8 C-1.125 1.125 -1.125 1.125 0 0 Z " fill="#6A3131" transform="translate(151,90)"/>
<path d="M0 0 C2.31 0 4.62 0 7 0 C7 0.33 7 0.66 7 1 C5.35 1 3.7 1 2 1 C2.33 2.65 2.66 4.3 3 6 C5.86724686 5.42655063 6.8614515 5.1385485 9 3 C10 6 10 6 9 9 C10.65 9 12.3 9 14 9 C14 7.35 14 5.7 14 4 C14.33 4 14.66 4 15 4 C15 5.65 15 7.3 15 9 C15.66 9.33 16.32 9.66 17 10 C11.39 10 5.78 10 0 10 C0 6.7 0 3.4 0 0 Z " fill="#F7F7F7" transform="translate(126,105)"/>
<path d="M0 0 C3.5 0.25 3.5 0.25 5.5 2.25 C5.125 4.875 5.125 4.875 4.5 7.25 C1.60765685 8.07638376 -0.38742431 8.25 -3.5 8.25 C-3.5 6.6 -3.5 4.95 -3.5 3.25 C-4.16 2.92 -4.82 2.59 -5.5 2.25 C-3.5 0.25 -3.5 0.25 0 0 Z " fill="#939393" transform="translate(133.5,197.75)"/>
<path d="M0 0 C0.99 0.66 1.98 1.32 3 2 C4.32 2 5.64 2 7 2 C7 4.31 7 6.62 7 9 C3.7 8.67 0.4 8.34 -3 8 C-3.33 6.02 -3.66 4.04 -4 2 C-3.01 2 -2.02 2 -1 2 C-0.67 1.34 -0.34 0.68 0 0 Z " fill="#797979" transform="translate(169,52)"/>
<path d="M0 0 C0.721875 0.185625 1.44375 0.37125 2.1875 0.5625 C5.12826973 1.01995307 7.14103058 0.73516357 10 0 C9.01 0.33 8.02 0.66 7 1 C7 1.66 7 2.32 7 3 C7.99 3.33 8.98 3.66 10 4 C9.67 5.32 9.34 6.64 9 8 C5.7 8 2.4 8 -1 8 C0.32 5.69 1.64 3.38 3 1 C1.68 1.33 0.36 1.66 -1 2 C-0.67 1.34 -0.34 0.68 0 0 Z " fill="#707070" transform="translate(194,198)"/>
<path d="M0 0 C0.33 0.66 0.66 1.32 1 2 C2.65 2 4.3 2 6 2 C5.01 2.495 5.01 2.495 4 3 C4 4.65 4 6.3 4 8 C1.03 8 -1.94 8 -5 8 C-5.33 6.35 -5.66 4.7 -6 3 C-5.195625 2.87625 -4.39125 2.7525 -3.5625 2.625 C-2.716875 2.41875 -1.87125 2.2125 -1 2 C-0.67 1.34 -0.34 0.68 0 0 Z " fill="#747474" transform="translate(41,143)"/>
<path d="M0 0 C4.29 0 8.58 0 13 0 C12.01 0.495 12.01 0.495 11 1 C11 2.65 11 4.3 11 6 C7.7 6 4.4 6 1 6 C0.67 4.02 0.34 2.04 0 0 Z " fill="#818181" transform="translate(75,182)"/>
<path d="M0 0 C0.66 0 1.32 0 2 0 C2 0.99 2 1.98 2 3 C2.99 3 3.98 3 5 3 C5.33 2.34 5.66 1.68 6 1 C5.34 0.67 4.68 0.34 4 0 C5.32 0.33 6.64 0.66 8 1 C8 2.98 8 4.96 8 7 C5.10765685 7.82638376 3.11257569 8 0 8 C0 7.34 0 6.68 0 6 C-0.99 6 -1.98 6 -3 6 C-1.125 1.125 -1.125 1.125 0 0 Z " fill="#818181" transform="translate(166,161)"/>
<path d="M0 0 C0.66 0 1.32 0 2 0 C2.66 1.32 3.32 2.64 4 4 C4.99 2.68 5.98 1.36 7 0 C7 0.66 7 1.32 7 2 C8.65 2 10.3 2 12 2 C12.33 3.65 12.66 5.3 13 7 C11.1875 7.6875 11.1875 7.6875 9 8 C7.25 6.5625 7.25 6.5625 6 5 C5.67 5.99 5.34 6.98 5 8 C4.01 7.67 3.02 7.34 2 7 C0.8125 3.4375 0.8125 3.4375 0 0 Z " fill="#6A6A6A" transform="translate(27,180)"/>
<path d="M0 0 C0.99 0 1.98 0 3 0 C3.33 1.98 3.66 3.96 4 6 C5.32 6.33 6.64 6.66 8 7 C8 6.01 8 5.02 8 4 C7.01 4 6.02 4 5 4 C5 2.68 5 1.36 5 0 C6.32 0.33 7.64 0.66 9 1 C8.01 1 7.02 1 6 1 C6 1.66 6 2.32 6 3 C6.99 3 7.98 3 9 3 C9 4.65 9 6.3 9 8 C7.52093108 8.02689216 6.04172517 8.04634621 4.5625 8.0625 C3.32693359 8.07990234 3.32693359 8.07990234 2.06640625 8.09765625 C0 8 0 8 -1 7 C-1.125 4 -1.125 4 -1 1 C-0.67 0.67 -0.34 0.34 0 0 Z " fill="#5C5C5C" transform="translate(129,161)"/>
<path d="M0 0 C0 2.31 0 4.62 0 7 C-5.41538462 8.23076923 -5.41538462 8.23076923 -8.375 7.0625 C-8.91125 6.711875 -9.4475 6.36125 -10 6 C-9.67 5.34 -9.34 4.68 -9 4 C-8.34 4.33 -7.68 4.66 -7 5 C-6.87625 4.360625 -6.7525 3.72125 -6.625 3.0625 C-6.41875 2.381875 -6.2125 1.70125 -6 1 C-4 0 -4 0 0 0 Z " fill="#8E4949" transform="translate(238,145)"/>
<path d="M0 0 C0.33 0.66 0.66 1.32 1 2 C1.99 2 2.98 2 4 2 C4.33 3.32 4.66 4.64 5 6 C5.66 4.68 6.32 3.36 7 2 C7 3.98 7 5.96 7 8 C3.7 8 0.4 8 -3 8 C-3 7.01 -3 6.02 -3 5 C-3.66 4.67 -4.32 4.34 -5 4 C-5.33 3.34 -5.66 2.68 -6 2 C-4.35 2 -2.7 2 -1 2 C-0.67 1.34 -0.34 0.68 0 0 Z " fill="#3C3C3C" transform="translate(42,198)"/>
<path d="M0 0 C2.625 0.375 2.625 0.375 5 1 C5.625 3.375 5.625 3.375 6 6 C5.34 6.66 4.68 7.32 4 8 C1.375 7.625 1.375 7.625 -1 7 C-1.625 4.625 -1.625 4.625 -2 2 C-1.34 1.34 -0.68 0.68 0 0 Z " fill="#FCFDFD" transform="translate(72,14)"/>
<path d="M0 0 C2.64 0 5.28 0 8 0 C7.01 0.33 6.02 0.66 5 1 C5 1.66 5 2.32 5 3 C5.99 3.33 6.98 3.66 8 4 C7.67 5.32 7.34 6.64 7 8 C5.68 8 4.36 8 3 8 C3 7.34 3 6.68 3 6 C2.34 6 1.68 6 1 6 C0.67 6.66 0.34 7.32 0 8 C0 7.34 0 6.68 0 6 C-0.99 5.67 -1.98 5.34 -3 5 C-2.01 5 -1.02 5 0 5 C0 3.35 0 1.7 0 0 Z " fill="#616161" transform="translate(178,161)"/>
<path d="M0 0 C2.97 0 5.94 0 9 0 C9 2.31 9 4.62 9 7 C8.071875 6.649375 7.14375 6.29875 6.1875 5.9375 C3.0197047 4.67617372 3.0197047 4.67617372 0 6 C0 4.02 0 2.04 0 0 Z " fill="#717171" transform="translate(345,145)"/>
<path d="M0 0 C0.9075 0.165 1.815 0.33 2.75 0.5 C6.11087503 1.10137146 6.11087503 1.10137146 10 1 C10 2.98 10 4.96 10 7 C8.68 7.33 7.36 7.66 6 8 C5.34 7.01 4.68 6.02 4 5 C3.01 5 2.02 5 1 5 C1.66 3.68 2.32 2.36 3 1 C1.68 1.33 0.36 1.66 -1 2 C-0.67 1.34 -0.34 0.68 0 0 Z " fill="#6A6A6A" transform="translate(182,198)"/>
<path d="M0 0 C2.31 0 4.62 0 7 0 C7.33 0.99 7.66 1.98 8 3 C6.68 3 5.36 3 4 3 C4 3.66 4 4.32 4 5 C4.99 4.67 5.98 4.34 7 4 C6.67 4.99 6.34 5.98 6 7 C1.25 8.125 1.25 8.125 -1 7 C-0.67 4.69 -0.34 2.38 0 0 Z " fill="#864D4D" transform="translate(239,145)"/>
<path d="M0 0 C1.67542976 0.28604898 3.34385343 0.61781233 5 1 C5.625 3.375 5.625 3.375 6 6 C5.34 6.66 4.68 7.32 4 8 C1.375 7.625 1.375 7.625 -1 7 C-1.04254356 5.00045254 -1.04080783 2.99958364 -1 1 C-0.67 0.67 -0.34 0.34 0 0 Z " fill="#8D8D8D" transform="translate(129,52)"/>
<path d="M0 0 C1.66611905 -0.042721 3.33382885 -0.04063832 5 0 C6 1 6 1 6.125 4 C6 7 6 7 5 8 C3.33382885 8.04063832 1.66611905 8.042721 0 8 C0 5.36 0 2.72 0 0 Z " fill="#131313" transform="translate(28,198)"/>
<path d="M0 0 C0.33 0 0.66 0 1 0 C1 2.64 1 5.28 1 8 C-2.3 8 -5.6 8 -9 8 C-10 4 -10 4 -9 2 C-6 3 -6 3 -3 4 C-3 3.34 -3 2.68 -3 2 C-2.34 2.33 -1.68 2.66 -1 3 C-1.33 4.32 -1.66 5.64 -2 7 C-1.34 7 -0.68 7 0 7 C0 4.69 0 2.38 0 0 Z " fill="#4A4A4A" transform="translate(188,88)"/>
<path d="M0 0 C0.7425 0.185625 1.485 0.37125 2.25 0.5625 C4.94990963 0.99203108 6.44631077 0.85122974 9 0 C9 1.65 9 3.3 9 5 C5.30458414 5.95024979 2.69541586 5.95024979 -1 5 C-0.67 3.35 -0.34 1.7 0 0 Z " fill="#8C8A8A" transform="translate(187,145)"/>
<path d="M0 0 C2.31 0 4.62 0 7 0 C7.33 1.65 7.66 3.3 8 5 C5.10765685 5.82638376 3.11257569 6 0 6 C-1.125 2.25 -1.125 2.25 0 0 Z " fill="#707070" transform="translate(76,72)"/>
<path d="M0 0 C1.65 0 3.3 0 5 0 C5.38063221 2.3260857 5.71269945 4.66055264 6 7 C5 8 5 8 2.4375 8.0625 C1.633125 8.041875 0.82875 8.02125 0 8 C0 5.36 0 2.72 0 0 Z " fill="#6A6A6A" transform="translate(28,143)"/>
<path d="M0 0 C0.66 0 1.32 0 2 0 C2 2.64 2 5.28 2 8 C0.02 8 -1.96 8 -4 8 C-4.33 6.35 -4.66 4.7 -5 3 C-4.360625 2.87625 -3.72125 2.7525 -3.0625 2.625 C-2.0415625 2.315625 -2.0415625 2.315625 -1 2 C-0.67 1.34 -0.34 0.68 0 0 Z " fill="#727272" transform="translate(162,52)"/>
<path d="M0 0 C2.05078125 0.03255208 4.1015625 0.06510417 6.15234375 0.09765625 C5.16234375 0.59265625 5.16234375 0.59265625 4.15234375 1.09765625 C4.15234375 2.74765625 4.15234375 4.39765625 4.15234375 6.09765625 C2.17234375 6.09765625 0.19234375 6.09765625 -1.84765625 6.09765625 C-2.22984392 4.44150968 -2.56160727 2.77308601 -2.84765625 1.09765625 C-1.84765625 0.09765625 -1.84765625 0.09765625 0 0 Z " fill="#626262" transform="translate(191.84765625,53.90234375)"/>
<path d="M0 0 C1.32 0.33 2.64 0.66 4 1 C4 2.98 4 4.96 4 7 C0.98968256 7.93423645 0.13349732 8.04449911 -3 7 C-2.1654738 4.49642139 -1.20628008 2.33214148 0 0 Z " fill="#6C6C6C" transform="translate(158,161)"/>
<path d="M0 0 C0.66 0.33 1.32 0.66 2 1 C2.625 3.5625 2.625 3.5625 3 6 C3 4.35 3 2.7 3 1 C3.33 1 3.66 1 4 1 C4 2.65 4 4.3 4 6 C4.66 6 5.32 6 6 6 C6 4.35 6 2.7 6 1 C6.66 1 7.32 1 8 1 C8 3.31 8 5.62 8 8 C6.35 8.33 4.7 8.66 3 9 C3 8.34 3 7.68 3 7 C1.68 6.67 0.36 6.34 -1 6 C-0.67 4.02 -0.34 2.04 0 0 Z " fill="#6D3636" transform="translate(133,144)"/>
<path d="M0 0 C0 1.32 0 2.64 0 4 C-0.99 4.495 -0.99 4.495 -2 5 C-1.34 5.66 -0.68 6.32 0 7 C-1.65 7 -3.3 7 -5 7 C-5.33 4.69 -5.66 2.38 -6 0 C-3.50907189 -1.24546405 -2.58919267 -0.7767578 0 0 Z " fill="#969696" transform="translate(150,181)"/>
<path d="M0 0 C0.33 0.66 0.66 1.32 1 2 C3.52733235 2.65555119 3.52733235 2.65555119 6 3 C6 4.65 6 6.3 6 8 C6.66 8.33 7.32 8.66 8 9 C2.25 9.125 2.25 9.125 0 8 C-1.27536232 2.55072464 -1.27536232 2.55072464 0 0 Z " fill="#AAAAAA" transform="translate(141,106)"/>
<path d="M0 0 C2.0625 0.4375 2.0625 0.4375 4 1 C5.125 5.75 5.125 5.75 4 8 C2.02 8 0.04 8 -2 8 C-1.125 1.125 -1.125 1.125 0 0 Z " fill="#985D5D" transform="translate(163,90)"/>
<path d="M0 0 C0.33 0 0.66 0 1 0 C1.33 1.65 1.66 3.3 2 5 C2.66 4.67 3.32 4.34 4 4 C3.67 3.34 3.34 2.68 3 2 C4.32 2 5.64 2 7 2 C7 3.98 7 5.96 7 8 C4.36 8 1.72 8 -1 8 C-1.125 2.25 -1.125 2.25 0 0 Z " fill="#4D4D4D" transform="translate(48,70)"/>
<path d="M0 0 C2.0625 0.4375 2.0625 0.4375 4 1 C4 2.98 4 4.96 4 7 C2.0625 7.5625 2.0625 7.5625 0 8 C-1 7 -1 7 -1.125 4 C-1 1 -1 1 0 0 Z " fill="#757575" transform="translate(176,180)"/>
<path d="M0 0 C0.33 1.32 0.66 2.64 1 4 C1.66 2.68 2.32 1.36 3 0 C3 1.98 3 3.96 3 6 C-0.3 6 -3.6 6 -7 6 C-7 4.35 -7 2.7 -7 1 C-6.67 2.32 -6.34 3.64 -6 5 C-5.34 5 -4.68 5 -4 5 C-4 3.68 -4 2.36 -4 1 C-2 0 -2 0 0 0 Z " fill="#444444" transform="translate(341,145)"/>
<path d="M0 0 C1.98 0 3.96 0 6 0 C5.67 2.64 5.34 5.28 5 8 C3.35 8 1.7 8 0 8 C0 5.36 0 2.72 0 0 Z " fill="#565656" transform="translate(197,106)"/>
<path d="M0 0 C0.99 0.33 1.98 0.66 3 1 C2.34 4.3 1.68 7.6 1 11 C-0.32 11 -1.64 11 -3 11 C-2.67 8.69 -2.34 6.38 -2 4 C-1.34 4 -0.68 4 0 4 C0 2.68 0 1.36 0 0 Z " fill="#BFD0DA" transform="translate(60,14)"/>
<path d="M0 0 C0.99 0.33 1.98 0.66 3 1 C2.34 4.3 1.68 7.6 1 11 C-0.32 11 -1.64 11 -3 11 C-2.67 8.69 -2.34 6.38 -2 4 C-1.34 4 -0.68 4 0 4 C0 2.68 0 1.36 0 0 Z " fill="#BFD0DA" transform="translate(32,14)"/>
<path d="M0 0 C1.32 0.99 2.64 1.98 4 3 C3.67 3.66 3.34 4.32 3 5 C3.99 5.99 4.98 6.98 6 8 C5.67 8.66 5.34 9.32 5 10 C2.66666667 10 0.33333333 10 -2 10 C-1.34 6.7 -0.68 3.4 0 0 Z " fill="#904646" transform="translate(150,143)"/>
<path d="M0 0 C1.32 0 2.64 0 4 0 C4.33 2.64 4.66 5.28 5 8 C3.02 8 1.04 8 -1 8 C-0.67 5.36 -0.34 2.72 0 0 Z " fill="#BA8080" transform="translate(215,145)"/>
<path d="M0 0 C0.33 0.66 0.66 1.32 1 2 C3.02463255 2.65213292 3.02463255 2.65213292 5 3 C4.67 4.65 4.34 6.3 4 8 C2.35 8 0.7 8 -1 8 C-1.125 2.25 -1.125 2.25 0 0 Z " fill="#6B6B6B" transform="translate(48,125)"/>
<path d="M0 0 C1.32 0 2.64 0 4 0 C4 1.65 4 3.3 4 5 C4.66 5 5.32 5 6 5 C6 3.35 6 1.7 6 0 C7.32 0 8.64 0 10 0 C10 1.65 10 3.3 10 5 C9.67 3.68 9.34 2.36 9 1 C8.34 1 7.68 1 7 1 C7 2.98 7 4.96 7 7 C5.68 7.33 4.36 7.66 3 8 C3 6.35 3 4.7 3 3 C2.34 2.67 1.68 2.34 1 2 C0.67 1.34 0.34 0.68 0 0 Z " fill="#4D1F1F" transform="translate(166,145)"/>
<path d="M0 0 C1.32 0 2.64 0 4 0 C4.33 2.31 4.66 4.62 5 7 C2.03 6.505 2.03 6.505 -1 6 C-1.042721 4.33388095 -1.04063832 2.66617115 -1 1 C-0.67 0.67 -0.34 0.34 0 0 Z " fill="#7B5656" transform="translate(181,145)"/>
<path d="M0 0 C1.32 0 2.64 0 4 0 C4 2.31 4 4.62 4 7 C2.35 7.33 0.7 7.66 -1 8 C-1.33 7.01 -1.66 6.02 -2 5 C-1.01 4.01 -0.02 3.02 1 2 C0.67 1.34 0.34 0.68 0 0 Z " fill="#7E3B3B" transform="translate(145,90)"/>
<path d="M0 0 C1.65 0 3.3 0 5 0 C5.33 1.32 5.66 2.64 6 4 C4.35 4.33 2.7 4.66 1 5 C1 5.99 1 6.98 1 8 C0.34 7.67 -0.32 7.34 -1 7 C-0.67 4.69 -0.34 2.38 0 0 Z " fill="#5E5555" transform="translate(128,88)"/>
<path d="M0 0 C1.65 0 3.3 0 5 0 C5.33 1.32 5.66 2.64 6 4 C4.35 4.33 2.7 4.66 1 5 C0.67 5.99 0.34 6.98 0 8 C0 5.36 0 2.72 0 0 Z " fill="#585858" transform="translate(128,106)"/>
<path d="M0 0 C0.66 0 1.32 0 2 0 C2.66 0.99 3.32 1.98 4 3 C4.66 2.01 5.32 1.02 6 0 C6 2.64 6 5.28 6 8 C5.01 7.34 4.02 6.68 3 6 C2.67 6.66 2.34 7.32 2 8 C1.34 8 0.68 8 0 8 C0 5.36 0 2.72 0 0 Z " fill="#464646" transform="translate(171,88)"/>
<path d="M0 0 C1.67542976 0.28604898 3.34385343 0.61781233 5 1 C5 2.65 5 4.3 5 6 C3.35 6 1.7 6 0 6 C-0.38218767 4.34385343 -0.71395102 2.67542976 -1 1 C-0.67 0.67 -0.34 0.34 0 0 Z " fill="#878787" transform="translate(57,72)"/>
<path d="M0 0 C2.33333333 0 4.66666667 0 7 0 C7 1.65 7 3.3 7 5 C4.92446352 5.5534764 3.15634036 6 1 6 C0.67 4.02 0.34 2.04 0 0 Z " fill="#5F5F5F" transform="translate(35,163)"/>
<path d="M0 0 C1.32 0 2.64 0 4 0 C4 1.65 4 3.3 4 5 C0.98968256 5.93423645 0.13349732 6.04449911 -3 5 C-3 4.34 -3 3.68 -3 3 C-2.34 3 -1.68 3 -1 3 C-0.67 2.01 -0.34 1.02 0 0 Z " fill="#737373" transform="translate(36,127)"/>
<path d="M0 0 C0.66 0 1.32 0 2 0 C2 0.66 2 1.32 2 2 C2.99 2.33 3.98 2.66 5 3 C5 4.65 5 6.3 5 8 C3.35 8 1.7 8 0 8 C0 6.35 0 4.7 0 3 C-0.66 2.67 -1.32 2.34 -2 2 C-1.34 2 -0.68 2 0 2 C0 1.34 0 0.68 0 0 Z " fill="#5A5A5A" transform="translate(185,106)"/>
<path d="M0 0 C0.33 0 0.66 0 1 0 C1 2.64 1 5.28 1 8 C-0.65 7.67 -2.3 7.34 -4 7 C-3.67 5.35 -3.34 3.7 -3 2 C-2.01 2 -1.02 2 0 2 C0 1.34 0 0.68 0 0 Z " fill="#565656" transform="translate(218,88)"/>
<path d="M0 0 C1.67542976 0.28604898 3.34385343 0.61781233 5 1 C5 2.65 5 4.3 5 6 C3.35 6 1.7 6 0 6 C0 5.01 0 4.02 0 3 C-1.65 3 -3.3 3 -5 3 C-4.360625 2.690625 -3.72125 2.38125 -3.0625 2.0625 C-1.06389179 1.1654837 -1.06389179 1.1654837 0 0 Z " fill="#4B4B4B" transform="translate(224,72)"/>
<path d="M0 0 C1.32 0 2.64 0 4 0 C4 1.65 4 3.3 4 5 C0.98968256 5.93423645 0.13349732 6.04449911 -3 5 C-3 4.34 -3 3.68 -3 3 C-2.34 3 -1.68 3 -1 3 C-0.67 2.01 -0.34 1.02 0 0 Z " fill="#737373" transform="translate(36,72)"/>
<path d="M0 0 C1.32 0 2.64 0 4 0 C4 0.99 4 1.98 4 3 C4.99 3 5.98 3 7 3 C7.33 3.99 7.66 4.98 8 6 C5.36 6 2.72 6 0 6 C0.185625 5.38125 0.37125 4.7625 0.5625 4.125 C1.23686176 1.95839822 1.23686176 1.95839822 0 0 Z " fill="#4A4A4A" transform="translate(284,145)"/>
<path d="M0 0 C1.9375 0.625 1.9375 0.625 4 2 C4.75 5.125 4.75 5.125 5 8 C3.02 8 1.04 8 -1 8 C-1.125 2.25 -1.125 2.25 0 0 Z " fill="#4D4D4D" transform="translate(54,143)"/>
<path d="M0 0 C0.33 0.66 0.66 1.32 1 2 C2.65 2 4.3 2 6 2 C5.01 2.495 5.01 2.495 4 3 C4 4.65 4 6.3 4 8 C2.68 8 1.36 8 0 8 C-1.125 2.25 -1.125 2.25 0 0 Z " fill="#505050" transform="translate(41,143)"/>
<path d="M0 0 C2.475 0.495 2.475 0.495 5 1 C4.67 2.65 4.34 4.3 4 6 C2.68 6.33 1.36 6.66 0 7 C0 4.69 0 2.38 0 0 Z " fill="#5B5B5B" transform="translate(136,54)"/>
<path d="M0 0 C1.98 0.495 1.98 0.495 4 1 C4.33 2.65 4.66 4.3 5 6 C4.01 6.495 4.01 6.495 3 7 C3 6.34 3 5.68 3 5 C1.68 4.67 0.36 4.34 -1 4 C-0.67 2.68 -0.34 1.36 0 0 Z " fill="#6B6B6B" transform="translate(134,198)"/>
<path d="M0 0 C0.99 1.485 0.99 1.485 2 3 C2.99 2.67 3.98 2.34 5 2 C5 3.98 5 5.96 5 8 C3.35 8 1.7 8 0 8 C0 5.36 0 2.72 0 0 Z " fill="#6F6F6F" transform="translate(46,161)"/>
<path d="M0 0 C0.66 0 1.32 0 2 0 C2 0.66 2 1.32 2 2 C2.99 2.33 3.98 2.66 5 3 C5 4.65 5 6.3 5 8 C3.35 8 1.7 8 0 8 C0 5.36 0 2.72 0 0 Z " fill="#5A5A5A" transform="translate(157,70)"/>
<path d="M0 0 C2.1519437 3.22791555 2.20086443 4.28400809 2 8 C0.35 8 -1.3 8 -3 8 C-3.33 6.02 -3.66 4.04 -4 2 C-3.01 2 -2.02 2 -1 2 C-0.67 1.34 -0.34 0.68 0 0 Z " fill="#4C4C4C" transform="translate(169,52)"/>
<path d="M0 0 C0.99 0 1.98 0 3 0 C3.33 1.65 3.66 3.3 4 5 C4.66 5 5.32 5 6 5 C6 5.99 6 6.98 6 8 C4.35 8 2.7 8 1 8 C0.67 5.36 0.34 2.72 0 0 Z " fill="#4C4C4C" transform="translate(165,180)"/>
<path d="M0 0 C3 0 3 0 6 1 C5.01 1.495 5.01 1.495 4 2 C4 2.66 4 3.32 4 4 C4.66 4.66 5.32 5.32 6 6 C5.67 6.66 5.34 7.32 5 8 C3.35 7.67 1.7 7.34 0 7 C0 4.69 0 2.38 0 0 Z " fill="#722626" transform="translate(142,145)"/>
<path d="M0 0 C2.31 0 4.62 0 7 0 C7.33 0.99 7.66 1.98 8 3 C7.01 3 6.02 3 5 3 C5 3.66 5 4.32 5 5 C3.68 5.33 2.36 5.66 1 6 C0.67 4.02 0.34 2.04 0 0 Z " fill="#494949" transform="translate(75,182)"/>
<path d="M0 0 C0.33 0 0.66 0 1 0 C1 1.65 1 3.3 1 5 C-6.42857143 7.42857143 -6.42857143 7.42857143 -10 6 C-9.34 5.01 -8.68 4.02 -8 3 C-7.071875 3.2784375 -7.071875 3.2784375 -6.125 3.5625 C-3.95839822 4.23686176 -3.95839822 4.23686176 -2 3 C-1.34 3.33 -0.68 3.66 0 4 C0 2.68 0 1.36 0 0 Z " fill="#952323" transform="translate(196,146)"/>
<path d="M0 0 C1.98 0.495 1.98 0.495 4 1 C3.67 2.65 3.34 4.3 3 6 C1.68 5.67 0.36 5.34 -1 5 C-0.67 3.35 -0.34 1.7 0 0 Z " fill="#6B6B6B" transform="translate(55,127)"/>
<path d="M0 0 C2.31 0.33 4.62 0.66 7 1 C7.625 2.875 7.625 2.875 8 5 C7.34 5.66 6.68 6.32 6 7 C5.67 6.01 5.34 5.02 5 4 C1.99152582 2.77479736 1.99152582 2.77479736 -1 2 C-0.67 1.34 -0.34 0.68 0 0 Z " fill="#585858" transform="translate(130,125)"/>
<path d="M0 0 C1.98 0.495 1.98 0.495 4 1 C3.67 2.65 3.34 4.3 3 6 C1.68 5.67 0.36 5.34 -1 5 C-0.67 3.35 -0.34 1.7 0 0 Z " fill="#626262" transform="translate(192,108)"/>
<path d="M0 0 C1.32 0.66 2.64 1.32 4 2 C3.01 2.495 3.01 2.495 2 3 C1.67 3.99 1.34 4.98 1 6 C-0.98 6.33 -2.96 6.66 -5 7 C-5 5.68 -5 4.36 -5 3 C-4.360625 2.87625 -3.72125 2.7525 -3.0625 2.625 C-2.0415625 2.315625 -2.0415625 2.315625 -1 2 C-0.67 1.34 -0.34 0.68 0 0 Z " fill="#F0E5E5" transform="translate(134,90)"/>
<path d="M0 0 C1.98 0.495 1.98 0.495 4 1 C3.67 2.65 3.34 4.3 3 6 C1.68 5.67 0.36 5.34 -1 5 C-0.67 3.35 -0.34 1.7 0 0 Z " fill="#676767" transform="translate(92,72)"/>
<path d="M0 0 C1.98 0.495 1.98 0.495 4 1 C3.67 2.65 3.34 4.3 3 6 C1.68 5.67 0.36 5.34 -1 5 C-0.67 3.35 -0.34 1.7 0 0 Z " fill="#676767" transform="translate(86,72)"/>
<path d="M0 0 C0.99 0 1.98 0 3 0 C3.33 1.32 3.66 2.64 4 4 C4.66 2.68 5.32 1.36 6 0 C6 1.98 6 3.96 6 6 C3.03 5.505 3.03 5.505 0 5 C0 3.35 0 1.7 0 0 Z " fill="#606060" transform="translate(43,200)"/>
<path d="M0 0 C0.66 0 1.32 0 2 0 C3.125 5.75 3.125 5.75 2 8 C1.34 8 0.68 8 0 8 C0 7.34 0 6.68 0 6 C-0.99 5.67 -1.98 5.34 -3 5 C-1.625 2.5 -1.625 2.5 0 0 Z " fill="#535353" transform="translate(136,180)"/>
<path d="M0 0 C1.65 0 3.3 0 5 0 C4.01 0.33 3.02 0.66 2 1 C2 1.66 2 2.32 2 3 C2.99 3.33 3.98 3.66 5 4 C4.01 4 3.02 4 2 4 C2 4.99 2 5.98 2 7 C2.99 7.33 3.98 7.66 5 8 C3.35 8 1.7 8 0 8 C0 5.36 0 2.72 0 0 Z " fill="#3A3A3A" transform="translate(163,106)"/>
<path d="M0 0 C1.98 0.495 1.98 0.495 4 1 C4 2.98 4 4.96 4 7 C2.35 7 0.7 7 -1 7 C-0.67 4.69 -0.34 2.38 0 0 Z " fill="#A76262" transform="translate(150,91)"/>
<path d="M0 0 C1.65 0 3.3 0 5 0 C4.01 0.33 3.02 0.66 2 1 C2 1.66 2 2.32 2 3 C2.99 3.33 3.98 3.66 5 4 C4.01 4 3.02 4 2 4 C2 4.99 2 5.98 2 7 C2.99 7.33 3.98 7.66 5 8 C3.35 8 1.7 8 0 8 C0 5.36 0 2.72 0 0 Z " fill="#363636" transform="translate(223,88)"/>
<path d="M0 0 C1.65 0 3.3 0 5 0 C4.01 0.33 3.02 0.66 2 1 C2 1.66 2 2.32 2 3 C2.99 3.33 3.98 3.66 5 4 C4.01 4 3.02 4 2 4 C2 4.99 2 5.98 2 7 C2.99 7.33 3.98 7.66 5 8 C3.35 8 1.7 8 0 8 C0 5.36 0 2.72 0 0 Z " fill="#363636" transform="translate(201,52)"/>
<path d="M0 0 C1.98 0.495 1.98 0.495 4 1 C4 2.65 4 4.3 4 6 C2.35 6 0.7 6 -1 6 C-0.67 4.02 -0.34 2.04 0 0 Z " fill="#505050" transform="translate(168,200)"/>
<path d="M0 0 C0.33 0 0.66 0 1 0 C1 2.97 1 5.94 1 9 C-0.65 8.01 -2.3 7.02 -4 6 C-3.67 5.01 -3.34 4.02 -3 3 C-2.01 3 -1.02 3 0 3 C0 2.01 0 1.02 0 0 Z " fill="#C2B9B9" transform="translate(149,143)"/>
<path d="M0 0 C1.98 0.495 1.98 0.495 4 1 C3.67 2.65 3.34 4.3 3 6 C1.68 5.67 0.36 5.34 -1 5 C-0.67 3.35 -0.34 1.7 0 0 Z " fill="#4A4A4A" transform="translate(63,127)"/>
<path d="M0 0 C1.98 0.495 1.98 0.495 4 1 C4 2.65 4 4.3 4 6 C2.35 6 0.7 6 -1 6 C-0.67 4.02 -0.34 2.04 0 0 Z " fill="#505050" transform="translate(136,108)"/>
<path d="M0 0 C1.98 0.495 1.98 0.495 4 1 C4 2.65 4 4.3 4 6 C2.35 6 0.7 6 -1 6 C-0.67 4.02 -0.34 2.04 0 0 Z " fill="#505050" transform="translate(36,90)"/>
<path d="M0 0 C1.98 0.495 1.98 0.495 4 1 C4 2.65 4 4.3 4 6 C2.35 6 0.7 6 -1 6 C-0.67 4.02 -0.34 2.04 0 0 Z " fill="#505050" transform="translate(36,54)"/>
<path d="M0 0 C0.99 0 1.98 0 3 0 C3 1.98 3 3.96 3 6 C2.01 6.495 2.01 6.495 1 7 C0.34 6.67 -0.32 6.34 -1 6 C-0.67 4.02 -0.34 2.04 0 0 Z " fill="#9F9F9F" transform="translate(152,180)"/>
<path d="M0 0 C0.99 0 1.98 0 3 0 C3.33 1.32 3.66 2.64 4 4 C2.02 4.99 2.02 4.99 0 6 C-0.38218767 4.34385343 -0.71395102 2.67542976 -1 1 C-0.67 0.67 -0.34 0.34 0 0 Z " fill="#EFEFEF" transform="translate(130,144)"/>
<path d="M0 0 C1.98 0.495 1.98 0.495 4 1 C4 1.66 4 2.32 4 3 C3.01 3 2.02 3 1 3 C1 3.66 1 4.32 1 5 C1.99 4.67 2.98 4.34 4 4 C4 4.66 4 5.32 4 6 C2.35 5.67 0.7 5.34 -1 5 C-0.67 3.35 -0.34 1.7 0 0 Z " fill="#434343" transform="translate(146,200)"/>
<path d="M0 0 C1.32 0.33 2.64 0.66 4 1 C3.67 2.65 3.34 4.3 3 6 C2.01 6 1.02 6 0 6 C0 4.02 0 2.04 0 0 Z " fill="#F5F5F5" transform="translate(29,199)"/>
<path d="M0 0 C1.98 0.495 1.98 0.495 4 1 C4 1.66 4 2.32 4 3 C3.01 3 2.02 3 1 3 C1 3.66 1 4.32 1 5 C1.99 4.67 2.98 4.34 4 4 C4 4.66 4 5.32 4 6 C2.35 5.67 0.7 5.34 -1 5 C-0.67 3.35 -0.34 1.7 0 0 Z " fill="#434343" transform="translate(52,163)"/>
<path d="M0 0 C-0.33 1.32 -0.66 2.64 -1 4 C-2.8125 4.6875 -2.8125 4.6875 -5 5 C-6.75 3.5625 -6.75 3.5625 -8 2 C-5.09399739 0.74335022 -3.20395416 0 0 0 Z " fill="#AE4545" transform="translate(169,148)"/>
<path d="M0 0 C2.31 0 4.62 0 7 0 C6.34 0.66 5.68 1.32 5 2 C4.30251417 3.31747324 3.63040043 4.64914193 3 6 C3 5.01 3 4.02 3 3 C2.01 3.33 1.02 3.66 0 4 C0 2.68 0 1.36 0 0 Z " fill="#E0DCDC" transform="translate(162,146)"/>
<path d="M0 0 C1.32 0 2.64 0 4 0 C4 1.98 4 3.96 4 6 C2.35 5.67 0.7 5.34 -1 5 C-1 4.34 -1 3.68 -1 3 C-0.34 2.67 0.32 2.34 1 2 C0.67 1.34 0.34 0.68 0 0 Z " fill="#444444" transform="translate(202,72)"/>
<path d="M0 0 C1.32 0 2.64 0 4 0 C4 1.98 4 3.96 4 6 C2.35 5.67 0.7 5.34 -1 5 C-1 4.34 -1 3.68 -1 3 C-0.34 2.67 0.32 2.34 1 2 C0.67 1.34 0.34 0.68 0 0 Z " fill="#444444" transform="translate(138,72)"/>
<path d="M0 0 C1.98 0.495 1.98 0.495 4 1 C4 1.66 4 2.32 4 3 C3.01 3 2.02 3 1 3 C1 3.66 1 4.32 1 5 C1.99 4.67 2.98 4.34 4 4 C4 4.66 4 5.32 4 6 C2.35 5.67 0.7 5.34 -1 5 C-0.67 3.35 -0.34 1.7 0 0 Z " fill="#434343" transform="translate(178,54)"/>
<path d="M0 0 C1.98 0.495 1.98 0.495 4 1 C4 1.66 4 2.32 4 3 C3.67 3.33 3.34 3.66 3 4 C3.33 4.66 3.66 5.32 4 6 C2.35 5.67 0.7 5.34 -1 5 C-0.67 3.35 -0.34 1.7 0 0 Z " fill="#343434" transform="translate(73,163)"/>
<path d="M0 0 C0.33 0 0.66 0 1 0 C1.33 2.64 1.66 5.28 2 8 C1.34 8 0.68 8 0 8 C0 7.34 0 6.68 0 6 C-0.99 6 -1.98 6 -3 6 C-1.125 1.125 -1.125 1.125 0 0 Z " fill="#505050" transform="translate(166,161)"/>
<path d="M0 0 C1.98 0.495 1.98 0.495 4 1 C4 1.66 4 2.32 4 3 C3.67 3.33 3.34 3.66 3 4 C3.33 4.66 3.66 5.32 4 6 C2.35 5.67 0.7 5.34 -1 5 C-0.67 3.35 -0.34 1.7 0 0 Z " fill="#343434" transform="translate(259,145)"/>
<path d="M0 0 C1.98 0.495 1.98 0.495 4 1 C4 1.66 4 2.32 4 3 C3.67 3.33 3.34 3.66 3 4 C3.33 4.66 3.66 5.32 4 6 C2.35 5.67 0.7 5.34 -1 5 C-0.67 3.35 -0.34 1.7 0 0 Z " fill="#393939" transform="translate(48,145)"/>
<path d="M0 0 C1.32 0 2.64 0 4 0 C4 0.99 4 1.98 4 3 C3.01 3 2.02 3 1 3 C1 3.66 1 4.32 1 5 C1.99 4.67 2.98 4.34 4 4 C4 4.66 4 5.32 4 6 C2.68 6 1.36 6 0 6 C-1.125 2.25 -1.125 2.25 0 0 Z " fill="#414141" transform="translate(191,90)"/>
<path d="M0 0 C1.98 0.495 1.98 0.495 4 1 C4 1.66 4 2.32 4 3 C3.67 3.33 3.34 3.66 3 4 C3.33 4.66 3.66 5.32 4 6 C2.35 5.67 0.7 5.34 -1 5 C-0.67 3.35 -0.34 1.7 0 0 Z " fill="#343434" transform="translate(170,72)"/>
<path d="M0 0 C1.98 0.495 1.98 0.495 4 1 C4 1.66 4 2.32 4 3 C3.67 3.33 3.34 3.66 3 4 C3.33 4.66 3.66 5.32 4 6 C2.35 5.67 0.7 5.34 -1 5 C-0.67 3.35 -0.34 1.7 0 0 Z " fill="#393939" transform="translate(164,72)"/>
<path d="M0 0 C2.475 0.495 2.475 0.495 5 1 C5 2.65 5 4.3 5 6 C3.68 5.67 2.36 5.34 1 5 C0.67 3.35 0.34 1.7 0 0 Z " fill="#A2A2A2" transform="translate(34,200)"/>
<path d="M0 0 C-0.3125 1.875 -0.3125 1.875 -1 4 C-1.99 4.66 -2.98 5.32 -4 6 C-4.33 4.35 -4.66 2.7 -5 1 C-2 0 -2 0 0 0 Z " fill="#ECECEC" transform="translate(197,199)"/>
<path d="M0 0 C1.32 0 2.64 0 4 0 C4 2.31 4 4.62 4 7 C2.35 7.33 0.7 7.66 -1 8 C-0.67 7.01 -0.34 6.02 0 5 C0.66 4.67 1.32 4.34 2 4 C2 3.34 2 2.68 2 2 C1.34 1.34 0.68 0.68 0 0 Z " fill="#2F2F2F" transform="translate(44,182)"/>
<path d="M0 0 C1.65 0 3.3 0 5 0 C5 1.32 5 2.64 5 4 C4.34 4 3.68 4 3 4 C2.34 4.66 1.68 5.32 1 6 C0 5 0 5 -0.0625 2.4375 C-0.041875 1.633125 -0.02125 0.82875 0 0 Z " fill="#C7C7C7" transform="translate(63,73)"/>
<path d="M0 0 C1.32 0 2.64 0 4 0 C4 1.98 4 3.96 4 6 C2.68 6 1.36 6 0 6 C0.185625 5.38125 0.37125 4.7625 0.5625 4.125 C1.23686176 1.95839822 1.23686176 1.95839822 0 0 Z " fill="#3B3B3B" transform="translate(152,54)"/>
<path d="M0 0 C0.66 0 1.32 0 2 0 C2 2.64 2 5.28 2 8 C0.68 7.67 -0.64 7.34 -2 7 C-1.34 7 -0.68 7 0 7 C0 5.68 0 4.36 0 3 C-0.66 2.67 -1.32 2.34 -2 2 C-1.34 2 -0.68 2 0 2 C0 1.34 0 0.68 0 0 Z " fill="#4B4B4B" transform="translate(145,52)"/>
<path d="M0 0 C1.32 0.33 2.64 0.66 4 1 C3.67 2.98 3.34 4.96 3 7 C2.34 7 1.68 7 1 7 C0.67 4.69 0.34 2.38 0 0 Z " fill="#868686" transform="translate(152,161)"/>
<path d="M0 0 C0.99 0 1.98 0 3 0 C3 1.65 3 3.3 3 5 C1.68 5.33 0.36 5.66 -1 6 C-1.042721 4.33388095 -1.04063832 2.66617115 -1 1 C-0.67 0.67 -0.34 0.34 0 0 Z " fill="#9B9696" transform="translate(228,145)"/>
<path d="M0 0 C0.66 0 1.32 0 2 0 C2 1.32 2 2.64 2 4 C2.99 4.33 3.98 4.66 5 5 C4.67 5.66 4.34 6.32 4 7 C2.68 7 1.36 7 0 7 C0 4.69 0 2.38 0 0 Z " fill="#F2A3A3" transform="translate(173,146)"/>
<path d="M0 0 C0.66 0 1.32 0 2 0 C2 0.66 2 1.32 2 2 C2.66 2.33 3.32 2.66 4 3 C3.34 3 2.68 3 2 3 C2 4.65 2 6.3 2 8 C1.34 8 0.68 8 0 8 C0 5.36 0 2.72 0 0 Z " fill="#575151" transform="translate(198,143)"/>
<path d="M0 0 C0.33 0 0.66 0 1 0 C1 1.65 1 3.3 1 5 C-0.65 5 -2.3 5 -4 5 C-4 3.68 -4 2.36 -4 1 C-2.68 1.33 -1.36 1.66 0 2 C0 1.34 0 0.68 0 0 Z " fill="#D3D3D3" transform="translate(135,127)"/>
<path d="M0 0 C0.33 0.66 0.66 1.32 1 2 C3.01669827 3.13350534 3.01669827 3.13350534 5 4 C1.25 7 1.25 7 -1 7 C-0.67 4.69 -0.34 2.38 0 0 Z " fill="#D1D1D1" transform="translate(33,88)"/>
</svg>
